<?xml version="1.0" encoding="utf-8"?>
<!-- Generator: Adobe Illustrator 15.0.2, SVG Export Plug-In . SVG Version: 6.00 Build 0)  -->
<!DOCTYPE svg PUBLIC "-//W3C//DTD SVG 1.1//EN" "http://www.w3.org/Graphics/SVG/1.1/DTD/svg11.dtd">
<svg version="1.1" id="Layer_1" xmlns="http://www.w3.org/2000/svg" xmlns:xlink="http://www.w3.org/1999/xlink" x="0px" y="0px"
	 width="1208px" height="1170px" viewBox="0 0 1208 1170" style="enable-background:new 0 0 1208 1170;" xml:space="preserve">
<style type="text/css">
<![CDATA[
	.st0{fill:#AA8AE0;}
	.st1{fill:#49176E;}
	.st2{fill:#E9537F;}
	.st3{fill:#E9CFF1;}
	.st4{fill:#B63760;}
	.st5{fill:#B6871E;}
	.st6{fill:#B7B3B8;}
	.st7{fill:#ED9D8D;}
	.st8{fill:#F4E6F8;}
	.st9{fill:url(#SVGID_1_);}
	.st10{fill:url(#SVGID_2_);}
	.st11{fill:url(#SVGID_3_);}
	.st12{fill:url(#SVGID_4_);}
	.st13{fill:url(#SVGID_5_);}
	.st14{fill:url(#SVGID_6_);}
	.st15{fill:url(#SVGID_7_);}
	.st16{fill:url(#SVGID_8_);}
	.st17{fill:url(#SVGID_9_);}
	.st18{fill:#FCEEEC;}
	.st19{fill:#FFE0E3;}
	.st20{fill:#FFFFFF;}
	.st21{fill:#CE92DD;}
	.st22{fill:#321266;}
	.st23{fill:#331D60;}
	.st24{fill:#341355;}
	.st25{fill:#39147E;}
	.st26{fill:url(#SVGID_10_);}
	.st27{fill:url(#SVGID_11_);}
	.st28{fill:url(#SVGID_12_);}
	.st29{fill:url(#SVGID_13_);}
	.st30{fill:url(#SVGID_14_);}
	.st31{fill:url(#SVGID_15_);}
	.st32{fill:url(#SVGID_16_);}
	.st33{fill:url(#SVGID_17_);}
	.st34{fill:url(#SVGID_18_);}
	.st35{fill:url(#SVGID_19_);}
	.st36{fill:url(#SVGID_20_);}
	.st37{fill:url(#SVGID_21_);}
	.st38{fill:url(#SVGID_22_);}
	.st39{fill:#3E1C7A;}
	.st40{fill:#A8385A;}
]]>
</style>
<rect x="0" class="st20" width="1208" height="1170"/>
<g>
	<path class="st8" d="M1116.6,479.9C1053.2,769.7,904.1,821.3,642,821.3c-262.2,0-435.8-115.5-479.2-306.6
		c-21.2-93.4,36.1-177.9,131.4-244.1C408,191.7,547.5,159.8,684.7,178c92.6,12.3,180.5,41.9,235.8,110.9
		c41.7,52,49.2,114.5,52.2,178.4c20.2-76.9,11.3-159-43-220.9C858.6,165.3,739.4,138,625,141.4c5.6-1,11.3-2,16.9-3
		C1023.7,75,1157,295.7,1116.6,479.9z"/>
	<g>
		<path class="st3" d="M664.7,148.6l18.1-8c3.6-1.6,7.6-2.1,11.4-1.5l19.6,3.1c6.1,1,10.8-5.2,8.3-10.8l-8-18.1
			c-1.6-3.6-2.1-7.6-1.5-11.4l3.1-19.6c1-6.1-5.2-10.8-10.8-8.3l-18.1,8c-3.6,1.6-7.6,2.1-11.4,1.5l-19.6-3.1
			c-6.1-1-10.8,5.2-8.3,10.8l8,18.1c1.6,3.6,2.1,7.6,1.5,11.4l-3.1,19.6C652.9,146.3,659,151,664.7,148.6z"/>
		<path class="st21" d="M810.2,275.7l-8.4,29.5l-29,9.8c-3.5,1.2-4.2,5.9-1.1,8l25.4,17.1l0.3,30.6c0,3.7,4.4,5.8,7.3,3.5l24.1-18.9
			l29.2,9.2c3.6,1.1,6.9-2.3,5.6-5.9l-10.5-28.8l17.7-25c2.2-3.1-0.1-7.3-3.8-7.1l-30.6,1.1l-18.3-24.6
			C815.9,271.3,811.2,272.1,810.2,275.7z"/>
		<path class="st20" d="M338.2,493l-15.4,9.8l-16.8-7.1c-2.1-0.9-4.2,1-3.6,3.2l4.6,17.6L295,530.3c-1.5,1.7-0.4,4.3,1.9,4.4
			l18.2,1.1l9.4,15.6c1.2,1.9,4,1.7,4.8-0.4l6.7-17l17.8-4.1c2.2-0.5,2.8-3.3,1.1-4.7l-14.1-11.6l1.6-18.2
			C342.5,493.3,340,491.8,338.2,493z"/>
		<path class="st3" d="M251.7,113.1l1.4,14.3l-11,9.2c-1.3,1.1-0.8,3.3,0.9,3.7l14,3.1l5.4,13.3c0.7,1.6,2.9,1.8,3.8,0.3l7.3-12.3
			l14.3-1c1.7-0.1,2.6-2.2,1.4-3.5l-9.5-10.7l3.5-13.9c0.4-1.7-1.3-3.1-2.9-2.4l-13.1,5.7l-12.1-7.6
			C253.5,110.2,251.6,111.4,251.7,113.1z"/>
		<path class="st20" d="M1047.4,345.5l-12.9,11.4l-16.7-4.2c-2-0.5-3.8,1.5-2.9,3.5l6.8,15.8l-9.2,14.6c-1.1,1.8,0.3,4.1,2.4,3.9
			l17.1-1.6l11,13.2c1.3,1.6,4,1,4.4-1.1l3.8-16.8l16-6.4c2-0.8,2.2-3.5,0.4-4.5l-14.8-8.8l-1.2-17.2
			C1051.4,345.2,1049,344.1,1047.4,345.5z"/>
		<path class="st21" d="M138.8,472.7l20-10.8c4-2.1,8.4-3.1,12.9-2.7l22.6,1.7c7,0.5,11.9-6.9,8.5-13.1l-10.8-20
			c-2.1-4-3.1-8.4-2.7-12.9l1.7-22.6c0.5-7-6.9-11.9-13.1-8.5l-20,10.8c-4,2.1-8.4,3.1-12.9,2.7l-22.6-1.7c-7-0.5-11.9,6.9-8.5,13.1
			l10.8,20c2.1,4,3.1,8.4,2.7,12.9l-1.7,22.6C125.2,471.2,132.6,476.1,138.8,472.7z"/>
		<path class="st20" d="M466.2,277.7l8.4-4.5c1.7-0.9,3.5-1.3,5.4-1.1l9.5,0.7c2.9,0.2,5-2.9,3.6-5.5l-4.5-8.4
			c-0.9-1.7-1.3-3.5-1.2-5.4l0.7-9.5c0.2-2.9-2.9-5-5.5-3.6l-8.4,4.5c-1.7,0.9-3.5,1.3-5.4,1.1l-9.5-0.7c-2.9-0.2-5,2.9-3.6,5.5
			l4.5,8.4c0.9,1.7,1.3,3.5,1.1,5.4l-0.7,9.5C460.5,277.1,463.6,279.1,466.2,277.7z"/>
		<path class="st3" d="M899.7,546.4l6.7-3.6c1.3-0.7,2.8-1,4.3-0.9l7.6,0.6c2.4,0.2,4-2.3,2.9-4.4l-3.6-6.7c-0.7-1.3-1-2.8-0.9-4.3
			l0.6-7.6c0.2-2.4-2.3-4-4.4-2.9l-6.7,3.6c-1.3,0.7-2.8,1-4.3,0.9l-7.6-0.6c-2.4-0.2-4,2.3-2.9,4.4l3.6,6.7c0.7,1.3,1,2.8,0.9,4.3
			l-0.6,7.6C895.1,545.9,897.6,547.5,899.7,546.4z"/>
	</g>
	<g>
		<path class="st3" d="M910.3,664.4l-0.4,0.5L796,812.2c140.9-20.3,235.6-80.2,292-232.3l-29.5,0.2l-158.3,1l30.6,56.8l-10,12.9
			L910.3,664.4z"/>
		<g>
			<path class="st3" d="M206.7,622.7c-0.2,0.1-0.5,0.2-0.7,0.3c45.6,75.7,119.1,132.2,215.9,165.1l27.4-72.3
				c2.8-7.4-0.9-15.7-8.3-18.5l-64.8-24.5l1.9-4.9l-13.7-5.2l3.3-8.8c1.8-4.8-0.6-10.2-5.4-12l-1.5-0.6c3-8.3-0.4-20.5,7.7-33
				c0.8,0.3,1.7,0.6,2.5,0.9c0,0,3.5-5,7.7-10.3c2.4,1,4.8,1.9,7.2,2.6l52.4-53l51.8-52.4c0,0,0.5-0.2,1.4-0.5c0,0,0,0,0.1,0
				c0.1,0,0.2-0.1,0.3-0.1c0.1,0,0.2-0.1,0.2-0.1c0.1,0,0.2-0.1,0.3-0.1c0.1,0,0.2-0.1,0.3-0.1c0.1-0.1,0.2-0.1,0.3-0.1
				c0.1,0,0.1-0.1,0.2-0.1c0.3-0.1,0.5-0.2,0.8-0.3c0.1,0,0.2-0.1,0.3-0.1c0.1,0,0.3-0.1,0.4-0.1c0.1-0.1,0.3-0.1,0.5-0.2
				c0.1-0.1,0.2-0.1,0.4-0.2c0.1-0.1,0.3-0.1,0.5-0.2c0.1-0.1,0.3-0.1,0.4-0.2c0.2-0.1,0.5-0.2,0.7-0.3c0.1-0.1,0.2-0.1,0.3-0.1
				c0.3-0.1,0.5-0.2,0.8-0.3c0.2-0.1,0.3-0.1,0.5-0.2c0.2-0.1,0.3-0.1,0.5-0.2c0.2-0.1,0.4-0.1,0.6-0.2c0.2-0.1,0.4-0.1,0.5-0.2
				c0.2-0.1,0.4-0.1,0.5-0.2c0.2-0.1,0.4-0.2,0.7-0.3c0.3-0.1,0.5-0.2,0.8-0.3c0.3-0.1,0.6-0.2,0.8-0.3c0.2-0.1,0.4-0.2,0.6-0.3
				c0.2-0.1,0.4-0.2,0.6-0.3c0.2-0.1,0.4-0.2,0.6-0.3c0.2-0.1,0.5-0.2,0.7-0.3c0.2-0.1,0.4-0.2,0.6-0.3c0.2-0.1,0.5-0.2,0.7-0.3
				c0.2-0.1,0.4-0.2,0.6-0.3c0.4-0.2,0.9-0.4,1.3-0.5c0.2-0.1,0.4-0.2,0.6-0.2c0.3-0.1,0.6-0.2,0.9-0.4c0.2-0.1,0.4-0.2,0.6-0.3
				c0.3-0.1,0.6-0.2,0.8-0.4c0.2-0.1,0.4-0.2,0.7-0.3c0.3-0.1,0.6-0.2,0.8-0.4c0.2-0.1,0.4-0.2,0.7-0.3c0.4-0.2,0.8-0.4,1.3-0.6
				c0.2-0.1,0.4-0.2,0.6-0.2c-0.2,1-0.3,2.1-0.5,3.1c0,0.1,0,0.1,0,0.2c-0.1,1-0.3,2-0.4,3.1c0,0.1,0,0.2,0,0.3c-0.1,1-0.3,2-0.4,3
				c0,0.1,0,0.2,0,0.3c-0.1,1-0.3,2-0.4,3c0,0.1,0,0.2,0,0.2c-0.6,4.3-1,8.5-1.5,12.6c0,0,0,0.1,0,0.1c-0.1,0.9-0.2,1.9-0.3,2.8
				c0,0.2,0,0.4-0.1,0.6c-0.1,0.8-0.2,1.6-0.2,2.3c0,0.2,0,0.5-0.1,0.7c-0.1,0.7-0.1,1.4-0.2,2.1c0,0.3,0,0.5-0.1,0.8
				c-0.1,0.7-0.1,1.3-0.2,2c0,0.3,0,0.5-0.1,0.8c-0.1,0.7-0.1,1.3-0.1,2c0,0.2,0,0.5-0.1,0.7c0,0.7-0.1,1.4-0.1,2.1
				c0,0.2,0,0.4,0,0.6c-0.1,1.8-0.2,3.4-0.3,5.1c0,0.1,0,0.3,0,0.4c0,0.7-0.1,1.3-0.1,2c0,0.2,0,0.5,0,0.7c0,0.5,0,1,0,1.5
				c0,0.3,0,0.6,0,0.8c0,0.4,0,0.9,0,1.4c0,0.3,0,0.6,0,0.8c0,0.4,0,0.8,0,1.2v2c0,0.3,0,0.5,0,0.8c0,0.4,0,0.8,0,1.1
				c0,0.2,0,0.5,0,0.7c0,0.4,0,0.8,0,1.2c0,0.2,0,0.4,0,0.5c0,0.6,0.1,1.1,0.1,1.6c0.1,1.3,0.1,2.7,0.1,4.1
				c-0.7,44.1-56.1,138.7-56.1,138.7s0.3,0,0.8,0.1c0,0,0,0,0,0c0.2,0,0.4,0,0.6,0.1h0c0.2,0,0.5,0.1,0.8,0.1h0
				c0.3,0,0.6,0.1,0.9,0.1c0,0,0.1,0,0.1,0c0.7,0.1,1.4,0.2,2.2,0.3c0,0,0.1,0,0.1,0c0.8,0.1,1.8,0.2,2.8,0.3c0,0,0.1,0,0.2,0
				c1,0.1,2.1,0.2,3.2,0.3c0.1,0,0.1,0,0.2,0c0.5,0.1,1.1,0.1,1.6,0.1c0.1,0,0.1,0,0.2,0c0.6,0,1.2,0.1,1.9,0.2c0,0,0.1,0,0.1,0
				c0.6,0,1.2,0.1,1.8,0.1c0.1,0,0.2,0,0.3,0c4.7,0.3,10,0.6,15.6,0.7c0.1,0.4,0.1,0.9,0.2,1.3c0.1,0.5,0.2,1,0.2,1.5
				c0,0.1,0,0.2,0.1,0.3c0.1,0.5,0.2,1,0.3,1.5c0,0,0,0.1,0,0.1c0.2,1.1,0.5,2.1,0.7,3.1l0,0c1.8,6.8,4.9,12.8,9.1,17.4
				c4.2,4.6,9.7,7.8,16.2,8.9c0.8,0.1,1.5,0.3,2.3,0.4c-12.1,23-23.2,42.9-28,48c-3,3.3-9.6,12-17.9,23.5
				c29.4,7.1,60.5,12.2,93.4,15.3c20.6-24.5,54.7-71.1,73-96.4c25-3.9,43.1-6.7,43-3.8c0,0.2-0.1,0.5-0.4,0.8
				c-8.4,10.3-6.3,46.4-5.4,55.4c0.9,9-6,35.1-6,35.1c0.6,0.7,1.3,1.4,2,2.1c0.2,0.2,0.5,0.4,0.7,0.7c0.4,0.4,0.8,0.8,1.3,1.2
				c0.3,0.3,0.6,0.5,0.9,0.8c0.4,0.3,0.7,0.6,1.1,0.9c0,0,0.1,0.1,0.1,0.1c-0.4,2.3-0.9,4.5-1.3,6.5c16.1-0.3,31.7-0.8,46.9-1.6
				c4.8-12.4,21.4-55,36.6-84.5c17.8-34.9,15.2-61.7,2-70.5c-24.9-16.6-67-26.4-106.9-32.5c0,0,8-11.8,14.4-23.7c0.3,0,0.6,0,0.9,0
				c4.5,0.6,5.6-5.8,13.9-11.1c5.6-3.6,6.5-8.6,9.3-12.9c1.4,0.4,2.7,0.5,3.9,0.2c4.9,3.8,10,5.1,13.8,3.1c0,0,0,0,0,0
				c0.3-0.1,0.6-0.3,0.9-0.4c4.4-1.9,8.7-3.7,12.7-5.4c2-0.9,3.9-1.7,5.7-2.5c3.5-1.5,6.7-3,9.9-4.4c1.4-0.6,2.7-1.2,4-1.8
				c30.3-13.7,44.3-22.4,47-30.5c0.1-0.4,0.3-0.8,0.3-1.2c0.4-2,0.1-4-0.8-6.1c0-0.1-0.1-0.2-0.1-0.3c-0.1-0.3-0.3-0.6-0.5-0.9
				c-0.2-0.4-0.4-0.8-0.7-1.1c0-0.3-0.1-0.6-0.2-0.9c0,0,0,0,0,0c-0.1-0.3-0.2-0.6-0.4-0.9c-0.1-0.1-0.2-0.3-0.2-0.4
				c-0.6-1-1.2-2-1.8-2.9c-0.6-0.9-1.1-1.8-1.7-2.7c-0.1-0.2-0.2-0.3-0.3-0.5c-36-57.2-68.9-85.7-89.2-94.5c-7.4-6-12.5-9.4-18-12.1
				c0.3-1.2,0.4-2,0.4-2l-7.3-11.1c0.1-0.5,0.3-0.9,0.4-1.4c14.4-0.7,26.7-6.7,27.2-17.3c0.8-16.4-6.8-31.1-6.8-31.1
				c-0.2,0.1-0.3,0.1-0.5,0.2c-2.3-8.4-5-16.9-5.4-21c-0.4-4.1-1.4-8.9-2.6-13.8c0.9-0.2,1.7-1,1.7-2c0.1-1.2-0.8-2.3-2-2.4
				c-0.3,0-0.6,0-0.9,0c-0.8-2.9-1.7-5.8-2.6-8.3c-0.4-1.2-0.9-2.2-1.5-3.3c2.2,3.1,4.7,7.1,6.3,10.8c0,0-3.7-12.2-3.9-21.9
				c-0.2-9.8-9.8-40.2-49.2-16.1c-19.3,11.8-50.3,2.8-47.5,30.3s-7.4,26.5,4.6,40.4c11.2,12.8,13.8,42.1,28.8,35
				c-0.6,2.9-1.2,5.6-2,8l-7.8,6.2c-1,0-1.9,0-2.8,0c-10.2,0.6-23.3-0.5-35.9,0.4c-2.3-0.5-4.5-0.6-6.4-0.2
				c-17.1,3.1-77.3,26.2-117.4,49.4c-2.4,1.4-4.5,3.3-6.2,5.5L393,508.2c-3.8,4.7-7.8,10-11.9,15.7l-39.6,52.2c0,0,1,0.8,2.7,2.1
				l-6.8,11c0,0,0.6,0.7,1.7,1.8c-13.5,19.4-18.9,20.4-25.9,32.5c-4.4-0.9-9,1.5-10.6,5.8l-3.3,8.8l-9.4-3.5l-2.6,0.4l-1.4,3.7
				l-46.3-17.5C232.7,618.6,212.1,617.1,206.7,622.7z M691.7,527.9c2.5-4.6,4.8-9.6,6.7-14.9c0,0,0,0.1,0.1,0.1
				c2.7,3.8,5.7,7.4,8,10.1c2.3,2.7,3.9,4.4,3.9,4.4c-10.7,4.8-20.7,9.6-24.5,11.5C687.6,535.7,689.5,532,691.7,527.9z M685.7,539.6
				C685.7,539.6,685.7,539.6,685.7,539.6C685.7,539.6,685.7,539.6,685.7,539.6C685.6,539.6,685.7,539.6,685.7,539.6z M670.8,299.5
				c0,0,0.9,1.1,2.1,2.8c-0.8-0.9-1.6-1.7-2.5-2.4C670.7,299.6,670.8,299.5,670.8,299.5z M311.8,646.2l40,15.1l-0.8,2.1l-40-15.1
				L311.8,646.2z"/>
		</g>
	</g>
	<g>
		<path class="st0" d="M425.8,896.4c0,0-19.9,14.6-28.1,24.9c-9,11.3-18.1,21.3-23.6,28.7c-5.4,7.4-50.9,19.9-31.8-15
			c20.4-37.4,45.2-75,45.2-75L425.8,896.4z"/>
		<path class="st39" d="M607.8,690.9c0,0-80.8,113.7-99.1,128.4c-14.8,12-103.9,100.8-104.3,101.3c0,0,0,0,0,0
			c-7.8-7.9-22.1-15.6-23-16.1c0,0,0,0,0,0c-14.8-10.8-23.6-12.6-23.6-12.6s76.2-112,89-125.9c12.8-13.9,71.3-133.7,71.3-133.7
			l88.4-17.3L607.8,690.9z"/>
		<g>
			<path class="st39" d="M390.8,1022l-10.1,6.7c-25.3-16.6-39-61-50-79.1c-11-18.1-7.6-25.6-7.5-25.6c11-7.1,19-12.7,24.7-16.9
				c2.4-1.8,5.8-1.3,7.7,1.1c3.4,4.4,7.7,11.9,6.8,21c-1,10.1,11.9,17.9,19.9,21.7c2.2,1,3.3,3.4,2.7,5.8
				c-1.8,7.2-2.2,15.2,0.3,23.4C397.4,1020.1,390.8,1022,390.8,1022z"/>
			<g>
				<path class="st22" d="M340.6,943.3c10,17.8,21.4,59.4,50.2,78.8l-10.1,6.7c-25.3-16.6-39-61-50-79.1c-11-18.1-7.5-25.6-7.5-25.6
					c3.6-2.3,7.1-5.2,10.5-6.9C333.3,919.9,332.6,929.1,340.6,943.3z"/>
			</g>
		</g>
	</g>
	<g>
		<g>
			<g>
				<polygon class="st4" points="1023.7,769 1015.2,775 1010.9,778 981.8,798.6 859.8,885 867,1020 810.7,998.7 599.8,918.6 
					579.8,930.5 179,1170 125.3,1170 378.6,973 510,870.9 531.3,854.3 581.8,854.3 623.1,867.2 752.4,907.5 806.9,924.5 
					809.3,925.3 805.7,902.3 792.7,818.7 911.4,667.6 911.8,667.1 922.6,653.3 945.4,624.3 1016.4,755.4 				"/>
			</g>
			<g>
				<polygon class="st4" points="1120.3,567 913.8,568.2 857.9,568.2 1056.9,829.7 				"/>
			</g>
		</g>
		<g>
			<linearGradient id="SVGID_1_" gradientUnits="userSpaceOnUse" x1="1093.4697" y1="664.4873" x2="253.0776" y2="1207.6455">
				<stop  offset="3.968250e-003" style="stop-color:#EB6C92"/>
				<stop  offset="1" style="stop-color:#AF4161"/>
			</linearGradient>
			<polygon class="st9" points="965.9,769 804.8,885 805.7,902.3 806.9,924.5 810.7,998.7 811.7,1016.5 811.8,1020 618.7,945.5 
				579.8,930.5 549,918.6 244,1103.9 135.1,1170 91.6,1170 375.3,966.4 515,866.1 531.3,854.3 573.1,867.6 755.1,925.3 752.4,907.5 
				749.6,889.8 738.7,818.7 888.4,625 889,624.3 910.3,664.4 911.8,667.1 966,769 			"/>
			<linearGradient id="SVGID_2_" gradientUnits="userSpaceOnUse" x1="1076.9131" y1="602.8447" x2="126.9145" y2="1216.8433">
				<stop  offset="3.968250e-003" style="stop-color:#EB6C92"/>
				<stop  offset="1" style="stop-color:#AF4161"/>
			</linearGradient>
			<polygon class="st10" points="1061.6,567 857.9,568.2 998.5,829.7 			"/>
		</g>
		<polygon class="st40" points="811.9,1020 867,1020 859.8,885.1 804.8,885.1 		"/>
		<polygon class="st4" points="998.5,829.7 1056.9,829.7 1120.3,567 1061.6,567 		"/>
	</g>
	<g>
		<path class="st1" d="M324.8,840.1l-184.7-80.6c-7.4-2.8-11.1-11.1-8.3-18.5l31.6-129.6c2.8-7.4,26.5-5.9,33.9-3.1l201.4,76.2
			c7.4,2.8,11.1,11.1,8.3,18.5l-47.1,124.4C357.1,834.7,332.2,842.9,324.8,840.1z"/>
		<linearGradient id="SVGID_3_" gradientUnits="userSpaceOnUse" x1="111.4795" y1="725.6738" x2="388.5859" y2="725.6738">
			<stop  offset="0" style="stop-color:#9346E2"/>
			<stop  offset="1" style="stop-color:#5E1E9F"/>
		</linearGradient>
		<path class="st11" d="M322.1,839.4l-201.4-76.2c-7.4-2.8-11.1-11.1-8.3-18.5l47.1-124.4c2.8-7.4,11.1-11.1,18.5-8.3l201.4,76.2
			c7.4,2.8,11.1,11.1,8.3,18.5L340.6,831C337.8,838.4,329.5,842.2,322.1,839.4z"/>
		<path class="st39" d="M351.3,774.7l-209.7-79.3c-5.1-1.9-7.7-7.6-5.8-12.8l24-63.3c1.9-5.1,7.6-7.7,12.8-5.8l209.7,79.3
			c5.1,1.9,7.7,7.6,5.8,12.8L364,769C362.1,774.1,356.4,776.7,351.3,774.7z"/>
		<linearGradient id="SVGID_4_" gradientUnits="userSpaceOnUse" x1="134.2725" y1="690.3037" x2="387.709" y2="690.3037">
			<stop  offset="0" style="stop-color:#9346E2"/>
			<stop  offset="1" style="stop-color:#5E1E9F"/>
		</linearGradient>
		<path class="st12" d="M350.3,770.9l-209.7-79.3c-5.1-1.9-7.7-7.6-5.8-12.8l24-63.3c1.9-5.1,7.6-7.7,12.8-5.8L381.3,689
			c5.1,1.9,7.7,7.6,5.8,12.8l-24,63.3C361.2,770.3,355.5,772.8,350.3,770.9z"/>
		<g>
			<polygon class="st5" points="203.5,722.3 200.5,722.8 190.6,717.4 194.8,698.9 197.8,698.4 210.7,703.3 			"/>
			<polygon class="st5" points="296.1,757.3 293.1,757.8 283.2,752.5 287.4,734 290.4,733.4 303.3,738.3 			"/>
		</g>
		<g>
			<linearGradient id="SVGID_5_" gradientUnits="userSpaceOnUse" x1="187.6123" y1="710.8711" x2="207.6777" y2="710.8711">
				<stop  offset="0" style="stop-color:#FACC47"/>
				<stop  offset="0.996" style="stop-color:#B68924"/>
			</linearGradient>
			<polygon class="st13" points="200.5,722.8 187.6,717.9 194.8,698.9 207.7,703.8 			"/>
			<linearGradient id="SVGID_6_" gradientUnits="userSpaceOnUse" x1="280.1963" y1="745.9043" x2="300.2617" y2="745.9043">
				<stop  offset="0" style="stop-color:#FACC47"/>
				<stop  offset="0.996" style="stop-color:#B68924"/>
			</linearGradient>
			<polygon class="st14" points="293.1,757.8 280.2,753 287.4,734 300.3,738.8 			"/>
		</g>
		<polygon class="st5" points="268.4,636 265.8,636.4 245.4,627.3 244.9,622.1 247.5,621.7 270.5,630.4 		"/>
		<polygon class="st5" points="333.6,660.7 331,661.1 310.6,652 310.1,646.7 312.7,646.3 335.7,655.1 		"/>
		<g>
			<path class="st39" d="M324.4,654.1l-6.9-2.6l4.4-11.6c1.1-2.9-0.4-6.1-3.3-7.2l-47.7-18.1c-1.4-0.5-2.9-0.5-4.3,0.1
				c-1.4,0.6-2.4,1.7-2.9,3.1l-4.4,11.6l-6.9-2.6l4.4-11.6c1.2-3.3,3.7-5.8,6.8-7.3c3.2-1.4,6.7-1.5,10-0.3l47.7,18.1
				c6.7,2.5,10.1,10.1,7.6,16.8L324.4,654.1z"/>
		</g>
		<linearGradient id="SVGID_7_" gradientUnits="userSpaceOnUse" x1="242.7793" y1="629.2412" x2="267.9375" y2="629.2412">
			<stop  offset="0" style="stop-color:#FACC47"/>
			<stop  offset="0.996" style="stop-color:#B68924"/>
		</linearGradient>
		<polygon class="st15" points="265.8,636.4 242.8,627.7 244.9,622.1 267.9,630.8 		"/>
		<linearGradient id="SVGID_8_" gradientUnits="userSpaceOnUse" x1="307.9395" y1="653.8975" x2="333.0977" y2="653.8975">
			<stop  offset="0" style="stop-color:#FACC47"/>
			<stop  offset="0.996" style="stop-color:#B68924"/>
		</linearGradient>
		<polygon class="st16" points="331,661.1 307.9,652.4 310.1,646.7 333.1,655.4 		"/>
	</g>
	<g>
		<linearGradient id="SVGID_9_" gradientUnits="userSpaceOnUse" x1="545.4932" y1="743.2383" x2="708.4937" y2="427.2371">
			<stop  offset="0" style="stop-color:#602BCA"/>
			<stop  offset="0.287" style="stop-color:#5F2AC7"/>
			<stop  offset="0.5166" style="stop-color:#5A28BD"/>
			<stop  offset="0.7264" style="stop-color:#5324AC"/>
			<stop  offset="0.9231" style="stop-color:#491F94"/>
			<stop  offset="1" style="stop-color:#441C89"/>
		</linearGradient>
		<path class="st17" d="M638.2,414.2c17.8,0.2,59.3,28.8,105.3,104.1c5.9,9.6-31,33.8-51,18.9C638.7,497.3,606,413.9,638.2,414.2z"
			/>
		<g>
			<path class="st0" d="M673.7,798c0,0-16.5,32.8-1.5,47.9c14.6,14.6-7.7,47.3-26.9,34.5c-19.1-12.7-31.4-38.3-30.8-44.1
				c0.5-5.8,14.3-18.3,15.7-24.1c1.4-5.8,4.9-24.6,4.9-24.6S675.6,787.9,673.7,798z"/>
			<g>
				<path class="st39" d="M720,892.2l-3.4,11.6c-30,3.6-69-21.6-89.1-28.4c-20-6.8-22.3-14.7-22.3-14.8c3.9-12.5,6.4-22,8-28.9
					c0.7-2.9,3.6-4.8,6.6-4.1c5.4,1.2,13.5,4.2,18.7,11.7c5.7,8.4,20.6,6,29.2,3.8c2.3-0.6,4.7,0.5,5.8,2.7
					c3.2,6.6,8.1,13,15.3,17.7C723.8,886.5,720,892.2,720,892.2z"/>
				<g>
					<path class="st22" d="M630.9,864.2c19.1,7.2,54.6,31.7,89.1,28l-3.4,11.6c-30,3.6-69-21.6-89.1-28.4
						c-20.1-6.8-22.3-14.8-22.3-14.8c1.3-4.1,2.1-8.5,3.6-12.1C610.2,851,615.6,858.5,630.9,864.2z"/>
				</g>
			</g>
			<linearGradient id="SVGID_10_" gradientUnits="userSpaceOnUse" x1="445.1172" y1="710.6709" x2="727.1338" y2="710.6709">
				<stop  offset="0" style="stop-color:#602BCA"/>
				<stop  offset="0.287" style="stop-color:#5F2AC7"/>
				<stop  offset="0.5166" style="stop-color:#5A28BD"/>
				<stop  offset="0.7264" style="stop-color:#5324AC"/>
				<stop  offset="0.9231" style="stop-color:#491F94"/>
				<stop  offset="1" style="stop-color:#441C89"/>
			</linearGradient>
			<path class="st26" d="M524,609.6c41.7,3.8,146.4,11.2,192.5,41.9c13.2,8.8,15.8,35.6-2,70.5c-17.9,34.9-37.9,88-37.9,88
				s-28.5,10.1-50.2-14.1c0,0,6.8-26.1,6-35.1c-0.9-9-3-45.1,5.4-55.4s-115,21-165.4,12.1C426.9,709.5,434.6,601.5,524,609.6z"/>
			<path class="st39" d="M452.1,645.6c-3.3,18.9,9.2,45.5,29.7,48.7c54.3,8.6,191.8-14.6,182.5-4.1c-9.3,10.5-12.6,36.1-11.8,45.2
				c0.8,9.1-12.1,70.9-12.1,70.9c0.5,0.5,0.9,0.9,1.4,1.3c-5.2-2.5-10.4-6.2-15.3-11.6c0,0,6.8-26.1,6-35.1c-0.9-9-3-45.1,5.4-55.4
				S522.7,727,472.4,717.6C445.9,712.6,437.4,672.1,452.1,645.6z"/>
		</g>
		<path class="st39" d="M447.1,691.3c16.9,0.9,39.3-0.3,49.5-10.8c34.9-36.2,46.1-69.9,112.9-61.4c-34-5.2-66.4-7.7-85.5-9.4
			C460.1,603.8,438,657.3,447.1,691.3z"/>
		<linearGradient id="SVGID_11_" gradientUnits="userSpaceOnUse" x1="455.085" y1="696.6025" x2="618.084" y2="380.6042">
			<stop  offset="0" style="stop-color:#602BCA"/>
			<stop  offset="0.287" style="stop-color:#5F2AC7"/>
			<stop  offset="0.5166" style="stop-color:#5A28BD"/>
			<stop  offset="0.7264" style="stop-color:#5324AC"/>
			<stop  offset="0.9231" style="stop-color:#491F94"/>
			<stop  offset="1" style="stop-color:#441C89"/>
		</linearGradient>
		<path class="st27" d="M649.4,515c-17,30.8-16.8,43.1-17.6,60c-0.5,12.1-22.3,44.1-22.3,44.1c-66.8-8.6-81,17.1-116,53.3
			c-17.5,18.2-81.3,8.5-81.3,8.5s59-100.8,56-142.8c-2.2-30.5,12.8-136.8,29.7-146.6c16.9-9.9,43.4-5.9,60.9-6.9
			c16.9-0.9,43.1,9.5,49.4,11.7c24,8.2,27.5,8.8,48.2,26.2C670.3,434.1,666.5,484.2,649.4,515z"/>
		<path class="st39" d="M508.8,456.1L488.5,443l-10.5,3.2c-6.8,34.3-10.9,74.8-9.7,91.8c3,42.1-56,142.8-56,142.8s8.3,1.3,19.7,2
			l0,0c30.4-47.1,47.6-111.9,50.7-153.4S508.8,456.1,508.8,456.1z"/>
		<path class="st18" d="M567.4,402.9c0,0-17.5,50.5,7.8,139.2c0,0,56.1-104.1,49.7-130.6C613.6,364.9,567.4,402.9,567.4,402.9z"/>
		<linearGradient id="SVGID_12_" gradientUnits="userSpaceOnUse" x1="284.4805" y1="647.7021" x2="329.147" y2="574.369">
			<stop  offset="0" style="stop-color:#EEC9BF"/>
			<stop  offset="0.2767" style="stop-color:#EEC6BC"/>
			<stop  offset="0.4981" style="stop-color:#EFBCB2"/>
			<stop  offset="0.7003" style="stop-color:#F1ACA1"/>
			<stop  offset="0.8901" style="stop-color:#F39589"/>
			<stop  offset="1" style="stop-color:#F48478"/>
		</linearGradient>
		<path class="st28" d="M390.2,463.7c-19.4,4.8-45.6,33.1-76.8,87.7c-31.3,54.8-34.8,40.4-47.9,69.8c0,0,2.4,7.1,10.4,7.1
			c0,0,1.7,8.7,10.2,6.6c8.5-2.1,2,8.5,22,2.5c20-6,4.6-25.3,19.9-44.5c15.3-19.2,66.1-67.3,73.7-78.3
			C409.4,503.5,407.3,459.4,390.2,463.7z"/>
		
			<linearGradient id="SVGID_13_" gradientUnits="userSpaceOnUse" x1="-1271.6758" y1="536.4521" x2="-1353.2798" y2="500.6261" gradientTransform="matrix(-0.4841 -0.875 -0.875 0.4841 254.9705 -943.3264)">
			<stop  offset="0" style="stop-color:#FF627B"/>
			<stop  offset="1" style="stop-color:#FFAE5A"/>
		</linearGradient>
		<path class="st29" d="M543,405.3c-12.2-14.3-10.7-30.3-62.5-8.1c-25.8,11-76.5,29.7-93.6,52c-15.9,20.6-36.6,44.7-35,52.3
			c3.7,18.4,16.3,47.9,22.7,42.3c28-24.2,67.3-58,73.1-60.5c21.3-9.1,44.5-20,44.5-20S564,430,543,405.3z"/>
		<path class="st18" d="M295,576.4c0,0,10.9,12.5,33.6,20.1c0,0,12.3-17.2,17.8-21.7l-39.1-18L295,576.4z"/>
		<linearGradient id="SVGID_14_" gradientUnits="userSpaceOnUse" x1="348.6377" y1="641.6953" x2="511.6378" y2="325.6949">
			<stop  offset="0" style="stop-color:#602BCA"/>
			<stop  offset="0.287" style="stop-color:#5F2AC7"/>
			<stop  offset="0.5166" style="stop-color:#5A28BD"/>
			<stop  offset="0.7264" style="stop-color:#5324AC"/>
			<stop  offset="0.9231" style="stop-color:#491F94"/>
			<stop  offset="1" style="stop-color:#441C89"/>
		</linearGradient>
		<path class="st30" d="M299.2,563.2c0,0,22.1,18.7,44.3,25.5l104.2-105.4c0,0,65.2-24.9,93.4-47s-7-54.8-24.6-51.6
			c-17.1,3-77.3,26.2-117.4,49.4c-2.4,1.4-4.5,3.3-6.2,5.5L299.2,563.2z"/>
		
			<linearGradient id="SVGID_15_" gradientUnits="userSpaceOnUse" x1="-1388.1353" y1="379.0664" x2="-1327.3311" y2="379.0664" gradientTransform="matrix(-0.98 -0.1989 -0.1989 0.98 -657.3582 -264.8533)">
			<stop  offset="0" style="stop-color:#EEC9BF"/>
			<stop  offset="0.2767" style="stop-color:#EEC6BC"/>
			<stop  offset="0.4981" style="stop-color:#EFBCB2"/>
			<stop  offset="0.7003" style="stop-color:#F1ACA1"/>
			<stop  offset="0.8901" style="stop-color:#F39589"/>
			<stop  offset="1" style="stop-color:#F48478"/>
		</linearGradient>
		<path class="st31" d="M575.5,333.8c0,0-1.4,29.2-6.1,44.5c-4.2,14-8.5,35.7,31.5,35.7c30.3,0,28.2-51.4,28.2-51.4L575.5,333.8z"/>
		<linearGradient id="SVGID_16_" gradientUnits="userSpaceOnUse" x1="621.124" y1="388.7876" x2="584.1242" y2="275.2881">
			<stop  offset="0" style="stop-color:#EEC9BF"/>
			<stop  offset="0.2767" style="stop-color:#EEC6BC"/>
			<stop  offset="0.4981" style="stop-color:#EFBCB2"/>
			<stop  offset="0.7003" style="stop-color:#F1ACA1"/>
			<stop  offset="0.8901" style="stop-color:#F39589"/>
			<stop  offset="1" style="stop-color:#F48478"/>
		</linearGradient>
		<path class="st32" d="M633.9,295c2.8,8,5.5,18.7,6.4,26.5c0.8,7.8,10,31.3,8.3,40.6c-1.7,9.3-4.3,22.3-29.4,22.4
			c-25.1,0-37.8-9.5-47.8-26c-10.1-16.5-15.5-35.3-14.4-40.7c1.1-5.4,3.4-28.2,29.5-34.1C610.6,278.2,629.2,281.6,633.9,295z"/>
		<path class="st23" d="M572.5,335.9l12.2,12.5c3.2,3.3,7.6,5,12.1,4.8c10.6-0.5,31-2.6,49.3-10.8c0,0,7.5,14.7,6.8,31.1
			c-0.8,16.4-30.1,21.8-51.2,13.5c-21.1-8.3-33.2-16-39.9-29.9c-6.7-13.9-6.4-27.2-6.4-27.2L572.5,335.9z"/>
		<path class="st7" d="M625.9,326.3c0,0,5.2,6.8,10.2,10.5c0,0-1.8,4.3-7,4.5L625.9,326.3z"/>
		<g>
			<path class="st25" d="M591.8,320.2c-0.7,0.2-1.4,0.1-1.9-0.3c-0.8-0.6-0.8-1.6,0.1-2.3c0.2-0.2,5.5-4.4,15.7-5.5
				c1.2-0.1,2.2,0.5,2.2,1.4c0,0.9-1,1.7-2.2,1.9c-8.3,0.8-12.5,4.1-12.7,4.3C592.6,319.9,592.2,320.1,591.8,320.2z"/>
		</g>
		<g>
			<path class="st25" d="M627.9,311.2c-0.6,0.1-1.2,0-1.8-0.4c-1-0.7-1.2-2-0.5-3c0.1-0.2,3.6-5.1,11.8-4.4c1.2,0.1,2.1,1.2,2,2.4
				s-1.2,2.1-2.4,2c-5.5-0.5-7.7,2.4-7.8,2.6C628.9,310.8,628.4,311.1,627.9,311.2z"/>
		</g>
		<g>
			<path class="st24" d="M636.9,349.6c-0.2,4,1,10.7,1,10.7c-0.7,0.3-1.5,0.6-2.3,0.9c-10.2,3.9-16,3-19.2,1c-1.8-1.1-2.8-2.7-3.4-4
				c-0.7-1.6-0.8-2.9-0.8-2.9c6.4,0.5,16.1-2.6,21.3-4.4C635.5,350.2,636.9,349.6,636.9,349.6z"/>
			<path class="st20" d="M635.4,350.3l-0.9,5.4c-9.6,3.6-17.7,3.6-21.6,2.5c-0.7-1.6-0.8-2.9-0.8-2.9
				C618.5,355.7,630.3,352.1,635.4,350.3z"/>
			<path class="st2" d="M635.6,361.2c-10.2,3.9-16,3-19.2,1c3.5-1.2,7.9-2.4,12-2.5C631.5,359.5,633.8,360.2,635.6,361.2z"/>
		</g>
		<g>
			<path class="st25" d="M600.7,333.3c1.1-1.3,2.7-2.3,4.7-2.7c0.7-0.2,1.3-0.2,2-0.2c0.3-0.9,0.4-2,0.1-3c-0.8-2.6-3.6-4.1-6.2-3.2
				c-2.6,0.8-4.1,3.6-3.3,6.2C598.4,331.7,599.5,332.7,600.7,333.3z"/>
		</g>
		<g>
			<path class="st25" d="M632.1,322.2c1.1-1.3,2.7-2.3,4.7-2.7c0.7-0.2,1.3-0.2,2-0.2c0.3-0.9,0.4-2,0.1-3c-0.8-2.6-3.6-4.1-6.2-3.2
				c-2.6,0.8-4.1,3.6-3.3,6.2C629.8,320.6,630.8,321.6,632.1,322.2z"/>
		</g>
		<path class="st23" d="M585.5,264.5c39.5-24.1,49,6.3,49.2,16.1c0.2,9.8,3.9,21.9,3.9,21.9c-3-7.2-10.1-15.9-10.1-15.9
			s-12.8,13.2-28.6,9.8c-18-3.8-25.3,4.4-22.8,16.9c7,34.6-5.9,28.1-7.3,26.2c-1.3-2-15.4-5.7-11.6,7c3,10,17.6,13.4,17.2,21.2
			c-18.7,14.7-20.8-18.5-32.9-32.5c-12.1-13.9-1.9-13-4.6-40.4C535.2,267.4,566.1,276.4,585.5,264.5z"/>
		<linearGradient id="SVGID_17_" gradientUnits="userSpaceOnUse" x1="582.6143" y1="401.3403" x2="545.6146" y2="287.8411">
			<stop  offset="0" style="stop-color:#EEC9BF"/>
			<stop  offset="0.2767" style="stop-color:#EEC6BC"/>
			<stop  offset="0.4981" style="stop-color:#EFBCB2"/>
			<stop  offset="0.7003" style="stop-color:#F1ACA1"/>
			<stop  offset="0.8901" style="stop-color:#F39589"/>
			<stop  offset="1" style="stop-color:#F48478"/>
		</linearGradient>
		<path class="st33" d="M568.1,337.7c-2.3-1.8-13.1-4-12.7,3.6c0.4,7.1,4.1,16.7,14.6,20C580.6,364.6,573,341.6,568.1,337.7z"/>
		
			<ellipse transform="matrix(0.4673 0.8841 -0.8841 0.4673 835.1866 -283.9811)" class="st39" cx="653.3" cy="551.1" rx="26.7" ry="14.2"/>
		
			<ellipse transform="matrix(0.4673 0.8841 -0.8841 0.4673 833.5915 -274.2927)" class="st19" cx="644.4" cy="554.6" rx="18.6" ry="9.9"/>
		<linearGradient id="SVGID_18_" gradientUnits="userSpaceOnUse" x1="610.0371" y1="626.208" x2="690.5369" y2="533.7083">
			<stop  offset="0" style="stop-color:#EEC9BF"/>
			<stop  offset="0.2767" style="stop-color:#EEC6BC"/>
			<stop  offset="0.4981" style="stop-color:#EFBCB2"/>
			<stop  offset="0.7003" style="stop-color:#F1ACA1"/>
			<stop  offset="0.8901" style="stop-color:#F39589"/>
			<stop  offset="1" style="stop-color:#F48478"/>
		</linearGradient>
		<path class="st34" d="M631.3,543c22.9-8.8,55-35.3,67.8-39.3c12.8-3.9,54.2,11.3,45,26.3c-10.4,17.1-37.6,27-99,40.4L631.3,543z"
			/>
		<linearGradient id="SVGID_19_" gradientUnits="userSpaceOnUse" x1="583.3955" y1="603.0234" x2="663.895" y2="510.524">
			<stop  offset="0" style="stop-color:#EEC9BF"/>
			<stop  offset="0.2767" style="stop-color:#EEC6BC"/>
			<stop  offset="0.4981" style="stop-color:#EFBCB2"/>
			<stop  offset="0.7003" style="stop-color:#F1ACA1"/>
			<stop  offset="0.8901" style="stop-color:#F39589"/>
			<stop  offset="1" style="stop-color:#F48478"/>
		</linearGradient>
		<path class="st35" d="M632.4,542.3c-21.1-2-23.2,8.4-33.6,5.4c-10.4-3-10.1,5-5.7,7.5c4.3,2.5,12.5,3,14.7,2
			c0,0-10.6,8.3-14.5,12.9c0,0-17.1-4.3-17.9,2c-0.8,6.2,1.6,7.8,10.1,8.4c8.5,0.6,5.6,4.5,11.1,3c0,0,3.5,6.5,9.8,7
			c0,0-0.1,4.8,2.1,6.7c2.3,1.9,12-2.6,16.5-2c4.5,0.6,5.6-5.8,13.9-11.1c8.3-5.3,6.4-13.9,15.3-18.5
			C663,561.1,653.5,544.3,632.4,542.3z"/>
		<path class="st18" d="M653.2,550c-4.4-8.2-11.2-13.3-16-12.3v0l19.7-10.6l20.2,36.9l-24.6,7.4c0.2-0.1,0.4-0.2,0.6-0.3
			C658,568.5,658,559.1,653.2,550z"/>
		<linearGradient id="SVGID_20_" gradientUnits="userSpaceOnUse" x1="575.2734" y1="758.5986" x2="738.2734" y2="442.5986">
			<stop  offset="0" style="stop-color:#602BCA"/>
			<stop  offset="0.287" style="stop-color:#5F2AC7"/>
			<stop  offset="0.5166" style="stop-color:#5A28BD"/>
			<stop  offset="0.7264" style="stop-color:#5324AC"/>
			<stop  offset="0.9231" style="stop-color:#491F94"/>
			<stop  offset="1" style="stop-color:#441C89"/>
		</linearGradient>
		<path class="st36" d="M665.7,574.7c6.9-3.7,7-17.2,0.1-30.2c-6.5-12.3-16.9-19.8-23.8-17.4c1.8-0.9,44.4-22,57-23.9
			c12.9-1.9,40.4,6.2,46.4,19.3C751.4,535.5,731.7,546.7,665.7,574.7z"/>
		<path class="st39" d="M558.9,384.5c-2.1,1.1-4,2.8-5.6,4.5c-0.4,0.4-0.8,0.9-1.2,1.4c-0.4,0.5-0.8,0.9-1.1,1.4c-0.7,1-1.4,1.9-2,3
			c-0.6,1-1.3,2-1.8,3.1c-0.5,1.1-1.1,2.1-1.6,3.2l-1.3,3.3c-0.4,1.1-0.8,2.3-1.1,3.4l-0.6,1.7c-0.2,0.6-0.3,1.2-0.5,1.7l-0.9,3.5
			c-0.3,1.2-0.4,2.3-0.7,3.5c-0.2,1.2-0.5,2.3-0.6,3.5c-0.3,2.4-0.6,4.7-0.9,7.1l-0.5,7.2l-0.4-1.4l7.7,9.7c2.6,3.2,5.2,6.5,7.7,9.8
			l1,1.3l-0.8,1.4l-8.9,15.6l-9,15.5l0.1-2.1c2.8,6.5,5.4,13.1,8.1,19.7c2.7,6.6,5.3,13.2,7.9,19.8c2.6,6.6,5.1,13.2,7.6,19.9
			c2.5,6.6,5,13.3,7.3,20c-3.2-6.4-6.2-12.8-9.2-19.2c-3-6.4-6-12.9-8.9-19.3c-2.9-6.5-5.8-12.9-8.7-19.4c-2.8-6.5-5.7-13-8.5-19.5
			l-0.5-1.1l0.6-1l8.9-15.6l9.1-15.5l0.2,2.6c-2.5-3.3-5-6.6-7.5-9.9l-7.5-9.9l-0.5-0.7l0.1-0.7l0.8-7.3c0.4-2.4,0.8-4.9,1.2-7.3
			c0.5-2.4,1.1-4.8,1.8-7.2l1.1-3.5c0.2-0.6,0.4-1.2,0.6-1.8l0.7-1.7c1.7-4.6,4.1-9,7-13c0.7-1,1.6-1.9,2.4-2.9
			c0.4-0.5,0.9-0.9,1.3-1.3c0.4-0.4,0.9-0.9,1.3-1.3C554.5,386.8,556.6,385.4,558.9,384.5z"/>
		<path class="st39" d="M632.4,405.3c1.8,3.4,3.4,6.9,4.8,10.6c1.4,3.6,2.5,7.3,3.5,11.1c0.9,3.8,1.6,7.7,2,11.6
			c0.3,3.9,0.3,7.9-0.2,11.9l-0.1,0.6l-0.5,0.5c-3,2.8-6,5.6-9.1,8.4l-9.1,8.4l0.8-2.1l2.3,14.3l1.1,7.2l1.1,7.2l0.2,1.1l-0.7,0.8
			l-13.1,15.8l-6.6,7.9l-6.6,7.9c-2.2,2.6-4.4,5.3-6.6,7.9l-6.6,7.8c-4.5,5.2-8.9,10.4-13.5,15.6c3.8-5.7,7.7-11.3,11.7-16.9
			c2-2.8,4-5.6,6-8.3c2-2.8,4.1-5.5,6.1-8.3l6.2-8.2l6.3-8.1c4.2-5.4,8.5-10.8,12.8-16.1l-0.5,1.9l-1.1-7.2l-1.1-7.2l-2.2-14.3
			l-0.2-1.3l1-0.8l9.4-8.1c3.1-2.7,6.3-5.4,9.4-8.1l-0.6,1.1c0.6-3.6,0.9-7.4,0.8-11.1c-0.1-3.8-0.5-7.5-1.1-11.3
			c-0.6-3.8-1.5-7.5-2.5-11.2c-0.5-1.9-1-3.7-1.6-5.5C633.7,408.9,633.1,407.1,632.4,405.3z"/>
		<path class="st6" d="M588.9,417.1c0,0,13.7,4.3,20.6,0.7c6.9-3.6-3.1-8.7-3.1-8.7l-6-3l-3.4-0.8L588.9,417.1z"/>
		<linearGradient id="SVGID_21_" gradientUnits="userSpaceOnUse" x1="485.3945" y1="500.2432" x2="611.7657" y2="500.2432">
			<stop  offset="0" style="stop-color:#FACC47"/>
			<stop  offset="0.996" style="stop-color:#B68924"/>
		</linearGradient>
		<path class="st37" d="M600.6,425.7c0.5,3.9,0.6,7.6,0.7,11.5c0,3.8-0.1,7.6-0.5,11.5c-0.7,7.7-2.2,15.3-4.8,22.9l-0.5,1.4
			l-0.6,1.4l-1.2,2.8c-0.1,0.2-0.2,0.4-0.3,0.7l-0.4,0.8l-0.9,1.6c-0.7,1-1.4,2-2.2,2.9c-3.2,3.6-7,6-10.5,8
			c-3.6,2-7.1,3.6-10.6,5.2c-3.4,1.5-6.8,3-10,4.6c-3.2,1.5-6.3,3.1-9.3,4.8c-3,1.7-5.8,3.6-8.5,5.5c-5.3,4-10,8.5-13.9,13.6
			c-7.9,10.2-12.8,22.6-15.9,35.7L488,574.7l-2.6-22c2.8-7.6,6.2-15.1,10.5-22.3c4.2-7.1,9.3-13.9,15.2-19.9
			c5.9-6,12.7-11.1,19.9-15.1c3.6-2,7.2-3.8,10.9-5.3c3.7-1.6,7.4-2.9,11-4.1c7.3-2.5,14.5-4.3,20.7-6.8c3.1-1.2,5.8-2.7,7.8-4.4
			c0.5-0.4,0.9-0.9,1.4-1.3l0.5-0.7l0.3-0.4c0.1-0.1,0.2-0.4,0.3-0.5l1.3-2.2l0.6-1.1l0.6-1.2c3.1-6.2,5.3-12.9,6.8-19.9
			c0.8-3.5,1.3-7.1,1.8-10.6c0.4-3.6,0.7-7.3,0.7-10.7L600.6,425.7z"/>
		<linearGradient id="SVGID_22_" gradientUnits="userSpaceOnUse" x1="590.0557" y1="417.0923" x2="607.8877" y2="417.0923">
			<stop  offset="0" style="stop-color:#FACC47"/>
			<stop  offset="0.996" style="stop-color:#B68924"/>
		</linearGradient>
		<path class="st38" d="M590.1,415.1v6.2c0,1.3,0.3,2.5,1,3.6l0.6,1c1.2,2.1,3.3,3.4,5.7,3.6l0.4,0c2.3,0.2,4.6-0.7,6.1-2.5l2.3-2.7
			c1.4-1.6,2-3.7,1.7-5.7l-1.1-7.7c-0.5-3.3-3.1-5.9-6.4-6.2c-0.2,0-0.4,0-0.7-0.1c-3.2-0.4-6.4,1.3-7.6,4.3l-1.4,3.4
			C590.2,413.3,590.1,414.2,590.1,415.1z"/>
		<path class="st19" d="M569.5,378.3l-15,11.9c0,0,7.9,26.9,34.3,34.8l10.8-21.2C599.4,403.9,570.3,403.6,569.5,378.3z"/>
		<path class="st19" d="M625,391.6l7.7,11.6c0,0-2.4,20.3-25.6,23.2l-7.5-22.5C599.4,403.9,620,414.3,625,391.6z"/>
		<path class="st39" d="M473.1,472.9c0.3-0.6,0.5-0.9,0.5-0.9s-22.5,7.4-41.5,2.7l-88.5,114l104.2-105.4
			C447.7,483.3,458.4,479.2,473.1,472.9z"/>
		<path class="st39" d="M656.2,500.2c0,0,21.1,4,50.5,3.8c0,0-18.9,1.5-38.7,10.7C668.1,514.7,661.7,507.8,656.2,500.2z"/>
		<path class="st39" d="M665.7,574.7c66-28,85.7-39.2,79.7-52.2c-0.4-0.8-0.8-1.5-1.3-2.3c-0.1-0.6-0.3-1.3-0.6-1.8
			c-2.7-4.4-5.4-8.7-8-12.8c0.2,0.4,9.7,17.4-5.5,28.3c-14.2,10.3-57.6,36.6-63.6,40.3C666.2,574.4,666,574.5,665.7,574.7
			L665.7,574.7z"/>
	</g>
</g>
</svg>
