<svg xmlns="http://www.w3.org/2000/svg" viewBox="0 0 4680 3120"><defs><style>.cls-1{isolation:isolate;}.cls-2,.cls-27,.cls-36,.cls-8{fill:#fff;}.cls-3{fill:#eef2f9;}.cls-4,.cls-5,.cls-6,.cls-7{fill:none;stroke:#3f84d8;stroke-width:3px;}.cls-36,.cls-37,.cls-4,.cls-5,.cls-6,.cls-7,.cls-8{stroke-miterlimit:10;}.cls-5{stroke-dasharray:34.83 34.83;}.cls-6{stroke-dasharray:34.38 34.38;}.cls-7{stroke-dasharray:34.49 34.49;}.cls-8{stroke:#2946fb;stroke-width:4px;}.cls-9{fill:#99bff5;}.cls-10{fill:#2946fb;}.cls-11,.cls-50{fill:#8fc0fa;}.cls-12,.cls-30{fill:#1a2982;}.cls-13,.cls-52{fill:#367bf8;}.cls-14{fill:#f9c89a;}.cls-15{fill:#f19a59;}.cls-16{fill:#a7452d;}.cls-17{fill:#031163;}.cls-18,.cls-29{fill:#e32b2c;}.cls-19{fill:#ca1017;}.cls-20{fill:#553130;}.cls-21{fill:#000d21;}.cls-21,.cls-22,.cls-23,.cls-26,.cls-27,.cls-28,.cls-29,.cls-30,.cls-50,.cls-51,.cls-52,.cls-53,.cls-54{fill-rule:evenodd;}.cls-22,.cls-24{fill:#001d43;}.cls-23{fill:#70778e;opacity:0.29;}.cls-25{fill:#0c5edb;}.cls-26{fill:#3b3a3a;}.cls-28{fill:#242525;}.cls-31{fill:#5e9dfd;}.cls-32{fill:#fefefe;}.cls-33{fill:#ff859c;}.cls-34{fill:#f8445f;}.cls-35{opacity:0.45;}.cls-36,.cls-37{stroke:#3363ae;stroke-width:2px;}.cls-37{fill:#e2ebf9;}.cls-38{opacity:0.2;mix-blend-mode:multiply;}.cls-39{fill:#d92150;}.cls-40{fill:#4a0659;}.cls-41{fill:#003e61;}.cls-42{fill:#d30f00;}.cls-43{fill:#20288a;}.cls-44{fill:#f8bc40;}.cls-45{fill:#f6a538;}.cls-46{fill:#2f2f2f;}.cls-47{fill:#f2bb0a;}.cls-48{fill:#ffc969;}.cls-49{fill:#fdfdf2;}.cls-51{fill:#ebeff2;}.cls-53{fill:#c7defe;}.cls-54{fill:#141a33;opacity:0.35;}</style></defs><title>05</title><g class="cls-1"><g id="_05" data-name="05"><rect id="_05-2" data-name="05" class="cls-2" width="4680" height="3120"/><path class="cls-3" d="M1954.84,2736.38s-1152.45-59.77-1061-1270.78,1281.9-1199.55,1670-735.49,1282,223.69,1241,1081.54S2572.65,2830,1954.84,2736.38Z"/><path class="cls-4" d="M1125,810s-2.07,5.64-5.18,16.18"/><path class="cls-5" d="M1111,859.85c-37.86,164.35-93.91,695.29,654.91,992.28"/><path class="cls-4" d="M1782.13,1858.48q7.89,3,15.89,6s-.55-5.89-1.27-17"/><path class="cls-6" d="M1795,1813.25c-7.63-190.66-1.21-866.86,439.28-1239.91,500-423.47,991.79,69.41,904.34,406.95"/><path class="cls-4" d="M3133.81,996.8q-2.59,8.09-5.66,16s4.44,4.07,12.25,11.78"/><path class="cls-7" d="M3164.5,1049.28c80.9,85.61,268.85,311.21,270.39,560.69,1.83,297.4-271,632.19-943.19,675.83"/><path class="cls-4" d="M2474.49,2286.85c-5.64.32-11.29.62-17,.9"/><path class="cls-8" d="M1600.9,577.47h800.91a55.7,55.7,0,0,1,55.7,55.7V2404.73a0,0,0,0,1,0,0H1545.2a0,0,0,0,1,0,0V633.17A55.7,55.7,0,0,1,1600.9,577.47Z"/><rect class="cls-3" x="1689.25" y="1319.97" width="628.23" height="333.11"/><polygon class="cls-9" points="1964.89 1405.31 1964.89 1567.73 2110.4 1486.52 1964.89 1405.31"/><rect class="cls-2" x="1701.09" y="1623.65" width="597.84" height="7.79" rx="3.57"/><rect class="cls-9" x="1885.38" y="868.34" width="440.41" height="23.36" rx="9"/><rect class="cls-9" x="1885.38" y="911.52" width="440.41" height="23.36" rx="9"/><rect class="cls-9" x="1885.38" y="954.7" width="440.41" height="23.36" rx="9"/><rect class="cls-9" x="1885.38" y="997.88" width="440.41" height="23.36" rx="9"/><rect class="cls-9" x="1885.38" y="1041.06" width="440.41" height="23.36" rx="9"/><rect class="cls-9" x="1689.25" y="1084.24" width="636.53" height="23.36" rx="9"/><rect class="cls-9" x="1689.25" y="1126.28" width="636.53" height="23.36" rx="9"/><rect class="cls-9" x="1689.25" y="1168.33" width="636.53" height="23.36" rx="9"/><rect class="cls-9" x="1689.25" y="1210.37" width="636.53" height="23.36" rx="9"/><rect class="cls-9" x="1689.25" y="1252.41" width="398.84" height="23.36" rx="9"/><rect class="cls-9" x="1803.95" y="1700.63" width="398.84" height="23.36" rx="9"/><path class="cls-10" d="M1734.93,984.28l-20,60.52h-25.7l65.38-192.42h30l65.65,192.42h-26.54l-20.56-60.52ZM1798,964.86l-18.84-55.39c-4.28-12.55-7.14-24-10-35.11h-.59c-2.84,11.43-6,23.13-9.7,34.84l-18.84,55.66Z"/><path class="cls-10" d="M1600.9,577.47h800.91a55.7,55.7,0,0,1,55.7,55.7V717.8a0,0,0,0,1,0,0H1545.2a0,0,0,0,1,0,0V633.17A55.7,55.7,0,0,1,1600.9,577.47Z"/><rect class="cls-2" x="1752.14" y="626.87" width="595.34" height="41.53" rx="9"/><path class="cls-2" d="M1697.58,657.51c.23.19.46.38.7.56C1698,657.89,1697.81,657.7,1697.58,657.51Z"/><path class="cls-2" d="M1699.33,658.81l-.68.83-1,1.22-5.46,6.67-.94,1.14-4,4.88-.55.67-.52.63a1.82,1.82,0,0,1-1.23.66h-.37a1.82,1.82,0,0,1-1-.41A1.88,1.88,0,0,1,1683,674a1.75,1.75,0,0,1,0-.79,2,2,0,0,1,.12-.34v0a2.12,2.12,0,0,1,.24-.37l5.5-6.71,1.16-1.4,5.49-6.7,1-1.2c.34.34.71.68,1.09,1s.46.38.7.56S1699,658.58,1699.33,658.81Z"/><path class="cls-2" d="M1702,658.45s-.34.64-.78,1.42a17.33,17.33,0,0,1-1.89-1.06l-.68.83-1,1.22c-.74-1-1.57-2.23-2.15-3.15l1-1.2c-.19-.19-.37-.38-.55-.58C1698.42,655.82,1702,658.36,1702,658.45Z"/><path class="cls-2" d="M1715.8,628.37a17.37,17.37,0,0,0-6.08-1.47,17.41,17.41,0,0,0-16.53,9.69c-.1.2-.2.41-.29.61a17.38,17.38,0,0,0,3,18.73c.18.2.36.39.55.58.34.34.71.68,1.09,1s.46.38.7.56.69.51,1,.74a17.33,17.33,0,0,0,1.89,1.06l.51.24a18,18,0,0,0,3,1,17.24,17.24,0,0,0,10.23-.71,17.36,17.36,0,0,0,.79-32.06Zm5.34,21.35a13.59,13.59,0,0,1-3.41,4.67,13.62,13.62,0,0,1-12.4,2.94,13.86,13.86,0,0,1-2-.72,13.52,13.52,0,0,1-6.93-17.73.61.61,0,0,1,.05-.12,13.53,13.53,0,0,1,24.74,11Z"/><rect class="cls-3" x="1689.25" y="1755.77" width="108.77" height="108.77"/><rect class="cls-3" x="1830.99" y="1755.77" width="108.77" height="108.77"/><rect class="cls-3" x="1972.73" y="1755.77" width="108.77" height="108.77"/><rect class="cls-3" x="2114.47" y="1755.77" width="108.77" height="108.77"/><rect class="cls-11" x="2116.44" y="2553.15" width="1758.91" height="109.58" rx="50.22"/><rect class="cls-12" x="2785.85" y="1809.35" width="36.73" height="777.47"/><rect class="cls-13" x="2785.85" y="1920.72" width="27.62" height="666.1"/><rect class="cls-12" x="3459.67" y="1809.35" width="35.74" height="777.47"/><rect class="cls-13" x="3459.67" y="1864.8" width="25.62" height="722.02"/><rect class="cls-12" x="3746.3" y="1809.35" width="35.48" height="777.47"/><rect class="cls-13" x="3746.3" y="1920.72" width="26.03" height="666.1"/><rect class="cls-12" x="2436.14" y="1803.71" width="1345.64" height="48.79"/><rect class="cls-12" x="2436.14" y="1809.35" width="27.03" height="777.47"/><rect class="cls-13" x="2436.14" y="1872.02" width="19.11" height="714.8"/><rect class="cls-10" x="2436.14" y="1803.71" width="1039.18" height="48.79"/><path class="cls-14" d="M2727.84,1807.93c-11,1.73-61.14,0-61.14,0s-.29,17.88-4,27.68-20.47,9.52-14.71-2.88-11.82-57.68-13-61.14c-.8-2.39-19.09-27.73-30.4-43.29-5.13-7-8.82-12.08-8.82-12.08l32-19.89s2.4,4.34,5.95,10.64h0c7.66,13.63,20.73,36.35,26.64,43.85,8.65,11,41.82,21.05,58,33.16S2738.8,1806.2,2727.84,1807.93Z"/><path class="cls-15" d="M2633.71,1707h0s-11.88,18.71-29.13,21.32c-5.13-7-8.82-12.08-8.82-12.08l32-19.89S2630.16,1700.67,2633.71,1707Z"/><path class="cls-12" d="M2059.34,1187c-.36,1.39,55.66,105.26,55.66,105.26l9.81-21.63-47.3-90.84S2063.09,1172.6,2059.34,1187Z"/><path class="cls-14" d="M2064.1,1431.58s27.9-96,24.66-105.12-15.54-23.38-15.79-31.58c-.49-16.08,14-22.25,13.73-26.86s4.94-15.54,7.83-12.94,14.42,26,19.9,25.38,8.06-8.63,10.38-9.81l9.52,9.23c3.17,14.71-6.08,25.67-14.15,50.47s-3.74,103.24-3.74,103.24S2079.53,1462.15,2064.1,1431.58Z"/><path class="cls-15" d="M2068.12,1417.46s15.73,15,47.71,1.57l.61,14.56-44.12,5.56-8.22-5.2Z"/><path class="cls-14" d="M2594.89,2463.3v89.85l-38.07,20.75s-.58-72.09-16.58-104.46c-17.94-36.29-92.62-173.24-146.74-237.25,0,0-14.83-15.58-18.52-42.61-1.53-11.23.68-45.52,3.77-81.81,4.37-51.13,10.51-106.18,10.51-106.18l91.1,11.25s-6.65,53.22-11.18,97.59c-2.92,28.51-4.95,53.37-3.77,58.1,0,0,52.52,63.77,63.67,131.19s39.45,125.93,39.45,125.93Z"/><path class="cls-14" d="M2351.25,2116.79a409.56,409.56,0,0,0,3.49,77.81c19.4,135.83-7.08,308.23-7.08,308.23l-44.12,98.68-38.93-3.88s44-50.26,47.73-101.84c1.53-21.55-4.08-88.12-9.45-133.78-6.48-55.15-44.12-185.58-40.23-199.85,1.47-5.37-.19-29.7-2.83-58-4.37-47-11.45-104.88-11.45-104.88L2356,1960.83l36.88-13.18s-3.85,7.44-9.22,20.81A468.32,468.32,0,0,0,2351.25,2116.79Z"/><path class="cls-15" d="M2383.65,1968.46a468.32,468.32,0,0,0-32.4,148.33c-18.28-14.28-91.41-12.6-91.41-12.6v0c-4.37-47-11.45-104.88-11.45-104.88L2356,1960.83C2365.24,1963.24,2374.52,1965.83,2383.65,1968.46Z"/><path class="cls-15" d="M2480.36,2012.84s-6.65,53.22-11.18,97.59c-34.07-6.46-90.43-2.66-90.43-2.66,4.37-51.13,10.51-106.18,10.51-106.18Z"/><path class="cls-16" d="M2348.13,2496.76a101.22,101.22,0,0,1-4.29,13.42c-5.3,12.21-13.62,23.27-20.88,34.34-7.84,12-15.08,24.38-23.05,36.26-4.06,6.06-8.64,10.8-16.17,11.84a34.8,34.8,0,0,1-10.44-.2c-2.11-.37-4.27-1.77-6.32-1.93-1.76-.14-3.49,1-5,1.76-5.67,3.08-10.87,7-16.51,10.12-4.93,2.74-10.24,4.43-15.31,6.85-1.58.75-3.82,1.7-4.37,3.56-.81,2.74,2.06,5.58,4.18,6.75,6.42,3.53,16.07,2.07,23.07,2.16,14.84.18,30.29,1.47,45.09-.36,4.85-.6,9.83-1.68,13.07-5.63,6-7.33,8.07-18.35,11.52-26.93,2.91-7.24,6.37-14.74,12-20.34a40.33,40.33,0,0,1,14.56-9c1.9-.68,2.78-1.24,3.67.71,1.47,3.2.2,8.6.25,12.06.1,7,.28,42,.28,44.51,0,1-.49,3.58,0,4.47.66,1.16-.21.46,1.69.81.94.17,5.55.58,6.37,0,1.23-.86.6-7.95.67-9.92q.36-10.41,1.23-20.79c1.11-13.29,1.91-27,5.37-40,2.86-10.64,6.13-19.62,5.6-30.86-.28-5.94-1.23-12.21-4.13-17.49-4.18-7.6-12.46-13.35-18.85-18.95Z"/><path class="cls-16" d="M2572.69,2438.16a98.72,98.72,0,0,1,3.71,13.6c2.21,13.12,1.25,26.93,1.19,40.16-.06,14.32.63,28.66.41,43-.11,7.29-1.37,13.77-7.12,18.74a34.88,34.88,0,0,1-8.86,5.51c-2,.85-4.55.85-6.36,1.83-1.55.84-2.41,2.7-3.21,4.17-3.07,5.68-5.32,11.78-8.34,17.48-2.64,5-6.17,9.3-9.11,14.08-.91,1.5-2.27,3.51-1.72,5.37.81,2.74,4.76,3.56,7.18,3.39,7.31-.54,14.61-7,20.52-10.75,12.55-7.93,26.21-15.26,37.62-24.85,3.74-3.15,7.33-6.77,7.9-11.84,1.06-9.43-3.22-19.79-5-28.86-1.5-7.66-2.68-15.84-1-23.58a40.23,40.23,0,0,1,7.3-15.5c1.22-1.6,1.66-2.55,3.46-1.4,3,1.88,4.85,7.1,6.78,10,3.88,5.78,23.11,35.08,24.47,37.18.55.84,1.54,3.27,2.44,3.74,1.19.61.08.5,1.87-.24.87-.36,5-2.53,5.33-3.46.57-1.4-3.82-7-4.83-8.69q-5.37-8.93-10.29-18.12c-6.31-11.74-13.12-23.71-17.25-36.43-3.4-10.48-5.55-19.79-12.11-28.93-3.47-4.83-7.68-9.58-13-12.42-7.65-4.1-17.72-4.42-26.12-5.64Z"/><path class="cls-12" d="M2486.74,2095.17s-80.46.86-135-4.32-113.93,0-113.93,0-14.13-133.24-14.85-200.73c-.5-46.41,6.71-101.42,11.26-131.25,2.07-13.54,3.59-21.89,3.59-21.89a419.78,419.78,0,0,1,60.13-48.8c53.65-35.66,130.38-65.86,174.55,10.26a182.17,182.17,0,0,1,14.21,31.63c5,14.28,9.15,28.58,12.65,42.79C2540.36,1939.46,2486.74,2095.17,2486.74,2095.17Z"/><path class="cls-14" d="M2400.52,1299.49c-7.8,22.49,0,105.56,0,105.56-12.41,5.19-92-6.64-82.78-10.68s11-51,9.81-55.95c-.37-1.62-5.29-3.15-12-5-13.59-3.68-34.6-8.55-40.76-17.81-9.24-13.84-5.2-62.58-2.6-69.21s-12.7-17-16.44-26,15.86-8.37,22.78-11,21.63-24.79,33.74-43.25a37.19,37.19,0,0,1,11.3-11.07,50.64,50.64,0,0,1,24.46-7.39s39.22-2,78.16,20.47S2408.3,1277,2400.52,1299.49Z"/><path class="cls-15" d="M2400.52,1299.49c-7.8,22.49,0,105.56,0,105.56-12.41,5.19-92-6.64-82.78-10.68s11-51,9.81-55.95c-.37-1.62-5.29-3.15-12-5,0,0,25.81-91.3,16.33-118.61s-8.3-59.64-8.3-59.64h0a50.64,50.64,0,0,1,24.46-7.39s39.22-2,78.16,20.47S2408.3,1277,2400.52,1299.49Z"/><path class="cls-17" d="M2499.39,1772.86s-127.29,6.52-171.41-5.59-93.72-8.4-93.72-8.4c2.07-13.54,3.59-21.89,3.59-21.89a419.78,419.78,0,0,1,60.13-48.8c52.37-4.42,129.24,3.2,174.55,10.26a182.17,182.17,0,0,1,14.21,31.63C2491.7,1744.35,2495.89,1758.65,2499.39,1772.86Z"/><path class="cls-18" d="M2324.36,1380.5s40.45,23.33,74.59,4.76c0,0,4.19-3.43,4.41-5.92s4.43,6.28,33.42,6.55,49.75,11.51,69.64,49.8,52.78,121.77,70.95,145.78,54.51,119.39,54.51,119.39-14.5,22-37.57,23.15c0,0-43.11-63.59-60.42-80.9s-45.79-87.38-55.77-102.09c0,0-3,45.42,0,61.43s24.63,144.92,22.46,144.92-35.9.86-83.92,2.59-189.9-4.76-197.69,5.19,19-103.82,16.44-118.09-31.15-34.18-26.82-67.49,2.81-52.34,2.81-52.34-109.66,87.6-140.16,68.78-31.15-96-11-161.57c0,0,1.08-5,16.22,6.27s38.07-12.33,42-7.79.87,68.35.87,68.35,98.7-97.19,115.71-102.38,73.26-10.38,81-12.4S2321.24,1378.87,2324.36,1380.5Z"/><path class="cls-19" d="M2119.26,1491.27s-30.93,32.88-38.29,26,39.21-53.21,39.21-53.21Z"/><path class="cls-19" d="M2211.4,1517.23s22.71-20.77,26.17-14.71-26.4,54.94-29.42,73.54c0,0,.94-15.75,2.64-27.85S2211.4,1517.23,2211.4,1517.23Z"/><path class="cls-19" d="M2478.12,1541s-.46-52.78,2.13-53.21,26.72,110.8,27.24,111.83Z"/><path class="cls-20" d="M2341.44,1131.28a23.61,23.61,0,0,0-13.8,19.75,79.57,79.57,0,0,0,7.26,40c13.41,28.55,4.28,63.63,4.28,63.63s-.76,9,8.3-3.07,31.11-16,36.31-.87-13.42,37.64-13.42,37.64,11.4,37.63,26.68,49.31c0,0-23.65,32.33-4.61,79.76s119.82,23.63,123.29-15.3c0,0-50.19,6.92-54.51-21.63s-54.07-45-54.07-45,81.32-52.78,80.46-110.31C2486.78,1170.17,2424.53,1094.1,2341.44,1131.28Z"/><path class="cls-15" d="M2666.7,1807.93s-.07-10.38-1.87-12.55,4.25-4.75,19,2.17,22.27,11.15,22.27,11.15Z"/><path class="cls-21" d="M3170.87,1803.71h-376.7a12,12,0,0,1-12-12h0a12,12,0,0,1,12-12h376.7a12,12,0,0,1,12,12h0A12,12,0,0,1,3170.87,1803.71Z"/><path class="cls-21" d="M3180.17,1779.78h-301.3a13.58,13.58,0,0,1-13.72-15.65l24-195.15a18.27,18.27,0,0,1,17.58-15.65H3208a13.59,13.59,0,0,1,13.73,15.65l-24,195.15A18.28,18.28,0,0,1,3180.17,1779.78Z"/><path class="cls-22" d="M3180.17,1779.78H2887.76a13.59,13.59,0,0,1-13.72-15.65l24-195.15a18.26,18.26,0,0,1,17.57-15.65H3208a13.59,13.59,0,0,1,13.73,15.65l-24,195.15A18.28,18.28,0,0,1,3180.17,1779.78Z"/><path class="cls-23" d="M3164.24,1779.78h-30.09l-237.5-199.36,1.41-11.44a17.45,17.45,0,0,1,4.12-9.17l262.06,220Zm-227.89-226.45,259.08,217.47a17.08,17.08,0,0,0,2.32-6.67l3.74-30.35-215-180.45Z"/><path class="cls-22" d="M2862.63,1803.71h-68.46a12,12,0,0,1-12-12h0a12,12,0,0,1,12-12h68.46a12,12,0,0,1,12,12h0A12,12,0,0,1,2862.63,1803.71Z"/><path class="cls-24" d="M3653.16,1794.64c15.63-8.82,42.46-34.88,38-53.21a15.38,15.38,0,0,0-8.67-10.67c-10.36-4.81-25.19,1-26.85,1.68l4.94,10.3c3.58-1.46,12.33-3.84,16.44-1.92a4,4,0,0,1,2.24,3.08c2.61,10.68-18.38,33.19-32.45,41.14Z"/><path class="cls-25" d="M3661.47,1721.22h-69.29a2.22,2.22,0,0,0-2.21,2.22V1776a27.69,27.69,0,0,0,27.69,27.7H3636a27.7,27.7,0,0,0,27.69-27.7v-52.57A2.22,2.22,0,0,0,3661.47,1721.22Z"/><path class="cls-2" d="M3613.93,1594.14c.16.19,0,.65-.45,1.35l-.84,1.24-.54.77c-.2.27-.39.57-.6.88a49.07,49.07,0,0,0-2.82,4.58,43.3,43.3,0,0,0-2.84,6.42,44.74,44.74,0,0,0-2,8.18,43.22,43.22,0,0,0-.41,4.65,40.93,40.93,0,0,0,.11,4.93,43.27,43.27,0,0,0,.72,5.09,41.76,41.76,0,0,0,1.44,5.13A34.3,34.3,0,0,0,3611,1647c2.31,3,5.36,5.68,8.15,8.83a35.9,35.9,0,0,1,3.87,5.13,25.76,25.76,0,0,1,2.61,5.85,27.42,27.42,0,0,1,.88,11.49,32.91,32.91,0,0,1-2.7,9.38,32.23,32.23,0,0,1-8.13,11c-2.46,2.1-4.17,2.77-4.46,2.42s.74-1.78,2.4-4.26a43.86,43.86,0,0,0,5.51-11,31.93,31.93,0,0,0,1.51-8.08,22.88,22.88,0,0,0-1.24-8.92,19.51,19.51,0,0,0-2.13-4.26,31,31,0,0,0-3.28-4.07c-1.26-1.36-2.67-2.73-4.14-4.21a55,55,0,0,1-4.43-4.89,38.64,38.64,0,0,1-6.32-11.8,44.06,44.06,0,0,1-1.53-6.14,44.82,44.82,0,0,1-.6-6,46.52,46.52,0,0,1,.2-5.71,45.47,45.47,0,0,1,.85-5.3,42.09,42.09,0,0,1,3.16-9,36.68,36.68,0,0,1,4.16-6.67,28.08,28.08,0,0,1,4.09-4.25c.31-.26.59-.51.89-.72s.56-.4.82-.57.49-.33.72-.47l.63-.33C3613.3,1594.05,3613.77,1594,3613.93,1594.14Z"/><path class="cls-2" d="M3648.32,1584.23c.36.33-.57,2-2.51,4.85s-4.89,6.74-8,11.76c-.77,1.25-1.55,2.58-2.29,4s-1.45,2.88-2.11,4.43a41,41,0,0,0-1.72,4.87,37.29,37.29,0,0,0-1.13,5.29,28.8,28.8,0,0,0,.48,11.19,22.78,22.78,0,0,0,2.11,5.38,35.06,35.06,0,0,0,3.49,5.17c2.72,3.42,5.92,6.67,8.78,10.3a44.58,44.58,0,0,1,3.92,5.76,30.23,30.23,0,0,1,2.67,6.38,33.39,33.39,0,0,1,1.15,12.45,36.18,36.18,0,0,1-1,5.53,33.66,33.66,0,0,1-1.66,4.88,32.7,32.7,0,0,1-2.13,4.14c-.36.64-.78,1.22-1.16,1.8s-.8,1.09-1.21,1.59a26.13,26.13,0,0,1-4.71,4.58,20.59,20.59,0,0,1-2,1.32,16.51,16.51,0,0,1-1.57.76c-.89.33-1.41.39-1.54.18-.3-.45,1.14-1.72,3.2-4.27a36.46,36.46,0,0,0,3.35-4.83c.28-.49.55-1,.84-1.54s.55-1.1.79-1.69a31.12,31.12,0,0,0,1.41-3.79,32.74,32.74,0,0,0,1.47-9,29.38,29.38,0,0,0-1.51-10.13,25.26,25.26,0,0,0-2.29-4.93,40.54,40.54,0,0,0-3.48-4.8c-2.62-3.21-5.84-6.4-8.92-10.25a40.9,40.9,0,0,1-4.16-6.25,29.15,29.15,0,0,1-2.64-7.08,32.2,32.2,0,0,1-.81-7.15,35.93,35.93,0,0,1,.64-6.74,40,40,0,0,1,1.64-6.14,42.88,42.88,0,0,1,2.33-5.46,50,50,0,0,1,2.73-4.72c.94-1.47,1.91-2.81,2.87-4.06a75.72,75.72,0,0,1,5.52-6.37c1.71-1.77,3.25-3.22,4.54-4.36C3646.34,1585,3648,1583.91,3648.32,1584.23Z"/><path class="cls-26" d="M3472.09,1774.74h-96.9a14.49,14.49,0,0,0,0,29h96.9a14.49,14.49,0,0,0,0-29Z"/><path class="cls-27" d="M3255.33,1776.43h123.92a12.83,12.83,0,0,1,12.8,12.79h0a12.84,12.84,0,0,1-12.8,12.8H3255.33Z"/><path class="cls-28" d="M3255.33,1774.74a1.69,1.69,0,0,0,0,3.37h123.92a11.11,11.11,0,0,1,0,22.22H3255.33a1.69,1.69,0,0,0,0,3.38h123.92a14.49,14.49,0,0,0,0-29Z"/><path class="cls-28" d="M3467.62,1789.22a14.51,14.51,0,0,0-14.48-14.48h12.6a14.49,14.49,0,0,1,0,29h-12.6a14.53,14.53,0,0,0,14.48-14.49Z"/><path class="cls-28" d="M3449.37,1789.22a14.51,14.51,0,0,0-14.48-14.48h12.6a14.49,14.49,0,0,1,0,29h-12.6a14.53,14.53,0,0,0,14.48-14.49Z"/><path class="cls-29" d="M3280.81,1749.37h84.85a12.69,12.69,0,0,1,0,25.37h-84.85a12.69,12.69,0,0,1,0-25.37Z"/><path class="cls-27" d="M3470.61,1750.85H3362.1a11.24,11.24,0,0,0-11.2,11.21h0a11.23,11.23,0,0,0,11.2,11.2h108.51Z"/><path class="cls-30" d="M3470.61,1749.37a1.48,1.48,0,0,1,0,3H3362.1a9.73,9.73,0,0,0,0,19.45h108.51a1.48,1.48,0,1,1,0,3H3362.1a12.69,12.69,0,0,1,0-25.37Z"/><path class="cls-30" d="M3284.72,1762.06a12.74,12.74,0,0,1,12.68-12.69h-11a12.69,12.69,0,0,0,0,25.37h11a12.72,12.72,0,0,1-12.68-12.68Z"/><path class="cls-30" d="M3300.7,1762.06a12.74,12.74,0,0,1,12.69-12.69h-11a12.69,12.69,0,0,0,0,25.37h11a12.72,12.72,0,0,1-12.69-12.68Z"/><path class="cls-31" d="M1231.23,1017.94a118.87,118.87,0,0,1,113.31,209c-57.49,31.26-129.13,10-160.56-47.32C1152.08,1121.48,1173.94,1048.87,1231.23,1017.94Zm91.27,143c8.82-4.82,17.66-9.6,26.46-14.46,6.38-3.53,6.82-11,.82-15.12-1.61-1.1-1.83-1.73-.88-3.46,2.72-4.94.54-10.4-4.78-12.32-1.58-.57-2.36-.84-1.29-2.79,2.89-5.3.88-10.84-4.68-13.44-1.63-.76-2.47-1.52-2-3.66a10.6,10.6,0,0,0-4.65-11.75c-3.89-2.67-8-2.47-12.08-.19-8.59,4.76-17.26,9.37-25.83,14.17-2.14,1.2-2.62.84-2.72-1.55a101.45,101.45,0,0,0-2.08-17.52,31.72,31.72,0,0,0-13.11-20.07,9,9,0,0,0-10.11-.43,8.09,8.09,0,0,0-4.53,7.56,8.93,8.93,0,0,0,2,5.42c3.46,4.84,3.54,10,2.25,15.53-1.77,7.55-3.48,15.1-4.52,22.85-1.25,9.28,1.07,17.64,5,25.53,6.26,12.49,13.24,24.62,20,36.88,2.7,4.93,5.63,5.77,10.54,3.1Q1309.44,1168.06,1322.5,1160.89Zm-77.21,9.74h0c4.65,8.52,9.32,17,13.94,25.57,1.36,2.5,3.12,3.73,5.9,2.22,5.59-3,11.18-6,16.72-9.14,3.24-1.81,3.74-3.57,2-6.84q-13.83-25.42-27.74-50.82c-1.85-3.38-3.19-3.73-6.72-1.83q-7.93,4.26-15.83,8.63c-3.64,2-4,3.23-2,6.94Q1238.36,1158,1245.29,1170.63Z"/><path class="cls-32" d="M1322.5,1160.89q-13.08,7.15-26.17,14.28c-4.91,2.67-7.84,1.83-10.54-3.1-6.71-12.26-13.69-24.39-20-36.88-3.95-7.89-6.27-16.25-5-25.53,1-7.75,2.75-15.3,4.52-22.85,1.29-5.58,1.21-10.69-2.25-15.53a8.93,8.93,0,0,1-2-5.42,8.09,8.09,0,0,1,4.53-7.56,9,9,0,0,1,10.11.43,31.72,31.72,0,0,1,13.11,20.07,101.45,101.45,0,0,1,2.08,17.52c.1,2.39.58,2.75,2.72,1.55,8.57-4.8,17.24-9.41,25.83-14.17,4.11-2.28,8.19-2.48,12.08.19a10.6,10.6,0,0,1,4.65,11.75c-.49,2.14.35,2.9,2,3.66,5.56,2.6,7.57,8.14,4.68,13.44-1.07,2-.29,2.22,1.29,2.79,5.32,1.92,7.5,7.38,4.78,12.32-1,1.73-.73,2.36.88,3.46,6,4.11,5.56,11.59-.82,15.12C1340.16,1151.29,1331.32,1156.07,1322.5,1160.89Z"/><path class="cls-32" d="M1245.29,1170.63q-6.9-12.63-13.78-25.26c-2-3.71-1.66-4.92,2-6.94q7.89-4.37,15.83-8.63c3.53-1.9,4.87-1.55,6.72,1.83q13.9,25.39,27.74,50.82c1.78,3.27,1.28,5-2,6.84-5.54,3.1-11.13,6.12-16.72,9.14-2.78,1.51-4.54.28-5.9-2.22-4.62-8.54-9.29-17-13.94-25.57Z"/><path class="cls-33" d="M1179.34,1366c46.75-44.42,121.9-46.72,170.72.18,48.42,46.52,49.63,123.84,3,172-47.66,49.23-125.87,50.8-174.94,3.18C1130.26,1494.82,1128,1416,1179.34,1366Zm109.57,64.86a45.81,45.81,0,0,0,4.57-13,31.57,31.57,0,0,0-.91-14.82,37.63,37.63,0,0,0-6.36-11.5c-5.55-7.15-11.94-13-20.88-15.81-17-5.33-36.95,4.24-46.18,17.18-6.66,9.32-10.28,19.93-12.1,31.1-4.18,25.61-.92,50.72,5.43,75.6a5,5,0,0,0,3.91,4c7.68,2.25,15.39,4.39,23.26,5.87,20.2,3.8,40.49,5.72,60.86,1.42,14.15-3,26.77-8.72,35.39-21.13,5.1-7.34,8.64-15.52,8.46-24.32-.32-15.12-8.66-26-21.24-33.58C1312.33,1425.43,1301,1425,1288.91,1430.86Z"/><path class="cls-32" d="M1288.91,1430.86c12.06-5.83,23.42-5.43,34.21,1.07,12.58,7.57,20.92,18.46,21.24,33.58.18,8.8-3.36,17-8.46,24.32-8.62,12.41-21.24,18.14-35.39,21.13-20.37,4.3-40.66,2.38-60.86-1.42-7.87-1.48-15.58-3.62-23.26-5.87a5,5,0,0,1-3.91-4c-6.35-24.88-9.61-50-5.43-75.6,1.82-11.17,5.44-21.78,12.1-31.1,9.23-12.94,29.14-22.51,46.18-17.18,8.94,2.8,15.33,8.66,20.88,15.81a37.63,37.63,0,0,1,6.36,11.5,31.57,31.57,0,0,1,.91,14.82A45.81,45.81,0,0,1,1288.91,1430.86Z"/><path class="cls-34" d="M1363,1679.26c4.35-40.2,39.36-71.77,81.73-69.13a76.24,76.24,0,0,1,71.18,81,77.47,77.47,0,0,1-82.39,72.45C1391.72,1760.78,1358.67,1724,1363,1679.26Zm78.7-13.4a28.46,28.46,0,0,0-3.07-8.06,19.86,19.86,0,0,0-6.44-6.72,23.4,23.4,0,0,0-7.71-2.92c-5.56-1.17-11-1.38-16.4.9-10.31,4.36-16,17-15.12,26.94a45.45,45.45,0,0,0,6.82,19.78c8.38,14,20.13,24.63,33.25,34a3.19,3.19,0,0,0,3.51.35c4.58-2,9.14-4.14,13.5-6.63,11.21-6.37,21.69-13.68,29.69-24,5.55-7.16,9.27-15,8.36-24.45-.54-5.58-2.16-10.93-5.82-15.06-6.28-7.1-14.68-8.93-23.77-7.45C1450.68,1653.77,1445.08,1658.18,1441.67,1665.86Z"/><path class="cls-32" d="M1441.67,1665.86c3.41-7.68,9-12.09,16.8-13.36,9.09-1.48,17.49.35,23.77,7.45,3.66,4.13,5.28,9.48,5.82,15.06.91,9.43-2.81,17.29-8.36,24.45-8,10.32-18.48,17.63-29.69,24-4.36,2.49-8.92,4.59-13.5,6.63a3.19,3.19,0,0,1-3.51-.35c-13.12-9.33-24.87-20-33.25-34a45.45,45.45,0,0,1-6.82-19.78c-.83-9.93,4.81-22.58,15.12-26.94,5.41-2.28,10.84-2.07,16.4-.9a23.4,23.4,0,0,1,7.71,2.92,19.86,19.86,0,0,1,6.44,6.72A28.46,28.46,0,0,1,1441.67,1665.86Z"/><g class="cls-35"><path class="cls-34" d="M1581.76,1819.6a48.19,48.19,0,0,1,9.68-65.89,47.42,47.42,0,0,1,66.54,8.5,48.18,48.18,0,0,1-8.62,67.7A47.52,47.52,0,0,1,1581.76,1819.6ZM1613,1781a18.1,18.1,0,0,0-4.75-2.49,12.4,12.4,0,0,0-5.77-.48,14.5,14.5,0,0,0-4.8,1.81,16.59,16.59,0,0,0-7.28,7.17c-3,6.27-.44,14.5,4,18.79a28.45,28.45,0,0,0,11.32,6.42c9.65,3,19.53,3.2,29.49,2.15A1.94,1.94,0,0,0,1637,1813c1.3-2.84,2.56-5.69,3.58-8.64,2.6-7.59,4.48-15.31,4-23.42-.36-5.62-1.86-10.82-6.16-14.84a16.18,16.18,0,0,0-8.92-4.64c-5.85-.72-10.52,1.88-14.15,6.31C1612.18,1771.61,1611.39,1776,1613,1781Z"/><path class="cls-32" d="M1613,1781c-1.57-5-.78-9.34,2.34-13.14,3.63-4.43,8.3-7,14.15-6.31a16.18,16.18,0,0,1,8.92,4.64c4.3,4,5.8,9.22,6.16,14.84.51,8.11-1.37,15.83-4,23.42-1,2.95-2.28,5.8-3.58,8.64a1.94,1.94,0,0,1-1.77,1.28c-10,1-19.84.9-29.49-2.15a28.45,28.45,0,0,1-11.32-6.42c-4.48-4.29-7.05-12.52-4-18.79a16.59,16.59,0,0,1,7.28-7.17,14.5,14.5,0,0,1,4.8-1.81,12.4,12.4,0,0,1,5.77.48A18.1,18.1,0,0,1,1613,1781Z"/></g><path class="cls-36" d="M3587.34,1044.26c-28.79,135.93-114.68,245.12-227.25,307.78A459.79,459.79,0,0,1,3040,1400.22c-249.43-52.84-408.78-297.88-355.94-547.31a459.93,459.93,0,0,1,185.78-281.74c101.26-71.3,230.79-101.9,361.52-74.21C3480.81,549.8,3640.18,794.84,3587.34,1044.26Z"/><path class="cls-37" d="M1371.64,694a261.58,261.58,0,0,1-310.1,201.68c-141.32-29.94-231.61-168.78-201.67-310.1A261.57,261.57,0,0,1,1170,383.89C1311.28,413.83,1401.58,552.67,1371.64,694Z"/><path class="cls-10" d="M1221.68,736.09c-.12.18-.77,6-1.36,11.43a39,39,0,0,1-7.76,18.69l-30.39,40.6c-5,6.69-4.9,14.7.2,17.42h0c4.43,2.36,11.16-.11,15.71-5.77l54.23-66Z"/><g class="cls-38"><path class="cls-39" d="M1220.76,743.53c.44-4,.83-7.3.92-7.44l30.63,16.35-54.23,66c-3.86,4.81-9.29,7.28-13.55,6.48,15.46-17.21,29.15-40.33,41.34-56.09C1238.12,754.94,1226.24,751.49,1220.76,743.53Z"/></g><path class="cls-2" d="M956,673.68s107.94-20.09,222.31,72.29l47.43-58.72c-114.37-92.39-117.44-202.14-117.44-202.14Z"/><g class="cls-38"><path class="cls-40" d="M999.39,619.89c52,49.35,115.41,65.18,185.28,89.18a186.15,186.15,0,0,1,17.89,6.82L1178.26,746C1063.89,653.59,956,673.68,956,673.68Z"/></g><ellipse class="cls-10" cx="1032.1" cy="579.39" rx="121.2" ry="49.35" transform="translate(-67.15 1018.24) rotate(-51.07)"/><path class="cls-12" d="M1104.08,490.28c-18-14.56-64.55,13.16-103.92,61.91s-56.68,100.07-38.67,114.62,64.55-13.17,103.92-61.91S1122.1,504.83,1104.08,490.28Z"/><g class="cls-38"><path class="cls-40" d="M1106.22,534.89a11.57,11.57,0,0,0-2.51-2.88c-12.83-10.36-46,9.37-74,44.07s-40.35,71.23-27.52,81.59a11.64,11.64,0,0,0,3.35,1.85c18.78-11.21,40.21-30.3,59.85-54.62S1099.21,555.61,1106.22,534.89Z"/></g><path class="cls-41" d="M1255.79,711l-39.74-32.1-1,2.51a120.07,120.07,0,0,1-42.92,54l-4,2.76,39.73,32.09c12.74,10.29,31.09,8.69,41-3.58l12-14.87C1270.81,739.58,1268.52,721.3,1255.79,711Z"/><path class="cls-11" d="M1168.16,738.19l13.22,10.68,10.08,8.15,16.45,13.29c12.72,10.27,31.08,8.68,41-3.59l12-14.89c9.91-12.25,7.6-30.55-5.12-40.82l-18.14-14.66-9.11-7.35L1216,678.92l-1,2.5a120.09,120.09,0,0,1-42.93,54Z"/><path class="cls-10" d="M1181.38,748.87l10.08,8.15a169.3,169.3,0,0,0,46.19-60.67l-9.11-7.35A169.21,169.21,0,0,1,1181.38,748.87Z"/><path class="cls-42" d="M1024.22,571.62c-5.85,7.24-6.33,17.62-1.22,26.26l19.26,32.55a302.25,302.25,0,0,0,43.25-53.54l-35.88-12C1040.11,561.73,1030.07,564.38,1024.22,571.62Z"/><path class="cls-2" d="M1035.25,580.53c-5.29,6.56-12,9.87-15.1,7.41s-1.22-9.76,4.07-16.32,12-9.87,15.1-7.41S1040.54,574,1035.25,580.53Z"/><g class="cls-38"><path class="cls-41" d="M1172.13,735.44a119.78,119.78,0,0,0,23.85-22c21.47,8.79,44.38,25.72,67.54,34.49a29,29,0,0,1-2.61,3.92l-12,14.89c-9.91,12.27-28.27,13.86-41,3.59L1191.46,757l-10.08-8.15-13.22-10.68Z"/></g><path class="cls-43" d="M954.29,360c2.35,2.18,4.51,4.46,6.61,6.78s4.12,4.67,6.11,7.06q5.88,7.17,11.19,14.68a336.3,336.3,0,0,1,19.44,31,332,332,0,0,1,16.07,32.88q3.57,8.46,6.54,17.27c1,2.94,1.92,5.9,2.76,8.91s1.65,6.06,2.25,9.21c-2.36-2.18-4.53-4.46-6.63-6.77s-4.13-4.68-6.11-7.06q-5.89-7.17-11.2-14.68a332.07,332.07,0,0,1-19.41-31,336.54,336.54,0,0,1-16-32.89q-3.57-8.46-6.55-17.26c-1-2.94-1.92-5.9-2.77-8.91S954.89,363.15,954.29,360Z"/><path class="cls-43" d="M980,531.17c-3.22-1.34-6.31-2.84-9.36-4.4s-6-3.18-9-4.85c-5.9-3.35-11.62-6.91-17.25-10.6Q927.6,500.21,912,487.52t-29.94-26.81c-4.76-4.75-9.42-9.62-13.9-14.71-2.23-2.56-4.44-5.14-6.58-7.82s-4.25-5.38-6.21-8.27c3.23,1.33,6.32,2.83,9.37,4.38s6,3.18,9,4.84c5.9,3.35,11.62,6.91,17.25,10.6q16.82,11.13,32.36,23.82t29.93,26.83c4.76,4.75,9.42,9.62,13.9,14.71,2.23,2.56,4.45,5.14,6.59,7.81S978.05,528.28,980,531.17Z"/><path class="cls-43" d="M945.42,586c-3.31-.27-6.54-.74-9.74-1.27s-6.37-1.16-9.51-1.82c-6.29-1.36-12.48-3-18.6-4.72a366.9,366.9,0,0,1-35.93-12.54,360.65,360.65,0,0,1-34.47-16.12c-5.61-3-11.16-6.19-16.6-9.62-2.71-1.73-5.41-3.49-8.07-5.36s-5.3-3.78-7.85-5.91c3.31.26,6.54.73,9.74,1.26s6.37,1.15,9.52,1.81c6.29,1.35,12.48,3,18.6,4.72A361.65,361.65,0,0,1,878.43,549a368,368,0,0,1,34.46,16.14c5.61,3,11.15,6.2,16.6,9.63,2.71,1.72,5.42,3.48,8.08,5.34S942.87,583.91,945.42,586Z"/><path class="cls-44" d="M3068.09,1165.59l-2.74-.93c-1-3.09-3.66-3.52-6.29-4-3.87-1.53-7.1-3.7-8-8.14-.7-3.18-1.63-6.22-4.86-7.83v0c-2.14-16.89-10.17-32.14-13.39-48.76-1.66-8.52-5-16.57-11.13-23.11l-1-2c-.34-3.69-.77-7.31-5.55-7.88h-.54l-.18-.51c-.11-4.37-1.2-8-6.3-8.85l-.5-.4.11-.62-1.57-2.15,0,0a25.51,25.51,0,0,0-8.91-13c-10.66-11.82-16.78-26.28-22.5-40.7-24.2-60.92-10.48-115.72,30.26-164.21,41.32-49.18,95.71-67.36,158.63-58.31,44.22,6.36,81.52,27.59,108,63.59,3.53,4.8,7.4,11.56,11,17.55l0,0c5.42,17.31,8.58,35.18,7.65,53.17-.87,16.8-4,33.43-10.74,49.27a353.72,353.72,0,0,1-30.18,56.26c-8,12.09-17.46,23.17-24.44,36-8.17,14.93-9.1,32-14.2,47.79-4.7,14.59-9,29.3-21.15,40.16a94.89,94.89,0,0,1-24.39,15.61c-13.12,5.92-27.4,7.93-41.4,10.44C3105.45,1167.36,3086.8,1169.39,3068.09,1165.59Zm39.74-361.4c-31.8-.53-56.35,13.73-76.79,34.63-12.81,13.09-23.53,28.5-26.62,47.8-1.24,7.72.63,18.54,5.67,21.71,5.47,3.44,17,1.22,22.93-3.63,8.44-6.93,12.46-16.76,18.26-25.49,11.6-17.47,27.72-29.33,47.39-37,9.23-3.58,19.3-4.85,27.61-11.54,8.56-6.89,7.41-21-3.12-24.1C3117.73,805,3112.43,803.77,3107.83,804.19ZM3001.4,949.51c10.61.09,18.3-7.29,18.47-17.72.16-9.52-7.84-17-18.16-17.08-10.17,0-17.14,6.7-17.34,16.74C2984.16,942,2991.2,949.43,3001.4,949.51Z"/><path class="cls-45" d="M3068.09,1165.59c18.71,3.8,37.36,1.77,55.81-1.53,14-2.51,28.28-4.52,41.4-10.44a94.89,94.89,0,0,0,24.39-15.61c12.16-10.86,16.45-25.57,21.15-40.16,5.1-15.81,6-32.86,14.2-47.79,7-12.79,16.45-23.87,24.44-36a353.72,353.72,0,0,0,30.18-56.26c6.79-15.84,9.87-32.47,10.74-49.27.93-18-2.23-35.86-7.65-53.17a129.93,129.93,0,0,1,11.43,19.43c13.74,32.39,19.25,65.88,10.2,100.44a208.22,208.22,0,0,1-38.42,76.4c-15.11,19.15-23.92,40.53-30,63.58-2,7.7-4.25,15.36-6.46,23-5.16,18-21.91,31.58-40.57,31.77-35.11.37-70.23.21-105.34,0C3078.23,1170,3072.35,1170.2,3068.09,1165.59Z"/><path class="cls-44" d="M3396.21,942c12.76,0,25.53-.15,38.3.06,9.09.16,14.72,5.6,15.11,14,.37,7.62-4.85,13.77-13.72,14.46-9.78.77-19.64.47-29.48.51-16.49.06-33,.09-49.47,0-9.76-.06-16.07-6.15-16-15.05.08-7.89,6.23-13.71,15.35-13.86C3369.61,941.8,3382.91,942,3396.21,942Z"/><path class="cls-44" d="M3150.78,689.6c0,11.7.11,23.39,0,35.08-.12,8.86-5.75,15.35-13.46,16-8.53.74-15-4.33-15.69-14.13-1.82-24.92-1.26-49.91-.31-74.85.41-10.56,6-14.81,15.2-14.65,8.62.14,13.83,5.47,14.2,15.86C3151.11,665.14,3150.78,677.38,3150.78,689.6Z"/><path class="cls-44" d="M2875.23,942c12.49,0,25-.18,37.48.07,10.5.21,15,4.92,15.28,15.19.2,7.21-5.71,13.32-14.71,13.46-25.25.39-50.51.38-75.76.1-6.45-.07-12.63-1.82-14.91-9.5-2-6.68-.26-11.85,4.69-16.5,2.86-2.68,6.22-2.78,9.65-2.8C2849.71,941.93,2862.47,942,2875.23,942Z"/><path class="cls-44" d="M2996.23,791.79c1,6.42-2.86,10.35-8.35,12.57-6.15,2.48-12,1.24-16.87-3.56q-22.86-22.77-45.66-45.58c-2.25-2.26-4.55-4.48-6.68-6.85-5.79-6.43-5.91-15.31-.37-20.77,5.79-5.72,15-5.69,21.49.63,10.49,10.16,20.68,20.62,31,30.95q10.13,10.14,20.31,20.25C2994.47,782.75,2996.57,786.58,2996.23,791.79Z"/><path class="cls-46" d="M3139.67,1225.67c-18.88,0-37.76.06-56.65,0-9,0-10.75-2.11-11-10.64-.26-7.78,3.48-10.08,10.75-10,38.29.2,76.59.08,114.89.11,9.65,0,11.31,1.54,11.36,10.05s-1.91,10.47-11.07,10.51C3178.5,1225.72,3159.09,1225.67,3139.67,1225.67Z"/><path class="cls-44" d="M3293.17,1092.33c3.07-.51,6.7,1.5,9.51,4.3,17.11,17.06,34.24,34.1,50.89,51.59,7.09,7.44,6.63,15,.28,21.12-5.49,5.33-15.3,4.89-21.68-1.39-16.47-16.22-32.8-32.59-49.15-48.94-5.38-5.38-7.4-11.7-4.09-18.89C3281.41,1094.75,3286,1092.48,3293.17,1092.33Z"/><path class="cls-44" d="M2994.35,1107.32a20.42,20.42,0,0,1-6.34,12.15c-15.92,15.91-31.78,31.88-47.76,47.72-6.43,6.37-16.41,6.56-22.25.73-5.35-5.32-5.23-14.62.86-20.78,16.59-16.79,33.4-33.36,50.13-50,4.83-4.8,10.48-6.1,16.78-3.46C2991.59,1096.11,2993.84,1101,2994.35,1107.32Z"/><path class="cls-44" d="M3344.29,723.48c11.11.37,17.42,10.8,12.61,20.42a23,23,0,0,1-4.1,5.81c-15,15.1-29.88,30.26-45.12,45.09-9.25,9-21,7.35-25.63-3-2.73-6.15-1.09-11.92,3.09-16.18,15.61-15.9,31.68-31.33,47.5-47C3336,725.21,3339.75,723.05,3344.29,723.48Z"/><path class="cls-46" d="M3140.2,1199c-19.42,0-38.85,0-58.27,0-8.06,0-9.81-2.27-9.94-10.79-.11-7.17,3.23-10,10.22-9.93,38.85.12,77.7,0,116.55.09,8.24,0,10.14,2.32,10.3,10.51.15,7.48-3,10.39-10.58,10.27C3179.06,1198.81,3159.63,1199,3140.2,1199Z"/><path class="cls-46" d="M3140.52,1251.81c-17.3,0-34.6-.11-51.9.06-6.28.06-10.21-1.57-10.34-8.81s3-10.07,10.07-10q52.29.2,104.59,0c6.6,0,9.82,2.51,9.87,9.35.05,7.31-3.43,9.64-10.4,9.52C3175.12,1251.61,3157.81,1251.81,3140.52,1251.81Z"/><path class="cls-46" d="M3141,1259.75c15.14,0,30.28,0,45.42,0,2,0,4.74-1.14,5.75,1.11s-.62,4.58-2,6.53a29.34,29.34,0,0,1-13.94,10.2c-23.81,8.93-47.69,9.07-71.48-.1-5.78-2.22-10.93-5.57-14.35-10.9-2.63-4.1-3.36-7.13,3.62-7C3109.68,1260,3125.35,1259.75,3141,1259.75Z"/><path class="cls-47" d="M3021.66,1072.8c6.11,6.54,9.47,14.59,11.13,23.11,3.22,16.62,11.25,31.87,13.39,48.76-2.32-.43-2.54-2.4-3.07-4.16C3036.21,1117.86,3030.74,1094.76,3021.66,1072.8Z"/><path class="cls-47" d="M2997.29,1037.44a25.51,25.51,0,0,1,8.91,13C3001.12,1047.55,2998.61,1042.91,2997.29,1037.44Z"/><path class="cls-47" d="M3008.13,1053.55c5.1.81,6.19,4.48,6.3,8.85A15.36,15.36,0,0,1,3008.13,1053.55Z"/><path class="cls-47" d="M3015.15,1062.92c4.78.57,5.21,4.19,5.55,7.88C3017.12,1069.39,3015.66,1066.49,3015.15,1062.92Z"/><path class="cls-47" d="M3046.17,1144.65c3.23,1.61,4.16,4.65,4.86,7.83C3047.27,1151.2,3046.33,1148.16,3046.17,1144.65Z"/><path class="cls-47" d="M3059.06,1160.62c2.63.52,5.32,1,6.29,4C3062.47,1164.54,3060.14,1163.56,3059.06,1160.62Z"/><path class="cls-47" d="M3006.17,1050.38l1.57,2.15Z"/><path class="cls-48" d="M3107.83,804.19c4.6-.42,9.9.79,15.33,2.4,10.53,3.12,11.68,17.21,3.12,24.1-8.31,6.69-18.38,8-27.61,11.54-19.67,7.65-35.79,19.51-47.39,37-5.8,8.73-9.82,18.56-18.26,25.49-5.92,4.85-17.46,7.07-22.93,3.63-5-3.17-6.91-14-5.67-21.71,3.09-19.3,13.81-34.71,26.62-47.8C3051.48,817.92,3076,803.66,3107.83,804.19Zm.48,3c-4.62,0-7.28-.08-9.94,0a34.92,34.92,0,0,0-4.75.63c-29.9,5.35-52.59,22-70.21,45.91-8,10.9-14.64,22.79-15.89,36.81-.64,7.2.87,13.83,8.33,16.3s13.46-1.43,17.76-7.57c4.41-6.32,8.6-12.8,12.79-19.27a100.75,100.75,0,0,1,52.11-41.16c8-2.84,16.27-4.9,23.62-9.37,4-2.44,6.22-5.77,6-10.46-.22-5.07-3.06-8.22-7.63-10.23S3111.09,807.46,3108.31,807.15Z"/><path class="cls-49" d="M3001.4,949.51c-10.2-.08-17.24-7.55-17-18.06.2-10,7.17-16.78,17.34-16.74,10.32,0,18.32,7.56,18.16,17.08C3019.7,942.22,3012,949.6,3001.4,949.51Z"/><path class="cls-49" d="M3108.31,807.15c2.78.31,7.61-.4,12.2,1.62s7.41,5.16,7.63,10.23c.21,4.69-2,8-6,10.46-7.35,4.47-15.64,6.53-23.62,9.37A100.75,100.75,0,0,0,3046.4,880c-4.19,6.47-8.38,13-12.79,19.27-4.3,6.14-10.21,10.08-17.76,7.57s-9-9.1-8.33-16.3c1.25-14,7.86-25.91,15.89-36.81,17.62-23.91,40.31-40.56,70.21-45.91a34.92,34.92,0,0,1,4.75-.63C3101,807.07,3103.69,807.15,3108.31,807.15Z"/><path class="cls-50" d="M1509.43,2109.77c64.48-27.86,74.7,44.19,46.06,101.05-19.39,38.46-89.25,136.95-136.29,220.72h-53.69C1383.87,2304.8,1442.77,2138.56,1509.43,2109.77Z"/><path class="cls-51" d="M1384.69,2431.54c45.78-153.55,151.22-298.26,151.64-298.84a2.86,2.86,0,0,1,4-.66,2.79,2.79,0,0,1,.66,3.91c-.42.58-104.75,143.79-150.42,295.59Z"/><path class="cls-52" d="M1373.15,1882.07c-65-63.75-109.43,17.07-100.37,98.26,8.58,77,83.65,341.16,74.68,452.25l25.61,0C1431.34,2290.21,1456.39,1963.67,1373.15,1882.07Z"/><path class="cls-51" d="M1363.65,2432.61c54.07-224.5-32.74-535-33-536.06a3.75,3.75,0,0,0-4.46-2.64,3.46,3.46,0,0,0-2.53,4.33c.29,1,87.2,311.91,32.61,534.35Z"/><path class="cls-53" d="M1213.1,2023c-68.17-32.55-81.24,44-52.28,106,24,51.38,126.36,202.26,167,300.07l33.79-1.16C1357.88,2291,1293.57,2061.45,1213.1,2023Z"/><path class="cls-51" d="M1349.3,2428.39c-31-184.36-165.18-381.29-165.67-382a3.08,3.08,0,0,0-4.21-.86,3,3,0,0,0-.81,4.15c.47.71,133.84,196.37,164.69,378.93Z"/><path class="cls-52" d="M1476.9,2404.19H1276.37a10.93,10.93,0,0,0-10.9,10.9v49.5a10.94,10.94,0,0,0,10.9,10.91H1476.9a10.94,10.94,0,0,0,10.91-10.91v-49.5A10.93,10.93,0,0,0,1476.9,2404.19Z"/><polygon class="cls-52" points="1442.5 2444.46 1310.77 2444.46 1276.37 2475.5 1304.47 2583.74 1376.63 2583.74 1448.8 2583.74 1476.9 2475.5 1442.5 2444.46"/><polygon class="cls-54" points="1276.37 2475.5 1282.15 2497.75 1471.12 2497.75 1476.9 2475.5 1276.37 2475.5"/></g></g></svg>