<svg id="_2" data-name="2" xmlns="http://www.w3.org/2000/svg" viewBox="0 0 800 600"><defs><style>.cls-1{fill:#30466d;}.cls-2{fill:#011859;}.cls-15,.cls-20,.cls-3,.cls-7{fill:#fff;}.cls-16,.cls-3{stroke:#011859;}.cls-10,.cls-11,.cls-15,.cls-16,.cls-18,.cls-19,.cls-20,.cls-21,.cls-22,.cls-3{stroke-miterlimit:10;}.cls-3{stroke-width:0.5px;}.cls-4{fill:#ffc5cb;}.cls-5{fill:#ff9d9c;}.cls-6{fill:#6b6ce3;}.cls-8{fill:#90d6d4;}.cls-9{fill:#c3e6e6;}.cls-10,.cls-11,.cls-16,.cls-18,.cls-19,.cls-21,.cls-22{fill:none;}.cls-10{stroke:#c3e6e6;}.cls-10,.cls-11,.cls-15,.cls-16,.cls-18,.cls-20,.cls-21{stroke-width:0.75px;}.cls-11{stroke:#90d6d4;}.cls-12{fill:#fec942;}.cls-13{fill:#9c92dc;}.cls-14{fill:#ff8e00;}.cls-15,.cls-21{stroke:#d0dafd;}.cls-17{fill:#e44543;}.cls-18,.cls-20{stroke:#9c92dc;}.cls-19{stroke:#e44543;}.cls-22{stroke:#fff;}.cls-23{fill:#d0dafd;}</style></defs><title>3. Illustrator</title><path class="cls-1" d="M225.69,325.86l-31.61,54.75a8.83,8.83,0,0,0,7.65,13.25H265a8.83,8.83,0,0,0,7.65-13.25L241,325.86A8.83,8.83,0,0,0,225.69,325.86Z"/><path class="cls-2" d="M236.08,325.86l-31.61,54.75a8.83,8.83,0,0,0,7.65,13.25h63.22A8.83,8.83,0,0,0,283,380.61l-31.61-54.75A8.83,8.83,0,0,0,236.08,325.86Z"/><rect class="cls-3" x="150.45" y="147.74" width="107.72" height="77.01" rx="12.25" ry="12.25"/><path class="cls-4" d="M244,170.14v32.2a12.24,12.24,0,0,1-12.25,12.25h-54.8a12.23,12.23,0,0,1-12.16-10.8,11.52,11.52,0,0,1-.09-1.45v-32.2a12.25,12.25,0,0,1,12.25-12.25h54.8A12.25,12.25,0,0,1,244,170.14Z"/><rect class="cls-3" x="408.26" y="178.77" width="70.74" height="65.37" rx="11.34" ry="11.34"/><path class="cls-5" d="M459.54,200.05a1.38,1.38,0,0,1-.27.25c-1.87,1.32-6.49-2.54-5.52-4.62a1.38,1.38,0,0,1,.2-.31l5-2.53,3.22-1.63-1,3.45h0Z"/><path class="cls-4" d="M435.58,228.71,430,224l24-28.65c-1.75,2.09,3.85,6.77,5.59,4.68Z"/><path class="cls-6" d="M427.27,225.69h7.29a0,0,0,0,1,0,0v3.22a2.61,2.61,0,0,1-2.61,2.61h-2.08a2.61,2.61,0,0,1-2.61-2.61v-3.22a0,0,0,0,1,0,0Z" transform="translate(246.92 -223.16) rotate(39.89)"/><rect class="cls-5" x="430.11" y="223.69" width="7.29" height="3.04" transform="translate(245.41 -225.78) rotate(39.89)"/><path class="cls-6" d="M461.14,194.68a2.5,2.5,0,0,1-2.19-1.83l3.22-1.63Z"/><path class="cls-6" d="M435.19,201l-2.75,3.42c27.13,23.71,32.69,27.18,34.49,24.94S464.15,222.39,435.19,201Z"/><path class="cls-4" d="M436.82,201.16c.28,2-.48,3.83-4,4.91-3.09,1-7-.28-9.74-3.38-2.34-2.68-3.74-6.75-2.86-12,1.4,2.2,3.23,3.67,7.12,2.81a5.37,5.37,0,0,1,3.13.26C434,195.1,436.6,199.59,436.82,201.16Z"/><path class="cls-5" d="M430.52,193.76c-1.3.68-2.13,1.66-1.84,2.45.68,1.87.88,3.64-1.68,3.61-1.86,0-3.82.07-3.87,2.89-2.34-2.68-3.74-6.75-2.86-12,1.4,2.2,3.23,3.67,7.12,2.81A5.37,5.37,0,0,1,430.52,193.76Z"/><rect class="cls-4" x="330.54" y="154.46" width="68.83" height="63.6" rx="11.34" ry="11.34"/><path class="cls-7" d="M384.22,166.31c8.89,6.12,4.12,14.26,0,17.69s-3.43,7,.69,9.34,7.79,10.44-3.45,15.52-31.48,1.32-39.12-12.64C333.68,180.43,360,149.66,384.22,166.31Z"/><path class="cls-6" d="M368.29,171.57c-1.22,6.25,9.07,10.3,12.87,7.1C387.15,173.61,370.43,160.58,368.29,171.57Z"/><path class="cls-4" d="M374.67,200.69a3,3,0,0,1,4,3.33c-.39,1.87-5.83,2.65-7.15.84S372.08,201.47,374.67,200.69Z"/><path class="cls-4" d="M357.67,191a3.92,3.92,0,0,1-2,6.56c-2.46.48-6.18-5.7-4.66-8.22S355.4,188.3,357.67,191Z"/><path class="cls-4" d="M368.13,202.47c.47-1.83-2.07-4.6-4.21-5.12s-6.22,2.29-3.17,5.38C363,205,367.52,204.83,368.13,202.47Z"/><path class="cls-4" d="M352.57,184.29c2.32.35,5.42-3.14,5.8-5.86s-3.62-7.4-7.06-3.24C348.77,178.27,349.57,183.84,352.57,184.29Z"/><path class="cls-1" d="M501.21,393.86H260.7a6.09,6.09,0,0,1-5.33-3.14L171.56,239a4.8,4.8,0,0,1,4.2-7.12H416.27A6.09,6.09,0,0,1,421.6,235l83.81,151.7A4.8,4.8,0,0,1,501.21,393.86Z"/><path class="cls-2" d="M501.21,393.86H260.7a6.09,6.09,0,0,1-5.33-3.15L171.56,239a4.78,4.78,0,0,1,1.51-6.29l82.3,149a6.08,6.08,0,0,0,5.33,3.14H501.21a4.69,4.69,0,0,0,2.69-.83l1.51,2.73A4.8,4.8,0,0,1,501.21,393.86Z"/><polygon class="cls-7" points="469.42 374.48 283.62 374.48 220.35 259.97 406.16 259.97 431 304.94 454.38 347.26 469.42 374.48"/><polygon class="cls-8" points="419.48 329.1 408.52 329.1 405.11 323.1 416.07 323.1 419.48 329.1"/><polygon class="cls-9" points="426.06 343.2 415.11 343.2 411.69 337.21 422.65 337.21 426.06 343.2"/><polyline class="cls-10" points="438.8 319.05 394.33 319.05 386.53 304.94 431 304.94"/><polyline class="cls-10" points="446.59 333.15 402.12 333.15 394.33 319.05 438.8 319.05"/><polyline class="cls-10" points="454.38 347.26 409.92 347.26 402.12 333.15 446.59 333.15"/><polygon class="cls-7" points="424.95 374.48 283.62 374.48 220.35 259.97 361.67 259.97 365.8 267.44 416.02 358.32 424.95 374.48"/><polygon class="cls-11" points="416.02 358.32 289.99 358.32 239.76 267.44 365.8 267.44 386.53 304.94 409.92 347.26 416.02 358.32"/><path class="cls-12" d="M648.31,382.43c-.22,2.85-.47,5.67-.74,8.44-1.49,15-3.71,28.4-6.81,35.73-9.28,22-33.16,15.31-33.16,15.31s-.38,4.61-.82,9.84c-49.69,3.05-90.2-8.07-101.77-19.26.13-12.77,10.2-57,11.56-78.17,0,0-36.66,33.38-50.32,41s-21.38,7.4-39-4.78-51.48-48.72-64.8-66.49c0,0,22-17.15,25.5-19.07,0,0,14.57,25.32,31.14,37.87s33.31,12.54,37.06,9.22,31-41.37,39.93-57.37,16-23.36,32.15-26.24,61.21-5.35,61.21-5.35c2.84,0,6.18-.09,9.77-.06,1.55,0,3.14,0,4.77.08,13.74.41,29.43,2.44,35.26,10.71,8.1,11.51,8.5,26.82,10.2,46.18C650.43,331.08,650.26,357.81,648.31,382.43Z"/><path class="cls-13" d="M497,283.57h42.41a0,0,0,0,1,0,0v36.9a11.68,11.68,0,0,1-11.68,11.68H508.67A11.68,11.68,0,0,1,497,320.47v-36.9a0,0,0,0,1,0,0Z" transform="translate(-8.72 15.17) rotate(-1.66)"/><path class="cls-14" d="M471.39,332c-.18.25-3.38,41.44-41.51,29.68,18.72-1.81,27.61-10.46,41.33-29.43"/><path class="cls-5" d="M617.74,203.67c-4.81,3.67-7.52,2.16-9.61,3.89a12.12,12.12,0,0,0-3.41,4.61s0,0,0,0a8.27,8.27,0,0,1-1.91,9.76,28.79,28.79,0,0,1-10.21,6.17s-4.4,11.16-3.69,35c0,0-2.06,13.44-22,13-17.29-.39-15.39-9-15.39-9a65.81,65.81,0,0,0,3.13-7.87h0a56.79,56.79,0,0,0,3.12-17.16c-14,2.31-22.49-4-22.87-16.92s7.11-49,27.29-57.47,49.21,2.92,52.87,8.07c4.9,6.92-1.32,17.12,1,18.85S622.55,200,617.74,203.67Z"/><path class="cls-2" d="M579.48,184.91c-12,2.29-32.57,1.81-41-4.75-9.24-7.16-6.28-18.71,3.67-10.45-3.17-9.6,12.49-8.12,20.08-2A173.72,173.72,0,0,1,579.48,184.91Z"/><path class="cls-6" d="M617.74,203.67c-4.81,3.67-7.52,2.16-9.61,3.89a12.12,12.12,0,0,0-3.41,4.61c-2.63-3.56-7.6-3-8.46-2.85l-.13,0a90.94,90.94,0,0,0-9.46-15.52c-2.34-3.16-4.78-6.15-7.19-8.9a173.72,173.72,0,0,0-17.29-17.16c20.18-8.46,49.21,2.92,52.87,8.07,4.9,6.92-1.32,17.12,1,18.85S622.55,200,617.74,203.67Z"/><path class="cls-2" d="M596.13,209.33c-4.7.8-9.46,5.52-9.46,5.52-1.88-5.12-2.48-13.42,0-21A90.94,90.94,0,0,1,596.13,209.33Z"/><ellipse class="cls-2" cx="560.98" cy="204.47" rx="2.81" ry="1.66" transform="translate(103.42 588.06) rotate(-60)"/><ellipse class="cls-2" cx="545.37" cy="199.71" rx="2.81" ry="1.66" transform="translate(99.73 572.16) rotate(-60)"/><path class="cls-15" d="M309.31,325.58a49.46,49.46,0,0,1-10.69,1.35c-5.11,0-3.86-3.77,4.39-7.54h7.83Z"/><path class="cls-15" d="M316.07,317.18c-5.34,3.38-13,8.69-10.64,10.72s19.07-3.9,19.07-3.9S326.58,310.52,316.07,317.18Z"/><path class="cls-16" d="M551.44,200.75a52.07,52.07,0,0,1-9.23,10.54s1,6,4.94,7.13"/><path class="cls-17" d="M573.9,234.76c-5.15,13.16-19.25,24.56-19.25,24.56h0a56.79,56.79,0,0,0,3.12-17.16A31.2,31.2,0,0,0,573.9,234.76Z"/><path class="cls-5" d="M590.67,331.21s-16.47,9.69-23.35,14.59c0,0-1.79-10.45-2.92-10.64s-16.1-3.39-19.57-6.41a7.73,7.73,0,0,1-1.7-9.88c1.51-2.82-1-5-1.51-8s2.54-5.84,4.71-6.49c0,0-10.78-1.42-12.89-4.05-1.54-1.92-1.32-7.63,2.44-9s14.5-.38,14.5-.38c5-6,11.68-12,16.43-11.29,3.14.47,13.69,11.29,15.39,14.4s1.41,9.69,2.91,17.88a102,102,0,0,0,2.52,10C589.14,327.05,590.67,331.21,590.67,331.21Z"/><path class="cls-16" d="M550.38,290.92s11.55.71,13.42.91"/><path class="cls-16" d="M511.14,372.61c2.9-15.45,6.67-34.31,6.67-34.31"/><path class="cls-16" d="M501.64,339.82c5.07,3.59,12.13,9.78,12.13,9.78"/><path class="cls-16" d="M501.64,353.15a42.76,42.76,0,0,1,9.5,0"/><path class="cls-16" d="M431.12,343.25c12.52,8,35,8,35,8"/><path class="cls-18" d="M505.52,239.62c.09,2.33-3.82,4.74-3.73,6.9.09,2.36,4.18,4.46,4.26,6.59.1,2.42-3.81,4.84-3.73,6.9.1,2.57,4.19,4.68,4.26,6.58.17,4.28-3.86,3.52-3.73,6.89"/><path class="cls-18" d="M531.69,243c.09,2.33-3.82,4.74-3.73,6.9.09,2.36,4.18,4.46,4.26,6.59.1,2.42-3.81,4.84-3.73,6.9.1,2.57,4.19,4.68,4.26,6.58.17,4.28-3.86,3.52-3.73,6.89"/><path class="cls-18" d="M519,226.19c.09,2.33-3.82,4.74-3.73,6.9.09,2.36,4.18,4.46,4.26,6.59.1,2.42-3.81,4.84-3.73,6.9.1,2.57,4.19,4.68,4.26,6.58.17,4.28-3.86,3.52-3.73,6.89"/><path class="cls-19" d="M590.09,216.87c4.43-3.7,10.35-4.83,12.16-2.92"/><path class="cls-20" d="M355.08,320c-.79,2.33-2.43,10.65-12.59,15.39s-26.7,4.85-27.1.74c-.56-5.56,13.26.12,25.35-5.48a13.8,13.8,0,0,0,5.55-4.25c-11,2.74-29.5.58-26.61-11-5.16-4.51-11.39-5.62-14.68-15.21,8.54-9.58,17.22-17.56,32.79-15.4C351.82,286.68,359.88,309,355.08,320Z"/><path class="cls-21" d="M321.14,308.47c2.54-4,7.51-6.58,12.07-4.29"/><path class="cls-19" d="M585,226.2a9,9,0,0,0,7.58,1.92"/><polygon class="cls-9" points="406.16 259.97 220.35 259.97 215.54 251.28 401.35 251.28 406.16 259.97"/><path class="cls-8" d="M236,300.27c2.36,3.92,1.1,7.09-2.81,7.09s-9-3.17-11.36-7.09-1.1-7.09,2.81-7.09S233.59,296.35,236,300.27Z"/><polygon class="cls-9" points="243.78 317.33 234.53 317.33 231.84 312.88 241.09 312.88 243.78 317.33"/><polygon class="cls-9" points="249.15 326.23 239.9 326.23 237.21 321.78 246.46 321.78 249.15 326.23"/><path class="cls-8" d="M390.76,291.35c-7.82-3.23-12.08-10.58-9.5-16.41s11-8,18.82-4.72,12.06,10.57,9.49,16.41S398.57,294.57,390.76,291.35Z"/><path class="cls-9" d="M409.57,286.63l-14.15-5.84,4.66-10.57C407.89,273.44,412.14,280.79,409.57,286.63Z"/><circle class="cls-7" cx="226.6" cy="255.62" r="2.25"/><circle class="cls-8" cx="234.04" cy="255.62" r="2.25"/><circle class="cls-7" cx="241.48" cy="255.62" r="2.25"/><path class="cls-17" d="M335.67,277.52c-6.13,1.9-7.78,3.81-6.73,6.21.83,1.91,5.07,3.31,3.35,4.85a3.28,3.28,0,0,0,1.77,5.82c2.49.46-.14,3.86,2.44,5.41,3.67,2.2,6.5,1.27,10.47.23S335.67,277.52,335.67,277.52Z"/><path class="cls-16" d="M334.69,286.79a47.36,47.36,0,0,1,6.2-.42"/><path class="cls-16" d="M337.47,294.19a57.83,57.83,0,0,1,6.52-.69"/><path class="cls-5" d="M388,304.94l-21.54,16c-16.39-1.32-21.14-15.28-23.95-25.61s-8.33-14.69-8.84-16.91,4.09-4.29,7.4-3.16,9.19,10.76,10.86,14.2,5.11,7.4,8.56,5.75,3.19-11.25,1-14.42-8.69-9.2-9.33-9.2c-14.94,3.32-23.35-4.78-21.45-5.87,4.72-2.72,25.15-4.73,27.32-4.34s16,16.34,17.75,18.76c1,1.31,4.43,8.43,7.43,14.71C385.77,300.2,388,304.94,388,304.94Z"/><path class="cls-2" d="M397.61,289.91l-.4,1.85a2.89,2.89,0,0,1-3.43,2.22l-12.13-2.42-18.55-3.71-13.6-2.72c-2.51-4.1-6.11-9.08-8.44-9.88-3.32-1.12-7.92,1-7.4,3.16.21.91,1.27,2.18,2.63,4.07l-13.51-2.7h0l-8-6.79,10.11-2.88,34.44,8L377,282.21l18.4,4.26A2.88,2.88,0,0,1,397.61,289.91Z"/><path class="cls-15" d="M297.84,308.65c-8.25-2.09-10.13-5.07-9.44-6.86s9.44,0,9.44,0Z"/><path class="cls-15" d="M316.75,304.18c3.25-15.69-3.92-10.71-7.36-5.45Z"/><path class="cls-20" d="M301.09,297c5.24-2.82,11.67,1.53,17.46,9.27,0,0,4,1.47,2.84,5.18-1.53,5-5.35,9.21-8.4,10.3s-9.16-.32-11.89-1.63-4.15-4.36-2.73-6.76C298.36,313.38,294,300.83,301.09,297Z"/><path class="cls-21" d="M303,298.89A97.05,97.05,0,0,0,310.85,318"/><path class="cls-21" d="M301,311.13c4.65-4.41,14.37-4.6,14.37-4.6"/><path class="cls-16" d="M575.84,232.73a18.64,18.64,0,0,1-1.94,2,31.2,31.2,0,0,1-16.13,7.38"/><path class="cls-16" d="M601.42,209.58c-5.94-18.39-23.62-39-37.14-47.93"/><path class="cls-14" d="M610.45,349.6c.8.27,8.11,26.12,2.44,37s-6.33,8.44-6.11,7.3S610.45,349.6,610.45,349.6Z"/><path class="cls-17" d="M590.67,331.21s-16.47,9.69-23.35,14.59l20.3-23.85C589.14,327.05,590.67,331.21,590.67,331.21Z"/><polygon class="cls-14" points="576.05 388.01 597.54 365.94 573.76 378.11 576.05 388.01"/><path class="cls-16" d="M606.75,371.79c6.17,14.68,11.78,28.07,13.74,35.72"/><path class="cls-16" d="M609.77,357.62c.86-18.45.66-40.14.66-40.14"/><path class="cls-16" d="M567.32,345.8c3.14,15.4,13.54,65.75,15.05,71.7,2.62,10.28,14.69,26,25.22,27.49,19.74,2.73,39.54-2.57,45-38.94"/><path class="cls-16" d="M554.27,355.34c12.53-10.21,37.25-25.19,36.39-24.13"/><path class="cls-16" d="M569.34,380.68c11.34-6.89,33.84-17.43,33.84-17.43"/><path class="cls-16" d="M583.39,339.27c5.75,18.37,8.31,24,8.31,24"/><path class="cls-16" d="M573.76,341.46c3,11.67,7.78,25.12,7.78,25.12"/><path class="cls-16" d="M354.24,329.42c7.11-5,33.73-24.48,33.73-24.48"/><path class="cls-16" d="M379.65,352.64c4.71-4.9,22.76-21.54,22.76-21.54"/><path class="cls-16" d="M378.88,311.47c6.11,7.42,16.53,19.63,16.53,19.63"/><path class="cls-16" d="M370,318c6.9,8.9,16.45,19.72,16.45,19.72"/><path class="cls-16" d="M435.46,389.74c18.14,9.54,31.27,12.74,49.78-1.72"/><path class="cls-7" d="M393.28,285.62c-3.58-1.48-5.52-4.84-4.35-7.51s5-3.64,8.61-2.16,5.52,4.84,4.35,7.51S396.86,287.1,393.28,285.62Z"/><polygon class="cls-22" points="620.04 286.02 624.56 295.5 630.51 286.85 620.04 286.02"/><polyline class="cls-22" points="604 263.09 604.22 270.62 594.98 265.63 599.23 263.01"/><polyline class="cls-22" points="647.57 390.87 641.07 388.51 648.31 382.43"/><polygon class="cls-22" points="610.48 399.33 600.25 401.67 607.39 409.37 610.48 399.33"/><polygon class="cls-22" points="536.08 397.02 527.51 390.94 526.53 401.4 536.08 397.02"/><polygon class="cls-22" points="521.48 426.33 511.25 428.67 518.39 436.37 521.48 426.33"/><polygon class="cls-22" points="568.01 441.5 559.96 434.76 558.15 445.11 568.01 441.5"/><polygon class="cls-22" points="570.05 377.69 560.37 373.63 561.7 384.05 570.05 377.69"/><polygon class="cls-22" points="597.05 305.69 587.37 301.63 588.7 312.05 597.05 305.69"/><polygon class="cls-22" points="544.49 280.57 541.37 270.54 534.25 278.26 544.49 280.57"/><polygon class="cls-22" points="539.55 342.51 530 346.89 538.57 352.96 539.55 342.51"/><polygon class="cls-22" points="479.37 336.63 480.7 347.05 489.05 340.69 479.37 336.63"/><polygon class="cls-22" points="480.29 376.49 475.04 367.39 469.79 376.49 480.29 376.49"/><polygon class="cls-22" points="440.65 379.17 430.25 377.74 434.21 387.46 440.65 379.17"/><polygon class="cls-22" points="405.05 348.69 395.37 344.63 396.7 355.05 405.05 348.69"/><polygon class="cls-22" points="635.69 337.55 632.6 347.58 642.83 345.24 635.69 337.55"/><path class="cls-13" d="M276.51,426.09l-3,1.1L265.69,430l-58-6.57-13.91-1.58a2.9,2.9,0,0,1-2.61-3.16l.19-1.89a2.89,2.89,0,0,1,3.16-2.6l15.57,1.28,56.59,4.66,7.13,4.3Z"/><polygon class="cls-23" points="276.51 426.09 273.47 427.19 265.69 430.01 266.65 420.15 273.78 424.45 276.51 426.09"/><path class="cls-23" d="M265.69,430s-3-.81-2.42-2.39,2.78-1.28,2.78-1.28-4-.64-3.92-1.89,3-1.14,4.2-.9c0,0-2.66-.39-2.39-1.7s1.31-1.82,2.72-1.7l2.2,4.65Z"/><polygon class="cls-2" points="276.51 426.09 273.47 427.19 273.78 424.45 276.51 426.09"/><path class="cls-5" d="M200.73,422.65l-7-.79a2.9,2.9,0,0,1-2.61-3.16l.19-1.89a2.89,2.89,0,0,1,3.16-2.6l7.16.59A31.11,31.11,0,0,0,200.73,422.65Z"/><path class="cls-16" d="M200.94,425.08a14.49,14.49,0,0,1-.21-2.43,31.1,31.1,0,0,1,.92-7.85c.15-.65.33-1.32.53-2"/><line class="cls-16" x1="210.06" y1="415.49" x2="260.88" y2="418.42"/><line class="cls-16" x1="492.62" y1="291.83" x2="538.92" y2="290.71"/><path class="cls-16" d="M495.46,309.23c0,6.86,2.77,20.18,22.18,20.31"/><path class="cls-16" d="M584.44,173.32c10.55-3.6,23.06-4.39,23.06-4.39"/><path class="cls-16" d="M593.81,182.8c8.11-4.21,21.25-7,21.25-7"/><path class="cls-16" d="M600.53,193.81a92.54,92.54,0,0,1,15.75-5.37"/><path class="cls-6" d="M153.95,319.89l5-1.07c10.46,40.55,11.15,48.13,7.89,48.83S161.08,361.16,153.95,319.89Z"/><path class="cls-23" d="M153.32,321.69c1.94,1.34,4.23,1.5,7.16-1.54,2.6-2.71,3.38-7.45,1.58-11.87-1.56-3.82-5-7.41-11-9.24,1.55,2.6,2.13,5.27-.81,8.86a6.24,6.24,0,0,0-1.36,3.39C148.47,315.65,151.8,320.65,153.32,321.69Z"/><path class="cls-6" d="M148.91,311.29c1.39-1,2.83-1.35,3.5-.63,1.59,1.69,3.32,2.82,4.62.13.95-1.94,2.06-3.94,5-2.51-1.56-3.82-5-7.41-11-9.24,1.55,2.6,2.13,5.27-.81,8.86A6.24,6.24,0,0,0,148.91,311.29Z"/><path class="cls-16" d="M147.39,313.22c1.93,6.92,7.56,10.37,14.67,4.56"/><path class="cls-16" d="M158.18,330.67s3.88,29.59,9,31.46"/><rect class="cls-5" x="166.05" y="266.99" width="16.29" height="101.6"/><line class="cls-16" x1="179.86" y1="337.51" x2="175.61" y2="337.51"/><line class="cls-16" x1="179.86" y1="315.39" x2="175.61" y2="315.39"/><line class="cls-16" x1="179.86" y1="293.28" x2="175.61" y2="293.28"/><line class="cls-16" x1="179.86" y1="271.16" x2="175.61" y2="271.16"/><line class="cls-16" x1="179.86" y1="344.88" x2="177.74" y2="344.88"/><line class="cls-16" x1="179.86" y1="330.14" x2="177.74" y2="330.14"/><line class="cls-16" x1="179.86" y1="322.77" x2="177.74" y2="322.77"/><line class="cls-16" x1="179.86" y1="308.02" x2="177.74" y2="308.02"/><line class="cls-16" x1="179.86" y1="300.65" x2="177.74" y2="300.65"/><line class="cls-16" x1="179.86" y1="285.91" x2="177.74" y2="285.91"/><line class="cls-16" x1="179.86" y1="278.54" x2="177.74" y2="278.54"/><line class="cls-16" x1="164.65" y1="282.11" x2="169.78" y2="349.85"/><path class="cls-14" d="M195.63,309.44l-15,70.83a2.89,2.89,0,0,1-3.39,2.29l-1.86-.37a2.9,2.9,0,0,1-2.29-3.4l12.85-71.25,6.86-9.24Z"/><polygon class="cls-12" points="195.63 309.44 185.91 307.53 192.77 298.29 195.63 309.44"/><line class="cls-16" x1="179.86" y1="354.44" x2="184.32" y2="311.37"/><line class="cls-16" x1="187.53" y1="307.85" x2="196.85" y2="309.79"/><line class="cls-16" x1="185.53" y1="310.14" x2="195.19" y2="312.08"/><path class="cls-8" d="M185.92,397.81c0,5.62-28.71,5.62-28.71,0l-6.66-46.44c0-5,42-5,42,0Z"/><path class="cls-9" d="M192.58,351.37l-.7,4.89c-4.84-2.23-29-2.35-40.73-.7l-.6-4.19C150.55,346.34,192.58,346.34,192.58,351.37Z"/><path class="cls-16" d="M191.88,356.26c-4.84-2.23-29-2.35-40.73-.7a33.83,33.83,0,0,0-3.76.7"/><path class="cls-16" d="M182.34,399c-23,2.33-28.39-7.31-28.39-7.31"/><line class="cls-16" x1="186.46" y1="374.81" x2="182.45" y2="395.54"/><path class="cls-6" d="M244,198.14v4.2a12.24,12.24,0,0,1-12.25,12.25h-54.8a12.23,12.23,0,0,1-12.16-10.8c7-11.41,21.61-31.7,29.49-30.92,8.53.84,13.74,22.57,18.68,24.19,7.06,2.32,10.63-8.46,13.35-10.95C231.54,181.28,238.33,189.26,244,198.14Z"/><circle class="cls-5" cx="220.19" cy="171.89" r="7.95"/><path class="cls-7" d="M260.66,393.49a5.7,5.7,0,0,1-5-3l-83.81-151.7a4.42,4.42,0,0,1,3.83-6.55,5.71,5.71,0,0,1,5,2.95l83.81,151.7a4.42,4.42,0,0,1-3.83,6.56Z"/><path class="cls-2" d="M175.76,232.65a5.32,5.32,0,0,1,4.64,2.75L264.2,387.1a4,4,0,0,1-3.54,6,5.32,5.32,0,0,1-4.64-2.76l-83.81-151.7a4,4,0,0,1,3.5-6h0m0-.75h0a4.79,4.79,0,0,0-4.16,7.11l83.81,151.7a6.08,6.08,0,0,0,5.29,3.15h0a4.8,4.8,0,0,0,4.16-7.12L181,235a6.07,6.07,0,0,0-5.29-3.14Z"/></svg>