<?xml version="1.0" encoding="utf-8"?>
<!-- Generator: Adobe Illustrator 25.0.1, SVG Export Plug-In . SVG Version: 6.00 Build 0)  -->
<svg version="1.1" xmlns="http://www.w3.org/2000/svg" xmlns:xlink="http://www.w3.org/1999/xlink" x="0px" y="0px"
	 viewBox="0 0 750 500" style="enable-background:new 0 0 750 500;" xml:space="preserve">
<style type="text/css">
	.st0{fill:#E8F4F2;}
	.st1{fill:#C7DDD9;}
	.st2{fill:#FFFFFF;}
	.st3{fill:#FFBB33;}
	.st4{fill:#FF6464;}
	.st5{fill:#EF9300;}
	.st6{fill:#AF7C20;}
	.st7{fill:#5D1D38;}
	.st8{fill:#C0DBAD;}
	.st9{fill:#CDE5BE;}
	.st10{fill:#B5B9BA;}
	.st11{fill:#B26969;}
	.st12{fill:#6D9AA8;}
	.st13{fill:#CEE6EA;}
	.st14{fill:#47A53F;}
	.st15{fill:#E04848;}
	.st16{fill:#385056;}
	.st17{fill:#F0826B;}
	.st18{fill:#4DAE9D;}
	.st19{fill:#A6CC93;}
	.st20{fill:#96BC80;}
	.st21{fill:#97C47C;}
	.st22{fill:#FFB189;}
	.st23{fill:#511832;}
	.st24{fill:#822F59;}
	.st25{fill:#3D9988;}
	.st26{fill:#261E19;}
	.st27{fill:#379381;}
	.st28{fill:#2E7F70;}
	.st29{fill:#66CCB9;}
	.st30{fill:#213330;}
	.st31{fill:#C12F2F;}
	.st32{fill:#E85454;}
	.st33{fill:#231F20;}
	.st34{font-family:'Montserrat-Bold';}
	.st35{font-size:20px;}
	.st36{font-family:'Montserrat-Medium';}
	.st37{font-size:12px;}
</style>
<g id="Background">
	<path class="st0" d="M628.31,269.52c-1.54,52.58-0.27,130.57-14.85,147.63c-1.39,1.63-2.93,2.71-4.63,3.15
		c-7.54,1.97-61.77,4.95-129.89,7.28c-107.89,3.68-250.62,5.73-297.88-0.5c-77.08-10.17-82.16-33.89-83.85-71.16
		c-1.7-37.27,1.69-234.63,1.69-234.63s9.32-33.88,22.87-44.05c13.55-10.16,404.89-5.08,460.8,0
		C638.48,82.33,630,211.92,628.31,269.52z"/>
	<g>
		<rect x="338.2" y="237.94" class="st1" width="26.26" height="78.41"/>
		<rect x="386.9" y="199.96" class="st1" width="26.26" height="117"/>
		<rect x="441.11" y="169.79" class="st1" width="26.26" height="147.17"/>
		<g>
			<path class="st2" d="M486.18,186.76l-3.77,15.15l-4.28-5.04c-38.02,36.43-79.64,56.15-107.9,66.28
				c-30.73,11.01-52.79,13.4-53.01,13.42l-0.31-2.99c0.87-0.08,87.15-9.8,159.28-79l-4.32-5.09L486.18,186.76z"/>
		</g>
	</g>
</g>
<g id="Object">
	<g>
		<g>
			<circle class="st3" cx="453.51" cy="136.69" r="24.85"/>
			<g>
				<g>
					<path class="st2" d="M460.35,145.52h-22.23l-4.23-19.02h25.39c0.7,0,1.27,0.57,1.27,1.27c0,0.7-0.57,1.27-1.27,1.27h-22.23
						l3.1,13.95h18.23l4.3-16.49h9.26c0.7,0,1.27,0.57,1.27,1.27c0,0.7-0.57,1.27-1.27,1.27h-7.3L460.35,145.52z"/>
				</g>
				<circle class="st2" cx="443.72" cy="148.99" r="1.71"/>
				<circle class="st2" cx="455.91" cy="148.99" r="1.71"/>
				<path class="st2" d="M471.56,140.19h-6.24c-0.73,0-1.31-0.59-1.31-1.31l0,0c0-0.73,0.59-1.31,1.31-1.31h6.24
					c0.73,0,1.31,0.59,1.31,1.31l0,0C472.87,139.6,472.28,140.19,471.56,140.19z"/>
				<path class="st2" d="M474.07,136.34h-6.24c-0.73,0-1.31-0.59-1.31-1.31l0,0c0-0.73,0.59-1.31,1.31-1.31h6.24
					c0.73,0,1.31,0.59,1.31,1.31l0,0C475.38,135.76,474.79,136.34,474.07,136.34z"/>
			</g>
		</g>
		<g>
			<path class="st4" d="M360.6,106.28v12.43c0,2.51-1.91,4.56-4.35,4.8l0.76,2.9c0.2,0.76-0.7,1.31-1.29,0.8l-4.18-3.67h-14.25
				c-2.66,0-4.82-2.16-4.82-4.83v-12.43c0-2.67,2.16-4.83,4.82-4.83h18.48C358.44,101.46,360.6,103.62,360.6,106.28z"/>
			<path class="st2" d="M346.58,117.28c-6.52-4.89-6.42-9.15-3.52-9.15c2.78,0,3.52,2.92,3.57,3.14c0.05-0.22,0.79-3.14,3.57-3.14
				C353.1,108.13,353.1,112.39,346.58,117.28z"/>
		</g>
		<g>
			<path class="st4" d="M385.14,79.72v12.43c0,2.51,1.91,4.56,4.35,4.8l-0.76,2.9c-0.2,0.76,0.7,1.31,1.29,0.8l4.18-3.67h14.25
				c2.66,0,4.82-2.16,4.82-4.83V79.72c0-2.67-2.16-4.83-4.82-4.83h-18.48C387.3,74.9,385.14,77.06,385.14,79.72z"/>
			<path class="st2" d="M399.16,90.72c6.52-4.89,6.42-9.15,3.52-9.15c-2.78,0-3.52,2.92-3.57,3.14c-0.05-0.22-0.79-3.14-3.57-3.14
				C392.65,81.57,392.64,85.83,399.16,90.72z"/>
		</g>
		<g>
			<g>
				<path class="st3" d="M363.9,398.53v3.52c0,1.77-1.43,3.21-3.2,3.21h-56.45c-1.77,0-3.21-1.44-3.21-3.21v-3.52
					c0-1.77,1.44-3.21,3.21-3.21h56.45C362.47,395.32,363.9,396.76,363.9,398.53z"/>
				<path class="st5" d="M363.9,400.73v1.32c0,1.77-1.43,3.21-3.2,3.21h-56.45c-1.77,0-3.21-1.44-3.21-3.21v-1.32H363.9z"/>
				<rect x="306.78" y="395.32" class="st6" width="1.03" height="9.93"/>
				<rect x="317.04" y="395.32" class="st6" width="1.03" height="9.93"/>
				<rect x="327.29" y="395.32" class="st6" width="1.03" height="9.93"/>
				<rect x="337.55" y="395.32" class="st6" width="1.03" height="9.93"/>
				<rect x="347.8" y="395.32" class="st6" width="1.03" height="9.93"/>
				<rect x="358.06" y="395.32" class="st6" width="1.03" height="9.93"/>
			</g>
			<g>
				<path class="st3" d="M363.9,428.38v3.52c0,1.77-1.43,3.21-3.2,3.21h-56.45c-1.77,0-3.21-1.44-3.21-3.21v-3.52
					c0-1.77,1.44-3.21,3.21-3.21h56.45C362.47,425.17,363.9,426.61,363.9,428.38z"/>
				<path class="st5" d="M363.9,430.58v1.32c0,1.77-1.43,3.21-3.2,3.21h-56.45c-1.77,0-3.21-1.44-3.21-3.21v-1.32H363.9z"/>
				<rect x="306.78" y="425.17" class="st6" width="1.03" height="9.93"/>
				<rect x="317.04" y="425.17" class="st6" width="1.03" height="9.93"/>
				<rect x="327.29" y="425.17" class="st6" width="1.03" height="9.93"/>
				<rect x="337.55" y="425.17" class="st6" width="1.03" height="9.93"/>
				<rect x="347.8" y="425.17" class="st6" width="1.03" height="9.93"/>
				<rect x="358.06" y="425.17" class="st6" width="1.03" height="9.93"/>
			</g>
			<g>
				<path class="st3" d="M363.9,438.23v3.52c0,1.77-1.43,3.21-3.2,3.21h-56.45c-1.77,0-3.21-1.44-3.21-3.21v-3.52
					c0-1.77,1.44-3.21,3.21-3.21h56.45C362.47,435.02,363.9,436.46,363.9,438.23z"/>
				<path class="st5" d="M363.9,440.43v1.32c0,1.77-1.43,3.21-3.2,3.21h-56.45c-1.77,0-3.21-1.44-3.21-3.21v-1.32H363.9z"/>
				<rect x="306.78" y="435.02" class="st6" width="1.03" height="9.93"/>
				<rect x="317.04" y="435.02" class="st6" width="1.03" height="9.93"/>
				<rect x="327.29" y="435.02" class="st6" width="1.03" height="9.93"/>
				<rect x="337.55" y="435.02" class="st6" width="1.03" height="9.93"/>
				<rect x="347.8" y="435.02" class="st6" width="1.03" height="9.93"/>
				<rect x="358.06" y="435.02" class="st6" width="1.03" height="9.93"/>
			</g>
			<g>
				<path class="st3" d="M371.18,408.45v3.52c0,1.77-1.43,3.21-3.2,3.21h-56.45c-1.77,0-3.21-1.44-3.21-3.21v-3.52
					c0-1.77,1.44-3.21,3.21-3.21h56.45C369.75,405.25,371.18,406.69,371.18,408.45z"/>
				<path class="st5" d="M371.18,410.65v1.32c0,1.77-1.43,3.21-3.2,3.21h-56.45c-1.77,0-3.21-1.44-3.21-3.21v-1.32H371.18z"/>
				<rect x="314.06" y="405.25" class="st6" width="1.03" height="9.93"/>
				<rect x="324.31" y="405.25" class="st6" width="1.03" height="9.93"/>
				<rect x="334.57" y="405.25" class="st6" width="1.03" height="9.93"/>
				<rect x="344.83" y="405.25" class="st6" width="1.03" height="9.93"/>
				<rect x="355.08" y="405.25" class="st6" width="1.03" height="9.93"/>
				<rect x="365.34" y="405.25" class="st6" width="1.03" height="9.93"/>
			</g>
			<g>
				<path class="st3" d="M372.21,418.45v3.52c0,1.77-1.43,3.21-3.2,3.21h-56.45c-1.77,0-3.21-1.44-3.21-3.21v-3.52
					c0-1.77,1.44-3.21,3.21-3.21h56.45C370.78,415.25,372.21,416.68,372.21,418.45z"/>
				<path class="st5" d="M372.21,420.65v1.32c0,1.77-1.43,3.21-3.2,3.21h-56.45c-1.77,0-3.21-1.44-3.21-3.21v-1.32H372.21z"/>
				<rect x="315.09" y="415.25" class="st6" width="1.03" height="9.93"/>
				<rect x="325.34" y="415.25" class="st6" width="1.03" height="9.93"/>
				<rect x="335.6" y="415.25" class="st6" width="1.03" height="9.93"/>
				<rect x="345.86" y="415.25" class="st6" width="1.03" height="9.93"/>
				<rect x="356.11" y="415.25" class="st6" width="1.03" height="9.93"/>
				<rect x="366.37" y="415.25" class="st6" width="1.03" height="9.93"/>
			</g>
		</g>
		<g>
			<g>
				<path class="st3" d="M151.53,343.03v3.52c0,1.77,1.43,3.21,3.2,3.21h56.45c1.77,0,3.21-1.44,3.21-3.21v-3.52
					c0-1.77-1.44-3.21-3.21-3.21h-56.45C152.96,339.82,151.53,341.26,151.53,343.03z"/>
				<path class="st5" d="M151.53,345.23v1.32c0,1.77,1.43,3.21,3.2,3.21h56.45c1.77,0,3.21-1.44,3.21-3.21v-1.32H151.53z"/>
				<rect x="207.62" y="339.82" class="st6" width="1.03" height="9.93"/>
				<rect x="197.36" y="339.82" class="st6" width="1.03" height="9.93"/>
				<rect x="187.11" y="339.82" class="st6" width="1.03" height="9.93"/>
				<rect x="176.85" y="339.82" class="st6" width="1.03" height="9.93"/>
				<rect x="166.6" y="339.82" class="st6" width="1.03" height="9.93"/>
				<rect x="156.34" y="339.82" class="st6" width="1.03" height="9.93"/>
			</g>
			<g>
				<path class="st3" d="M151.53,372.87v3.52c0,1.77,1.43,3.21,3.2,3.21h56.45c1.77,0,3.21-1.44,3.21-3.21v-3.52
					c0-1.77-1.44-3.21-3.21-3.21h-56.45C152.96,369.67,151.53,371.11,151.53,372.87z"/>
				<path class="st5" d="M151.53,375.07v1.32c0,1.77,1.43,3.21,3.2,3.21h56.45c1.77,0,3.21-1.44,3.21-3.21v-1.32H151.53z"/>
				<rect x="207.62" y="369.67" class="st6" width="1.03" height="9.93"/>
				<rect x="197.36" y="369.67" class="st6" width="1.03" height="9.93"/>
				<rect x="187.11" y="369.67" class="st6" width="1.03" height="9.93"/>
				<rect x="176.85" y="369.67" class="st6" width="1.03" height="9.93"/>
				<rect x="166.6" y="369.67" class="st6" width="1.03" height="9.93"/>
				<rect x="156.34" y="369.67" class="st6" width="1.03" height="9.93"/>
			</g>
			<g>
				<path class="st3" d="M151.53,382.73v3.52c0,1.77,1.43,3.21,3.2,3.21h56.45c1.77,0,3.21-1.44,3.21-3.21v-3.52
					c0-1.77-1.44-3.21-3.21-3.21h-56.45C152.96,379.52,151.53,380.96,151.53,382.73z"/>
				<path class="st5" d="M151.53,384.92v1.32c0,1.77,1.43,3.21,3.2,3.21h56.45c1.77,0,3.21-1.44,3.21-3.21v-1.32H151.53z"/>
				<rect x="207.62" y="379.52" class="st6" width="1.03" height="9.93"/>
				<rect x="197.36" y="379.52" class="st6" width="1.03" height="9.93"/>
				<rect x="187.11" y="379.52" class="st6" width="1.03" height="9.93"/>
				<rect x="176.85" y="379.52" class="st6" width="1.03" height="9.93"/>
				<rect x="166.6" y="379.52" class="st6" width="1.03" height="9.93"/>
				<rect x="156.34" y="379.52" class="st6" width="1.03" height="9.93"/>
			</g>
			<g>
				<path class="st3" d="M144.25,352.95v3.52c0,1.77,1.43,3.21,3.2,3.21h56.45c1.77,0,3.21-1.44,3.21-3.21v-3.52
					c0-1.77-1.44-3.21-3.21-3.21h-56.45C145.68,349.75,144.25,351.18,144.25,352.95z"/>
				<path class="st5" d="M144.25,355.15v1.32c0,1.77,1.43,3.21,3.2,3.21h56.45c1.77,0,3.21-1.44,3.21-3.21v-1.32H144.25z"/>
				<rect x="200.34" y="349.75" class="st6" width="1.03" height="9.93"/>
				<rect x="190.09" y="349.75" class="st6" width="1.03" height="9.93"/>
				<rect x="179.83" y="349.75" class="st6" width="1.03" height="9.93"/>
				<rect x="169.57" y="349.75" class="st6" width="1.03" height="9.93"/>
				<rect x="159.32" y="349.75" class="st6" width="1.03" height="9.93"/>
				<rect x="149.07" y="349.75" class="st6" width="1.03" height="9.93"/>
			</g>
			<g>
				<path class="st3" d="M143.22,362.95v3.52c0,1.77,1.43,3.21,3.2,3.21h56.45c1.77,0,3.21-1.44,3.21-3.21v-3.52
					c0-1.77-1.44-3.21-3.21-3.21h-56.45C144.65,359.74,143.22,361.18,143.22,362.95z"/>
				<path class="st5" d="M143.22,365.15v1.32c0,1.77,1.43,3.21,3.2,3.21h56.45c1.77,0,3.21-1.44,3.21-3.21v-1.32H143.22z"/>
				<rect x="199.31" y="359.74" class="st6" width="1.03" height="9.93"/>
				<rect x="189.06" y="359.74" class="st6" width="1.03" height="9.93"/>
				<rect x="178.8" y="359.74" class="st6" width="1.03" height="9.93"/>
				<rect x="168.54" y="359.74" class="st6" width="1.03" height="9.93"/>
				<rect x="158.29" y="359.74" class="st6" width="1.03" height="9.93"/>
				<rect x="148.04" y="359.74" class="st6" width="1.03" height="9.93"/>
			</g>
		</g>
		<g>
			<path class="st7" d="M287.09,413.25H146.12c-17.27,0-31.26-14-31.26-31.26V111.05c0-17.27,14-31.26,31.26-31.26h140.97
				c17.27,0,31.26,14,31.26,31.26v270.94C318.35,399.25,304.36,413.25,287.09,413.25z"/>
			<path class="st8" d="M306.5,113.63v252.01c0,13.14-9.53,23.78-21.29,23.78H148c-11.77,0-21.29-10.64-21.29-23.78V113.63
				c0-13.14,9.53-23.78,21.29-23.78h34.23c0.15,6.68,5.04,12.04,11.06,12.04h46.31c6.02,0,10.91-5.36,11.07-12.04h34.55
				C296.98,89.85,306.5,100.5,306.5,113.63z"/>
			<path class="st9" d="M306.5,113.63v178.17L126.7,120.3v-6.66c0-13.14,9.53-23.78,21.29-23.78h34.23
				c0.15,6.68,5.04,12.04,11.06,12.04h46.31c6.02,0,10.91-5.36,11.07-12.04h34.55C296.98,89.85,306.5,100.5,306.5,113.63z"/>
			<g>
				<path class="st2" d="M182.89,213.13h-0.15c0-0.44,0.03-0.87,0.08-1.29C182.86,212.26,182.89,212.69,182.89,213.13z"/>
				<path class="st2" d="M215.62,213.13h-0.15c0-0.44,0.03-0.87,0.08-1.29C215.6,212.26,215.62,212.69,215.62,213.13z"/>
				<path class="st2" d="M248.37,213.13h-0.15c0-0.44,0.03-0.87,0.08-1.29C248.34,212.26,248.37,212.69,248.37,213.13z"/>
				<path class="st10" d="M248.38,213.47c0,0.55-0.03,1.1-0.08,1.63c-0.06-0.54-0.09-1.08-0.09-1.63c0-0.12,0-0.22,0.01-0.34
					c0-0.44,0.03-0.87,0.08-1.29c0.04,0.43,0.07,0.86,0.07,1.29C248.38,213.24,248.38,213.35,248.38,213.47z"/>
				<path class="st11" d="M167.03,182.32l0.13,1.8C167.07,183.53,167.03,182.93,167.03,182.32z"/>
				<path class="st12" d="M285.32,312.4H147.89c-4.36,0-7.9-3.54-7.9-7.9V193.66c0-4.36,3.54-7.9,7.9-7.9h137.43
					c4.36,0,7.9,3.54,7.9,7.9v110.85C293.21,308.87,289.68,312.4,285.32,312.4z"/>
				<path class="st13" d="M278.09,306.43H155.12c-4.36,0-7.9-3.54-7.9-7.9v-98.9c0-4.36,3.54-7.9,7.9-7.9h122.97
					c4.36,0,7.9,3.54,7.9,7.9v98.9C285.98,302.89,282.45,306.43,278.09,306.43z"/>
				<g>
					<path class="st2" d="M302.4,201.07c0,0,0,0.01,0,0.01c-0.71,3.83-5.9,6.8-12.19,6.8c-6.16,0-11.26-2.85-12.13-6.57
						c-0.09-0.37-0.13-0.75-0.13-1.14c0,0.1,0,0.21-0.01,0.32c0,0.06-0.01,0.13-0.02,0.2c0,0.03-0.01,0.07-0.01,0.1
						c0,0.01,0,0.02,0,0.03c0,0.04-0.01,0.08-0.02,0.12c0,0.02,0,0.03-0.01,0.04v0c0,0.02,0,0.04-0.01,0.06
						c-0.02,0.08-0.03,0.17-0.05,0.25c-0.88,3.72-5.98,6.57-12.14,6.57s-11.26-2.85-12.13-6.57c-0.09-0.37-0.13-0.75-0.13-1.14
						c0,0.07,0,0.14,0,0.22l-0.01,0.16c0,0.06-0.01,0.12-0.02,0.18c-0.01,0.06-0.02,0.12-0.03,0.18v0.01
						c-0.02,0.13-0.04,0.27-0.07,0.39c-0.88,3.72-5.97,6.57-12.14,6.57c-6.16,0-11.26-2.85-12.13-6.57
						c-0.09-0.37-0.13-0.75-0.13-1.14c0,0.14,0,0.27-0.02,0.41c0,0.06-0.01,0.13-0.02,0.2v0.01c-0.02,0.18-0.05,0.35-0.09,0.52
						c-0.88,3.72-5.97,6.57-12.13,6.57c-6.16,0-11.26-2.85-12.14-6.57c-0.04-0.17-0.07-0.35-0.09-0.52v-0.01
						c-0.01-0.06-0.02-0.13-0.02-0.2c-0.01-0.14-0.02-0.27-0.02-0.41c0,0.39-0.04,0.77-0.13,1.14c-0.88,3.72-5.97,6.57-12.13,6.57
						s-11.26-2.85-12.14-6.57c-0.02-0.09-0.04-0.18-0.06-0.28c0-0.03-0.01-0.06-0.02-0.1v0c-0.01-0.03-0.01-0.06-0.01-0.09
						c0,0,0-0.01,0-0.02c-0.01-0.07-0.02-0.14-0.02-0.21c0-0.02,0-0.05,0-0.08c-0.01-0.07-0.01-0.14-0.01-0.22c0-0.05,0-0.1,0-0.14
						c0,0.39-0.04,0.77-0.13,1.14c-0.88,3.72-5.97,6.57-12.13,6.57c-6.16,0-11.26-2.85-12.13-6.57c-0.02-0.08-0.04-0.17-0.05-0.25
						c0-0.02-0.01-0.04-0.01-0.06v0c-0.01-0.01-0.01-0.03-0.01-0.04c-0.01-0.04-0.02-0.08-0.02-0.12c0-0.01,0-0.02,0-0.03
						c0-0.04-0.01-0.07-0.01-0.1c-0.01-0.06-0.01-0.13-0.02-0.2c-0.01-0.1-0.01-0.21-0.01-0.32c0,0.39-0.04,0.77-0.13,1.14
						c-0.88,3.72-5.98,6.57-12.14,6.57s-11.26-2.85-12.13-6.57c-0.02-0.08-0.04-0.15-0.05-0.23v0l18.95-51.09
						c0.65-1.75,2.32-2.91,4.18-2.91h125.24c1.86,0,3.53,1.16,4.18,2.9L302.4,201.07z"/>
					<path class="st2" d="M155.4,201.32h-0.27c0.09-0.37,0.13-0.75,0.13-1.14C155.26,200.56,155.31,200.94,155.4,201.32z"/>
					<path class="st2" d="M179.93,201.32h-0.27c0.09-0.37,0.13-0.75,0.13-1.14c0,0.05,0,0.1,0,0.14c0,0.08,0,0.15,0.01,0.22
						c0,0.03,0,0.05,0,0.08c0,0.07,0.01,0.14,0.02,0.2c0,0.01,0,0.02,0,0.02c0,0.06,0.02,0.13,0.03,0.19
						C179.89,201.13,179.91,201.22,179.93,201.32z"/>
					<path class="st2" d="M204.47,201.32h-0.27c0.09-0.37,0.13-0.75,0.13-1.14C204.33,200.56,204.38,200.94,204.47,201.32z"/>
					<path class="st2" d="M229,201.32h-0.27c0.09-0.37,0.13-0.75,0.13-1.14C228.87,200.56,228.91,200.94,229,201.32z"/>
					<path class="st2" d="M253.54,201.32h-0.27c0.09-0.37,0.13-0.75,0.13-1.14C253.41,200.56,253.45,200.94,253.54,201.32z"/>
					<path class="st2" d="M278.07,201.32h-0.27c0.09-0.37,0.13-0.75,0.13-1.14C277.94,200.56,277.99,200.94,278.07,201.32z"/>
					<path class="st2" d="M290.01,200.35v0.25h-0.05C289.99,200.52,290,200.44,290.01,200.35z"/>
					<path class="st14" d="M167.33,147.08l-12,53.91v0l-0.07,0.32h-0.13c-0.88,3.72-5.98,6.57-12.14,6.57s-11.26-2.85-12.13-6.57
						h-0.13l0.08-0.23v0l18.95-51.09c0.65-1.75,2.32-2.91,4.18-2.91H167.33z"/>
					<path class="st14" d="M208.36,147.09l-4.02,54.23h-0.13c-0.88,3.72-5.97,6.57-12.13,6.57s-11.26-2.85-12.14-6.57h-0.13
						l8.05-54.23H208.36z"/>
					<path class="st14" d="M245.36,147.09l8.05,54.23h-0.13c-0.88,3.72-5.97,6.57-12.14,6.57c-6.16,0-11.26-2.85-12.13-6.57h-0.13
						l-4.02-54.23H245.36z"/>
					<path class="st14" d="M279.2,147.09c1.85,0,3.51,1.14,4.17,2.87l19.11,50.22c0,0.3-0.03,0.6-0.08,0.89
						c-0.01,0.08-0.03,0.17-0.05,0.25c-0.88,3.72-5.98,6.57-12.14,6.57c-6.16,0-11.26-2.85-12.13-6.57h-0.13l-12.07-54.23H279.2z"/>
				</g>
				<path class="st2" d="M186.06,261.1h-31.46c-2.14,0-3.87-1.73-3.87-3.87v-31.46c0-2.14,1.73-3.87,3.87-3.87h31.46
					c2.14,0,3.87,1.73,3.87,3.87v31.46C189.93,259.37,188.2,261.1,186.06,261.1z"/>
				<path class="st2" d="M231.78,261.1h-31.46c-2.14,0-3.87-1.73-3.87-3.87v-31.46c0-2.14,1.73-3.87,3.87-3.87h31.46
					c2.14,0,3.87,1.73,3.87,3.87v31.46C235.65,259.37,233.92,261.1,231.78,261.1z"/>
				<path class="st2" d="M277.5,261.1h-31.46c-2.14,0-3.87-1.73-3.87-3.87v-31.46c0-2.14,1.73-3.87,3.87-3.87h31.46
					c2.14,0,3.87,1.73,3.87,3.87v31.46C281.37,259.37,279.64,261.1,277.5,261.1z"/>
				<path class="st14" d="M182.91,244.49l-4-2.47l0.2,15.58l-18.38-0.14l2.21-16.77l-5.07,2.5l-3.86-7.25l8.74-5.89h5.01
					c-0.04,0.19-0.07,0.38-0.07,0.59c0,1.74,1.8,3.15,4.03,3.15c2.22,0,4.03-1.41,4.03-3.15c0-0.21-0.03-0.4-0.07-0.59h4.17
					l8.36,6.46L182.91,244.49z"/>
				<path class="st14" d="M230.39,241.93c0,3.51-1.3,6.71-3.45,9.14c-0.19,0.22-0.38,0.43-0.59,0.63c-2.51,2.52-5.98,4.08-9.81,4.08
					c-3.83,0-7.3-1.55-9.8-4.07c-0.21-0.21-0.41-0.42-0.6-0.64c-2.15-2.44-3.45-5.64-3.45-9.14c0-3.64,1.4-6.94,3.7-9.41
					c0.19-0.22,0.4-0.43,0.62-0.62c2.48-2.36,5.84-3.82,9.54-3.82c3.7,0,7.06,1.45,9.54,3.82c0.22,0.2,0.43,0.4,0.62,0.62
					C228.99,234.99,230.39,238.29,230.39,241.93z"/>
				<g>
					<path class="st2" d="M226.07,231.9c-2.38,1.45-5.77,2.36-9.54,2.36s-7.16-0.91-9.54-2.36c-0.21,0.2-0.43,0.4-0.62,0.62
						c2.53,1.62,6.15,2.63,10.15,2.63c4.01,0,7.62-1.01,10.16-2.63C226.5,232.3,226.29,232.09,226.07,231.9z"/>
				</g>
				<g>
					<path class="st2" d="M216.53,248.28c-4.13,0-7.85,1.08-10.4,2.79c0.19,0.22,0.39,0.44,0.6,0.64c2.39-1.56,5.9-2.54,9.8-2.54
						s7.42,0.98,9.81,2.53c0.21-0.21,0.4-0.41,0.59-0.63C224.38,249.36,220.66,248.28,216.53,248.28z"/>
				</g>
				<path class="st14" d="M249.2,244.73l0.72-1.38c0.62-1.18,1.68-2.06,2.96-2.45l10.69-3.26l2.52-2.43h7.73c0.55,0,1,0.45,1,1
					l0.04,9.48c0,0.47-0.38,0.86-0.85,0.87l-23.66,0.04C249.39,246.61,248.76,245.58,249.2,244.73z"/>
				<path class="st14" d="M274.76,249.82h-25.59c-0.34,0-0.62-0.28-0.62-0.62v-0.95c0-0.34,0.28-0.62,0.62-0.62h25.59
					c0.34,0,0.62,0.28,0.62,0.62v0.95C275.38,249.54,275.1,249.82,274.76,249.82z"/>
				<g>
					<path class="st2" d="M187.5,273.43h-5.66c-1.32,0-2.4-1.07-2.4-2.4v-5.66c0-1.32,1.07-2.4,2.4-2.4h5.66
						c1.32,0,2.4,1.07,2.4,2.4v5.66C189.9,272.35,188.83,273.43,187.5,273.43z"/>
					<g>
						<path class="st15" d="M180.65,266.3l1.05,3.81c0.03,0.1,0.11,0.16,0.21,0.16h5.41c0.12,0,0.22-0.1,0.22-0.22v-3.81
							c0-0.12-0.1-0.22-0.22-0.22h-6.46C180.71,266.02,180.61,266.16,180.65,266.3z M186.9,269.86h-4.68c-0.1,0-0.19-0.07-0.21-0.16
							l-0.81-2.98c-0.04-0.14,0.07-0.28,0.21-0.28h5.5c0.12,0,0.22,0.1,0.22,0.22v2.98C187.12,269.76,187.02,269.86,186.9,269.86z"
							/>
					</g>
					<g>
						<rect x="182.53" y="266.87" class="st15" width="0.45" height="2.77"/>
					</g>
					<g>
						<rect x="183.97" y="266.87" class="st15" width="0.45" height="2.77"/>
					</g>
					<g>
						<rect x="185.42" y="266.87" class="st15" width="0.45" height="2.77"/>
					</g>
					<rect x="187.67" y="266.09" class="st15" width="1.34" height="0.61"/>
					<circle class="st15" cx="182.4" cy="270.99" r="0.5"/>
					<circle class="st15" cx="185.97" cy="270.99" r="0.5"/>
				</g>
				<g>
					<path class="st2" d="M233.44,273.43h-5.66c-1.32,0-2.4-1.07-2.4-2.4v-5.66c0-1.32,1.07-2.4,2.4-2.4h5.66
						c1.32,0,2.4,1.07,2.4,2.4v5.66C235.83,272.35,234.76,273.43,233.44,273.43z"/>
					<g>
						<path class="st15" d="M226.58,266.3l1.05,3.81c0.03,0.1,0.11,0.16,0.21,0.16h5.41c0.12,0,0.22-0.1,0.22-0.22v-3.81
							c0-0.12-0.1-0.22-0.22-0.22h-6.46C226.65,266.02,226.54,266.16,226.58,266.3z M232.84,269.86h-4.68
							c-0.1,0-0.19-0.07-0.21-0.16l-0.81-2.98c-0.04-0.14,0.07-0.28,0.21-0.28h5.5c0.12,0,0.22,0.1,0.22,0.22v2.98
							C233.06,269.76,232.96,269.86,232.84,269.86z"/>
					</g>
					<g>
						<rect x="228.46" y="266.87" class="st15" width="0.45" height="2.77"/>
					</g>
					<g>
						<rect x="229.91" y="266.87" class="st15" width="0.45" height="2.77"/>
					</g>
					<g>
						<rect x="231.35" y="266.87" class="st15" width="0.45" height="2.77"/>
					</g>
					<rect x="233.6" y="266.09" class="st15" width="1.34" height="0.61"/>
					<circle class="st15" cx="228.34" cy="270.99" r="0.5"/>
					<circle class="st15" cx="231.9" cy="270.99" r="0.5"/>
				</g>
				<g>
					<path class="st2" d="M278.9,273.43h-5.66c-1.32,0-2.4-1.07-2.4-2.4v-5.66c0-1.32,1.07-2.4,2.4-2.4h5.66
						c1.32,0,2.4,1.07,2.4,2.4v5.66C281.29,272.35,280.22,273.43,278.9,273.43z"/>
					<g>
						<path class="st15" d="M272.04,266.3l1.05,3.81c0.03,0.1,0.11,0.16,0.21,0.16h5.41c0.12,0,0.22-0.1,0.22-0.22v-3.81
							c0-0.12-0.1-0.22-0.22-0.22h-6.46C272.11,266.02,272,266.16,272.04,266.3z M278.3,269.86h-4.68c-0.1,0-0.19-0.07-0.21-0.16
							l-0.81-2.98c-0.04-0.14,0.07-0.28,0.21-0.28h5.5c0.12,0,0.22,0.1,0.22,0.22v2.98C278.52,269.76,278.42,269.86,278.3,269.86z"
							/>
					</g>
					<g>
						<rect x="273.92" y="266.87" class="st15" width="0.45" height="2.77"/>
					</g>
					<g>
						<rect x="275.37" y="266.87" class="st15" width="0.45" height="2.77"/>
					</g>
					<g>
						<rect x="276.81" y="266.87" class="st15" width="0.45" height="2.77"/>
					</g>
					<rect x="279.06" y="266.09" class="st15" width="1.34" height="0.61"/>
					<circle class="st15" cx="273.8" cy="270.99" r="0.5"/>
					<circle class="st15" cx="277.36" cy="270.99" r="0.5"/>
				</g>
				<rect x="152.25" y="264.68" class="st16" width="23.67" height="1.68"/>
				<rect x="152.25" y="268.54" class="st16" width="23.67" height="1.68"/>
				<rect x="198.26" y="264.68" class="st16" width="23.67" height="1.68"/>
				<rect x="198.26" y="268.54" class="st16" width="23.67" height="1.68"/>
				<rect x="244.26" y="264.68" class="st16" width="23.67" height="1.68"/>
				<rect x="244.26" y="268.54" class="st16" width="23.67" height="1.68"/>
			</g>
		</g>
	</g>
	<g>
		<g>
			<g>
				<path class="st17" d="M420.6,261.9c0,0-10.92-23.72-8.09-27.11s5.08-0.75,5.08-0.75l8.47,26.92L420.6,261.9z"/>
				<path class="st17" d="M476.5,316.11c0,0-26.35,53.84-14.31,63.25c12.05,9.41,25.6-0.38,36.14-23.72
					C508.88,332.3,499.47,317.62,476.5,316.11z"/>
				<path class="st18" d="M520.17,237.05c0,0-12.8,1.88-21.46,12.42c-8.66,10.54-38.02,60.24-35.39,65.51s34.26,17.32,34.26,17.32
					S534.85,243.83,520.17,237.05z"/>
				<path class="st19" d="M620.51,309.93c-4.82,27.3-11.68,51.08-11.68,51.08s1.69,35.29,1.32,51.86
					c-20.58,12.39-54.7,12.81-82,9.83c-19.13-2.09-34.92-5.85-40.35-8.33c6.4-10.92,12.04-56.09,8.28-74.16
					c-1.84-8.8-3.22-19.56-2.95-30.34c0.3-11.35,2.43-22.71,7.84-31.78c10.54-17.69,19.2-41.04,19.2-41.04l5.5-0.68l5.04-0.63
					l48.94-9.23l26.14,3.29l5.3,0.67c10.27,2.64,13.92,16.33,14.07,33.93C625.28,278.32,623.22,294.67,620.51,309.93z"/>
				<path class="st20" d="M605.79,229.8c-6.81,14.47-26.78,24.76-48.63,24.76c-18.99,0-27.89-7.07-31.49-18.19l5.04-0.63l48.94-9.23
					L605.79,229.8z"/>
				<path class="st21" d="M608.83,361.01c0,0,6.26,35.14,8.02,56.14c-1.39,1.63-2.93,2.71-4.63,3.15
					c-7.54,1.97-61.77,4.95-129.89,7.28c6.56-14.61,17.33-70.15,13.75-87.37c-1.84-8.8-3.22-19.56-2.95-30.34
					c25.36,7.84,75.67,18.31,127.38,0.06C615.69,337.23,608.83,361.01,608.83,361.01z"/>
				<path class="st22" d="M430.95,311.97c0,0,13.18,30.87,15.44,41.04c2.26,10.16,11.29,37.27,30.87,29.74
					c19.58-7.53-3.39-44.42-6.02-47.81c-2.64-3.39-23.34-28.24-24.47-32.38C446.76,302.56,444.5,312.35,430.95,311.97z"/>
				<path class="st17" d="M585.68,332.49c0,0-30.85,44.01-12.71,64.66c13.27,15.11,40.94-11.01,57.88-51.67
					S598.1,318.37,585.68,332.49z"/>
				<path class="st22" d="M415.7,268.49c0,0-6.21,12.61-0.75,22.21c5.46,9.6,16,21.27,16,21.27s13.18,1.69,15.81-9.41
					c2.64-11.11,8.47-12.8,8.47-12.8l-20.33-10.73l-6.59-5.27l-2.26-5.65L415.7,268.49z"/>
				<path class="st7" d="M465.02,281.29l-0.37,0.01l-2.42,0.09l-12.46,0.46l-20.89-5.27l-9.1-31.95l-3.33-11.72l-4.33-15.81
					c0,0-0.47-1.47,0.36-2.66c0.55-0.81,1.69-1.48,3.97-1.48c4.27,0,18.3,0.97,24.92,1.44c2.1,0.15,3.86,1.62,4.39,3.66l9.09,30.54
					l2.36,7.94l7.66,24.29L465.02,281.29z"/>
				<path class="st23" d="M465.02,281.29l-0.37,0.01l-2.42,0.09l-12.46,0.46l-20.89-5.27l-9.1-31.95
					c9.39,6.29,22.04,10.86,35.07,3.97l2.36,7.94l7.66,24.29L465.02,281.29z"/>
				<path class="st24" d="M464.87,280.83l-0.22,0.47l-1.51,3.19l-0.91-3.1l-18.41-62.73c-0.44-1.5-1.77-2.56-3.33-2.64l-28.01-1.57
					c0.55-0.81,1.69-1.48,3.97-1.48c4.27,0,18.3,0.97,24.92,1.44c2.1,0.15,3.86,1.62,4.39,3.66l11.45,38.48L464.87,280.83z"/>
				<path class="st22" d="M506.62,300.87c0,0,27.11,19.76,36.14,24.85c9.04,5.08,45.18,26.54,50.82,38.96
					c5.65,12.42,8.47,42.92-14.68,36.71c-23.15-6.21-62.87-61.36-69.65-67.58s-13.93-6.96-13.93-6.96S493.07,305.95,506.62,300.87z"
					/>
				<path class="st17" d="M463.18,278.98c0,0-29.41-6.35-33.08-6.07c-3.67,0.28-5.65,7.91,12.99,14.96
					c7.06,1.98,8.75,2.82,8.75,2.82l-15.39,1.13c-3.39-0.42-5.51,4.38-0.33,5.92c3.57,1.06,7.88,2.57,14.37,3.19
					c0,3.95,1.06,8.96,9.53,10.94c8.47,1.98,12.71-18.35,12.71-18.35L463.18,278.98z"/>
				<path class="st18" d="M646.06,335.36c-1.73,6.35-3.55,10.98-5.04,12.94c-9.04,11.86-28.24-5.65-44.61-7.9
					c-16.38-2.26-18.07-14.12-19.2-24.29c-0.21-1.9,0.46-4.21,1.73-6.81c5.52-11.29,22.26-27.91,25.94-38.93
					c4.51-13.55,6.21-39.9,6.21-39.9C661.04,227.8,654.76,303.37,646.06,335.36z"/>
				<path class="st22" d="M506.62,300.87c0,0-27.95-39.81-36.99-33.32s-12.99,39.53-9.6,44.33c3.39,4.8,35.29,14.96,35.29,14.96
					S507.47,307.08,506.62,300.87z"/>
				<path class="st22" d="M473.87,266.7c0,0-22.87-20.33-27.95-25.69c-5.08-5.36-6.21,4.24,0.28,14.68
					c6.49,10.45,16.09,23.15,16.09,23.15l7.91,0.85L473.87,266.7z"/>
				<path class="st22" d="M420.6,261.9l5.46-0.94c0,0,15.62-3.58,17.88,2.82c2.26,6.4-18.82,6.78-21.27,8.47
					C420.22,273.95,410.05,271.69,420.6,261.9z"/>
				<path class="st25" d="M646.06,335.36c-1.73,6.35-3.55,10.98-5.04,12.94c-9.04,11.86-28.24-5.65-44.61-7.9
					c-16.38-2.26-19.01-11.01-20.14-21.18c-0.21-1.9,1.4-7.32,2.67-9.92c3.18,2.84,8.34,6.38,15.21,7.66
					c12.14,2.26,11.86,1.98,12.14,2.26c0.28,0.28,12.99-0.57,23.15,7.62C635.77,331.94,641.88,334.3,646.06,335.36z"/>
			</g>
			<g>
				<path class="st17" d="M577.58,198.84c0,0,0,14.12,3.95,18.82s11.48,10.54,17.69,12.24c-10.73,6.4-48.19,30.68-68.52,5.84
					c6.4-1.88,16.19-3.58,14.12-12.24C542.76,214.84,570.24,194.89,577.58,198.84z"/>
				<path class="st23" d="M505.87,170.23c0,0,0.75,24.66-4.89,35.2c-5.65,10.54-1.32,31.44,31.44,26.92
					c13.55-1.51,15.44-11.29,15.44-11.29L505.87,170.23z"/>
				<path class="st22" d="M606.76,170.8c0.38,7.34-19.58,25.6-29.18,28.04c-2.63,11.3-32.75,29.74-41.03,26.73
					c-33.32-18.82-31.63-46.12-33.88-56.28c-0.63-2.82-0.82-7.02-0.77-11.61c0.02-1.62,0.06-3.29,0.13-4.97
					c0.15-3.56,0.4-7.14,0.65-10.33c0.32-3.86,0.66-7.16,0.88-9.18c0.15-1.34,0.24-2.12,0.24-2.12l5.24-1.79l9.53-3.26l6.68-2.29
					c25.42-7.72,56.1,7.71,67.77,14.11C604.69,144.25,606.38,163.45,606.76,170.8z"/>
				<g>
					<path class="st17" d="M599.17,164.11c-0.25,0.48-0.85,0.67-1.33,0.43c-0.09-0.04-2.83-1.15-7.98,3.12
						c-1.43,2.87-2.55,6.42-2.81,10.73c-0.03,0.53-0.47,0.93-1,0.93h-0.06c-0.55-0.03-0.97-0.51-0.93-1.06
						c0.96-15.81,12.28-22.02,12.76-22.28s1.09-0.07,1.35,0.41c0.26,0.49,0.08,1.1-0.41,1.36c-0.06,0.03-3.26,1.8-6.31,5.78
						c3.85-1.93,6.01-0.93,6.31-0.77C599.25,163.02,599.43,163.62,599.17,164.11z"/>
				</g>
				<path class="st17" d="M572.31,155.55c-11.29,0.19-20.89-12.99-20.89-12.99c-25.52,5.66-41.84,2.12-48.74-0.18
					c0.32-3.86,0.66-7.16,0.88-9.18c1.67-1.4,3.59-2.77,5.48-3.91c2.72-1.66,5.39-2.87,7.18-3.11c0.54-0.07,1.34-0.12,2.35-0.15
					c9.63-0.29,38.31,1.09,38.31,1.09S583.61,155.36,572.31,155.55z"/>
				<path class="st7" d="M611.09,230.47c-16.75,1.69-25.79-9.23-29.55-12.8c-3.77-3.58-3.96-18.83-3.96-18.83s4.9-5.83,6.4-13.36
					c21.65-6.03,22.59-28.24,16.76-31.44c-12.05-5.27-15.25,6.03-18.26,16.76c-3.01,10.72-10.92-11.11-12.05-19.77
					c-8.66-3.92-12.69-9.33-14.48-12.79c-1.05-2.03-1.33-3.4-1.33-3.4c-17.2,7.81-40.08,6.29-51.6,6.04
					c-4.55-0.1-7.94-4.27-7.04-8.73c2.25-11.21,10.41-30.55,39.63-37.59c31.45-7.59,52.79,12.71,58.05,20.91
					c0.04,0.06,0.08,0.11,0.11,0.17c9.79,2.07,13.93,19.58,15.62,35.77c1.7,16.19,3.2,33.5,10.73,50.44
					C627.65,218.8,627.84,228.77,611.09,230.47z"/>
				<path class="st23" d="M611.16,231.05c-16.75,1.69-25.75-8.85-29.51-12.42c-3.77-3.58-4.07-19.79-4.07-19.79s4.9-5.83,6.4-13.36
					c21.65-6.03,22.59-28.24,16.76-31.44c-12.05-5.27-15.25,6.03-18.26,16.76c-3.01,10.72-10.92-11.11-12.05-19.77
					c-8.66-3.92-12.69-9.33-14.48-12.79c22.98-5.64,33.3-16.12,37.71-22.77c0.04,0.06,0.08,0.11,0.11,0.17
					c9.79,2.07,13.93,19.58,15.62,35.77c1.7,16.19,3.2,33.5,10.73,50.44C627.65,218.8,627.91,229.35,611.16,231.05z"/>
			</g>
			<g>
				<ellipse class="st26" cx="538.81" cy="171.69" rx="3.32" ry="5.65"/>
				<ellipse class="st26" cx="510.43" cy="173.52" rx="3.32" ry="5.65"/>
				<path class="st26" d="M533.61,150.01c-2.67,0.07-5.07,1.97-5.48,4.62c-0.17,1.11,0.08,2.12,1.26,2.62
					c3.39,1.41,7.25-3.29,12.24-2.07C546.33,156.32,550.44,149.55,533.61,150.01z"/>
				<path class="st26" d="M511.9,158.58c-2.62,1.54-6.14-1.06-10-0.9c0.02-1.62,0.06-3.29,0.13-4.97c1.33-0.29,2.9-0.53,4.72-0.73
					c2.66-0.29,5.29,1.27,6.05,3.84C513.12,156.89,513.01,157.93,511.9,158.58z"/>
				<path class="st17" d="M531.24,186.31c0.72,0.03,0.85,0.81,0.42,1.39c-1.88,2.54-6.14,6.54-8.94,6.02
					c-3.81-0.71-9.18-4.09-5.36-5.51C520.59,187.01,527.1,186.11,531.24,186.31z"/>
				<g>
					<path class="st17" d="M543.34,204.03c-0.19,0.28-0.5,0.42-0.82,0.42c-0.19,0-0.4-0.05-0.57-0.18
						c-1.27-0.89-1.99-2.14-2.39-3.36c-6.71,2.9-12.87,3.38-16.3,3.38c-1.65,0-2.66-0.11-2.78-0.13c-0.55-0.06-0.94-0.56-0.88-1.11
						c0.07-0.54,0.56-0.93,1.11-0.87c0.09,0.01,8.83,0.98,18.42-3.26c-0.12-1.03-0.06-1.78-0.05-1.86c0.05-0.55,0.53-0.96,1.08-0.91
						c0.55,0.05,0.96,0.53,0.91,1.08c0,0.04-0.06,0.86,0.11,1.88c0.02,0.14,0.05,0.29,0.09,0.44c0.23,1.1,0.74,2.33,1.83,3.08
						C543.55,202.95,543.66,203.58,543.34,204.03z"/>
				</g>
			</g>
		</g>
		<g>
			<g>
				<path class="st27" d="M320.53,239.18c0,0,12.24,28.52,14.49,35.01s-2.96,18.07-8.61,11.72s-11.29-24.56-11.29-24.56
					L320.53,239.18z"/>
				<path class="st28" d="M321.09,302.05c0,0,34.46-4.93,39.53-0.19c11.67,10.92-19.2,77.55-19.2,77.55s-15.06,9.41-22.96,0.38
					c6.02-18.82,16.94-51.58,16.94-51.58l-28.24,7.91L321.09,302.05z"/>
				<path class="st27" d="M321.09,302.05c0,0-10.45,68.37-20.24,87.2c-23.36,0.49-30.19,0.38-30.19,0.38s14.66-41.08,16.73-79.85
					S321.09,302.05,321.09,302.05z"/>
				<path class="st18" d="M289.09,229.2c0,0-4.89-1.13-18.45,6.4c2.07,16,11.48,64.38,16.75,74.16c13.74,3.95,33.69-7.72,33.69-7.72
					s-6.21-30.31-0.56-62.87C316.39,235.22,302.46,230.33,289.09,229.2z"/>
				<path class="st17" d="M283.14,300.3c0,0,7.93,0.99,9.16,2.5c1.22,1.51-0.38,6.02-0.38,6.02L283.14,300.3z"/>
				<path class="st29" d="M270.64,235.6c0,0-21.84,32.75-21.27,38.78c0.56,6.02,19.58,33.51,19.58,33.51s8.85,1.32,15.81-8.09
					c-4.14-6.02-13.55-25.41-13.55-25.41s16.75-28.24,15.06-32.94C284.57,236.73,280.81,232.21,270.64,235.6z"/>
				<path class="st28" d="M334.6,240.16c0,0,7.13-2.54,11.58,2.12C346.17,242.28,338.62,249.06,334.6,240.16z"/>
				<path class="st17" d="M277.33,320.4c0,0,7.69,4.54,8.82,3.98c1.13-0.56,1.13-1.84,1.13-1.84s1.69,1.27,3.11,0.42
					c1.41-0.85,0.99-2.33,0.99-2.33s2.33,1.41,3.32-1.55c0.99-2.96-4.94-6.64-4.94-6.64L277.33,320.4z"/>
				<polygon class="st22" points="273.02,306.32 277.33,320.4 295.4,311.55 283.14,300.3 				"/>
				<path class="st18" d="M375.17,227.97c0,0-14.13-11.02-26.06-12.59c-1.46-7.14,1.54-11.27,1.54-11.27s18.61,0.8,26.34-4.84
					C376.18,208.67,375.17,227.97,375.17,227.97z"/>
				<path class="st22" d="M335.01,230.01l0.67,12.08c0,0,2.26,3.29,5.74,3.01c3.48-0.28,3.58-2.35,3.58-2.35l3.67-14.96l-7.53-4.8
					L335.01,230.01z"/>
				<path class="st28" d="M376.9,198.94l-1.91,29.95c-0.06,0.95,0.7,1.76,1.65,1.75l0.53,0c0.88,0,1.6-0.7,1.64-1.57l1.39-29.95
					c0.04-0.89-0.63-1.65-1.52-1.72l0,0C377.76,197.32,376.96,198.02,376.9,198.94z"/>
				<path class="st28" d="M343.47,215.2l-3.14,21.1l8.43,0.1l1.89-32.29l-8.14-0.23c-0.42-0.01-0.82,0.07-1.2,0.25
					c-1.12,0.52-3.18,1.96-3.19,5.44C338.11,214.35,343.47,215.2,343.47,215.2z"/>
				<path class="st17" d="M341.63,216.32c0,0-1.84,3.89-3.02,5.04c-1.18,1.15-3.11,4.51-3.6,8.64c0.15,3.14,5.01,2.01,5.69-1.65
					C341.37,224.71,344.79,217.52,341.63,216.32z"/>
				<path class="st17" d="M343.46,223.33c0,0-2.34,1.65-0.02,3.43c-1.18,1.41-1.54,2.64-0.05,3.51c-0.74,0.78-1.1,2.27,0.55,2.93
					c-0.78,0.35-0.86,1.75,0.6,2.19s6.47,0.77,5.5-1.87c1.29-0.95,0.8-2.94,0.8-2.94s1.78-1.73,0.43-3.39
					c0.9-1.32,0.48-3.54-3.14-3.79C344.53,223.14,343.46,223.33,343.46,223.33z"/>
				<path class="st22" d="M295.4,311.55l3.24,5.86c0.34,0.62,0.2,1.39-0.33,1.84c-0.73,0.62-1.69,1.38-2.06,1.38
					c-0.45,0-3.74-4.62-5.33-6.77c-0.59-0.79-0.25-1.93,0.67-2.27c0.68-0.25,1.08-0.44,1.69-0.64
					C293.96,310.72,294.91,311.17,295.4,311.55z"/>
				<path class="st18" d="M334.6,240.16c0,0,1.98,5.51,11.58,2.12c-0.14,11.29-0.71,51.11-16.66,45.46
					c-4.09-5.22-1.69-16.24,1.27-25.13S334.6,240.16,334.6,240.16z"/>
				<path class="st29" d="M318.46,379.79c0,0-5.46,2.45-4.14,16c12.42,0,37.27,0,37.27,0s5.27-13.36-10.16-16.38
					C325.99,376.4,318.46,379.79,318.46,379.79z"/>
			</g>
			<g>
				<path class="st17" d="M306.88,221.39c0,0,0,10.82,0.75,12.24s4.24,6.12,0,6.31c-4.24,0.19-13.93-0.66-18.54-10.73
					c3.11-0.09,3.11-0.09,3.11-0.09l0.75-19.39L306.88,221.39z"/>
				<path class="st22" d="M318,221.81c-0.96,1.45-2.66,2.22-4.4,2.11c-8.82-0.54-20.52-3.22-23.34-14.48
					c-6.02,0.09-9.78-2.45-10.54-7.15c-0.75-4.71,2.64-12.71,8.28-13.74c2.74-0.5,10.2-0.83,17.16-1.03
					c7.38-0.22,14.19-0.29,14.19-0.29s0.32,1.08,0.75,2.9C321.59,196.6,324.3,212.37,318,221.81z"/>
				<path class="st17" d="M320.1,190.13c-4.41,1.84-12.49,4.29-19.21,1.34c1.13-1.56,2.61-2.89,4.27-3.95
					c7.38-0.22,14.19-0.29,14.19-0.29S319.67,188.31,320.1,190.13z"/>
				<path class="st30" d="M300.89,191.47c0,0-1.32,5.08-4.14,7.06c-1.22,4.52-1.05,8.12-4.16,2.95c-3.11-5.18-6.92-6.21-7.84-1.34
					c-1.51,8.02,5.68,9.4,5.68,9.4s0.21,2.74,2.36,5.28c0.07,0.21,0.24,3.79-0.14,3.74c-0.75-0.09-15.21-12.41-16.34-23.89
					c-1.13-11.48,9.79-24.32,21.55-27.11c12.08-2.86,13.35,0.38,10.92,1.69c8-0.94,25.13,5.08,11.2,14.02
					C322.63,187.24,321.6,191,300.89,191.47z"/>
				<g>
					<path class="st17" d="M292.24,207.55c0.02,0.28-0.18,0.52-0.46,0.54h-0.04c-0.26,0-0.48-0.19-0.5-0.46
						c-0.08-1-0.24-1.87-0.45-2.62h-0.01c-0.6-0.66-2.59-0.88-3.68-0.85c-0.28-0.01-0.51-0.21-0.52-0.48c0-0.28,0.22-0.51,0.49-0.52
						c0.25,0,1.89-0.02,3.2,0.44c-0.94-2.13-2.21-2.88-2.23-2.89c-0.24-0.13-0.32-0.44-0.19-0.68s0.44-0.32,0.68-0.19
						C288.66,199.91,291.76,201.69,292.24,207.55z"/>
				</g>
			</g>
			<g>
				
					<ellipse transform="matrix(0.9955 -0.0953 0.0953 0.9955 -17.7468 30.1775)" class="st30" cx="307.23" cy="200.98" rx="1.76" ry="2.54"/>
				
					<ellipse transform="matrix(0.9955 -0.0953 0.0953 0.9955 -17.6201 31.3071)" class="st30" cx="319.13" cy="200.22" rx="1.42" ry="2.54"/>
				<path class="st17" d="M312.97,209.9c0,0-1.6-1.69-0.24-2.16c1.36-0.47,6.16-1.32,6.12,0.09
					C318.85,207.83,316.74,212.54,312.97,209.9z"/>
				<path class="st31" d="M318.74,213.77c-0.19,1.17-0.68,2.85-1.98,3.8c-0.69,0.51-1.62,0.8-2.85,0.7
					c-2.35-0.2-3.81-1.75-4.68-3.35c-0.23-0.41-0.41-0.83-0.57-1.22c-0.18-0.46-0.15-0.93,0.05-1.32c0.27-0.57,0.87-0.96,1.58-0.91
					l7.35,0.87c0.56,0.07,0.98,0.49,1.09,1v0.01C318.76,213.49,318.76,213.63,318.74,213.77z"/>
				<path class="st2" d="M318.73,213.34L318.73,213.34c-1,1.83-5.01,0.84-7.78,0.46c-1.4-0.19-2-0.8-2.24-1.42
					c0.27-0.57,0.87-0.96,1.58-0.91l7.35,0.87C318.2,212.41,318.62,212.83,318.73,213.34z"/>
				<path class="st32" d="M316.76,217.57c-0.69,0.51-1.62,0.8-2.85,0.7c-2.35-0.2-3.81-1.75-4.68-3.35c0.65-0.2,1.36-0.31,2.1-0.31
					C313.81,214.61,315.93,215.84,316.76,217.57z"/>
				<path class="st30" d="M307.87,196.57c0,0,1.67-1,1.27-1.71c-0.4-0.71-5.13-0.74-5.7,0.62
					C302.87,196.84,307.87,196.57,307.87,196.57z"/>
				<path class="st30" d="M317.3,196.4c0,0-1.14-1.99-0.42-2.22c0.72-0.23,3.11-0.55,3.7,0.42
					C321.17,195.57,317.3,196.4,317.3,196.4z"/>
			</g>
		</g>
	</g>
	<text transform="matrix(1 0 0 1 22.4998 42.7133)" class="st33 st34 st35">Grow Up E-Commerce</text>
	<text transform="matrix(1 0 0 1 24.0045 58.2171)" class="st33 st36 st37">Vector Illustration</text>
</g>
</svg>
