<svg xmlns="http://www.w3.org/2000/svg" xmlns:xlink="http://www.w3.org/1999/xlink" viewBox="0 0 4680 3120"><defs><style>.cls-1{fill:none;}.cls-2{fill:#72120c;}.cls-3{fill:#fff;}.cls-4{fill:#f3f5f4;}.cls-5{clip-path:url(#clip-path);}.cls-6{fill:#9ab5a9;}.cls-7{fill:#bcc9c3;}.cls-8{fill:#ced8d4;}.cls-9{fill:#dce6e2;}.cls-10,.cls-13{fill:#3f9ea8;}.cls-10{opacity:0.65;}.cls-11{fill:#c1d1ca;}.cls-12{fill:#c3d1cb;}.cls-14{fill:#fdb23d;}.cls-15{fill:#f26027;}.cls-16{fill:#fcdccd;}.cls-17{clip-path:url(#clip-path-2);}.cls-18{fill:#f6c1ac;}.cls-19{clip-path:url(#clip-path-3);}.cls-20{fill:#fc9c54;}.cls-21{clip-path:url(#clip-path-4);}.cls-22{fill:#e55428;}.cls-23{clip-path:url(#clip-path-5);}.cls-24{fill:#d3480b;}.cls-25{fill:#961d1a;}.cls-26{clip-path:url(#clip-path-6);}.cls-27{fill:#7f1212;}.cls-28{clip-path:url(#clip-path-7);}.cls-29{fill:#571e1e;}.cls-30{clip-path:url(#clip-path-8);}.cls-31{fill:#faab92;}.cls-32{clip-path:url(#clip-path-9);}.cls-33{clip-path:url(#clip-path-10);}.cls-34{fill:#ffebc7;}.cls-35{fill:#051935;}.cls-36{clip-path:url(#clip-path-11);}.cls-37{fill:#540905;}.cls-38{clip-path:url(#clip-path-12);}.cls-39{clip-path:url(#clip-path-13);}.cls-40{fill:#f79b22;}.cls-41{clip-path:url(#clip-path-14);}.cls-42{fill:#f8bd3f;}.cls-43{clip-path:url(#clip-path-15);}.cls-44{clip-path:url(#clip-path-16);}</style><clipPath id="clip-path"><path class="cls-1" d="M3460,2382.42c-139.54,105.65-317,195.52-538.57,261.27-198.49,58.91-432.36,98.44-706.07,112.55-130.17,6.72-250.32,4.28-360.91-6.11q-39.59-3.77-77.55-8.82-22.79-3-45-6.54-48.5-7.67-94.23-17.49a1524.3,1524.3,0,0,1-165.33-45q-39.9-13.39-77.27-28.6c-67.52-27.4-128.91-59-184.42-94.23-4.12-2.6-8.19-5.24-12.25-7.9-839.1-548-299.64-1919.38,678.83-1660.08,229.25,60.74,473.78,19.77,667.22-116.79,168.58-119,414.66-219.25,744-175.5C3816.5,659.32,4257.75,1778.48,3460,2382.42Z"/></clipPath><clipPath id="clip-path-2"><path class="cls-1" d="M2570.92,2438.87s-107.81-49.25-148.61-38.47-55.36,12.25-55.36,12.25L2336.36,2448l-77.21,82,29.13,16.75s-18.94,23.6,26.23,19.82c12,16.6,77.21,10.77,77.21,10.77l158.8-45.5Z"/></clipPath><clipPath id="clip-path-3"><path class="cls-1" d="M2203.06,2406.82s53.9,22.58,92.51,8.74,83-23.31,117.28-5.1,65.55,37.68,48.8,41.06-70.66-9.73-70.66-9.73-29.14,53.9-80.85,33.5c-2.92,43-51,54.64-51,54.64s-29.33-20.4-59.83-16S2203.06,2406.82,2203.06,2406.82Z"/></clipPath><clipPath id="clip-path-4"><path class="cls-1" d="M2680.94,2188.15s-53.25-22.73-43.11-81.44-12.22-72.32-14.85-92.75,0-77.29-22.89-72.44-23,76.74-23,76.74-32.13-21.19-44.2-14.79-39.65,26.44-36.6,49.37-46.63,51-33,80.21,137.27,137.37,165.34,138.87S2680.94,2188.15,2680.94,2188.15Z"/></clipPath><clipPath id="clip-path-5"><path class="cls-1" d="M3460,2382.42c-139.54,105.65-317,195.52-538.57,261.27-2-45.57,2.49-84.25-37-62.33-67,37.14-253.37-229.36-323.27-313.81,87.38-26.21,90.29-134.69,90.29-134.69l157.27,150.34s29.11-312.72,96.09-373.86,202.3-64.79,202.3-64.79c295.48-82.27,368.52,73.51,377.26,137.58C3489.56,2020.36,3472,2215.19,3460,2382.42Z"/></clipPath><clipPath id="clip-path-6"><path class="cls-1" d="M3224,1289.48s-28.48-90.61-106.15-80.25-49,49.19-92.45,20.71-106.89-6.47-153.49,44-13.87,154.4,57,198,301.6,106.79,301.6,106.79,101-114.56,112.61-162.45S3256.39,1276.54,3224,1289.48Z"/></clipPath><clipPath id="clip-path-7"><path class="cls-1" d="M2913.18,1338.91s-11.47,28.24-7.58,122.73,3.88,107.44-33.66,121.68c22.66,37.53,41.42,53.07,51.78,97.08s32.36,71.19,63.43,63.42,75.07-23.6,75.07-23.6l14.24,114.21L3212.38,1793l-23.3-145s82.84-45.31,76.37-84.14-53.07-27.18-53.07-27.18-47.9-45.31-72.49-84.14-59.55,42.72-85.43-11.65-43.37-77.74-43.37-77.74S2945.54,1410.1,2913.18,1338.91Z"/></clipPath><clipPath id="clip-path-8"><path class="cls-1" d="M2952.2,1637.68s24.59,1.3,58.89-5.18,0,60.84-29.44,49.19S2952.2,1637.68,2952.2,1637.68Z"/></clipPath><clipPath id="clip-path-9"><path class="cls-1" d="M3371.3,1895.91c-16.06-2.78-32.48,2.19-45,12.64-34.81,29.06-96.46,122-172.18,211.3C3083.86,2202.73,3024,2314,2996.85,2347s-19.41-7.77-85.43,23.29-382.5,40.45-382.5,40.45-64.07,99.35,0,155.66c163.1,0,532,1.4,600-16.07s306.77-351.48,320.37-430.51C3461.29,2049.88,3445.61,1908.75,3371.3,1895.91Z"/></clipPath><clipPath id="clip-path-10"><path class="cls-1" d="M1778.64,2086.85c-11.15,94.48-5.07,482.65-1.73,654.46q-72.56-9.66-139.24-24a1524.3,1524.3,0,0,1-165.33-45c-6.77-132.4-18.35-347-24.91-408.71-9.71-91.26-101-392.21-39.63-405.81s127-68,127-68l263,105.37S1793,1964.52,1778.64,2086.85Z"/></clipPath><clipPath id="clip-path-11"><path class="cls-2" d="M1515.39,1327s12.94-116.5,128.15-79,172.15,85.43,226.52,79-40.47,130.74-91.43,139.8S1524.45,1626,1524.45,1626,1268.15,1424.1,1515.39,1327Z"/></clipPath><clipPath id="clip-path-12"><path class="cls-1" d="M1810.52,1377.5s3.88,68.61,0,133.33-19.42,66,16.82,90.61-18.12,36.24-40.12,94.49-37.54,107.44-137.21,54.37c0,79,28.48,103.55,28.48,103.55s-31.07,101-55.66,88S1474,1843.5,1474,1843.5,1490.79,1837,1505,1793s6.47-132.75,6.47-132.75-58.24-22.58-50.48-73.06,54.37-24.59,54.37-24.59,66-24.6,50.48-93.2c89.32-20.71,77.67-75.08,77.67-75.08S1796.28,1418.92,1810.52,1377.5Z"/></clipPath><clipPath id="clip-path-13"><path class="cls-1" d="M1637.67,2717.28c-88.36-19-169.11-43.79-242.6-73.63-67.52-27.4-128.91-59-184.42-94.23-4.12-2.6-8.19-5.24-12.25-7.9-12.22-42.6-18.93-100-20.86-182.18-3.88-165.7,56.31-408.41,81.55-447.24s193.78-70.42,193.78-70.42,56.69,179.15,83.88,278.17C1558.32,2198.41,1615.11,2567.94,1637.67,2717.28Z"/></clipPath><clipPath id="clip-path-14"><path class="cls-1" d="M1522.74,2453.57s57.84-2.45,69.1-61,37-63.35,46.67-81.53,27.3-72.3,47-59.68-5.58,79.93-5.58,79.93,37.54-8.47,46.57,1.77,27.75,38.75,16.8,59.13,25.58,64.23,2.54,86.7-176.95,80-203.75,71.49S1522.74,2453.57,1522.74,2453.57Z"/></clipPath><clipPath id="clip-path-15"><path class="cls-1" d="M1592.26,2566.37s-104.31,53.07-197.19,77.28c-67.52-27.4-128.91-59-184.42-94.23,2-24.89,13.77-50.83,37.8-73.74,10.2-9.71,23.77-16.56,38.82-19.67,39.26-8,132.55-24.56,257.24-29.38C1544.51,2497.37,1592.26,2566.37,1592.26,2566.37Z"/></clipPath><clipPath id="clip-path-16"><path class="cls-1" d="M2257.58,2577.77a5.49,5.49,0,0,1-6.84,6.25c-41.68-11.2-225.93-61.47-265.48-85.55-44.65-27.18-23.3-9.9-98.9-126.2-17.36,54.36-7.49,247.38-9.83,283.2-5.61,85.84-18.44,59-22.07,94.66q-39.59-3.77-77.55-8.82-22.79-3-45-6.54c11.09-47.59,23.11-109.28,21.73-148.52-2.53-71.43.58-336.31,0-443.1s0-265.69,0-265.69,111.25,34.64,167.56,63.76,135.91,262.12,161.16,351.44,71.84,97.08,176.8,120.38C2234.34,2434.63,2252,2546,2257.58,2577.77Z"/></clipPath></defs><title>07</title><g id="_07" data-name="07"><rect id="_07-2" data-name="07" class="cls-3" width="4680" height="3120"/><path class="cls-4" d="M3288.41,589.15c-329.3-43.75-575.38,56.5-744,175.5-193.44,136.56-438,177.53-667.22,116.79C898.76,622.14,359.3,1993.53,1198.4,2541.52c4.06,2.66,8.13,5.3,12.25,7.9,55.51,35.2,116.9,66.83,184.42,94.23q37.4,15.17,77.27,28.6a1524.3,1524.3,0,0,0,165.33,45q45.76,9.81,94.23,17.49,22.21,3.49,45,6.54,38,5.07,77.55,8.82c110.59,10.39,230.74,12.83,360.91,6.11,273.71-14.11,507.58-53.64,706.07-112.55,221.56-65.75,399-155.62,538.57-261.27C4257.75,1778.48,3816.5,659.32,3288.41,589.15Z"/><ellipse class="cls-4" cx="2081.34" cy="521.3" rx="365.72" ry="159.99" transform="translate(-28.26 129.74) rotate(-3.55)"/><g class="cls-5"><path class="cls-6" d="M4148.42,830.65h-3210a1,1,0,0,0,0,2h3210a1,1,0,0,0,0-2Z"/><path class="cls-6" d="M4076.49,1128.79h-3210a1,1,0,0,0,0,2h3210a1,1,0,0,0,0-2Z"/><path class="cls-6" d="M4004.57,1426.92h-3210a1,1,0,0,0,0,2h3210a1,1,0,0,0,0-2Z"/><path class="cls-6" d="M3932.65,1725.05h-3210a1,1,0,0,0,0,2h3210a1,1,0,0,0,0-2Z"/><path class="cls-6" d="M3860.73,2023.19h-3210a1,1,0,1,0,0,2h3210a1,1,0,0,0,0-2Z"/><path class="cls-6" d="M3907.41,2321.32H697.4a1,1,0,0,0,0,2h3210a1,1,0,0,0,0-2Z"/><path class="cls-6" d="M3759.58,2619.46h-3210a1,1,0,0,0,0,2h3210a1,1,0,0,0,0-2Z"/><path class="cls-6" d="M2973.37,436.26a1,1,0,0,0-1,1V831.65a1,1,0,1,0,2,0V437.26A1,1,0,0,0,2973.37,436.26Z"/><path class="cls-6" d="M3648.71,834.21a1,1,0,0,0-1,1v275.37a1,1,0,0,0,2,0V835.21A1,1,0,0,0,3648.71,834.21Z"/><path class="cls-6" d="M2416.81,1128.79a1,1,0,0,0-1,1V1433a1,1,0,1,0,2,0v-303.2A1,1,0,0,0,2416.81,1128.79Z"/><path class="cls-6" d="M3435.63,1128.79a1,1,0,0,0-1,1v298.13a1,1,0,0,0,2,0V1129.79A1,1,0,0,0,3435.63,1128.79Z"/><path class="cls-6" d="M1428.83,1432a1,1,0,0,0-1,1v289.87a1,1,0,0,0,2,0V1433A1,1,0,0,0,1428.83,1432Z"/><path class="cls-6" d="M2154.58,1432a1,1,0,0,0-1,1v279a1,1,0,0,0,2,0V1433A1,1,0,0,0,2154.58,1432Z"/><path class="cls-6" d="M2998.31,1432a1,1,0,0,0-1,1v293.06a1,1,0,0,0,2,0V1433A1,1,0,0,0,2998.31,1432Z"/><path class="cls-6" d="M3551.46,1731.35a1,1,0,0,0-1,1v268.16a1,1,0,1,0,2,0V1732.35A1,1,0,0,0,3551.46,1731.35Z"/><path class="cls-6" d="M2566.43,1725.05a1,1,0,0,0-1,1v298.14a1,1,0,0,0,2,0V1726.05A1,1,0,0,0,2566.43,1725.05Z"/><path class="cls-6" d="M1839.36,1725.05a1,1,0,0,0-1,1v298.14a1,1,0,0,0,2,0V1726.05A1,1,0,0,0,1839.36,1725.05Z"/><path class="cls-6" d="M1055.39,1731.35a1,1,0,0,0-1,1v291.84a1,1,0,0,0,2,0V1732.35A1,1,0,0,0,1055.39,1731.35Z"/><path class="cls-6" d="M1469.17,2023.19a1,1,0,0,0-1,1V2312.9a1,1,0,0,0,2,0V2024.19A1,1,0,0,0,1469.17,2023.19Z"/><path class="cls-6" d="M2919.17,2023.19a1,1,0,0,0-1,1v277a1,1,0,0,0,2,0v-277A1,1,0,0,0,2919.17,2023.19Z"/><path class="cls-6" d="M2285.53,2321.32a1,1,0,0,0-1,1v274.73a1,1,0,0,0,2,0V2322.32A1,1,0,0,0,2285.53,2321.32Z"/><path class="cls-6" d="M3374.35,2314.79a1,1,0,0,0-1,1v299.45a1,1,0,0,0,2,0V2315.79A1,1,0,0,0,3374.35,2314.79Z"/><path class="cls-6" d="M1379.3,2311.9a1,1,0,0,0-1,1v302.34a1,1,0,0,0,2,0V2312.9A1,1,0,0,0,1379.3,2311.9Z"/><path class="cls-6" d="M2885.2,2619.46a1,1,0,0,0-1,1v387.12a1,1,0,0,0,2,0V2620.46A1,1,0,0,0,2885.2,2619.46Z"/></g><polygon class="cls-7" points="2582.73 2067.57 2137.69 2067.57 2070.26 2549.69 2006.2 2549.69 2006.2 2637.35 2737.81 2637.35 2737.81 2536.21 2677.13 2536.21 2582.73 2067.57"/><rect class="cls-8" x="1297.92" y="807.54" width="2049.96" height="1312.69" rx="12"/><rect class="cls-9" x="1374.35" y="877.65" width="1910.6" height="1087.48" rx="12"/><path class="cls-10" d="M3273,877.65H1386.35a12,12,0,0,0-12,12v111.84H3285V889.65A12,12,0,0,0,3273,877.65Z"/><path class="cls-3" d="M2924.55,916.93a26.22,26.22,0,1,0,26.23,26.22A26.22,26.22,0,0,0,2924.55,916.93Z"/><path class="cls-3" d="M3046.94,916.93a26.22,26.22,0,1,0,26.22,26.22A26.23,26.23,0,0,0,3046.94,916.93Z"/><path class="cls-3" d="M3169.32,916.93a26.22,26.22,0,1,0,26.23,26.22A26.22,26.22,0,0,0,3169.32,916.93Z"/><rect class="cls-3" x="1500.48" y="1066.24" width="1051.9" height="80.92"/><rect class="cls-3" x="1500.48" y="1214.59" width="1051.9" height="667.55"/><rect class="cls-11" x="2639.84" y="1102.21" width="555.71" height="192.17"/><rect class="cls-11" x="2639.84" y="1391.25" width="555.71" height="192.17"/><rect class="cls-11" x="2639.84" y="1680.3" width="555.71" height="192.17"/><path class="cls-12" d="M2453.53,1277.38a88.53,88.53,0,0,0-108.87-61.49l-284.42,79c-46.84,13-74.52,62-61.5,108.85l10.84,39c13,46.87,62,74.55,108.86,61.52l284.41-79a87.5,87.5,0,0,0,28.76-14l23.74-26.47a88.12,88.12,0,0,0,9-68.37Zm-28.68,105.3-27,18.2c-1,.35-2,.65-3,.93l-279.37,77.66a61.62,61.62,0,0,1-75.64-42.74l-11.85-42.62a61.63,61.63,0,0,1,42.74-75.64l279.37-77.65c.78-.22,1.57-.41,2.34-.58a60.64,60.64,0,0,1,33.27,1.46,61.49,61.49,0,0,1,40,41.86l11.85,42.62A61.51,61.51,0,0,1,2424.85,1382.68Z"/><path class="cls-12" d="M2798.56,1181.47a88.67,88.67,0,0,0-108.85-61.5L2405.28,1199a87,87,0,0,0-28.74,14,88.83,88.83,0,0,0-32.76,94.82l10.83,39a88.17,88.17,0,0,0,43.2,54,60.74,60.74,0,0,0,27-18.2,61.53,61.53,0,0,1-40-41.86L2373,1298.2a61.53,61.53,0,0,1,38.41-74.25c1.39-.53,2.83-1,4.3-1.38l279.37-77.66a61.61,61.61,0,0,1,75.64,42.74l11.85,42.62a61.6,61.6,0,0,1-42.74,75.64l-279.37,77.65a48.91,48.91,0,0,1-5.11,1.17,88.36,88.36,0,0,1-23.74,26.47,87.61,87.61,0,0,0,31.86-2.81l284.44-79.06c46.84-13,74.52-62,61.49-108.87Z"/><path class="cls-12" d="M2235.19,1784.39a58.22,58.22,0,0,0-81.43-11.52l-155.2,116.7A58.32,58.32,0,0,0,1987,1971l16,21.27a58.33,58.33,0,0,0,81.43,11.54l155.19-116.7a57.62,57.62,0,0,0,14.25-15.5l8.18-21.91a58,58,0,0,0-10.89-44Zm7.72,71.37-12.19,17.64q-.78.66-1.62,1.29l-152.44,114.63a40.53,40.53,0,0,1-56.58-8l-17.49-23.26a40.53,40.53,0,0,1,8-56.58L2163,1786.84c.43-.32.86-.63,1.29-.91a39.9,39.9,0,0,1,20.73-7.1,40.45,40.45,0,0,1,34.56,16l17.49,23.26A40.45,40.45,0,0,1,2242.91,1855.76Z"/><path class="cls-12" d="M2423.46,1642.82a58.32,58.32,0,0,0-81.42-11.53L2186.83,1748a57.38,57.38,0,0,0-14.23,15.49,58.42,58.42,0,0,0,2.7,65.93l16,21.27a58,58,0,0,0,39.42,22.71,40,40,0,0,0,12.19-17.64,40.49,40.49,0,0,1-34.55-16l-17.49-23.26a40.47,40.47,0,0,1,5.7-54.69c.73-.66,1.5-1.27,2.3-1.88l152.44-114.63a40.52,40.52,0,0,1,56.58,8l17.49,23.26a40.52,40.52,0,0,1-8,56.58l-152.44,114.63a33.3,33.3,0,0,1-2.85,1.94,58.28,58.28,0,0,1-8.18,21.91,57.6,57.6,0,0,0,18.83-9.37l155.21-116.7a58.34,58.34,0,0,0,11.52-81.44Z"/><path class="cls-12" d="M3135.93,1748.57l-136.3-102.5a50.62,50.62,0,0,0-16.55-8.23,51.27,51.27,0,0,0-55,18.35l-14.05,18.68a50.89,50.89,0,0,0-9.56,38.67l7.18,19.25a50.4,50.4,0,0,0,12.51,13.61l136.3,102.49a51.23,51.23,0,0,0,71.52-10.13l14-18.68A51.22,51.22,0,0,0,3135.93,1748.57Zm-3.54,60.14L3117,1829.14a35.6,35.6,0,0,1-49.7,7L2933.46,1735.5c-.49-.37-1-.74-1.42-1.13l-10.71-15.49a35.56,35.56,0,0,1,5.09-33.07l15.36-20.43a35.57,35.57,0,0,1,30.36-14.07,35.09,35.09,0,0,1,18.2,6.23l1.14.81L3125.36,1759A35.59,35.59,0,0,1,3132.39,1808.71Z"/><path class="cls-12" d="M2983.08,1637.84a50.21,50.21,0,0,0-12.5-13.61l-136.31-102.5a51.22,51.22,0,0,0-71.51,10.13l-14.05,18.68a51.23,51.23,0,0,0,10.12,71.52l136.31,102.5a50.58,50.58,0,0,0,16.54,8.23,51.11,51.11,0,0,1-7.18-19.25,27,27,0,0,1-2.51-1.7l-133.88-100.67a35.6,35.6,0,0,1-7-49.7l15.36-20.42a35.6,35.6,0,0,1,49.7-7L2960,1634.69c.7.53,1.38,1.07,2,1.65a35.19,35.19,0,0,1,10.11,15,35.58,35.58,0,0,1-5.11,33.06l-15.35,20.43a35.6,35.6,0,0,1-30.35,14.08,35.2,35.2,0,0,0,10.71,15.49,51,51,0,0,0,34.62-19.95l14.05-18.68a51.31,51.31,0,0,0,2.37-57.9Z"/><path class="cls-12" d="M1871.72,989.8l-170.17-11.09a50.66,50.66,0,0,0-18.36,2.17,51.27,51.27,0,0,0-35.94,45.47l-1.52,23.32a50.91,50.91,0,0,0,13.18,37.6l16.55,12.16a50.57,50.57,0,0,0,17.92,4.54l170.18,11.09a51.22,51.22,0,0,0,54.28-47.66l1.52-23.32A51.21,51.21,0,0,0,1871.72,989.8Zm30,52.26-1.66,25.5a35.61,35.61,0,0,1-37.72,33.11l-167.15-10.9c-.61,0-1.22-.09-1.81-.17l-17.45-7.09a35.57,35.57,0,0,1-13.85-30.46l1.66-25.5a35.56,35.56,0,0,1,17.69-28.4,35.1,35.1,0,0,1,18.65-4.76c.45,0,.92,0,1.38.06l167.16,10.89A35.59,35.59,0,0,1,1901.7,1042.06Z"/><path class="cls-12" d="M1683.19,980.88a50.35,50.35,0,0,0-17.91-4.53l-170.19-11.09a51.21,51.21,0,0,0-54.28,47.64l-1.52,23.32a51.23,51.23,0,0,0,47.64,54.3l170.19,11.09a50.63,50.63,0,0,0,18.34-2.18,51.07,51.07,0,0,1-16.55-12.16,27.91,27.91,0,0,1-3-.06l-167.15-10.89a35.58,35.58,0,0,1-33.11-37.72l1.66-25.5A35.58,35.58,0,0,1,1495,980l167.16,10.89c.88.05,1.74.14,2.59.27a35.11,35.11,0,0,1,16.66,7,35.56,35.56,0,0,1,13.84,30.46l-1.66,25.5a35.57,35.57,0,0,1-17.68,28.4,35.23,35.23,0,0,0,17.45,7.09,51,51,0,0,0,18-35.65l1.52-23.32a51.3,51.3,0,0,0-29.73-49.75Z"/><path class="cls-13" d="M2467.08,1229a88.53,88.53,0,0,0-108.88-61.5l-284.41,79.06c-46.85,13-74.52,62-61.5,108.85l10.83,39c13,46.86,62,74.54,108.86,61.52l284.41-79.05a87.7,87.7,0,0,0,28.76-14l23.74-26.48a88.1,88.1,0,0,0,9-68.36Zm-28.69,105.3-27,18.2c-1,.34-2,.65-3,.93L2129,1431.05a61.6,61.6,0,0,1-75.63-42.73l-11.85-42.62a61.61,61.61,0,0,1,42.73-75.64l279.37-77.65c.78-.22,1.57-.42,2.34-.58a60.59,60.59,0,0,1,33.28,1.46,61.49,61.49,0,0,1,40,41.85l11.85,42.62A61.49,61.49,0,0,1,2438.39,1334.27Z"/><path class="cls-14" d="M2812.11,1133.06c-13-46.84-62-74.52-108.85-61.5l-284.44,79.06a87.18,87.18,0,0,0-28.74,14,88.86,88.86,0,0,0-32.76,94.82l10.84,39a88.15,88.15,0,0,0,43.19,54,60.82,60.82,0,0,0,27-18.2,61.55,61.55,0,0,1-40-41.86l-11.85-42.62a61.56,61.56,0,0,1,12.67-56.5,60.8,60.8,0,0,1,25.74-17.75c1.4-.53,2.83-1,4.31-1.39l279.37-77.65a61.61,61.61,0,0,1,75.64,42.74l11.84,42.62a61.6,61.6,0,0,1-42.73,75.64L2474,1335.15a49,49,0,0,1-5.12,1.16,88.38,88.38,0,0,1-23.73,26.48A87.55,87.55,0,0,0,2477,1360l284.44-79.06A88.68,88.68,0,0,0,2822.94,1172Z"/><path class="cls-14" d="M2268.23,1760.26a58.27,58.27,0,0,0-81.44-11.52l-155.19,116.7a58.33,58.33,0,0,0-11.53,81.43l16,21.27a58.34,58.34,0,0,0,81.44,11.54L2272.69,1863a57.42,57.42,0,0,0,14.24-15.5l8.19-21.91a58,58,0,0,0-10.9-44Zm7.72,71.38-12.19,17.64c-.52.44-1.07.87-1.62,1.29L2109.7,1965.2a40.53,40.53,0,0,1-56.58-8l-17.49-23.25a40.52,40.52,0,0,1,8-56.58l152.44-114.63c.43-.32.86-.63,1.29-.92a40,40,0,0,1,20.73-7.09,40.47,40.47,0,0,1,34.56,16l17.49,23.26A40.45,40.45,0,0,1,2276,1831.64Z"/><path class="cls-15" d="M2456.5,1618.7a58.32,58.32,0,0,0-81.43-11.53l-155.2,116.7a57.09,57.09,0,0,0-14.23,15.5,58.41,58.41,0,0,0,2.7,65.93l16,21.27a58,58,0,0,0,39.43,22.71,40.08,40.08,0,0,0,12.19-17.64,40.48,40.48,0,0,1-34.55-16l-17.49-23.26a40.48,40.48,0,0,1,5.69-54.69c.73-.66,1.51-1.28,2.31-1.88l152.44-114.63a40.52,40.52,0,0,1,56.58,8l17.49,23.26a40.53,40.53,0,0,1-8,56.58L2298,1823.63c-.94.7-1.87,1.35-2.85,1.94a58.2,58.2,0,0,1-8.19,21.91,57.65,57.65,0,0,0,18.84-9.37L2461,1721.4a58.32,58.32,0,0,0,11.52-81.43Z"/><path class="cls-15" d="M3169,1724.44,3032.67,1622a50.75,50.75,0,0,0-16.55-8.24,51.26,51.26,0,0,0-55,18.36l-14.05,18.68a50.93,50.93,0,0,0-9.57,38.67l7.19,19.25a50.69,50.69,0,0,0,12.51,13.61l136.3,102.49a51.23,51.23,0,0,0,71.52-10.14l14-18.68A51.22,51.22,0,0,0,3169,1724.44Zm-3.54,60.15L3150.07,1805a35.59,35.59,0,0,1-49.69,7L2966.5,1711.38c-.49-.37-1-.75-1.43-1.14l-10.7-15.49a35.51,35.51,0,0,1,5.09-33.06l15.36-20.43a35.51,35.51,0,0,1,30.35-14.07,35,35,0,0,1,18.21,6.23c.38.25.76.52,1.13.81l133.88,100.67A35.59,35.59,0,0,1,3165.43,1784.59Z"/><path class="cls-13" d="M3016.12,1613.71a50.48,50.48,0,0,0-12.5-13.6l-136.31-102.5a51.23,51.23,0,0,0-71.51,10.12l-14.05,18.69a51.22,51.22,0,0,0,10.12,71.52l136.31,102.5a50.68,50.68,0,0,0,16.54,8.23,51.2,51.2,0,0,1-7.19-19.25c-.86-.52-1.68-1.09-2.5-1.7L2801.15,1587a35.58,35.58,0,0,1-7-49.69l15.36-20.42a35.58,35.58,0,0,1,49.69-7L2993,1610.56c.71.53,1.39,1.08,2,1.65a35.17,35.17,0,0,1,10.1,15,35.54,35.54,0,0,1-5.1,33.06l-15.36,20.42a35.53,35.53,0,0,1-30.34,14.08,35.15,35.15,0,0,0,10.7,15.49,50.93,50.93,0,0,0,34.63-19.94l14-18.68a51.31,51.31,0,0,0,2.38-57.91Z"/><path class="cls-13" d="M1889.06,961.12,1718.88,950a50.5,50.5,0,0,0-18.36,2.17,51.28,51.28,0,0,0-35.93,45.47l-1.52,23.32a50.84,50.84,0,0,0,13.18,37.59l16.55,12.17a50.73,50.73,0,0,0,17.92,4.54l170.18,11.09a51.24,51.24,0,0,0,54.28-47.66l1.52-23.32A51.23,51.23,0,0,0,1889.06,961.12Zm30,52.26-1.66,25.5a35.59,35.59,0,0,1-37.72,33.11l-167.15-10.89c-.61,0-1.22-.09-1.81-.17l-17.45-7.1a35.51,35.51,0,0,1-13.85-30.45l1.66-25.5a35.52,35.52,0,0,1,17.69-28.4,35,35,0,0,1,18.64-4.76c.46,0,.93,0,1.39,0l167.16,10.89A35.6,35.6,0,0,1,1919,1013.38Z"/><path class="cls-15" d="M1700.52,952.21a50.46,50.46,0,0,0-17.91-4.54l-170.18-11.09a51.24,51.24,0,0,0-54.29,47.65l-1.52,23.32a51.24,51.24,0,0,0,47.65,54.3l170.18,11.08a50.44,50.44,0,0,0,18.35-2.17,51.1,51.1,0,0,1-16.55-12.17,27.89,27.89,0,0,1-3,0l-167.16-10.89a35.58,35.58,0,0,1-33.1-37.72l1.66-25.5a35.59,35.59,0,0,1,37.72-33.11l167.15,10.89c.89.06,1.75.14,2.6.28a35.19,35.19,0,0,1,16.66,7,35.56,35.56,0,0,1,13.84,30.45l-1.66,25.5a35.56,35.56,0,0,1-17.68,28.4,35.11,35.11,0,0,0,17.44,7.1,50.94,50.94,0,0,0,18-35.65l1.52-23.32a51.33,51.33,0,0,0-29.74-49.75Z"/><path class="cls-16" d="M2422.31,2400.4c-40.79,10.79-55.36,12.25-55.36,12.25L2336.36,2448l-77.21,82,29.13,16.75s-18.94,23.6,26.23,19.82c12,16.6,77.21,10.77,77.21,10.77l158.8-45.5,20.39-92.9S2463.11,2389.62,2422.31,2400.4Z"/><g class="cls-17"><path class="cls-18" d="M2425.23,2578.27c-61-59.09-58.11-4.72-102.33-11.81s19.62-27.86-19.21-25.27-66,0-7.85-36.25S2399.48,2391,2399.48,2391l-128.15,16.82-80.25,122.07,89.31,87.63S2486.2,2637.35,2425.23,2578.27Z"/></g><g class="cls-19"><path class="cls-20" d="M2412.85,2410.46c-34.24-18.21-78.68-8.74-117.28,5.1s-92.51-8.74-92.51-8.74-34.24,111.45-3.74,107.08,59.83,16,59.83,16,48.07-11.66,51-54.64c51.72,20.4,80.85-33.5,80.85-33.5s53.91,13.11,70.66,9.73S2447.08,2428.67,2412.85,2410.46Z"/><path class="cls-16" d="M2409.26,2403.67c-34.23-18.21-78.67-8.74-117.28,5.1s-92.51-8.74-92.51-8.74-34.23,111.45-3.73,107.08,59.82,16,59.82,16,48.08-11.65,51-54.63c51.72,20.39,80.86-33.51,80.86-33.51s53.9,13.11,70.66,9.73S2443.5,2421.88,2409.26,2403.67Z"/></g><path class="cls-20" d="M2428.09,2537.62a49.11,49.11,0,0,0-1.4,8.35A78.5,78.5,0,0,0,2428.09,2537.62Z"/><path class="cls-20" d="M2471.85,2524.85c-2.92,13.11-9.92,11.65-9.92,11.65s5.55-32.78-14.12-24.76c-12.47,5.08-17.62,17.48-19.72,25.88a78.5,78.5,0,0,1-1.4,8.35,49.11,49.11,0,0,1,1.4-8.35c1.11-9.4,1.17-23.78-8-27.14-13.84-5.1-60.46,66.82-60.46,66.82s37.15,19.66,61.92.72c35.69,15.3,37.15-11.65,37.15-11.65s15.29,12.38,23.31,0,8.74-49.53,8.74-49.53S2474.76,2511.74,2471.85,2524.85Z"/><path class="cls-16" d="M2428.09,2543.44a49.13,49.13,0,0,0-1.4,8.36A79,79,0,0,0,2428.09,2543.44Z"/><path class="cls-16" d="M2471.85,2530.67c-2.92,13.12-9.92,11.66-9.92,11.66s5.55-32.78-14.12-24.77c-12.47,5.08-17.62,17.49-19.72,25.88a79,79,0,0,1-1.4,8.36,49.13,49.13,0,0,1,1.4-8.36c1.11-9.39,1.17-23.77-8-27.14-13.84-5.1-60.46,66.82-60.46,66.82s37.15,19.67,61.92.73c35.69,15.3,37.15-11.66,37.15-11.66s15.29,12.39,23.31,0,8.74-49.53,8.74-49.53S2474.76,2517.56,2471.85,2530.67Z"/><path class="cls-1" d="M2471.85,2524.85c-2.92,13.11-9.92,11.65-9.92,11.65s5.55-32.78-14.12-24.76c-12.47,5.08-17.62,17.48-19.72,25.88a78.5,78.5,0,0,1-1.4,8.35,49.11,49.11,0,0,1,1.4-8.35c1.11-9.4,1.17-23.78-8-27.14-13.84-5.1-60.46,66.82-60.46,66.82s37.15,19.66,61.92.72c35.69,15.3,37.15-11.65,37.15-11.65s15.29,12.38,23.31,0,8.74-49.53,8.74-49.53S2474.76,2511.74,2471.85,2524.85Z"/><path class="cls-1" d="M2428.09,2537.62a49.11,49.11,0,0,0-1.4,8.35A78.5,78.5,0,0,0,2428.09,2537.62Z"/><path class="cls-16" d="M2637.83,2106.71c10.14-58.7-12.22-72.33-14.85-92.75s0-77.29-22.89-72.44-23,76.74-23,76.74-32.13-21.19-44.2-14.79-39.65,26.44-36.6,49.37-46.63,51-33,80.21,137.27,137.37,165.34,138.87,52.34-83.77,52.34-83.77S2627.69,2165.42,2637.83,2106.71Z"/><g class="cls-21"><path class="cls-18" d="M2609.5,1920.84s-15.53-32-38.59,11.65,14.76,77.71.51,116.49-21,81.55,20.6,104.85c-56.3-32-8.73-106.79-8.73-106.79s-5.83-19,0-59.22S2609.5,1920.84,2609.5,1920.84Z"/><path class="cls-18" d="M2510.15,2059l5.21,2.68c-1.49-.82-2.92-1.59-4.27-2.31Z"/><path class="cls-18" d="M2552.38,2092.67c-11.6,7.13-55.82-5.18-55.82-5.18s31.82,23.15,52.38,41a2.78,2.78,0,0,1-1.21,4.81c-22.32,5.17-70.93-21.85-70.93-21.85s57.95,32.36,41.77,34.95-53.42-9.9-38.19-3.88,55.66,14.88,44.66,0c-7-9.53-18.84-16.39-26.43-20.11-4.44-1.9-7.23-3.19-7.23-3.19s2.95,1.1,7.23,3.19c16.4,7,55.36,22.39,59.44,11.69,5.17-13.59-52.43-44-52.43-44s57.6,21.36,55.51,4.53c-.81-6.57-8.78-13.45-18.18-19.38-10.42-4.83-21.35-10.34-27.59-13.53C2533.35,2071.58,2560.28,2087.82,2552.38,2092.67Z"/><path class="cls-18" d="M2510.56,2059.1c-6-3.19-10.12-5.26-10.12-5.26S2504.49,2056.05,2510.56,2059.1Z"/><path class="cls-18" d="M2498.61,2122.4c-4.28-2.09-7.23-3.19-7.23-3.19S2494.17,2120.5,2498.61,2122.4Z"/><path class="cls-18" d="M2500.44,1993s73.21,49.69,63.43,81.55c-3.46,4.62-17.46.44-31.43-5.34,3.51,1.84,7.1,3.87,10.51,6,4.64,2.15,9.18,4.17,13.15,5.79,17.48,7.12,16.18-11,10.36-31.71S2500.44,1993,2500.44,1993Z"/><path class="cls-18" d="M2511.27,2059.46l-.18-.07c1.35.72,2.78,1.49,4.27,2.31,6.24,3.19,17.17,8.7,27.59,13.53-3.41-2.15-7-4.18-10.51-6C2524.8,2066.05,2517.17,2062.4,2511.27,2059.46Z"/><path class="cls-18" d="M2510.56,2059.1l.53.29.18.07Z"/><path class="cls-18" d="M2511.27,2059.46c5.9,2.94,13.53,6.59,21.17,9.75C2523.07,2064.29,2514.3,2060.67,2511.27,2059.46Z"/></g><path class="cls-22" d="M3107.08,1844.55s-135.31,3.63-202.3,64.79-96.09,373.86-96.09,373.86l-157.27-150.34s-2.91,108.48-90.29,134.69c69.9,84.45,256.3,350.95,323.27,313.81,39.53-21.92,35,16.76,37,62.33,221.56-65.75,399-155.62,538.57-261.27,11.94-167.23,29.55-362.06,24.33-400.29C3475.6,1918.06,3402.56,1762.28,3107.08,1844.55Z"/><g class="cls-23"><path class="cls-24" d="M2871.94,2197.65c-13.75-122.32-48.69-269.9,25.8-342.51s-281.45,212.43-281.45,212.43l-63.91,226.19s38.67-91.38,128.56-44.24,209.76,137.43,216.8,198.59,21.33-87.62-33-134.32,94.13,12,110.79,96.46C3011.09,2299.58,2885.69,2320,2871.94,2197.65Z"/><path class="cls-24" d="M3376.58,1821.12S2989.09,2167,3169.51,2285.94c136,89.68,0,0-40.62,66.52s127.45,129.15-4,198.83S2998.8,2719,2998.8,2719l575.82-305.79,82.18-217.89-120-405.49Z"/></g><path class="cls-3" d="M3062.22,1865.5l6.66,75.72-80.07,534h108.34l12.32-533.95s-3.88-15.53,19.42-86.08C3084.23,1823.42,3062.22,1865.5,3062.22,1865.5Z"/><path class="cls-25" d="M3224,1289.48s-28.48-90.61-106.15-80.25-49,49.19-92.45,20.71-106.89-6.47-153.49,44-13.87,154.4,57,198,301.6,106.79,301.6,106.79,101-114.56,112.61-162.45S3256.39,1276.54,3224,1289.48Z"/><g class="cls-26"><path class="cls-27" d="M3189,1333.05s-22.77-77-84.87-68.17-39.18,41.78-73.93,17.59-85.47-5.5-122.73,37.38S2896.34,1451,2953,1488.08s241.17,90.71,241.17,90.71,80.73-97.31,90-138S3214.84,1322.05,3189,1333.05Z"/></g><path class="cls-16" d="M3212.38,1536.72s-47.9-45.31-72.49-84.14-59.55,42.72-85.43-11.65-43.37-77.74-43.37-77.74-65.55,46.91-97.91-24.28c0,0-11.47,28.24-7.58,122.73s3.88,107.44-33.66,121.68c22.66,37.53,41.42,53.07,51.78,97.08s32.36,71.19,63.43,63.42,75.07-23.6,75.07-23.6l14.24,114.21L3212.38,1793l-23.3-145s82.84-45.31,76.37-84.14S3212.38,1536.72,3212.38,1536.72Z"/><g class="cls-28"><path class="cls-18" d="M2936.9,1280.42l-39.16,38.83s24.45,127.75,78.93,92.35,23.78,77.22,92.21,65.57,143.5,59.55,143.5,59.55l-56.13-156.63Z"/><path class="cls-18" d="M3230.5,1568.43c-31.38-15.52-41.21,27.13-41.21,27.13C3190.8,1623.33,3261.87,1584,3230.5,1568.43Z"/><path class="cls-18" d="M3128.89,1680.3c-30.42,14.14-66.67,39.92-66.67,39.92s-37.48,83.92-3.37,78.47S3159.3,1666.16,3128.89,1680.3Z"/></g><path class="cls-29" d="M2975.5,1465.52h71.19C3018.21,1430.57,2975.5,1465.52,2975.5,1465.52Z"/><path class="cls-29" d="M3011.09,1632.5c-34.3,6.48-58.89,5.18-58.89,5.18s0,32.36,29.45,44S3045.4,1626,3011.09,1632.5Z"/><g class="cls-30"><path class="cls-3" d="M2998.45,1657.56c-13.67,0-24.76,8.3-24.76,18.54s11.09,18.54,24.76,18.54,24.76-8.3,24.76-18.54S3012.12,1657.56,2998.45,1657.56Z"/></g><ellipse class="cls-29" cx="3012.11" cy="1524.42" rx="13.32" ry="23.95"/><ellipse class="cls-31" cx="3085.39" cy="1576.52" rx="49.38" ry="17.8"/><polygon class="cls-24" points="3068.88 1824.73 3126.94 1941.22 3276.45 1824.73 3233.73 1769.06 3068.88 1824.73"/><path class="cls-15" d="M3371.3,1895.91c-16.06-2.78-32.48,2.19-45,12.64-34.81,29.06-96.46,122-172.18,211.3C3083.86,2202.73,3024,2314,2996.85,2347s-19.41-7.77-85.43,23.29-382.5,40.45-382.5,40.45-64.07,99.35,0,155.66c163.1,0,532,1.4,600-16.07s306.77-351.48,320.37-430.51C3461.29,2049.88,3445.61,1908.75,3371.3,1895.91Z"/><g class="cls-32"><path class="cls-24" d="M2513.27,2362.56l-85.18,175.06,112.48,67.64s-73.43-143.68,20.56-163.09,325-60.43,391.07-43.31c64.72,16.77,66,1.54,77.86,76.31,21.16-80.57-21.56-114.55-21.56-114.55s79.61,33,83.49,87.37c5.83-101.94-44.65-134.2-44.65-134.2l148.21-244.61-291.69,250.26Z"/></g><path class="cls-13" d="M1407.8,1857.73c-61.33,13.6,29.92,314.55,39.63,405.81,6.56,61.72,18.14,276.31,24.91,408.71a1524.3,1524.3,0,0,0,165.33,45q66.7,14.29,139.24,24c-3.34-171.81-9.42-560,1.73-654.46,14.4-122.33,19.12-191.7,19.12-191.7l-263-105.37S1469.14,1844.14,1407.8,1857.73Z"/><g class="cls-33"><path class="cls-34" d="M1362,1862l284.25,256.29a26.12,26.12,0,0,0,41.34-8.73l119.83-267.85-285.59-131.44Z"/><path class="cls-13" d="M1374.35,1783.16l262.14,272a26.12,26.12,0,0,0,42.24-6.57l106-214.82L1514.2,1701.08Z"/></g><path class="cls-35" d="M1870.06,1327c-54.37,6.47-111.32-41.42-226.52-79s-128.15,79-128.15,79c-247.24,97.08,9.06,299,9.06,299s203.22-150.15,254.18-159.21S1924.43,1320.55,1870.06,1327Z"/><path class="cls-2" d="M1515.39,1327s12.94-116.5,128.15-79,172.15,85.43,226.52,79-40.47,130.74-91.43,139.8S1524.45,1626,1524.45,1626,1268.15,1424.1,1515.39,1327Z"/><g class="cls-36"><path class="cls-37" d="M1851.8,1373.85c-46,5.48-94.28-35.08-191.85-66.87s-108.53,66.87-108.53,66.87c-209.39,82.22,7.68,253.24,7.68,253.24s172.11-127.16,215.27-134.84S1897.85,1368.37,1851.8,1373.85Z"/></g><path class="cls-16" d="M1827.34,1601.44c-36.24-24.6-20.71-25.89-16.82-90.61s0-133.33,0-133.33c-14.24,41.42-167,16.83-167,16.83s11.65,54.37-77.67,75.08c15.53,68.6-50.48,93.2-50.48,93.2s-46.6-25.89-54.37,24.59,50.49,73.06,50.49,73.06S1519.27,1749,1505,1793,1474,1843.5,1474,1843.5s100.19,84.14,145.55,117.52a20.29,20.29,0,0,0,30.08-7c21.29-41.77,28.89-100.12,28.89-100.12S1650,1829.26,1650,1750.3c99.67,53.07,115.2,3.88,137.21-54.37S1863.59,1626,1827.34,1601.44Z"/><g class="cls-38"><path class="cls-18" d="M1553.51,1363.19s-106.26,181.69-38.12,199.42,67.25-86.73,67.25-86.73,85.49,14.07,79-49.19c161.17,29.77,161.8-66.6,161.8-66.6l-56.88-61.95Z"/><path class="cls-18" d="M1492.58,1590.25c-19.91,22.84,34.46,43.55,30.57,21.54C1523.15,1611.79,1512.49,1567.42,1492.58,1590.25Z"/><path class="cls-18" d="M1582.64,1711.46s18.67,96,75.38,103-8-64.15-8-64.15Z"/></g><path class="cls-29" d="M1668.13,1507l76.37-5.18S1721.2,1472,1668.13,1507Z"/><path class="cls-29" d="M1706.32,1535.42c-7.87,0-14.24,11.59-14.24,25.89s6.37,25.89,14.24,25.89,14.23-11.59,14.23-25.89S1714.18,1535.42,1706.32,1535.42Z"/><path class="cls-31" d="M1732.15,1703.08c-43.15-13.45-43.89-26.08-43.9-26.45a2,2,0,0,0-4-.3c-.14,1.6-.07,16,46.7,30.57a2.08,2.08,0,0,0,.6.09,2,2,0,0,0,.59-3.91Z"/><ellipse class="cls-31" cx="1617.65" cy="1604.03" rx="50.48" ry="16.83"/><path d="M1760,1555.3c-11.72-4.82-27.58-7.82-44.67-8.46-31.95-1.19-66.67,6.48-67.41,26.17a66.38,66.38,0,0,0,63.86,68.81c.85,0,1.7,0,2.54,0a66.39,66.39,0,0,0,66.28-63.91l-2-.07,2,.07C1781,1568.82,1773.84,1561,1760,1555.3Zm-3.31,65.91a62.38,62.38,0,0,1-104.77-48c.56-15.08,28.1-22.44,56.91-22.44q3.17,0,6.35.12c31,1.15,62,10.79,61.42,27A61.92,61.92,0,0,1,1756.71,1621.21Z"/><path d="M1801.37,1578.24c-13.36-1.25-24.9,8.55-25.38,9a2,2,0,1,0,2.61,3c.11-.09,10.78-9.11,22.42-8,5.92.57,11.18,3.69,15.63,9.28a2,2,0,0,0,1.56.75,2,2,0,0,0,1.57-3.24C1814.62,1582.53,1808.43,1578.9,1801.37,1578.24Z"/><path d="M1650.27,1578.16l-134.51-25.29a2,2,0,1,0-.74,3.93l134.51,25.3a2.31,2.31,0,0,0,.37,0,2,2,0,0,0,.37-4Z"/><path class="cls-14" d="M1452.87,1841.68s-168.54,31.59-193.78,70.42-85.43,281.54-81.55,447.24c1.93,82.22,8.64,139.58,20.86,182.18,4.06,2.66,8.13,5.3,12.25,7.9,55.51,35.2,116.9,66.83,184.42,94.23,73.49,29.84,154.24,54.67,242.6,73.63-22.56-149.34-79.35-518.87-100.92-597.43C1509.56,2020.83,1452.87,1841.68,1452.87,1841.68Z"/><g class="cls-39"><polygon class="cls-40" points="1336.76 1849.28 1429.96 2106.58 1488.2 2117.91 1441.61 2166.45 1623.42 2623.74 1480.09 1809.19 1336.76 1849.28"/><path class="cls-40" d="M1395,2125.68c7.28-110.67-104.85-200-104.85-200,163.1,170.86,15.53,406.39,15.53,485.41s-134.43,388.46-52.18,330.21,432.74,47.54,432.74,47.54-289.3-358.33-311.9-390S1387.73,2236.35,1395,2125.68Z"/></g><path class="cls-16" d="M1743.31,2392.24c11-20.38-7.76-48.88-16.8-59.13s-46.57-1.77-46.57-1.77,25.28-67.31,5.58-79.93-37.33,41.5-47,59.68-35.41,23-46.67,81.53-69.1,61-69.1,61-7.43,88.35,19.36,96.86,180.7-49,203.75-71.49S1732.35,2412.62,1743.31,2392.24Z"/><g class="cls-41"><path class="cls-18" d="M1680.43,2295.57c-17.48,34-49.51,63.1-49.51,63.1s48.54-35.92,80.57-36.89-31.06-85.43-31.06-85.43S1697.9,2261.59,1680.43,2295.57Z"/><path class="cls-18" d="M1714.91,2437.31c-17,13.59,37.36,0,50,23.3s-5.81-34-5.81-34S1731.91,2423.72,1714.91,2437.31Z"/><path class="cls-18" d="M1711.64,2400.4c-24.42,10.7,23.08-7.73,42,6.82s-.68-39.8-.68-39.8S1736.06,2389.71,1711.64,2400.4Z"/><path class="cls-18" d="M1698.87,2352.46c-16.5,12,54.15,0,54.15,0l-12.55-19S1715.38,2340.42,1698.87,2352.46Z"/></g><path class="cls-42" d="M1287.27,2456c-15,3.11-28.62,10-38.82,19.67-24,22.91-35.84,48.85-37.8,73.74,55.51,35.2,116.9,66.83,184.42,94.23,92.88-24.21,197.19-77.28,197.19-77.28s-47.75-69-47.75-139.74C1419.82,2431.45,1326.53,2448,1287.27,2456Z"/><g class="cls-43"><path class="cls-40" d="M1548.4,2279.48l-359.21,119.38-58.25,136.28s124.27,120.61,128.15,78.23-22.61-48.1,29.13-103.15,213-87.76,212.26-38.93,16.85,93.2,102.28,130.09,21.36-23.11,21.36-23.11l36.89-275.9Z"/></g><path class="cls-14" d="M2082.35,2292.66c-25.25-89.32-104.85-322.31-161.16-351.44s-167.56-63.76-167.56-63.76-.59,158.9,0,265.69-2.53,371.67,0,443.1c1.38,39.24-10.64,100.93-21.73,148.52q22.21,3.49,45,6.54,38,5.07,77.55,8.82c3.63-35.63,16.46-8.82,22.07-94.66,2.34-35.82-7.53-228.84,9.83-283.2,75.6,116.3,54.25,99,98.9,126.2,39.55,24.08,223.8,74.35,265.48,85.55a5.49,5.49,0,0,0,6.84-6.25c-5.61-31.81-23.24-143.14,1.57-164.73C2154.19,2389.74,2107.59,2382,2082.35,2292.66Z"/><g class="cls-44"><polygon class="cls-40" points="1692.08 2015.41 1742.56 2628.56 1839.48 2166.45 1797.76 2106.58 1839.48 2088.79 1859.06 1873.4 1711.49 1813.08 1692.08 2015.41"/><path class="cls-40" d="M2245.18,2412c-74,51.39-61.87,103.95-143.42,76.56s-31.06-60-107.24-67.75S1896,2191.69,1896,2191.69l-9.59,180.58,29,116.29L2006.2,2613l301.88,24.32-.7-172.18S2319.22,2360.62,2245.18,2412Z"/><path class="cls-40" d="M2052.57,2376.8c12.95-22,39.48-13,39.48-13s-19.41,16.83-11,50.67c12.3-49.64,82.64-62.06,82.64-62.06C2056.14,2306,2039.63,2398.8,2052.57,2376.8Z"/></g></g></svg>