<?xml version="1.0" encoding="UTF-8"?><svg xmlns="http://www.w3.org/2000/svg" xmlns:xlink="http://www.w3.org/1999/xlink" viewBox="0 0 3000 2000"><defs><style>.cls-1{fill:#ffe180;}.cls-2{fill:url(#linear-gradient-2);}.cls-3{font-size:32.68px;}.cls-3,.cls-4,.cls-5,.cls-6{fill:#fff;}.cls-3,.cls-7{font-family:Poppins-Regular, Poppins;}.cls-8{fill:#0f66ce;}.cls-9{fill:#abe9f4;}.cls-10{fill:#e5c745;}.cls-11{fill:#416baf;}.cls-5,.cls-12,.cls-13,.cls-14,.cls-15{mix-blend-mode:multiply;}.cls-16{fill:url(#linear-gradient-17);}.cls-17{fill:#251e47;}.cls-18{fill:#0b7f8c;}.cls-19{filter:url(#luminosity-noclip-7);}.cls-12{fill:url(#linear-gradient-10);}.cls-20{fill:#a1ccff;}.cls-21{fill:#cff4fc;}.cls-22{fill:url(#linear-gradient-15);}.cls-23{filter:url(#luminosity-noclip-5);}.cls-24{fill:url(#linear-gradient-18);}.cls-25{fill:#ff8f9e;}.cls-26{fill:url(#linear-gradient-40);}.cls-27{fill:url(#linear-gradient-28);}.cls-28{fill:url(#linear-gradient-14);}.cls-29{fill:#3d1b68;}.cls-30{fill:#ff52a9;}.cls-31{fill:url(#linear-gradient-36);}.cls-32{mask:url(#mask-2);}.cls-33{fill:url(#linear-gradient-20);}.cls-34{fill:url(#linear-gradient-6);}.cls-35{isolation:isolate;}.cls-36{fill:#5a3091;}.cls-37{fill:#87abff;}.cls-38{fill:#194489;}.cls-39{fill:#ffdca4;}.cls-40{fill:#342a59;}.cls-41{fill:url(#linear-gradient-35);}.cls-42{mask:url(#mask-3);}.cls-43{fill:url(#linear-gradient-32);}.cls-44{fill:url(#linear-gradient-11);}.cls-13{fill:url(#linear-gradient-43);}.cls-45{fill:url(#linear-gradient-39);}.cls-7{font-size:45px;}.cls-7,.cls-46{fill:#0f4c6a;}.cls-47{mask:url(#mask-5);}.cls-48{fill:url(#linear-gradient-37);}.cls-49{fill:#ff8dcc;}.cls-50{fill:url(#linear-gradient-16);}.cls-51{fill:url(#linear-gradient-31);}.cls-52{fill:#010a26;}.cls-53{fill:#a5edf9;}.cls-54{fill:url(#linear-gradient-41);}.cls-55{fill:#0c3168;}.cls-56{fill:url(#linear-gradient-21);}.cls-57{fill:url(#linear-gradient-25);}.cls-58{mask:url(#mask-4);}.cls-59{fill:#4b2473;}.cls-60{fill:url(#linear-gradient-5);}.cls-61{fill:#e1e1ff;}.cls-6{opacity:.33;}.cls-62{fill:url(#linear-gradient-34);}.cls-63{fill:#6ca8ff;}.cls-64{mask:url(#mask-6);}.cls-65{fill:#ee8c28;}.cls-66{fill:url(#linear-gradient-7);}.cls-67{fill:#96e4ea;}.cls-68{fill:#f6fcf7;}.cls-14{fill:url(#linear-gradient-12);}.cls-69{fill:#84d0d9;}.cls-70{fill:#dee6ff;}.cls-71{fill:#5757dd;}.cls-72{fill:url(#linear-gradient-24);}.cls-73{fill:#ff7587;}.cls-74{fill:url(#linear-gradient-9);}.cls-75{fill:url(#linear-gradient-22);}.cls-76{fill:#f22987;}.cls-77{filter:url(#luminosity-noclip);}.cls-78{fill:url(#linear-gradient-42);}.cls-79{mask:url(#mask-1);}.cls-80{mask:url(#mask);}.cls-81{fill:url(#linear-gradient-3);}.cls-82{fill:#2b4c8c;}.cls-83{fill:#23353a;}.cls-84{fill:url(#linear-gradient);}.cls-85{fill:#9090e0;}.cls-15{fill:url(#linear-gradient-45);}.cls-86{mask:url(#mask-7);}.cls-87{fill:url(#linear-gradient-27);}.cls-88{fill:url(#linear-gradient-33);}.cls-89{fill:url(#linear-gradient-38);}.cls-90{fill:#6d6df0;}.cls-91{fill:url(#linear-gradient-29);}.cls-92{fill:#2d69f7;}.cls-93{fill:url(#linear-gradient-30);}.cls-94{fill:#142126;}.cls-95{fill:#7ebbe8;}.cls-96{fill:#022873;}.cls-97{fill:url(#linear-gradient-23);}.cls-98{fill:url(#linear-gradient-19);}.cls-99{fill:url(#linear-gradient-4);}.cls-100{fill:#53fff6;}.cls-101{fill:#002659;}.cls-102{fill:url(#linear-gradient-8);}.cls-103{fill:url(#linear-gradient-44);}.cls-104{fill:#8b8bfc;}.cls-105{filter:url(#luminosity-noclip-3);}.cls-106{fill:url(#linear-gradient-46);}.cls-107{fill:#bcbcfe;}.cls-108{fill:url(#linear-gradient-13);}.cls-109{fill:url(#linear-gradient-26);}</style><linearGradient id="linear-gradient" x1="903.17" y1="737.9" x2="1255.98" y2="996.7" gradientUnits="userSpaceOnUse"><stop offset="0" stop-color="#5b57f0"/><stop offset="1" stop-color="#61eff4"/></linearGradient><linearGradient id="linear-gradient-2" x1="903.17" y1="737.9" x2="1255.98" y2="996.7" xlink:href="#linear-gradient"/><linearGradient id="linear-gradient-3" x1="503.07" y1="816.77" x2="1108.43" y2="842.69" xlink:href="#linear-gradient"/><linearGradient id="linear-gradient-4" x1="881.73" y1="423.87" x2="892.1" y2="734.84" xlink:href="#linear-gradient"/><linearGradient id="linear-gradient-5" x1="718" y1="873.99" x2="1027.15" y2="1670.65" xlink:href="#linear-gradient"/><linearGradient id="linear-gradient-6" x1="824.65" y1="832.6" x2="1133.8" y2="1629.26" xlink:href="#linear-gradient"/><linearGradient id="linear-gradient-7" x1="933.52" y1="790.35" x2="1242.68" y2="1587.01" xlink:href="#linear-gradient"/><linearGradient id="linear-gradient-8" x1="1019.48" y1="1019.15" x2="1310.45" y2="1472.08" xlink:href="#linear-gradient"/><linearGradient id="linear-gradient-9" x1="1127.12" y1="1207.63" x2="952.62" y2="892.74" xlink:href="#linear-gradient"/><filter id="luminosity-noclip" x="1269.28" y="938.23" width="70.11" height="262.07" color-interpolation-filters="sRGB" filterUnits="userSpaceOnUse"><feFlood flood-color="#fff" result="bg"/><feBlend in="SourceGraphic" in2="bg"/></filter><filter id="luminosity-noclip-2" x="1269.28" y="-9192" width="70.11" height="32766" color-interpolation-filters="sRGB" filterUnits="userSpaceOnUse"><feFlood flood-color="#fff" result="bg"/><feBlend in="SourceGraphic" in2="bg"/></filter><mask id="mask-1" x="1269.28" y="-9192" width="70.11" height="32766" maskUnits="userSpaceOnUse"/><linearGradient id="linear-gradient-10" x1="1239.08" y1="1061.67" x2="1750.5" y2="1111.91" gradientUnits="userSpaceOnUse"><stop offset="0" stop-color="#000"/><stop offset="1" stop-color="#fff"/></linearGradient><mask id="mask" x="1269.28" y="938.23" width="70.11" height="262.07" maskUnits="userSpaceOnUse"><g class="cls-77"><g class="cls-79"><path class="cls-12" d="m1269.28,1098.23c23.97,27.97,37.3,65.12,37.51,102.07,5.38-.11,10.77-.23,16.17-.36-1.1-26.09-5.71-52.27-13.76-77.76,16.98-39.5,26.36-83.51,29.62-127.5,1.36-18.38,1.07-38.26-9.8-52.76-.98-1.3-2.02-2.53-3.1-3.69,2.9,57.93-17.71,116.9-56.63,160Z"/></g></g></mask><linearGradient id="linear-gradient-11" x1="1239.08" y1="1061.67" x2="1750.5" y2="1111.91" gradientUnits="userSpaceOnUse"><stop offset="0" stop-color="#fff"/><stop offset="1" stop-color="#fff"/></linearGradient><filter id="luminosity-noclip-3" x="1136.26" y="957.6" width="66.25" height="228.02" color-interpolation-filters="sRGB" filterUnits="userSpaceOnUse"><feFlood flood-color="#fff" result="bg"/><feBlend in="SourceGraphic" in2="bg"/></filter><filter id="luminosity-noclip-4" x="1136.26" y="-9192" width="66.25" height="32766" color-interpolation-filters="sRGB" filterUnits="userSpaceOnUse"><feFlood flood-color="#fff" result="bg"/><feBlend in="SourceGraphic" in2="bg"/></filter><mask id="mask-3" x="1136.26" y="-9192" width="66.25" height="32766" maskUnits="userSpaceOnUse"/><linearGradient id="linear-gradient-12" x1="1136.26" y1="1071.61" x2="1202.51" y2="1071.61" xlink:href="#linear-gradient-10"/><mask id="mask-2" x="1136.26" y="957.6" width="66.25" height="228.02" maskUnits="userSpaceOnUse"><g class="cls-105"><g class="cls-42"><path class="cls-14" d="m1136.27,1185.62c22.08-68.23,44.17-136.45,66.25-204.68-9.22-9.02-18.65-17.35-30.87-21.47-2.59-.87-5.28-1.5-8.01-1.87-2.17,7.52-3.13,15.44-4.02,23.15-7.98,69.19-15.63,135.48-22.96,199.05-.22,1.92-.42,3.9-.39,5.83Z"/></g></g></mask><linearGradient id="linear-gradient-13" x1="1136.26" y1="1071.61" x2="1202.51" y2="1071.61" xlink:href="#linear-gradient-11"/><linearGradient id="linear-gradient-14" x1="535.62" y1="1479.5" x2="553.28" y2="1479.5" gradientUnits="userSpaceOnUse"><stop offset="0" stop-color="#f9a1ca"/><stop offset="1" stop-color="#926ef7"/></linearGradient><linearGradient id="linear-gradient-15" x1="540.98" x2="558.63" xlink:href="#linear-gradient-14"/><linearGradient id="linear-gradient-16" x1="546.32" x2="563.99" xlink:href="#linear-gradient-14"/><linearGradient id="linear-gradient-17" x1="551.68" x2="569.34" xlink:href="#linear-gradient-14"/><linearGradient id="linear-gradient-18" x1="557.03" x2="574.69" xlink:href="#linear-gradient-14"/><linearGradient id="linear-gradient-19" x1="562.38" x2="580.05" xlink:href="#linear-gradient-14"/><linearGradient id="linear-gradient-20" x1="567.74" x2="585.4" xlink:href="#linear-gradient-14"/><linearGradient id="linear-gradient-21" x1="573.09" x2="590.75" xlink:href="#linear-gradient-14"/><linearGradient id="linear-gradient-22" x1="578.44" x2="596.1" xlink:href="#linear-gradient-14"/><linearGradient id="linear-gradient-23" x1="583.8" x2="601.45" xlink:href="#linear-gradient-14"/><linearGradient id="linear-gradient-24" x1="589.15" x2="606.81" xlink:href="#linear-gradient-14"/><linearGradient id="linear-gradient-25" x1="594.5" x2="612.16" xlink:href="#linear-gradient-14"/><linearGradient id="linear-gradient-26" x1="512.2" y1="1597.99" x2="537.87" y2="1597.99" xlink:href="#linear-gradient-14"/><linearGradient id="linear-gradient-27" x1="516.72" y1="1597.99" x2="542.39" y2="1597.99" xlink:href="#linear-gradient-14"/><linearGradient id="linear-gradient-28" x1="521.23" y1="1597.99" x2="546.9" y2="1597.99" xlink:href="#linear-gradient-14"/><linearGradient id="linear-gradient-29" x1="525.74" y1="1597.99" x2="551.41" y2="1597.99" xlink:href="#linear-gradient-14"/><linearGradient id="linear-gradient-30" x1="530.26" y1="1597.99" x2="555.93" y2="1597.99" xlink:href="#linear-gradient-14"/><linearGradient id="linear-gradient-31" x1="534.77" y1="1597.99" x2="560.44" y2="1597.99" xlink:href="#linear-gradient-14"/><linearGradient id="linear-gradient-32" x1="539.29" y1="1597.99" x2="564.95" y2="1597.99" xlink:href="#linear-gradient-14"/><linearGradient id="linear-gradient-33" x1="543.8" y1="1597.99" x2="569.47" y2="1597.99" xlink:href="#linear-gradient-14"/><linearGradient id="linear-gradient-34" x1="548.31" y1="1597.99" x2="573.98" y2="1597.99" xlink:href="#linear-gradient-14"/><linearGradient id="linear-gradient-35" x1="552.83" y1="1597.99" x2="578.5" y2="1597.99" xlink:href="#linear-gradient-14"/><linearGradient id="linear-gradient-36" x1="557.34" y1="1597.99" x2="583.01" y2="1597.99" xlink:href="#linear-gradient-14"/><linearGradient id="linear-gradient-37" x1="561.85" y1="1597.99" x2="587.52" y2="1597.99" xlink:href="#linear-gradient-14"/><linearGradient id="linear-gradient-38" x1="2250.2" y1="1479.01" x2="2291.59" y2="1035.12" gradientUnits="userSpaceOnUse"><stop offset="0" stop-color="#330193"/><stop offset="1" stop-color="#7fffc9"/></linearGradient><linearGradient id="linear-gradient-39" x1="2372.54" y1="1558.92" x2="2405.09" y2="1192.07" xlink:href="#linear-gradient-38"/><linearGradient id="linear-gradient-40" x1="2295.09" y1="1471.08" x2="2010.65" y2="1329.65" xlink:href="#linear-gradient-38"/><linearGradient id="linear-gradient-41" x1="2426.54" y1="403.65" x2="2467.74" y2="1314.45" xlink:href="#linear-gradient"/><linearGradient id="linear-gradient-42" x1="2410.41" y1="947.59" x2="2438.81" y2="1657.64" xlink:href="#linear-gradient"/><filter id="luminosity-noclip-5" x="1880.46" y="927.41" width="70.09" height="262.07" color-interpolation-filters="sRGB" filterUnits="userSpaceOnUse"><feFlood flood-color="#fff" result="bg"/><feBlend in="SourceGraphic" in2="bg"/></filter><filter id="luminosity-noclip-6" x="1880.46" y="-9192" width="70.09" height="32766" color-interpolation-filters="sRGB" filterUnits="userSpaceOnUse"><feFlood flood-color="#fff" result="bg"/><feBlend in="SourceGraphic" in2="bg"/></filter><mask id="mask-5" x="1880.46" y="-9192" width="70.09" height="32766" maskUnits="userSpaceOnUse"/><linearGradient id="linear-gradient-43" x1="1970.64" y1="1043.46" x2="1481.76" y2="1151.21" gradientTransform="translate(-.06 -.13) rotate(.01)" xlink:href="#linear-gradient-10"/><mask id="mask-4" x="1880.46" y="927.41" width="70.09" height="262.07" maskUnits="userSpaceOnUse"><g class="cls-23"><g class="cls-47"><path class="cls-13" d="m1950.55,1087.42c-23.98,27.97-37.31,65.12-37.53,102.06-5.38-.11-10.77-.23-16.17-.36,1.11-26.09,5.72-52.27,13.78-77.76-16.97-39.51-26.34-83.52-29.59-127.5-1.36-18.38-1.06-38.26,9.81-52.76.98-1.3,2.02-2.53,3.1-3.69-2.9,57.93,17.69,116.91,56.61,160.01Z"/></g></g></mask><linearGradient id="linear-gradient-44" x1="1970.64" y1="1043.46" x2="1481.76" y2="1151.21" gradientTransform="translate(-.06 -.13) rotate(.01)" xlink:href="#linear-gradient-11"/><filter id="luminosity-noclip-7" x="2017.33" y="946.81" width="66.22" height="228.03" color-interpolation-filters="sRGB" filterUnits="userSpaceOnUse"><feFlood flood-color="#fff" result="bg"/><feBlend in="SourceGraphic" in2="bg"/></filter><filter id="luminosity-noclip-8" x="2017.33" y="-9192" width="66.22" height="32766" color-interpolation-filters="sRGB" filterUnits="userSpaceOnUse"><feFlood flood-color="#fff" result="bg"/><feBlend in="SourceGraphic" in2="bg"/></filter><mask id="mask-7" x="2017.33" y="-9192" width="66.22" height="32766" maskUnits="userSpaceOnUse"/><linearGradient id="linear-gradient-45" x1="2017.59" y1="1060.54" x2="2083.85" y2="1060.54" gradientTransform="translate(-.06 -.13) rotate(.01)" xlink:href="#linear-gradient-10"/><mask id="mask-6" x="2017.33" y="946.81" width="66.22" height="228.03" maskUnits="userSpaceOnUse"><g class="cls-19"><g class="cls-86"><path class="cls-15" d="m2083.55,1174.84c-22.07-68.24-44.14-136.46-66.22-204.69,9.22-9.02,18.65-17.34,30.87-21.46,2.59-.87,5.28-1.5,8.01-1.87,2.17,7.52,3.12,15.44,4.01,23.15,7.97,69.19,15.61,135.48,22.93,199.05.22,1.92.42,3.9.39,5.83Z"/></g></g></mask><linearGradient id="linear-gradient-46" x1="2017.59" y1="1060.54" x2="2083.85" y2="1060.54" gradientTransform="translate(-.06 -.13) rotate(.01)" xlink:href="#linear-gradient-11"/></defs><g class="cls-35"><g id="Layer_2"><g><rect class="cls-5" width="3000" height="2000"/><g><path class="cls-61" d="m271.59,1745.32S115.49,364.47,671.55,364.47h1807.52c424.73,0,220.39,1380.85,220.39,1380.85H271.59Z"/><polygon class="cls-6" points="533.64 547.36 355.26 1737.88 972.49 1737.88 800.23 547.36 533.64 547.36"/><path class="cls-94" d="m665.46,457.28c-96.94,0-131.82,90.09-131.82,90.09h266.59s-37.83-90.09-134.77-90.09Z"/><rect class="cls-94" x="662.32" y="364.47" width="9.23" height="122.76"/><g><ellipse class="cls-107" cx="1485.52" cy="1745.32" rx="1213.93" ry="53.24"/><g><g><g><g><path class="cls-100" d="m1548.17,554.53h-236.82c-18.27,0-33.08,14.81-33.08,33.08v67.89c0,18.27,14.81,33.08,33.08,33.08h191.19l49.51,49.51v-49.75c16.44-1.92,29.2-15.89,29.2-32.85v-67.89c0-18.27-14.81-33.08-33.08-33.08Z"/><g><path class="cls-4" d="m1426.65,589.48h-115.64c-.87,0-1.58-.71-1.58-1.58s.71-1.58,1.58-1.58h115.64c.87,0,1.58.71,1.58,1.58s-.71,1.58-1.58,1.58Z"/><path class="cls-4" d="m1382.04,611.02h-71.03c-.87,0-1.58-.71-1.58-1.58s.71-1.58,1.58-1.58h71.03c.87,0,1.58.71,1.58,1.58s-.71,1.58-1.58,1.58Z"/><path class="cls-4" d="m1426.65,632.56h-115.64c-.87,0-1.58-.71-1.58-1.58s.71-1.58,1.58-1.58h115.64c.87,0,1.58.71,1.58,1.58s-.71,1.58-1.58,1.58Z"/><path class="cls-4" d="m1555.71,632.56h-115.64c-.87,0-1.58-.71-1.58-1.58s.71-1.58,1.58-1.58h115.64c.87,0,1.58.71,1.58,1.58s-.71,1.58-1.58,1.58Z"/><path class="cls-4" d="m1555.71,654.1h-244.7c-.87,0-1.58-.71-1.58-1.58s.71-1.58,1.58-1.58h244.7c.87,0,1.58.71,1.58,1.58s-.71,1.58-1.58,1.58Z"/><path class="cls-4" d="m1555.71,589.48h-115.64c-.87,0-1.58-.71-1.58-1.58s.71-1.58,1.58-1.58h115.64c.87,0,1.58.71,1.58,1.58s-.71,1.58-1.58,1.58Z"/><path class="cls-4" d="m1472.85,611.02h-71.03c-.87,0-1.58-.71-1.58-1.58s.71-1.58,1.58-1.58h71.03c.87,0,1.58.71,1.58,1.58s-.71,1.58-1.58,1.58Z"/><path class="cls-4" d="m1555.71,611.02h-71.03c-.87,0-1.58-.71-1.58-1.58s.71-1.58,1.58-1.58h71.03c.87,0,1.58.71,1.58,1.58s-.71,1.58-1.58,1.58Z"/></g></g><g><path class="cls-1" d="m1658.37,638.59h236.82c18.27,0,33.08,14.81,33.08,33.08v67.89c0,18.27-14.81,33.08-33.08,33.08h-191.19l-49.51,49.51v-49.75c-16.44-1.92-29.2-15.89-29.2-32.85v-67.89c0-18.27,14.81-33.08,33.08-33.08Z"/><g><path class="cls-4" d="m1779.89,673.55h115.64c.87,0,1.58-.71,1.58-1.58s-.71-1.58-1.58-1.58h-115.64c-.87,0-1.58.71-1.58,1.58s.71,1.58,1.58,1.58Z"/><path class="cls-4" d="m1824.5,695.09h71.03c.87,0,1.58-.71,1.58-1.58s-.71-1.58-1.58-1.58h-71.03c-.87,0-1.58.71-1.58,1.58s.71,1.58,1.58,1.58Z"/><path class="cls-4" d="m1779.89,716.63h115.64c.87,0,1.58-.71,1.58-1.58s-.71-1.58-1.58-1.58h-115.64c-.87,0-1.58.71-1.58,1.58s.71,1.58,1.58,1.58Z"/><path class="cls-4" d="m1650.83,716.63h115.64c.87,0,1.58-.71,1.58-1.58s-.71-1.58-1.58-1.58h-115.64c-.87,0-1.58.71-1.58,1.58s.71,1.58,1.58,1.58Z"/><path class="cls-4" d="m1650.83,738.17h244.7c.87,0,1.58-.71,1.58-1.58s-.71-1.58-1.58-1.58h-244.7c-.87,0-1.58.71-1.58,1.58s.71,1.58,1.58,1.58Z"/><path class="cls-4" d="m1650.83,673.55h115.64c.87,0,1.58-.71,1.58-1.58s-.71-1.58-1.58-1.58h-115.64c-.87,0-1.58.71-1.58,1.58s.71,1.58,1.58,1.58Z"/><path class="cls-4" d="m1733.7,695.09h71.03c.87,0,1.58-.71,1.58-1.58s-.71-1.58-1.58-1.58h-71.03c-.87,0-1.58.71-1.58,1.58s.71,1.58,1.58,1.58Z"/><path class="cls-4" d="m1650.83,695.09h71.03c.87,0,1.58-.71,1.58-1.58s-.71-1.58-1.58-1.58h-71.03c-.87,0-1.58.71-1.58,1.58s.71,1.58,1.58,1.58Z"/></g></g></g><g><ellipse class="cls-85" cx="1641.07" cy="1737.88" rx="226.79" ry="9.96"/><g><g><path class="cls-52" d="m1611.08,1467.95h-170.43c-9.94,0-18-8.06-18-18h0c0-9.94,8.06-18,18-18h170.43c9.94,0,18,8.06,18,18h0c0,9.94-8.06,18-18,18Z"/><g><path class="cls-59" d="m1610.55,1729.28l-11.93-179.99c0-.33-.03-.65-.06-.97l-4.68-70.62c-.29-4.45-4.25-7.82-8.81-7.54-4.57.29-8.04,4.13-7.74,8.58l4.13,62.34h-112.85l4.13-62.34c.29-4.45-3.17-8.29-7.74-8.58-4.56-.28-8.52,3.09-8.81,7.54l-4.63,69.89c-.12.55-.18,1.12-.18,1.7h0c0,.2.02.4.03.6l-11.89,179.39c-.29,4.45,3.17,8.29,7.74,8.58.18.01.36.02.54.02,4.34,0,7.99-3.28,8.27-7.56l11.45-172.82h115.02l11.45,172.82c.28,4.27,3.93,7.56,8.27,7.56.18,0,.36,0,.54-.02,4.57-.29,8.04-4.13,7.74-8.58Z"/><rect class="cls-96" x="1440.08" y="1467.92" width="169.72" height="14.86"/></g></g><g><g><g><path class="cls-59" d="m1819.94,1706.59c-11.04,1.66-126.79,5.71-130.65-.73-.57-.95-.87-2.66-.95-4.89-.51-12.8,5.83-42.59,5.83-42.59l40.97-1.36s64.37,24.36,77.99,28.97c7.61,2.57,12.29,8.19,13.01,12.92.57,3.75-1.32,6.95-6.2,7.68Z"/><path class="cls-36" d="m1819.94,1706.59c-11.04,1.66-126.79,5.71-130.65-.73-.57-.95-.87-2.66-.95-4.89,3.83,2.53,9.08,2.24,13.51,2.27,6.59.07,13.18.07,19.77.02,13.18-.07,26.36-.32,39.54-.76,21.69-.71,43.35-1.92,64.98-3.59.57,3.75-1.32,6.95-6.2,7.68Z"/></g><g><path class="cls-59" d="m1697.94,1729.66c-1.65,4.53-5.7,7.54-10.73,7.85-11.96.74-72.69.92-75.45-4.6-.58-1.16-1-4.41-1.3-8.79-1.11-16.39-.54-48.8-.54-48.8,17.49-16.92,37.36-16.6,37.36-16.6,0,0,21.9,31.14,40.12,46.6,10.56,8.96,12.83,18.11,10.54,24.36Z"/><path class="cls-36" d="m1697.94,1729.66c-1.65,4.53-5.7,7.54-10.73,7.85-11.96.74-72.69.92-75.45-4.6-.58-1.16-1-4.41-1.3-8.79,20.85,10.05,44.68,10.36,67.37,8.07,6.73-.68,13.42-1.58,20.11-2.52Z"/></g></g><g><g><path class="cls-90" d="m1794.95,1368.03c-2.43,14.17-11.45,26.45-22.73,35.18-11.28,8.73-24.74,14.26-38.33,18.77-29.6,9.87-61.51,14.9-92.49,18.38-11.05,1.24-22.38.17-33.15,2.12-12.95,2.35-26.08,4.26-39.27,3.31-3.49-.25-6.97-.71-10.4-1.38-13.94-2.7-23.17-7.86-30.93-19.88-4.4-6.82-7.51-14.42-9.2-22.31-2.2-10.21-2.04-20.92.72-31.08,9.98-36.73,48.32-49.57,82.33-52.07,21.59-1.59,43.31-1.07,64.99-.54,25.15.61,50.31,1.23,75.46,1.84,13.35.33,27.66.96,38.57,8.91,2.84,2.07,5.29,4.57,7.34,7.37,6.46,8.82,8.94,20.61,7.09,31.37Z"/><path class="cls-71" d="m1794.95,1368.03c-2.43,14.17-11.45,26.45-22.73,35.18-11.28,8.73-24.74,14.26-38.33,18.77-29.6,9.87-61.51,14.9-92.49,18.38-11.05,1.24-22.38.17-33.15,2.12-12.95,2.35-26.08,4.26-39.27,3.31-3.49-.25-6.97-.71-10.4-1.38-13.94-2.7-23.17-7.86-30.93-19.88-4.4-6.82-7.51-14.42-9.2-22.31,1.11,1.05,2.26,2.07,3.45,3.03,7.97,6.5,17.44,11.13,27.31,13.93,18.9,5.35,38.93,4.6,58.52,3.15,33.55-2.48,67.33-7.01,98.7-19.13,31.38-12.12,60.45-32.46,78.05-61.12,1.08-1.76,2.2-3.6,3.38-5.43,6.46,8.82,8.94,20.61,7.09,31.37Z"/></g><g><path class="cls-104" d="m1802.19,1387.36c-2.08,16.04-8.06,31.26-13.61,46.45-25.45,69.55-43.12,141.93-52.59,215.38-.34,2.6-.66,5.18-.97,7.78,0,.02,0,.02,0,.04-.18.02-.36.04-.54.06-13.32,1.62-27.01,1.99-40.41,1.3h-.02v-.02c-.04-3.19.2-6.5.14-9.69-1.35-73.19-2.52-147.64,10.54-219.26,3.89-21.35,9.05-42.46,15.84-63.21,5.33-16.28,13.31-33.95,29.32-40.02,15.12-5.72,33.1,1.79,42.65,14.84,9.55,13.05,11.75,30.3,9.66,46.34Z"/><path class="cls-90" d="m1735.99,1649.19c-.34,2.6-.66,5.18-.97,7.78-.18.03-.37.07-.55.1-13.32,1.62-27.01,1.99-40.41,1.3,0,0-.02-.02-.02-.02-.04-3.19.2-6.5.14-9.69-1.35-73.19-2.52-147.64,10.54-219.26-1.35,18.48-2.53,36.97-3.52,55.48-1.94,36.59-3.16,73.23-3.64,109.88-.12,8.82-.19,17.64-.22,26.46-.03,9.04-.79,18.5.1,27.51.8,8.17,10.95,5.57,16.43,4.55,7.37-1.36,14.75-2.73,22.12-4.09Z"/></g><g><g><path class="cls-36" d="m1575.23,1071.91c9.69-13.13,29.34-13.05,38.95.14,25.58,35.14,82.32,115.1,91.84,143.66,12.31,36.94-9.85,59.46-36.24,45.74-26.39-13.72-21.46-38-49.61-84.09-28.15-46.09-60.16-84.44-45.39-104.84.15-.2.3-.41.44-.61Z"/><path class="cls-59" d="m1635.61,1328.72c-6.32,11.24-18.93,17.22-31,21.76-46.07,17.33-95.83,27.29-144.1,17.69-18.13-3.61-32.55-18.27-40.25-35.06-7.71-16.8-9.66-35.61-10.67-54.05-1.78-32.44-.92-65.02,2.53-97.33,2.17-20.27,5.48-40.74,11.71-60.09,2.7-8.37,5.96-16.53,9.91-24.38v-.02c1.53-3.04,3.16-6.03,4.9-8.97,16.68-28.05,45.31-50.66,77.87-52.88,19.42-1.33,35.84-4.72,54.35,1.29,18.52,6.01,35.31,18.72,43.7,36.29,6.15,12.87,7.52,27.41,8.81,41.61,2.9,32.03,5.82,64.07,8.72,96.1,2.49,27.43,4.98,54.86,7.47,82.29,1.1,12.14,2.03,25.13-3.95,35.75Z"/><g><g><path class="cls-52" d="m1602.45,990.18c8.68-1.61,16.7-6.54,22.05-13.57s7.96-16.07,7.2-24.87c1.81,4.03,2.67,7.91,3.21,12.29,1.62-5.27,2.38-10.56,1.67-16.03-.77-5.84-2.87-11.47-5.89-16.53-5.19-8.69-13.13-15.72-22.4-19.81-11.46-5.06-24.35-6.98-36.81-6,2.67-1.35,5.07-1.5,7.69-1.57.74-.02.96-1.01.31-1.35-.91-.47-1.81-.94-2.63-1.09-2.56-.48-5.15-.83-7.75-1.07-5.04-.46-10.13-.45-15.17,0-9.49.87-18.47,4.4-26.45,9.61-8.36,5.46-18.08,14.22-20.47,24.26-1.9,8-1.59,16.38-.36,24.51,2.81,18.68,14.11,37.99,25.66,52.94-1.72-7.3-4.42-16.19-3.51-23.63.91-7.44,2.33-14.92,9.27-17.77,3.49-1.43,7.34-1.58,11.07-2.14,4.64-.7,9.53-2.27,11.65-6.92.58-1.26,1.27-2.48,2.25-3.47,4.59-4.63,8.46-1.09,10.37,2.47,1.31,2.45,2.29,5.25,4.53,6.89,2.6,1.9,6.18,1.68,9.28.85s6.54-.23,9.75-.38c5.81-.26,6.67,2.67,7.95,8.34,1.28,5.68,2.91,11.75-2.45,14.01Z"/><g><path class="cls-25" d="m1559.77,1020.91c-1.19,6.21-2.39,12.41-3.58,18.62-.73,3.81-1.47,7.62-2.2,11.43-.62,3.2-1.29,6.53-3.21,9.16-2.75,3.77-7.64,5.43-12.3,5.73-7.01.46-14.17-1.74-19.71-6.06-5.54-4.32-13.33-11.09-11.21-17.79,6.35-20.06,12.72-40.11,19.07-60.17.15-.46.48-.71.91-.79,1.05-.19,2.65.61,3.37,1.56,1.03,1.34,1.17,3.13,1.36,4.79,1.36,11.56,7.4,22.51,16.46,29.83,3.14,2.53,7.14,4.74,11.04,3.69Z"/><path class="cls-73" d="m1559.77,1020.91c-1.19,6.21-2.39,12.41-3.58,18.62-4.76-2.15-9.31-4.78-13.53-7.86-5.09-3.7-9.76-8.11-12.97-13.51-6.23-10.47-6.33-23.73-2.85-35.41.18-.61.41-1.19.7-1.72,1.05-.19,2.65.61,3.37,1.56,1.03,1.34,1.17,3.13,1.36,4.79,1.36,11.56,7.4,22.51,16.46,29.83,3.14,2.53,7.14,4.74,11.04,3.69Z"/></g></g><g><g><path class="cls-25" d="m1524.37,983.35c.52-.32,1.16.13,1.04.72-2.56,12.69,2.05,26.68,11.84,35.2,10.56,9.19,26.59,11.52,39.34,5.72,8.12-3.7,14.67-10.27,19.69-17.65,5.02-7.38,8.64-15.6,12.24-23.77l5.78-13.12c.06-.13.08-.28.05-.43-.59-2.85-4-4.82-6.82-5.63-2.89-.83-5.97-.49-8.94-.01-2.97.48-5.96,1.1-8.95.8-4.49-.44-8.71-3.06-11.11-6.88-1.09-1.74-1.81-3.69-2.84-5.47s-2.47-3.45-4.42-4.11c-3.57-1.2-7.32,1.4-9.6,4.38-2.29,2.99-3.94,6.59-7.01,8.77-2.51,1.78-5.66,2.38-8.72,2.71-3.06.33-6.18.45-9.09,1.44-2.68.91-5.22,2.74-6.29,5.32-.16.39-.64.52-1,.31-.36-.22-.69-.45-1.07-.66-.28-.15-.42-.48-.34-.79.78-2.96,1.21-6.01.76-9.04-.29-1.9-1.03-3.74-2.35-5.14-4-4.26-9.28-1.89-11.71,1.86-1.71,2.64-2.29,5.84-2.7,8.96-.43,3.21-.72,6.52.08,9.66.8,3.14,2.89,6.12,5.96,7.18,2.06.71,4.51.69,6.2-.34Z"/><path class="cls-73" d="m1518.52,961.56c.67-1.12,1.68-2.18,2.84-2.07,1.38.13,2.27,1.91,2.24,3.51s-.72,3.08-1.31,4.54c-.59,1.45-1.11,3.07-.8,4.64.13.63.39,1.24.39,1.89,0,1.04-.75,2-1.63,2.09-2.31.23-3.27-4.3-3.47-6.22-.3-2.91.28-5.97,1.73-8.39Z"/></g><g><g><path class="cls-52" d="m1567.38,985.59c-.81,2.85-2.41,4.9-3.57,4.57s-1.46-2.91-.65-5.76c.81-2.85,2.41-4.9,3.57-4.57,1.17.33,1.46,2.91.65,5.76Z"/><path class="cls-52" d="m1573.7,979.63c-.52,0-1-.32-1.18-.84-.79-2.28-2.92-4.06-5.3-4.43-2.38-.37-4.95.68-6.4,2.6-.41.55-1.19.66-1.74.25-.55-.41-.66-1.19-.25-1.74,1.98-2.64,5.51-4.08,8.77-3.57,3.26.51,6.18,2.95,7.27,6.07.23.65-.12,1.36-.77,1.58-.13.05-.27.07-.41.07Z"/></g><g><path class="cls-52" d="m1594.93,994.79c-.81,2.85-2.41,4.9-3.57,4.57-1.17-.33-1.46-2.91-.65-5.76.81-2.85,2.41-4.9,3.57-4.57,1.17.33,1.46,2.91.65,5.76Z"/><path class="cls-52" d="m1601.25,988.83c-.52,0-1-.32-1.18-.84-.79-2.28-2.92-4.06-5.3-4.43-2.38-.37-4.95.68-6.4,2.6-.41.55-1.19.66-1.74.25-.55-.41-.66-1.19-.25-1.74,1.98-2.64,5.51-4.08,8.77-3.57,3.26.51,6.18,2.95,7.27,6.07.23.65-.12,1.36-.77,1.58-.13.05-.27.07-.41.07Z"/></g><path class="cls-73" d="m1585.01,990.33c.1-1.06-1.56-1.05-1.66,0-.61,6.25-.61,12.53,0,18.78-2.82.35-5.65-.68-7.6-2.78-.73-.78-1.9.39-1.17,1.17,2.51,2.71,6.28,3.86,9.89,3.11.32-.07.64-.46.61-.8-.68-6.48-.7-13-.06-19.49Z"/><path class="cls-4" d="m1570.93,1013.14c-3.68-1.24-6.58-4.22-8.51-7.59s-3.02-7.15-4.08-10.89c-2.94,8.71-1.23,18.98,4.47,26.19,2.57-3.03,4.84-5.47,8.12-7.7Z"/></g></g></g><path class="cls-29" d="m1554.92,1129.23c-3.38,28.06-17.54,53.4-30.95,77.8-5.86,10.64-11.61,21.41-18.03,31.71-5.43,8.73-11.68,17.16-19.86,23.49-7.98,6.17-18.02,10.35-28.26,9.32-10.59-1.06-18.4-7.72-22.03-17.6-3.97-10.77-3.66-23.33-4.59-34.62-1.12-13.64-2.24-27.28-3.36-40.91-1.55-18.82-3.71-37.83-4.02-56.79,2.7-8.37,5.96-16.53,9.91-24.38,0,.14,0,.3-.02.45-2.43,27.4,1.14,55.07,3.38,82.36,1.03,12.54,2.06,25.09,3.09,37.64.85,10.33.67,21.49,3.63,31.52,2.94,9.95,11.17,14.79,21.38,13,8.94-1.57,16.49-7.31,22.46-13.88,6.5-7.14,11.41-15.6,16.14-23.96,5.84-10.3,11.64-20.64,17.24-31.08,10.76-20.08,21.98-41.13,24.75-64.08.69-5.77,9.82-5.82,9.13,0Z"/><g><path class="cls-10" d="m1599.19,1110.8l-65-42.92c-1.15-.76-1.46-2.3-.71-3.45h0c.76-1.15,2.3-1.46,3.45-.71l65,42.92c1.15.76,3,4.91,3,4.91h0s-4.59,0-5.74-.76Z"/><path class="cls-25" d="m1583.89,1079.07c-6.49,1.79-12.99,3.6-19.61,4.83-5.65,1.05-11.42,1.4-16.51,4.32-.36.2-.7.43-1.05.65.47-.47.95-.93,1.46-1.35,2.93-2.37,6.71-2.85,10.35-3.26,4.72-.54,4.77-8.01,0-7.47-3.77.43-7.59.86-11.08,2.46-3.81,1.75-6.46,4.72-8.96,7.99-6.05,7.89-11.62,16.14-17.18,24.37-1.62,2.4.07,4.71,2.27,5.31.24.43.57.81.95,1.13.17,1.82,1.73,3.25,3.38,3.54-.23.46-.46.93-.67,1.4-1.53,3.43,2.15,6.51,4.73,5.5-.78,1.25-1.46,2.6-2,4.11-1.61,4.54,5.6,6.49,7.2,1.98,2.97-8.39,13.77-10.91,20.67-15.05,7.6-4.56,14.31-10.46,20.94-16.29.36-.32.63-.66.83-1.01.91-.73,1.79-1.51,2.63-2.36,1.07-1.09,1.27-2.36.94-3.48,1-.92,1.26-2.32.93-3.59,3.25-.68,3.09-4.52.99-6.3.27-.07.53-.15.8-.22,4.62-1.28,2.66-8.48-1.98-7.2Z"/><path class="cls-36" d="m1490.36,1156.63c10.87-18.17,21.73-36.34,32.6-54.52,8.43,5.76,16.85,11.53,25.28,17.29,2.83,1.94,5.82,4.07,7.03,7.28,1.51,4.03-.23,8.47-1.94,12.42-8.38,19.27-16.77,38.57-26.68,57.1-8.03,15.03-17.05,29.52-26.98,43.37-4.58,6.39-9.42,12.69-15.37,17.88-5.08,4.43-11.01,8.03-17.68,9.38-5.95,1.21-13.83.57-18.33-4.03-3.48-3.56-4.96-8.37-5.9-13.15-.03-.14-.06-.29-.08-.43-1.55-8.07-2.83-16.2-3.83-24.35-.74-6.03-1.7-11.94-2.6-17.95-.08-.56-.17-1.12-.25-1.68-1.02-6.83-2.03-13.67-3.05-20.5-2.51-16.89-5.03-33.88-4.71-50.96.33-17.08,3.65-34.4,12.13-49.23,2.48-4.33,5.44-8.48,9.38-11.54,3.94-3.06,8.97-4.95,13.92-4.36,5.97.72,11.08,4.96,14.24,10.08,3.16,5.12,4.65,11.07,5.91,16.95,4.37,20.37,6.51,41.21,6.37,62.04l.54-1.11Z"/></g></g><g><g><path class="cls-67" d="m1719.31,1200.88c-.12.16-.28.3-.46.43l-52.72,40.59c-.92.71-2.14.9-3.23.5l-122.79-45.03c-.47-.17-.87-.43-1.19-.75-1.42-1.37-1.42-3.82.33-5.14l57.38-42.94c.95-.71,2.19-.87,3.29-.43l118.13,47.37c2.23.9,2.79,3.7,1.26,5.39Z"/><path class="cls-69" d="m1719.31,1200.88c-.12.16-.28.3-.46.43l-52.72,40.59c-.92.71-2.14.9-3.23.5l-122.79-45.03c-.47-.17-.87-.43-1.19-.75l59.23-44.32,121.16,48.58Z"/><path class="cls-18" d="m1599.61,1163.36c-1.43.64-2.89.48-3.26-.34-.37-.83.49-2.02,1.92-2.65,1.43-.64,2.89-.48,3.26.34.37.83-.49,2.02-1.92,2.65Z"/></g><path class="cls-25" d="m1695.42,1226.76c-2.76-1.86-4.06-5.81-5.39-8.74-1.37-3-2.6-6.06-3.72-9.17-1.67-4.64-2.57-10.41-8-11.95-1.9-.54-4.43,1.03-4.2,3.2.63,5.96,2.19,11.6,4.1,17.19-11.7-3.86-23.08-8.54-34.11-14.07-2.44-1.22-4.67.34-4.99,2.87-.13,1.01-.1,1.92.06,2.76-3.33-1.56-6.17,3.74-2.83,6.02.53.36,1.07.7,1.61,1.06-.57,0-1.16.08-1.78.29-2.7.9-3.93,3.56-3.63,6.27.08.71.26,1.4.49,2.06-.66-.4-1.32-.81-1.98-1.21-3.67-2.21-7.01,3.53-3.35,5.73,12.15,7.32,24.16,14.96,36.49,21.96,8.98,5.1,20.57,8.8,29.66,1.78,3.93-3.04,5.89-7.59,6.01-12.51.11-4.43-.65-10.99-4.43-13.55Z"/></g></g><g><path class="cls-90" d="m1579.53,1408.76c0-1.07-.02-2.12-.02-3.15-.13-14.78-1.78-30.17-11.23-42.18-8.87-11.27-22.4-17.84-35.95-21.62-35.22-9.85-72.4-2.81-107.98-9.91-.55-.11-1.05-.37-1.55-.7-1.25-.8-2.41-1.97-3.8-1.94-6.74.11-4.36,27.54-4.07,32.33,1.33,21.88,6.77,44.16,18.3,62.97,8.01,13.07,19.61,22.49,34.92,25.34,15.86,2.95,32.52.62,48.45-.7,9.25-.76,18.5-1.61,27.73-2.53,7.34-.74,15.06-1.13,21.81-4.4,12.83-6.21,13.48-20.89,13.41-33.52Z"/><path class="cls-71" d="m1566.13,1442.28c-6.75,3.27-14.47,3.66-21.81,4.4-9.23.92-18.48,1.77-27.73,2.53-15.93,1.32-32.59,3.64-48.45.7-15.31-2.85-26.9-12.26-34.92-25.34-11.53-18.81-16.97-41.1-18.3-62.97-.29-4.79-2.66-32.22,4.07-32.33,1.39-.02,2.55,1.14,3.8,1.94-.28,1.58-.44,3.33-.44,5.44,0,8.61.66,17.23,2,25.74,2.69,17.21,8.06,33.99,15.98,49.5,5.38,10.55,12.29,20.9,22.56,26.78,13.91,7.96,31.16,6.3,46.96,3.62,17.09-2.9,34.35-6.83,49.3-15.6,7.81-4.59,14.94-10.69,20.37-17.93.07,12.63-.58,27.31-13.41,33.52Z"/></g><g><path class="cls-104" d="m1650.17,1657.26c-14.42-49.37-27.63-99.09-39.6-149.12-5.92-24.75-11.54-49.57-16.85-74.45-2.61-12.22-4.86-24.54-7.8-36.68-2.61-10.77-6.15-21.62-12.36-30.89-10.68-15.95-28.41-25.95-47.79-21.19-19.21,4.72-33.08,20.91-37.92,39.65-5.19,20.12-1.1,40.82,6.21,59.85.67,1.75,1.38,3.49,2.1,5.21,9.86,23.43,22.27,45.9,33.66,68.61,18.32,36.63,36.99,73.11,55.13,109.84,6.68,13.52,13.36,27.04,20.05,40.57,1.22,2.47,3.78,9.41,7.18,8.71,1.66-.34,3.41-2.81,4.65-3.86,1.67-1.39,3.42-2.67,5.25-3.83,7.31-4.65,15.8-7.32,24.46-7.69,2.07-.09,3.81-1.78,3.75-3.82,0-.3-.06-.61-.15-.91Z"/><path class="cls-71" d="m1650.32,1658.17c.06,2.03-1.68,3.72-3.75,3.82-8.66.37-17.16,3.04-24.46,7.69-1.83,1.16-3.58,2.44-5.25,3.83-1.24,1.05-2.99,3.52-4.65,3.86-3.4.7-5.96-6.24-7.18-8.71-6.69-13.53-13.37-27.05-20.05-40.57-18.14-36.72-36.82-73.2-55.13-109.84-11.39-22.71-23.81-45.18-33.66-68.61-.72-1.72-1.43-3.46-2.1-5.21,1.3-.2,2.65.29,3.46,1.83,8.96,17.19,17.89,34.39,26.8,51.62,29.9,57.85,59.42,115.89,88.6,174.1,11.15-7.77,23.93-12.57,37.4-13.81Z"/></g></g></g></g></g></g><g><g><g><g><g><path class="cls-68" d="m1152.58,684.19v304.1c0,5.82-4.72,10.54-10.54,10.54h-502.89c-5.82,0-10.54-4.72-10.54-10.54v-304.1c0-5.82,4.72-10.54,10.54-10.54h502.89c5.82,0,10.54,4.72,10.54,10.54Z"/><g><circle class="cls-84" cx="1095.02" cy="878.63" r="13.55"/><path class="cls-2" d="m1095.02,907.35c-15.84,0-28.72-12.88-28.72-28.72s12.88-28.72,28.72-28.72,28.72,12.88,28.72,28.72-12.88,28.72-28.72,28.72Zm0-52.36c-13.04,0-23.64,10.6-23.64,23.64s10.6,23.64,23.64,23.64,23.64-10.6,23.64-23.64-10.6-23.64-23.64-23.64Z"/></g><path class="cls-81" d="m657.32,774.4v95.53c0,15.84-12.85,28.69-28.7,28.69v-152.91c7.92,0,15.11,3.21,20.3,8.4s8.4,12.37,8.4,20.29Z"/></g><path class="cls-99" d="m1152.58,684.19v11.67h-523.97v-11.67c0-5.82,4.72-10.54,10.54-10.54h502.89c5.82,0,10.54,4.72,10.54,10.54Z"/></g><g><circle class="cls-4" cx="646.11" cy="684.75" r="7.16" transform="translate(-168.77 1156.25) rotate(-76.72)"/><circle class="cls-4" cx="670.06" cy="684.75" r="7.16" transform="translate(-287.94 674.36) rotate(-45)"/><circle class="cls-4" cx="694" cy="684.75" r="7.16" transform="translate(-131.88 1202.86) rotate(-76.72)"/></g></g><g><path class="cls-37" d="m1035.76,909.98h-323.51c-.69,0-1.24-.56-1.24-1.24v-176.2c0-.69.56-1.24,1.24-1.24s1.24.56,1.24,1.24v174.96h322.27c.69,0,1.24.56,1.24,1.24s-.56,1.24-1.24,1.24Z"/><path class="cls-37" d="m711.38,908.93l-.74-.41c.32-.59,32.74-59.16,79.12-86.73,26.23-15.59,51.91.44,76.74,15.95,19.56,12.22,39.79,24.85,59.66,21.15,44.36-8.25,93.55-96.38,94.05-97.27l.74.41c-.12.22-12.54,22.57-30.3,45.65-16.42,21.34-40.92,47.69-64.33,52.05-20.19,3.75-40.57-8.96-60.27-21.27-24.62-15.38-50.08-31.27-75.86-15.94-46.18,27.45-78.49,85.82-78.81,86.41Z"/></g><g><path class="cls-37" d="m751.04,986.38c-16.48,0-29.89-13.41-29.89-29.89s13.41-29.89,29.89-29.89,29.89,13.41,29.89,29.89-13.41,29.89-29.89,29.89Zm0-55.63c-14.19,0-25.74,11.55-25.74,25.74s11.55,25.74,25.74,25.74,25.74-11.55,25.74-25.74-11.55-25.74-25.74-25.74Z"/><path class="cls-60" d="m751.04,988.46c-8.54,0-16.56-3.32-22.6-9.36-6.04-6.04-9.36-14.06-9.36-22.6s3.32-16.56,9.36-22.6c1.62-1.62,4.25-1.62,5.87,0,1.62,1.62,1.62,4.25,0,5.87-4.47,4.47-6.93,10.41-6.93,16.74s2.46,12.26,6.93,16.73c4.47,4.47,10.41,6.93,16.74,6.93s12.26-2.46,16.74-6.93c4.47-4.47,6.93-10.41,6.93-16.73,0-2.29,1.86-4.15,4.15-4.15s4.15,1.86,4.15,4.15c0,8.54-3.32,16.56-9.36,22.6-6.04,6.04-14.06,9.36-22.6,9.36Z"/></g><g><path class="cls-37" d="m874.01,986.38c-16.48,0-29.89-13.41-29.89-29.89s13.41-29.89,29.89-29.89,29.89,13.41,29.89,29.89-13.41,29.89-29.89,29.89Zm0-55.63c-14.19,0-25.74,11.55-25.74,25.74s11.55,25.74,25.74,25.74,25.74-11.55,25.74-25.74-11.55-25.74-25.74-25.74Z"/><path class="cls-34" d="m874.01,988.46c-8.54,0-16.56-3.32-22.6-9.36-6.04-6.04-9.36-14.06-9.36-22.6s3.32-16.56,9.36-22.6c6.04-6.04,14.06-9.36,22.6-9.36s16.56,3.32,22.6,9.36c1.62,1.62,1.62,4.25,0,5.87-1.62,1.62-4.25,1.62-5.87,0-4.47-4.47-10.41-6.93-16.74-6.93s-12.26,2.46-16.74,6.93c-4.47,4.47-6.93,10.41-6.93,16.74s2.46,12.26,6.93,16.73c4.47,4.47,10.41,6.93,16.74,6.93,2.29,0,4.15,1.86,4.15,4.15s-1.86,4.15-4.15,4.15Z"/></g><g><path class="cls-37" d="m996.98,986.38c-16.48,0-29.89-13.41-29.89-29.89s13.41-29.89,29.89-29.89,29.89,13.41,29.89,29.89-13.41,29.89-29.89,29.89Zm0-55.63c-14.19,0-25.74,11.55-25.74,25.74s11.55,25.74,25.74,25.74,25.74-11.55,25.74-25.74-11.55-25.74-25.74-25.74Z"/><path class="cls-66" d="m1016.65,980.31c-1.06,0-2.12-.41-2.93-1.21-1.62-1.62-1.62-4.25,0-5.87,4.47-4.47,6.93-10.41,6.93-16.73s-2.46-12.27-6.93-16.74c-4.47-4.47-10.41-6.93-16.74-6.93s-12.26,2.46-16.74,6.93c-4.47,4.47-6.93,10.41-6.93,16.74,0,2.29-1.86,4.15-4.15,4.15s-4.15-1.86-4.15-4.15c0-8.54,3.32-16.56,9.36-22.6,6.04-6.04,14.06-9.36,22.6-9.36s16.56,3.32,22.6,9.36c6.04,6.04,9.36,14.06,9.36,22.6s-3.32,16.56-9.36,22.6c-.81.81-1.87,1.21-2.93,1.21Z"/></g></g><g><g><path class="cls-102" d="m1092.53,1054.26c-.13.94-.88,1.78-1.98,1.86l-88.87,5.98c-.72.05-1.42-.27-1.85-.84l-27.23-35.51c-1.01-1.33-.19-3.24,1.42-3.45.07,0,.13-.02.2-.02l86.14-3.72c.64-.03,1.26.23,1.69.71l29.95,33.26c.46.51.62,1.14.53,1.73Z"/><path class="cls-74" d="m1092.53,1054.26s-.1.02-.15.02l-88.87,5.99c-.71.04-1.41-.27-1.85-.85l-27.22-35.51c-.38-.5-.51-1.07-.42-1.61.07,0,.13-.02.2-.02l86.14-3.72c.64-.03,1.26.23,1.69.71l29.95,33.26c.46.51.62,1.14.53,1.73Z"/></g><g><ellipse class="cls-85" cx="1226.35" cy="1738.45" rx="174.11" ry="9.96"/><g><g><g><g><path class="cls-73" d="m1281.69,889.83c-.01.36,0,42.38,0,42.38l-53.96-4.2v-50.2s16.36-26.76,24.1-32.51c7.74-5.75,30.96,15.41,29.85,44.53Z"/><path class="cls-52" d="m1216.05,816.88c-1.1-.14-2.01-.92-2.31-1.99-1.37-4.9-2.64-9.85-2.93-14.92-.32-5.68.69-11.61,3.91-16.3,4.3-6.27,11.99-9.53,19.56-10.23,5.29-.49,10.59.11,15.85,1.03,2.65.47,4.32-2.72,2.46-4.66-.04-.04-.09-.09-.13-.13-1.87-1.91-.22-5.12,2.41-4.67,12.2,2.06,23.8,7.64,32.85,16.09.4.37.9.62,1.44.71,15.42,2.56,29.09,12.86,34.79,27.43,5.8,14.84,3.04,32.69-6.96,45.08-10.67,13.22-20.68,27.36-33.28,38.75-.62.56-1.47.81-2.29.67l-16.01-2.54c-1.27-.2-2.23-1.25-2.32-2.53-.94-13.44-4.82-23.69-12.1-35.41-4.08-6.57-9.05-12.59-12.51-19.51-1.8-3.6-3.22-7.5-6-10.42-4.2-4.42-10.34-5.68-16.43-6.47Z"/></g><g><g><path class="cls-25" d="m1214.35,810.53c-2.07,3.27-4.17,6.49-4.61,10.34s-.27,7.78-1.26,11.52c-1.77,6.69-6.92,11.85-10.71,17.63-1,1.53-1.96,3.3-1.65,5.1.26,1.56,1.45,2.85,2.83,3.63,1.38.78,2.96,1.13,4.51,1.47,0,0-1.13,17.59-2.07,24.38-.94,6.79,8.86,5.84,18.67,3.39,9.8-2.45,27.53-5.84,31.11-16.97,3.58-11.12,0-18.1,0-18.1,0,0,11.5-.38,14.71-10.94,3.21-10.56-10.37-21.49-19.61-3.77l-3.02-.38s0-9.24-8.3-16.59c-8.3-7.35-5.28-15.27-5.28-15.27,0,0-11.65-1.23-15.32,4.55Z"/><path class="cls-73" d="m1259.3,842.15c.53-1.14,1.06-2.3,1.24-3.55.18-1.25-.05-2.61-.9-3.54s-2.39-1.26-3.41-.51c-.74.54-1.05,1.47-1.32,2.35-.56,1.81-1.11,3.61-1.67,5.42-.26.85-.52,1.78-.16,2.59,1.62,3.68,5.45-1.1,6.21-2.75Z"/></g><g><path class="cls-4" d="m1219.76,859.39s-11.33,4.59-11.49,4.82c-.15.23.61,8.04.61,8.04,0,0,10.11-5.36,10.87-12.86Z"/><g><path class="cls-52" d="m1216.63,836.77c-.24,2.62.44,4.82,1.51,4.91,1.07.1,2.13-1.95,2.37-4.56s-.44-4.82-1.51-4.91c-1.07-.1-2.13,1.95-2.37,4.56Z"/><path class="cls-52" d="m1213.29,829.83c.43.16.93.05,1.24-.32,1.38-1.63,3.7-2.43,5.79-1.98,2.09.45,3.88,2.13,4.47,4.18.17.59.78.92,1.36.76.59-.17.93-.78.76-1.36-.8-2.82-3.27-5.12-6.13-5.73-2.86-.61-6.05.48-7.94,2.72-.39.47-.33,1.16.13,1.55.1.08.2.14.32.19Z"/></g></g></g></g><path class="cls-53" d="m1270.99,909.32c-10.1-2.69-20.51-4.77-30.95-4.14-10.43.63-20.98,4.2-28.45,11.52-1.76,1.72-3.44,4-2.99,6.43.74,4.02,6.12,4.75,10.21,4.61,19.32-.68,38.7.54,57.78,3.62,4.3.69,21.26,6.76,24.48,4.01,3.43-2.92-2.69-10.88-4.59-13.08-6.39-7.4-16.35-10.53-25.5-12.97Z"/></g><g><g><g><g><path class="cls-38" d="m1229.87,1263.48c7.72,52.55,76.96,438.17,76.96,438.17h45.12s-27.82-373.27-22.41-411.9c5.41-38.63-6.58-89.81-6.58-89.81l-64.25-9.1-1.73-.24-30.98-4.39s-3.87,24.72,3.87,77.27Z"/><path class="cls-11" d="m1256.98,1190.6c30.01,168.59,53.28,340.34,69.29,511.05h1.67c-15.99-170.63-39.26-342.28-69.24-510.81l-1.73-.24Z"/></g><path class="cls-40" d="m1351.95,1701.65s5.15,25.79,3.05,30.52c-2.1,4.73-82.31,2.63-95.2,2.63s-13.15-4.73-11.57-9.99c1.58-5.26,58.6-23.16,58.6-23.16h45.12Z"/></g><g><g><path class="cls-82" d="m1143.04,1186.87l3.6,514.78h50.4l31.67-386.34c26.5-52.21,22.94-100.3,27.04-115.27,1.34-4.85-.58-10.05-4.69-12.96-13.67-9.71-31.76-12.36-49.22-11.81-.56.02-1.12.04-1.68.07-29.72,1.29-57.12,11.53-57.12,11.53Z"/><path class="cls-11" d="m1166.81,1701.65h1.66c-.67-175.62,10.54-352.42,33.38-526.38-.56.02-1.12.04-1.68.07-22.83,173.95-34.03,350.71-33.36,526.31Z"/></g><path class="cls-40" d="m1193.46,1701.65s5.15,25.79,3.05,30.52c-2.1,4.73-82.31,2.63-95.2,2.63s-13.15-4.73-11.57-9.99c1.58-5.26,58.6-23.16,58.6-23.16h45.12Z"/></g></g><g><g><path class="cls-25" d="m1241.48,1008.67l-17.08,14.57s-82.89-87.87-90.32-100.41c-7.44-12.54-20.45-35.22-30.5-43.78-10.04-8.55-11.16,0-5.95,4.83,5.21,4.83,15.99,21.94,18.59,28.64,2.6,6.69-8.55,9.97-12.64,4.8-4.09-5.17,0-15.21-4.83-18.93-4.83-3.72-8.71,9.6-4.17,18.93,4.54,9.33,10.86,17.88,18.3,20.49s56.33,94.88,76.94,114.69c22.71,21.83,48.42,23.91,78.92-13.19l-27.25-30.64Z"/><path class="cls-95" d="m1226.95,1011.93s63.94-73.12,77.38-79.72c13.45-6.6,33.29,13.25,30.67,29.72s-66.15,85.76-66.15,85.76l-41.91-35.76Z"/></g><g><path class="cls-21" d="m1136.27,1185.62c.04,2.52.49,4.97,1.84,7.11,3.73,5.94,12.39,6.91,19.82,7.18,49.17,1.82,98.49,1.45,148.87.38,5.38-.11,10.77-.23,16.17-.36-1.1-26.09-5.71-52.27-13.76-77.76,16.98-39.5,26.36-83.51,29.62-127.5,1.36-18.38,1.07-38.26-9.8-52.76-.98-1.3-2.02-2.53-3.1-3.69-14.94-15.89-40.33-19.14-63.33-21.2-16.94-1.51-34.11-3.01-50.97.35-16.76,3.34-33.37,12.19-42.23,26.78-2.57,4.24-4.4,8.76-5.75,13.44-2.17,7.52-3.13,15.44-4.02,23.15-7.98,69.19-15.63,135.48-22.96,199.05-.22,1.92-.42,3.9-.39,5.83Z"/><g class="cls-80"><path class="cls-44" d="m1269.28,1098.23c23.97,27.97,37.3,65.12,37.51,102.07,5.38-.11,10.77-.23,16.17-.36-1.1-26.09-5.71-52.27-13.76-77.76,16.98-39.5,26.36-83.51,29.62-127.5,1.36-18.38,1.07-38.26-9.8-52.76-.98-1.3-2.02-2.53-3.1-3.69,2.9,57.93-17.71,116.9-56.63,160Z"/></g><g class="cls-32"><path class="cls-108" d="m1136.27,1185.62c22.08-68.23,44.17-136.45,66.25-204.68-9.22-9.02-18.65-17.35-30.87-21.47-2.59-.87-5.28-1.5-8.01-1.87-2.17,7.52-3.13,15.44-4.02,23.15-7.98,69.19-15.63,135.48-22.96,199.05-.22,1.92-.42,3.9-.39,5.83Z"/></g></g><g><path class="cls-25" d="m1110.79,1032.87l-15.55,17.34s-91.18,8.37-95.66,5.08c-4.48-3.29-9.57-10.76-5.08-14.35s14.95-2.69,14.65-8.07c-.3-5.38-11.25-2.69-16.39,0-5.14,2.69-11.41,8.67-11.41,8.67,0,0-4.78-12.49-5.98-11.78-1.2.72-7.17,12.67-4.19,16.86,2.99,4.19-4.05,4.47-.83,11.65s-3.36,4.63,1.13,10.99,2.09,12.34,12.56,12.34,119.58,10.16,132.43,5.08c12.85-5.08,23.92-23.02,23.92-23.02l-29.6-30.79Z"/><path class="cls-53" d="m1104.25,1032.25s58.03-88.07,70.41-95.16c12.38-7.09,39.22,14.81,25.93,49.78s-56.05,89.84-56.05,89.84l-40.3-44.46Z"/></g></g></g></g></g></g></g><g><g><ellipse class="cls-85" cx="595.95" cy="1747.11" rx="135.83" ry="9.96"/><g><g><g><path class="cls-20" d="m687.31,1272.64h-15.23v63.11h15.23c7.67,0,13.89-14.13,13.89-31.55s-6.22-31.55-13.89-31.55Z"/><path class="cls-20" d="m683.05,1295.89c-.92,0-1.74-.65-1.93-1.58l-14.22-70.74c-.21-1.07.48-2.11,1.54-2.32,1.07-.21,2.11.48,2.32,1.55l14.22,70.74c.21,1.07-.48,2.11-1.54,2.32-.13.03-.26.04-.39.04Z"/></g><g><path class="cls-21" d="m691.22,1324.04v32.1h-231.1v-32.1c0-31.9,12.94-60.79,33.84-81.7s49.79-33.84,81.7-33.84c63.82,0,115.55,51.73,115.55,115.55Z"/><g><path class="cls-55" d="m648.12,1301.53v39.44c0,5.21-.58,10.29-1.7,15.17h-132.74c-1.11-4.87-1.7-9.95-1.7-15.17v-39.44c0-37.59,30.47-68.07,68.07-68.07,18.8,0,35.82,7.62,48.13,19.94,12.32,12.31,19.94,29.33,19.94,48.13Z"/><g><path class="cls-4" d="m554.49,1286.39c-2.5,0-4.53-2.03-4.53-4.53v-10.86c0-.65.53-1.18,1.18-1.18s1.18.53,1.18,1.18v10.86c0,1.19.97,2.16,2.16,2.16s2.16-.97,2.16-2.16v-10.86c0-.65.53-1.18,1.18-1.18s1.18.53,1.18,1.18v10.86c0,2.5-2.03,4.53-4.53,4.53Z"/><path class="cls-4" d="m607.35,1286.39c-2.5,0-4.53-2.03-4.53-4.53v-10.86c0-.65.53-1.18,1.18-1.18s1.18.53,1.18,1.18v10.86c0,1.19.97,2.16,2.16,2.16s2.16-.97,2.16-2.16v-10.86c0-.65.53-1.18,1.18-1.18s1.18.53,1.18,1.18v10.86c0,2.5-2.03,4.53-4.53,4.53Z"/><path class="cls-4" d="m594.47,1307.66c-.35,0-.7-.16-.93-.46-2.73-3.51-7.02-5.68-11.47-5.82-4.44-.13-8.86,1.77-11.8,5.1-.43.49-1.18.54-1.67.1-.49-.43-.54-1.18-.1-1.67,3.41-3.86,8.51-6.07,13.65-5.9,5.14.16,10.1,2.68,13.26,6.73.4.52.31,1.26-.21,1.66-.22.17-.47.25-.73.25Z"/></g></g></g><g><path class="cls-20" d="m471.09,1295.89c-.92,0-1.74-.65-1.93-1.58l-14.22-70.74c-.21-1.07.48-2.11,1.54-2.32,1.07-.21,2.11.48,2.32,1.55l14.22,70.74c.21,1.07-.48,2.11-1.54,2.32-.13.03-.26.04-.39.04Z"/><path class="cls-20" d="m475.36,1272.64h-15.23v63.11h15.23c7.67,0,13.89-14.13,13.89-31.55s-6.22-31.55-13.89-31.55Z"/><ellipse class="cls-63" cx="460.12" cy="1304.2" rx="13.89" ry="31.55"/><g><path class="cls-92" d="m469.86,1304.19c0,8.64-2.18,16.13-5.37,19.77-1.31,1.51-2.79,2.36-4.37,2.36-5.38,0-9.74-9.91-9.74-22.13s4.36-22.13,9.74-22.13c1.58,0,3.06.85,4.37,2.36,3.19,3.64,5.37,11.14,5.37,19.77Z"/><path class="cls-55" d="m469.86,1304.19c0,8.64-2.18,16.13-5.37,19.77-3.19-3.64-5.37-11.13-5.37-19.77s2.18-16.13,5.37-19.77c3.19,3.64,5.37,11.14,5.37,19.77Z"/></g></g></g><g><g><g><g><g><path class="cls-40" d="m683.26,1432.46c0,1.85.1,3.65.29,5.36,2.28.59,4.52,1.38,6.71,2.36.97.43,1.92.9,2.87,1.4.22.12.43.23.65.35,4.83,2.63,9.37,6.16,13.47,10.46.91.94,1.79,1.92,2.64,2.93,3.63,4.27,6.86,9.18,9.58,14.62.62,1.25,1.22,2.52,1.78,3.8.54,1.21,1.04,2.42,1.52,3.65,2.22,5.67,3.94,11.56,5.3,17.55.31,1.31.58,2.63.85,3.96,1.21,5.95,2.1,11.96,2.84,17.91.17,1.33.33,2.64.48,3.95.03.25.06.5.09.76.65,5.69,1.21,11.41,1.7,17.14.12,1.32.22,2.63.33,3.95.47,5.95.87,11.92,1.2,17.89.07,1.31.14,2.63.21,3.94.3,5.95.54,11.92.73,17.88.04,1.32.08,2.63.11,3.94.17,5.96.28,11.92.35,17.86.02,1.32.03,2.63.04,3.94.06,5.96.09,11.92.09,17.86,0,1.32,0,2.63,0,3.94,0,5.97-.04,11.93-.08,17.86,0,1.32-.02,2.63-.02,3.94-.03,3.66-.06,7.32-.09,10.96-.03,3.92,3.12,7.12,7.04,7.15h.06c3.9,0,7.07-3.14,7.1-7.04.03-3.6.06-7.21.09-10.83,0-1.31.02-2.63.03-3.94.04-5.94.07-11.89.08-17.86,0-1.32,0-2.63,0-3.94,0-5.94-.02-11.89-.08-17.86-.02-1.32-.02-2.63-.04-3.94-.08-5.95-.19-11.9-.35-17.86-.03-1.32-.07-2.63-.11-3.94-.18-5.95-.41-11.92-.71-17.88-.06-1.32-.13-2.63-.2-3.94-.32-5.97-.71-11.93-1.18-17.89-.1-1.32-.21-2.63-.32-3.95-.5-5.97-1.07-11.93-1.74-17.89-.04-.37-.09-.75-.13-1.12-.11-.95-.22-1.88-.34-2.84-.7-5.91-1.55-11.9-2.66-17.9-.24-1.32-.5-2.64-.77-3.96-1.72-8.31-4.02-16.59-7.31-24.56-.5-1.22-1.02-2.44-1.56-3.64-.52-1.14-1.06-2.27-1.62-3.4-3.38-6.77-7.45-12.87-12.08-18.19-.87-1-1.75-1.97-2.67-2.92-5.29-5.51-11.21-10.04-17.55-13.4-1.16-.62-2.34-1.2-3.53-1.74-.91-.41-1.82-.8-2.74-1.16-2.18-.86-4.41-1.59-6.66-2.17-.99-.25-1.97-.29-2.92-.14-.5,2.63-.77,5.53-.77,8.57Z"/><path class="cls-20" d="m736.99,1651.7l14.19.25c0-1.31.02-2.63.03-3.94l-14.2-.25c0,1.32-.02,2.63-.02,3.94Z"/><path class="cls-20" d="m737.09,1629.89l14.2.25c0-1.32,0-2.63,0-3.94l-14.2-.25c0,1.32,0,2.63,0,3.94Z"/><path class="cls-20" d="m736.97,1604.14c.02,1.32.03,2.63.04,3.94l14.2.25c-.02-1.32-.02-2.63-.04-3.94l-14.2-.25Z"/><path class="cls-20" d="m736.51,1582.33c.04,1.32.08,2.63.11,3.94l14.21.25c-.03-1.32-.07-2.63-.11-3.94l-14.21-.25Z"/><path class="cls-20" d="m735.58,1560.51c.07,1.31.14,2.63.21,3.94l14.23.25c-.06-1.32-.13-2.63-.2-3.94l-14.24-.25Z"/><path class="cls-20" d="m734.05,1538.67c.12,1.32.22,2.63.33,3.95l14.26.25c-.1-1.32-.21-2.63-.32-3.95l-14.27-.25Z"/><path class="cls-20" d="m731.78,1516.82c.17,1.33.33,2.64.48,3.95l14.32.26c-.04-.37-.09-.75-.13-1.12-.11-.95-.22-1.88-.34-2.84l-14.33-.25Z"/><path class="cls-20" d="m728.08,1494.95c.31,1.31.58,2.63.85,3.96l14.51.26c-.24-1.32-.5-2.64-.77-3.96l-14.59-.26Z"/><path class="cls-20" d="m721.26,1473.75c.54,1.21,1.04,2.42,1.52,3.65,4.23-2.18,8.42-4.44,12.58-6.75-.5-1.22-1.02-2.44-1.56-3.64-4.14,2.3-8.33,4.56-12.54,6.74Z"/><path class="cls-20" d="m707.26,1452.39c.91.94,1.79,1.92,2.64,2.93,3.33-3.38,6.74-6.68,10.2-9.91-.87-1-1.75-1.97-2.67-2.92-3.46,3.23-6.85,6.52-10.17,9.89Z"/><path class="cls-20" d="m690.27,1440.18c.97.43,1.92.9,2.87,1.4.22.12.43.23.65.35,1.87-4.35,3.9-8.63,6.1-12.83-1.16-.62-2.34-1.2-3.53-1.74-2.2,4.2-4.23,8.48-6.09,12.82Z"/></g><path class="cls-21" d="m715.34,1723.55l10.04-10.04c-4.75-4.75-7.36-11.06-7.36-17.77s2.61-13.02,7.36-17.76c4.75-4.75,11.05-7.36,17.76-7.36s13.02,2.61,17.76,7.36c4.75,4.75,7.36,11.05,7.36,17.76s-2.61,13.02-7.36,17.77l10.04,10.04c7.43-7.43,11.52-17.3,11.52-27.8s-4.09-20.38-11.52-27.8c-7.43-7.43-17.3-11.52-27.8-11.52s-20.38,4.09-27.8,11.52c-7.43,7.43-11.52,17.3-11.52,27.8s4.09,20.38,11.52,27.8Z"/></g><g><path class="cls-20" d="m693,1400.91h-15.23v63.11h15.23c7.67,0,13.89-14.13,13.89-31.55s-6.22-31.55-13.89-31.55Z"/><ellipse class="cls-63" cx="677.77" cy="1432.46" rx="13.89" ry="31.55"/><g><path class="cls-92" d="m687.51,1432.46c0,8.64-2.18,16.13-5.37,19.77-1.31,1.51-2.79,2.36-4.37,2.36-5.38,0-9.74-9.91-9.74-22.13s4.36-22.13,9.74-22.13c1.58,0,3.06.85,4.37,2.36,3.19,3.64,5.37,11.14,5.37,19.77Z"/><path class="cls-55" d="m687.51,1432.46c0,1.85-.1,3.65-.29,5.36-.69,6.31-2.58,11.55-5.08,14.41-1.99-2.27-3.59-6.04-4.5-10.66-.56-2.78-.87-5.87-.87-9.12,0-2.17.13-4.27.39-6.25.76-5.91,2.59-10.79,4.98-13.52,2.07,2.37,3.71,6.34,4.61,11.21.5,2.63.77,5.53.77,8.57Z"/></g></g></g><g><path class="cls-21" d="m691.22,1379.28v220.27c0,63.82-51.73,115.55-115.55,115.55-31.91,0-60.79-12.93-81.7-33.84-20.91-20.91-33.84-49.8-33.84-81.7v-220.27h231.1Z"/><path class="cls-9" d="m691.22,1598.45v1.1c0,63.82-51.73,115.55-115.55,115.55-31.91,0-60.79-12.93-81.7-33.84-20.91-20.91-33.84-49.8-33.84-81.7v-45.3c2.85,6.44,5.92,12.76,9.3,18.93,12.38,22.6,29.18,43.32,51.12,56.83,37.48,23.09,87.12,22.12,126.38,2.18,16.7-8.49,31.56-20.07,44.3-33.75Z"/></g><g><g><path class="cls-20" d="m475.36,1400.91h-15.23v63.11h15.23c7.67,0,13.89-14.13,13.89-31.55s-6.22-31.55-13.89-31.55Z"/><ellipse class="cls-63" cx="460.12" cy="1432.46" rx="13.89" ry="31.55"/><g><path class="cls-92" d="m469.86,1432.46c0,8.64-2.18,16.13-5.37,19.77-1.31,1.51-2.79,2.36-4.37,2.36-5.38,0-9.74-9.91-9.74-22.13s4.36-22.13,9.74-22.13c1.58,0,3.06.85,4.37,2.36,3.19,3.64,5.37,11.14,5.37,19.77Z"/><path class="cls-55" d="m469.86,1432.46c0,1.85-.1,3.65-.29,5.36-.69,6.31-2.58,11.55-5.08,14.41-1.99-2.27-3.59-6.04-4.5-10.66-.56-2.78-.87-5.87-.87-9.12,0-2.17.13-4.27.39-6.25.77-5.91,2.59-10.79,4.98-13.52,2.07,2.37,3.71,6.34,4.61,11.21.5,2.63.77,5.53.77,8.57Z"/></g></g><g><g><path class="cls-40" d="m469.86,1432.46c0,1.85-.1,3.65-.29,5.36-2.28.59-4.52,1.38-6.71,2.36-.97.43-1.92.9-2.87,1.4-.22.12-.43.23-.65.35-4.83,2.63-9.37,6.16-13.47,10.46-.91.94-1.79,1.92-2.64,2.93-3.63,4.27-6.86,9.18-9.58,14.62-.62,1.25-1.22,2.52-1.78,3.8-.54,1.21-1.04,2.42-1.52,3.65-2.22,5.67-3.94,11.56-5.3,17.55-.31,1.31-.58,2.63-.85,3.96-1.21,5.95-2.1,11.96-2.84,17.91-.17,1.33-.33,2.64-.48,3.95-.03.25-.06.5-.09.76-.65,5.69-1.21,11.41-1.7,17.14-.12,1.32-.22,2.63-.33,3.95-.47,5.95-.87,11.92-1.2,17.89-.07,1.31-.14,2.63-.21,3.94-.3,5.95-.54,11.92-.73,17.88-.04,1.32-.08,2.63-.11,3.94-.17,5.96-.28,11.92-.35,17.86-.02,1.32-.03,2.63-.04,3.94-.06,5.96-.09,11.92-.09,17.86,0,1.32,0,2.63,0,3.94,0,5.97.04,11.93.08,17.86,0,1.32.02,2.63.02,3.94.03,3.66.06,7.32.09,10.96.03,3.92-3.12,7.12-7.04,7.15h-.06c-3.9,0-7.07-3.14-7.1-7.04-.03-3.6-.06-7.21-.09-10.83,0-1.31-.02-2.63-.03-3.94-.04-5.94-.07-11.89-.08-17.86,0-1.32,0-2.63,0-3.94,0-5.94.02-11.89.08-17.86.02-1.32.02-2.63.04-3.94.08-5.95.19-11.9.35-17.86.03-1.32.07-2.63.11-3.94.18-5.95.41-11.92.71-17.88.06-1.32.13-2.63.2-3.94.32-5.97.71-11.93,1.18-17.89.1-1.32.21-2.63.32-3.95.5-5.97,1.07-11.93,1.74-17.89.04-.37.09-.75.13-1.12.11-.95.22-1.88.34-2.84.7-5.91,1.55-11.9,2.66-17.9.24-1.32.5-2.64.77-3.96,1.72-8.31,4.02-16.59,7.31-24.56.5-1.22,1.02-2.44,1.56-3.64.52-1.14,1.06-2.27,1.62-3.4,3.38-6.77,7.45-12.87,12.08-18.19.87-1,1.75-1.97,2.67-2.92,5.29-5.51,11.21-10.04,17.55-13.4,1.16-.62,2.34-1.2,3.53-1.74.91-.41,1.82-.8,2.74-1.16,2.18-.86,4.41-1.59,6.66-2.17.99-.25,1.97-.29,2.92-.14.5,2.63.77,5.53.77,8.57Z"/><path class="cls-20" d="m416.14,1651.7l-14.19.25c0-1.31-.02-2.63-.03-3.94l14.2-.25c0,1.32.02,2.63.02,3.94Z"/><path class="cls-20" d="m416.03,1629.89l-14.2.25c0-1.32,0-2.63,0-3.94l14.2-.25c0,1.32,0,2.63,0,3.94Z"/><path class="cls-20" d="m416.15,1604.14c-.02,1.32-.03,2.63-.04,3.94l-14.2.25c.02-1.32.02-2.63.04-3.94l14.2-.25Z"/><path class="cls-20" d="m416.62,1582.33c-.04,1.32-.08,2.63-.11,3.94l-14.21.25c.03-1.32.07-2.63.11-3.94l14.21-.25Z"/><path class="cls-20" d="m417.55,1560.51c-.07,1.31-.14,2.63-.21,3.94l-14.23.25c.06-1.32.13-2.63.2-3.94l14.24-.25Z"/><path class="cls-20" d="m419.08,1538.67c-.12,1.32-.22,2.63-.33,3.95l-14.26.25c.1-1.32.21-2.63.32-3.95l14.27-.25Z"/><path class="cls-20" d="m421.35,1516.82c-.17,1.33-.33,2.64-.48,3.95l-14.32.26c.04-.37.09-.75.13-1.12.11-.95.22-1.88.34-2.84l14.33-.25Z"/><path class="cls-20" d="m425.04,1494.95c-.31,1.31-.58,2.63-.85,3.96l-14.51.26c.24-1.32.5-2.64.77-3.96l14.59-.26Z"/><path class="cls-20" d="m431.86,1473.75c-.54,1.21-1.04,2.42-1.52,3.65-4.23-2.18-8.42-4.44-12.58-6.75.5-1.22,1.02-2.44,1.56-3.64,4.14,2.3,8.33,4.56,12.54,6.74Z"/><path class="cls-20" d="m445.86,1452.39c-.91.94-1.79,1.92-2.64,2.93-3.33-3.38-6.74-6.68-10.2-9.91.87-1,1.75-1.97,2.67-2.92,3.46,3.23,6.85,6.52,10.17,9.89Z"/><path class="cls-20" d="m462.86,1440.18c-.97.43-1.92.9-2.87,1.4-.22.12-.43.23-.65.35-1.87-4.35-3.9-8.63-6.1-12.83,1.16-.62,2.34-1.2,3.53-1.74,2.2,4.2,4.23,8.48,6.09,12.82Z"/></g><path class="cls-21" d="m437.78,1723.55l-10.04-10.04c4.75-4.75,7.36-11.06,7.36-17.77s-2.61-13.02-7.36-17.76c-4.75-4.75-11.05-7.36-17.76-7.36s-13.02,2.61-17.76,7.36c-4.75,4.75-7.36,11.05-7.36,17.76s2.61,13.02,7.36,17.77l-10.04,10.04c-7.43-7.43-11.52-17.3-11.52-27.8s4.09-20.38,11.52-27.8c7.43-7.43,17.3-11.52,27.8-11.52s20.38,4.09,27.8,11.52c7.43,7.43,11.52,17.3,11.52,27.8s-4.09,20.38-11.52,27.8Z"/></g></g></g><g><g><path class="cls-8" d="m654.91,1457.81v104.21c0,5.3-3.19,9.87-7.75,11.87-.69.3-1.42.55-2.18.72-.96.24-1.99.36-3.04.36h-132.55c-7.15,0-12.96-5.81-12.96-12.96v-104.25c.02-5.25,3.15-9.76,7.64-11.78,1.62-.74,3.42-1.14,5.32-1.14h132.55c7.17,0,12.97,5.81,12.97,12.96Z"/><path class="cls-40" d="m708.04,1579.48h-193.35c-1.24,0-2.25-1.01-2.25-2.25h0c0-1.24,1.01-2.25,2.25-2.25h193.35c1.24,0,2.25,1.01,2.25,2.25h0c0,1.24-1.01,2.25-2.25,2.25Z"/><g><path class="cls-20" d="m521.81,1498.54l9.49-3.57-7.38-16.16-9.5,3.56c-2.38-3.57-5.31-6.66-8.62-9.2l4.2-9.24-13.57-6.15v32.29c1.85,1.89,3.34,4.19,4.32,6.82,2.78,7.4.84,15.41-4.32,20.74v31.97l10.84-4.07-3.57-9.49c3.57-2.38,6.66-5.31,9.2-8.62l9.24,4.2,7.26-15.99-9.24-4.2c.82-4.09.99-8.34,1.64-12.89Z"/><path class="cls-20" d="m568.05,1453.32l7.57-.16-.17-8.31h-21.11c.77,4.46-.51,9.21-3.88,12.73-5.65,5.89-14.99,6.08-20.88.44-3.68-3.53-5.13-8.5-4.33-13.17h-15.86c-1.89,0-3.69.41-5.32,1.14l.18,8.67,7.57-.16c.77,3.02,2.03,5.94,3.78,8.62l-5.24,5.47,9.46,9.07,5.24-5.47c2.75,1.64,5.72,2.78,8.77,3.42l.16,7.57,13.1-.28-.16-7.57c3.02-.77,5.93-2.03,8.62-3.78l5.47,5.24,9.07-9.46-5.47-5.24c1.64-2.76,2.78-5.73,3.42-8.78Z"/></g><g><path class="cls-20" d="m649.92,1510.22l4.19,9.24c-3.31,2.55-6.24,5.63-8.62,9.21l-9.5-3.57-6.18,16.44,9.5,3.56c-.56,4.26-.39,8.51.43,12.6l-9.24,4.2,5.93,13.07h5.51c1.05,0,2.07-.13,3.04-.36l2.02-.91c.04.07.09.13.15.19,4.56-2.01,7.75-6.58,7.75-11.87v-54.07l-4.99,2.27Z"/><path class="cls-20" d="m654.91,1500.94v-13.11l-6.55-.14c-.64-3.04-1.77-6.01-3.41-8.77l5.46-5.24-9.07-9.46-5.46,5.24c-2.69-1.76-5.6-3.01-8.62-3.78l.16-7.58-13.1-.27-.17,7.57c-3.04.64-6.01,1.77-8.77,3.41l-5.24-5.46-9.46,9.07,5.25,5.46c-1.76,2.69-3.01,5.61-3.78,8.63l-7.58-.17-.28,13.11,7.58.16c.64,3.04,1.77,6.01,3.41,8.77l-5.46,5.24,9.07,9.46,5.46-5.24c2.69,1.76,5.6,3.01,8.62,3.78l-.16,7.58,13.1.28.17-7.58c3.04-.64,6.01-1.77,8.77-3.41l5.24,5.46,9.46-9.07-5.24-5.46c1.76-2.69,3.01-5.6,3.78-8.62l6.83.14Zm-24.58,3.37c-5.88,5.65-15.23,5.45-20.87-.43-5.65-5.89-5.45-15.24.43-20.88,5.89-5.65,15.24-5.45,20.88.44,5.65,5.88,5.45,15.23-.44,20.87Z"/></g></g><g><g><g><path class="cls-28" d="m550.23,1512.81c-.17.32-.35.64-.54.95-.15.24-.41.38-.68.38-.13,0-.28-.03-.4-.11-.37-.23-.5-.71-.27-1.08.03-.05.06-.09.08-.14,3.44-5.83,3.57-12.41,3.08-16.9-.69-6.11-2.79-11.87-4.98-17.18-.79-1.93-1.62-3.86-2.45-5.78-2.97-6.94-6.06-14.12-7.56-21.67-.43-2.14-.72-4.28-.89-6.44h1.58c.17,2.05.46,4.1.86,6.13,1.47,7.38,4.52,14.48,7.46,21.35.83,1.93,1.66,3.86,2.45,5.8,2.12,5.16,4.38,11.28,5.08,17.6.51,4.54.4,11.09-2.82,17.08Z"/><path class="cls-22" d="m555.58,1512.81c-.17.32-.35.64-.54.95-.15.24-.41.38-.68.38-.13,0-.28-.03-.4-.11-.38-.23-.5-.71-.27-1.08.03-.05.06-.09.08-.14,3.44-5.83,3.57-12.41,3.07-16.9-.68-6.11-2.79-11.87-4.97-17.18-.8-1.93-1.62-3.86-2.45-5.79-2.98-6.94-6.06-14.11-7.56-21.66-.43-2.14-.72-4.28-.89-6.44h1.58c.17,2.05.46,4.09.86,6.13,1.47,7.38,4.51,14.48,7.45,21.34.84,1.94,1.66,3.87,2.46,5.81,2.11,5.16,4.38,11.28,5.08,17.6.5,4.54.39,11.09-2.82,17.08Z"/><path class="cls-50" d="m560.94,1512.81c-.17.32-.35.64-.54.95-.15.24-.41.38-.68.38-.14,0-.28-.03-.41-.11-.37-.23-.49-.71-.27-1.08.03-.05.06-.09.08-.14,3.45-5.83,3.57-12.41,3.08-16.9-.68-6.11-2.79-11.87-4.98-17.18-.79-1.93-1.62-3.86-2.45-5.78-2.97-6.94-6.05-14.12-7.56-21.67-.43-2.14-.72-4.28-.89-6.44h1.59c.17,2.05.46,4.09.86,6.13,1.47,7.38,4.51,14.48,7.45,21.35.83,1.93,1.66,3.86,2.45,5.8,2.12,5.16,4.38,11.28,5.09,17.6.5,4.54.39,11.09-2.82,17.08Z"/><path class="cls-16" d="m566.29,1512.81c-.17.32-.35.64-.54.95-.15.24-.41.38-.68.38-.13,0-.28-.03-.4-.11-.37-.23-.5-.71-.27-1.08.03-.05.06-.09.08-.14,3.44-5.83,3.57-12.41,3.07-16.9-.68-6.11-2.79-11.87-4.97-17.18-.8-1.93-1.62-3.86-2.44-5.78-2.97-6.94-6.06-14.12-7.56-21.67-.43-2.14-.72-4.28-.89-6.44h1.58c.17,2.05.46,4.1.86,6.13,1.47,7.38,4.51,14.48,7.46,21.35.83,1.93,1.66,3.86,2.45,5.8,2.12,5.16,4.38,11.28,5.08,17.6.51,4.54.39,11.09-2.82,17.08Z"/><path class="cls-24" d="m571.64,1512.81c-.17.32-.35.64-.54.95-.15.24-.41.38-.68.38-.13,0-.28-.03-.4-.11-.38-.23-.5-.71-.28-1.08.03-.05.06-.09.08-.14,3.45-5.83,3.57-12.41,3.08-16.9-.68-6.11-2.79-11.87-4.97-17.18-.8-1.93-1.62-3.86-2.44-5.78-2.98-6.94-6.06-14.12-7.56-21.67-.43-2.14-.72-4.28-.89-6.44h1.58c.17,2.05.46,4.09.86,6.13,1.47,7.38,4.51,14.48,7.46,21.35.83,1.93,1.66,3.86,2.45,5.8,2.11,5.16,4.38,11.28,5.08,17.6.5,4.54.39,11.09-2.82,17.08Z"/><path class="cls-98" d="m576.99,1512.81c-.17.32-.35.64-.54.95-.14.24-.4.38-.67.38-.14,0-.28-.03-.41-.11-.37-.23-.49-.71-.27-1.08.03-.05.06-.09.08-.14,3.45-5.83,3.57-12.41,3.08-16.9-.68-6.11-2.79-11.87-4.98-17.18-.79-1.93-1.62-3.86-2.45-5.79-2.97-6.94-6.05-14.11-7.56-21.66-.43-2.14-.72-4.28-.89-6.44h1.59c.17,2.05.46,4.09.86,6.13,1.47,7.38,4.51,14.48,7.45,21.34.83,1.94,1.66,3.87,2.45,5.81,2.12,5.16,4.38,11.28,5.09,17.6.5,4.54.39,11.09-2.83,17.08Z"/><path class="cls-33" d="m582.34,1512.81c-.17.32-.35.64-.54.95-.15.24-.41.38-.68.38-.13,0-.28-.03-.4-.11-.37-.23-.5-.71-.27-1.08.03-.05.06-.09.08-.14,3.44-5.83,3.57-12.41,3.07-16.9-.68-6.11-2.79-11.87-4.97-17.18-.8-1.93-1.62-3.86-2.45-5.78-2.97-6.94-6.06-14.12-7.56-21.67-.43-2.14-.72-4.28-.89-6.44h1.58c.17,2.05.46,4.1.86,6.13,1.47,7.38,4.51,14.48,7.46,21.35.83,1.93,1.66,3.86,2.45,5.8,2.11,5.16,4.38,11.28,5.08,17.6.51,4.54.39,11.09-2.82,17.08Z"/><path class="cls-56" d="m587.7,1512.81c-.17.32-.35.64-.54.95-.15.24-.41.38-.68.38-.13,0-.28-.03-.4-.11-.38-.23-.5-.71-.28-1.08.03-.05.06-.09.08-.14,3.45-5.83,3.57-12.41,3.08-16.9-.68-6.11-2.79-11.87-4.97-17.18-.8-1.93-1.62-3.86-2.45-5.78-2.98-6.94-6.06-14.12-7.56-21.67-.43-2.14-.72-4.28-.89-6.44h1.58c.17,2.05.46,4.09.86,6.13,1.47,7.38,4.51,14.48,7.46,21.35.83,1.93,1.66,3.86,2.45,5.8,2.11,5.16,4.38,11.28,5.08,17.6.5,4.54.39,11.09-2.82,17.08Z"/><path class="cls-75" d="m593.05,1512.81c-.17.32-.35.64-.54.95-.14.24-.4.38-.67.38-.14,0-.28-.03-.41-.11-.37-.23-.49-.71-.27-1.08.03-.05.06-.09.08-.14,3.45-5.83,3.57-12.41,3.08-16.9-.69-6.11-2.79-11.87-4.98-17.18-.79-1.93-1.62-3.86-2.45-5.78-2.97-6.94-6.05-14.12-7.56-21.67-.43-2.14-.72-4.28-.89-6.44h1.59c.17,2.05.46,4.09.86,6.13,1.47,7.38,4.51,14.48,7.45,21.35.83,1.93,1.66,3.86,2.45,5.8,2.12,5.16,4.38,11.28,5.08,17.6.51,4.54.4,11.09-2.82,17.08Z"/><path class="cls-97" d="m598.4,1512.81c-.17.32-.35.64-.54.95-.15.24-.41.38-.68.38-.13,0-.28-.03-.4-.11-.37-.23-.5-.71-.27-1.08.03-.05.06-.09.08-.14,3.44-5.83,3.57-12.41,3.07-16.9-.68-6.11-2.79-11.87-4.97-17.18-.8-1.93-1.62-3.86-2.45-5.78-2.97-6.94-6.06-14.12-7.56-21.67-.43-2.14-.72-4.28-.89-6.44h1.58c.17,2.05.46,4.1.86,6.13,1.47,7.38,4.51,14.48,7.46,21.35.83,1.93,1.66,3.86,2.45,5.8,2.12,5.16,4.38,11.28,5.08,17.6.51,4.54.39,11.09-2.82,17.08Z"/><path class="cls-72" d="m603.76,1512.81c-.17.32-.35.64-.54.95-.15.24-.41.38-.68.38-.14,0-.28-.03-.4-.11-.38-.23-.5-.71-.28-1.08.03-.05.06-.09.08-.14,3.45-5.83,3.57-12.41,3.08-16.9-.68-6.11-2.79-11.87-4.97-17.18-.8-1.93-1.62-3.86-2.44-5.79-2.98-6.94-6.06-14.11-7.56-21.66-.43-2.14-.72-4.28-.89-6.44h1.58c.17,2.05.46,4.09.86,6.13,1.47,7.38,4.51,14.48,7.45,21.34.83,1.94,1.66,3.87,2.46,5.81,2.11,5.16,4.38,11.28,5.08,17.6.5,4.54.39,11.09-2.82,17.08Z"/><path class="cls-57" d="m609.11,1512.81c-.17.32-.35.64-.54.95-.14.24-.4.38-.67.38-.14,0-.28-.03-.41-.11-.37-.23-.49-.71-.27-1.08.03-.05.06-.09.08-.14,3.44-5.83,3.57-12.41,3.08-16.9-.69-6.11-2.79-11.87-4.98-17.18-.79-1.93-1.62-3.86-2.44-5.78-2.97-6.94-6.05-14.12-7.56-21.67-.43-2.14-.72-4.28-.89-6.44h1.58c.17,2.05.46,4.1.86,6.13,1.47,7.38,4.52,14.48,7.46,21.35.83,1.93,1.66,3.86,2.45,5.8,2.12,5.16,4.38,11.28,5.08,17.6.51,4.54.4,11.09-2.82,17.08Z"/></g><rect class="cls-40" x="544.91" y="1512.81" width="66.45" height="8.85"/></g><g><g><path class="cls-109" d="m521.96,1635.07c-5.85-5.01-9.49-11.61-9.75-17.64-.26-6.11,3.19-10.12,6.52-13.99,1.93-2.24,3.92-4.56,5.17-7.27,3.64-7.85.68-15.88-2.18-23.65-.24-.66-.49-1.32-.73-1.98-.8-2.21-.49-5.01.77-6.99.99-1.55,2.5-2.48,4.24-2.62,3.49-.3,7.21,2.48,9.21,5.18,1.86,2.52,2.82,5.77,2.63,8.9l-1.57-.1c.17-2.77-.68-5.64-2.32-7.87-1.8-2.43-5.06-4.76-7.8-4.55-1.6.13-2.54,1.11-3.05,1.9-1,1.55-1.25,3.86-.62,5.6.24.65.48,1.31.72,1.97,2.98,8.07,6.06,16.41,2.14,24.86-1.35,2.91-3.41,5.31-5.41,7.63-3.27,3.81-6.37,7.41-6.14,12.9.23,5.6,3.67,11.77,9.2,16.5l-1.03,1.2Z"/><path class="cls-87" d="m526.48,1635.07c-5.85-5.01-9.49-11.61-9.75-17.64-.26-6.11,3.19-10.12,6.52-13.99,1.93-2.24,3.92-4.56,5.17-7.27,3.64-7.85.68-15.88-2.18-23.65-.24-.66-.49-1.32-.73-1.98-.8-2.21-.49-5.01.77-6.99.99-1.55,2.5-2.48,4.24-2.62,3.49-.3,7.21,2.48,9.21,5.18,1.86,2.52,2.82,5.77,2.63,8.9l-1.57-.1c.17-2.77-.68-5.64-2.32-7.87-1.8-2.43-5.05-4.77-7.8-4.55-1.6.13-2.54,1.11-3.05,1.9-1,1.55-1.25,3.86-.62,5.6.24.65.48,1.31.72,1.97,2.98,8.07,6.06,16.42,2.14,24.86-1.35,2.91-3.41,5.31-5.41,7.63-3.27,3.81-6.37,7.41-6.14,12.9.23,5.6,3.67,11.77,9.2,16.5l-1.03,1.2Z"/><path class="cls-27" d="m530.99,1635.07c-5.85-5.01-9.49-11.61-9.75-17.64-.26-6.11,3.19-10.12,6.52-13.99,1.93-2.24,3.92-4.56,5.17-7.27,3.64-7.85.68-15.88-2.18-23.65-.24-.66-.49-1.32-.73-1.98-.8-2.21-.49-5.01.77-6.99.99-1.55,2.5-2.48,4.24-2.62,3.49-.3,7.21,2.48,9.21,5.18,1.86,2.52,2.82,5.77,2.63,8.9l-1.57-.1c.17-2.77-.68-5.63-2.32-7.87-1.8-2.43-5.05-4.76-7.81-4.55-1.6.13-2.54,1.11-3.05,1.9-1,1.55-1.25,3.86-.62,5.6.24.65.48,1.31.72,1.97,2.98,8.07,6.06,16.41,2.14,24.86-1.35,2.91-3.41,5.31-5.41,7.63-3.27,3.81-6.37,7.41-6.14,12.9.23,5.6,3.67,11.77,9.2,16.5l-1.03,1.2Z"/><path class="cls-91" d="m535.5,1635.07c-5.85-5.01-9.49-11.61-9.75-17.64-.26-6.11,3.19-10.12,6.52-13.99,1.93-2.24,3.92-4.56,5.17-7.27,3.64-7.85.68-15.88-2.18-23.65-.24-.66-.49-1.32-.73-1.98-.8-2.21-.49-5.01.77-6.99.99-1.55,2.5-2.48,4.24-2.62,3.49-.3,7.21,2.48,9.21,5.18,1.86,2.53,2.82,5.77,2.63,8.9l-1.57-.1c.17-2.77-.68-5.63-2.32-7.87-1.8-2.43-5.05-4.77-7.8-4.55-1.6.13-2.54,1.11-3.05,1.9-1,1.55-1.25,3.86-.62,5.6.24.65.48,1.31.72,1.97,2.98,8.07,6.06,16.41,2.14,24.86-1.35,2.91-3.41,5.31-5.41,7.63-3.27,3.81-6.37,7.41-6.14,12.9.23,5.6,3.67,11.77,9.2,16.5l-1.03,1.2Z"/><path class="cls-93" d="m540.02,1635.07c-5.85-5.01-9.49-11.61-9.75-17.64-.26-6.11,3.19-10.12,6.52-13.99,1.93-2.24,3.92-4.56,5.17-7.27,3.64-7.85.68-15.88-2.18-23.65-.24-.66-.49-1.32-.73-1.98-.8-2.21-.49-5.01.77-6.99.99-1.55,2.5-2.48,4.24-2.62,3.49-.3,7.21,2.48,9.21,5.18,1.86,2.52,2.82,5.77,2.63,8.9l-1.57-.1c.17-2.77-.68-5.64-2.32-7.87-1.8-2.43-5.06-4.76-7.81-4.55-1.6.13-2.54,1.11-3.05,1.9-1,1.55-1.25,3.86-.62,5.6.24.65.48,1.31.72,1.97,2.98,8.07,6.06,16.41,2.14,24.86-1.35,2.91-3.41,5.31-5.41,7.63-3.27,3.81-6.37,7.41-6.14,12.9.23,5.6,3.67,11.77,9.2,16.5l-1.03,1.2Z"/><path class="cls-51" d="m544.53,1635.07c-5.85-5.01-9.49-11.61-9.75-17.64-.26-6.11,3.19-10.12,6.52-13.99,1.93-2.24,3.92-4.56,5.17-7.27,3.64-7.85.68-15.88-2.18-23.65-.24-.66-.49-1.32-.73-1.98-.8-2.21-.49-5.01.77-6.99.99-1.55,2.5-2.48,4.24-2.62,3.49-.3,7.22,2.48,9.21,5.18,1.86,2.52,2.82,5.77,2.63,8.9l-1.57-.1c.17-2.77-.68-5.64-2.32-7.87-1.8-2.43-5.06-4.76-7.8-4.55-1.6.13-2.54,1.11-3.05,1.9-1,1.55-1.25,3.86-.62,5.6.24.65.48,1.31.72,1.97,2.98,8.07,6.06,16.41,2.14,24.86-1.35,2.91-3.41,5.31-5.41,7.63-3.27,3.81-6.37,7.41-6.14,12.9.23,5.6,3.67,11.77,9.2,16.5l-1.03,1.2Z"/><path class="cls-43" d="m549.04,1635.07c-5.85-5.01-9.49-11.61-9.75-17.64-.26-6.11,3.19-10.12,6.52-13.99,1.93-2.24,3.92-4.56,5.17-7.27,3.64-7.85.68-15.88-2.18-23.65-.24-.66-.49-1.32-.73-1.98-.8-2.21-.49-5.01.77-6.99.99-1.55,2.5-2.48,4.24-2.62,3.49-.3,7.21,2.48,9.21,5.18,1.86,2.52,2.82,5.77,2.63,8.9l-1.57-.1c.17-2.77-.68-5.64-2.32-7.87-1.8-2.43-5.05-4.77-7.8-4.55-1.6.13-2.54,1.11-3.05,1.9-1,1.55-1.25,3.86-.62,5.6.24.65.48,1.31.72,1.97,2.98,8.07,6.06,16.42,2.14,24.86-1.35,2.91-3.41,5.31-5.41,7.63-3.27,3.81-6.37,7.41-6.14,12.9.23,5.6,3.67,11.77,9.2,16.5l-1.03,1.2Z"/><path class="cls-88" d="m553.56,1635.07c-5.85-5.01-9.49-11.61-9.75-17.64-.26-6.11,3.19-10.12,6.52-13.99,1.93-2.24,3.92-4.56,5.17-7.27,3.64-7.85.68-15.88-2.18-23.65-.24-.66-.49-1.32-.73-1.98-.8-2.21-.49-5.01.77-6.99.99-1.55,2.5-2.48,4.24-2.62,3.49-.3,7.21,2.48,9.21,5.18,1.86,2.52,2.82,5.77,2.63,8.9l-1.57-.1c.17-2.77-.68-5.64-2.32-7.87-1.8-2.43-5.05-4.76-7.8-4.55-1.6.13-2.54,1.11-3.05,1.9-1,1.55-1.25,3.86-.62,5.6.24.65.48,1.31.72,1.97,2.98,8.07,6.06,16.41,2.14,24.86-1.35,2.91-3.41,5.31-5.41,7.63-3.27,3.81-6.37,7.41-6.14,12.9.23,5.6,3.67,11.77,9.2,16.5l-1.03,1.2Z"/><path class="cls-62" d="m558.07,1635.07c-5.85-5.01-9.49-11.61-9.75-17.64-.26-6.11,3.19-10.12,6.52-13.99,1.93-2.24,3.92-4.56,5.17-7.27,3.64-7.85.68-15.88-2.18-23.65-.24-.66-.49-1.32-.73-1.98-.8-2.21-.49-5.01.77-6.99.99-1.55,2.5-2.48,4.24-2.62,3.49-.3,7.21,2.48,9.21,5.18,1.86,2.53,2.82,5.77,2.63,8.9l-1.57-.1c.17-2.77-.68-5.63-2.32-7.87-1.8-2.43-5.05-4.77-7.8-4.55-1.6.13-2.54,1.11-3.05,1.9-1,1.55-1.25,3.86-.62,5.6.24.65.48,1.31.72,1.97,2.98,8.07,6.06,16.41,2.14,24.86-1.35,2.91-3.41,5.31-5.41,7.63-3.27,3.81-6.37,7.41-6.14,12.9.23,5.6,3.67,11.77,9.2,16.5l-1.03,1.2Z"/><path class="cls-41" d="m562.59,1635.07c-5.85-5.01-9.49-11.61-9.75-17.64-.26-6.11,3.19-10.12,6.52-13.99,1.93-2.24,3.92-4.56,5.17-7.27,3.64-7.85.68-15.88-2.18-23.65-.24-.66-.49-1.32-.73-1.98-.8-2.21-.49-5.01.77-6.99.99-1.55,2.5-2.48,4.24-2.62,3.49-.3,7.21,2.48,9.21,5.18,1.86,2.52,2.82,5.77,2.63,8.9l-1.57-.1c.17-2.77-.68-5.64-2.32-7.87-1.8-2.43-5.06-4.76-7.81-4.55-1.6.13-2.54,1.11-3.05,1.9-1,1.55-1.25,3.86-.62,5.6.24.65.48,1.31.72,1.97,2.98,8.07,6.06,16.41,2.14,24.86-1.35,2.91-3.41,5.31-5.41,7.63-3.27,3.81-6.37,7.41-6.14,12.9.23,5.6,3.67,11.77,9.2,16.5l-1.03,1.2Z"/><path class="cls-31" d="m567.1,1635.07c-5.85-5.01-9.49-11.61-9.75-17.64-.26-6.11,3.19-10.12,6.52-13.99,1.93-2.24,3.92-4.56,5.17-7.27,3.64-7.85.68-15.88-2.18-23.65-.24-.66-.49-1.32-.73-1.98-.8-2.21-.49-5.01.77-6.99.99-1.55,2.5-2.48,4.24-2.62,3.49-.3,7.21,2.48,9.21,5.18,1.86,2.52,2.82,5.77,2.63,8.9l-1.57-.1c.17-2.77-.68-5.64-2.32-7.87-1.8-2.43-5.06-4.76-7.8-4.55-1.6.13-2.54,1.11-3.05,1.9-1,1.55-1.25,3.86-.62,5.6.24.65.48,1.31.72,1.97,2.98,8.07,6.06,16.41,2.14,24.86-1.35,2.91-3.41,5.31-5.41,7.63-3.27,3.81-6.37,7.41-6.14,12.9.23,5.6,3.67,11.77,9.2,16.5l-1.03,1.2Z"/><path class="cls-48" d="m571.61,1635.07c-5.85-5.01-9.49-11.61-9.75-17.64-.26-6.11,3.19-10.12,6.52-13.99,1.93-2.24,3.92-4.56,5.17-7.27,3.64-7.85.68-15.88-2.18-23.65-.24-.66-.49-1.32-.73-1.98-.8-2.21-.49-5.01.77-6.99.99-1.55,2.5-2.48,4.24-2.62,3.49-.3,7.21,2.48,9.21,5.18,1.86,2.52,2.82,5.77,2.63,8.9l-1.57-.1c.17-2.77-.68-5.64-2.32-7.87-1.8-2.43-5.06-4.76-7.81-4.55-1.6.13-2.54,1.11-3.05,1.9-1,1.55-1.25,3.86-.62,5.6.24.65.48,1.31.72,1.97,2.98,8.07,6.06,16.42,2.14,24.86-1.35,2.91-3.41,5.31-5.41,7.63-3.27,3.81-6.37,7.41-6.14,12.9.23,5.6,3.67,11.77,9.2,16.5l-1.03,1.2Z"/></g><rect class="cls-55" x="513.1" y="1630.64" width="66.45" height="8.85"/></g></g></g></g></g></g><g><ellipse class="cls-85" cx="927.14" cy="1772.07" rx="135.83" ry="9.96"/><g><g><g><g><path class="cls-38" d="m940.97,1738.45h-49.62c-19.7-38.02-38.04-77.3-52.82-110.46-21.42-48.04-35.41-83.26-35.41-83.26-.71-5.84-.16-10.81,1.38-14.88,8.67-23.15,48.75-17.55,67.54,19.69,5.66,11.2,12.92,29.03,20.61,49.36,11.36,30.02,23.63,65.5,32.96,93.18,9.06,26.86,15.36,46.36,15.36,46.36Z"/><path class="cls-55" d="m925.61,1692.08c-6.33-2.43-12.53-5.19-18.58-8.36-9.62-4.91-18.7-10.99-27.28-17.55-14.92-11.4-28.35-24.57-41.22-38.19-21.42-48.04-35.41-83.26-35.41-83.26-.71-5.84-.16-10.81,1.38-14.88.25-.06.5-.11.75-.15,5.85-.93,11.18,3.2,15.64,7.1,23.82,20.82,46.88,42.59,71.76,62.1,11.36,30.02,23.63,65.5,32.96,93.18Z"/></g><path class="cls-38" d="m1026.79,1738.45h-49.62c-6.31-12.18-12.49-24.49-18.44-36.68-14.38-29.41-27.5-58.15-38.41-82.85-19.12-43.34-31.37-74.18-31.37-74.18-4.72-39.03,46.81-38.99,68.92,4.81,10.49,20.78,26.54,64.35,40.51,104.42,7.2,20.66,13.85,40.39,18.91,55.58,5.8,17.45,9.5,28.9,9.5,28.9Z"/><path class="cls-55" d="m1017.29,1709.55c-19.7-1.51-39.45-3.64-58.56-7.78-14.38-29.41-27.5-58.15-38.41-82.85,22.26,14.63,46.21,26.68,71.88,33.47,2.03.54,4.1,1.05,6.17,1.58,7.2,20.66,13.85,40.39,18.91,55.58Z"/></g><g><path class="cls-17" d="m1027.11,1738.45s5.15,25.79,3.05,30.52c-2.1,4.73-82.31,2.63-95.2,2.63s-13.15-4.73-11.57-9.99,58.6-23.16,58.6-23.16h45.12Z"/><path class="cls-40" d="m939.06,1738.45s5.15,25.79,3.05,30.52c-2.1,4.73-82.31,2.63-95.2,2.63s-13.15-4.73-11.57-9.99c1.58-5.26,58.6-23.16,58.6-23.16h45.12Z"/></g></g><g><g><path class="cls-52" d="m812.55,1297.26c-.89.66-2.09.73-3.04.17-4.39-2.57-8.74-5.25-12.47-8.69-4.18-3.86-7.57-8.83-8.51-14.44-1.27-7.5,2.01-15.19,6.97-20.95,3.47-4.03,7.7-7.28,12.12-10.27,2.23-1.51,1.22-4.96-1.47-5.06-3.78-.14-7.52.62-10.86,2.59,11.54-11.62,27.6-18.6,43.97-18.87.55,0,1.07-.18,1.52-.49,12.87-8.87,29.86-10.96,44.08-4.44,14.48,6.64,24.9,21.4,26.31,37.26,1.51,16.92,4.13,34.05,2.98,51-.06.83-.5,1.6-1.18,2.08l-13.28,9.3c-1.05.74-2.47.65-3.43-.2-10.01-9.02-19.92-13.69-33.31-17.07-7.5-1.89-15.26-2.77-22.55-5.35-3.79-1.34-7.53-3.16-11.55-3.33-6.09-.26-11.39,3.1-16.31,6.76Z"/><path class="cls-73" d="m910.44,1304.13c.24.27,29.44,30.48,29.44,30.48l-41.73,34.46-34.87-36.11s-6.82-30.61-5.24-40.13c1.57-9.51,32.98-10.42,52.4,11.29Z"/></g><g><g><path class="cls-25" d="m806.92,1293.87c.78,3.79,1.51,7.57,3.87,10.64s5.21,5.79,7.1,9.16c3.37,6.04,3.25,13.33,4.54,20.12.34,1.8.88,3.73,2.36,4.82,1.27.94,3.02,1.05,4.56.65,1.53-.4,2.91-1.24,4.26-2.08,0,0,11.41,13.44,15.44,18.98s10.43-1.95,15.78-10.53c5.35-8.57,15.74-23.33,10.59-33.82-5.15-10.49-12.57-13.02-12.57-13.02,0,0,8.01-8.26,2.98-18.08-5.03-9.82-22.39-8.26-16.72,10.91l-2.43,1.82s-6.42-6.65-17.49-6.17c-11.08.47-14.41-7.32-14.41-7.32,0,0-9.24,7.21-7.86,13.91Z"/><path class="cls-73" d="m861.21,1285.39c-.41-1.19-.84-2.4-1.57-3.42-.74-1.02-1.85-1.84-3.11-1.92-1.26-.08-2.6.76-2.81,2-.15.9.27,1.79.68,2.6.86,1.69,1.71,3.37,2.57,5.06.4.79.87,1.64,1.68,1.98,3.72,1.52,3.16-4.57,2.56-6.3Z"/></g><g><path class="cls-4" d="m844.75,1325.26s-4.96,11.18-4.91,11.45,6.03,5.36,6.03,5.36c0,0,3.55-10.88-1.11-16.81Z"/><g><path class="cls-52" d="m826.78,1311.17c1.65,2.05,3.66,3.16,4.5,2.49.84-.67.18-2.88-1.47-4.93s-3.66-3.16-4.5-2.49-.18,2.88,1.47,4.93Z"/><path class="cls-52" d="m819.56,1308.5c.42-.18.7-.61.67-1.09-.15-2.13.97-4.32,2.79-5.45,1.82-1.13,4.27-1.17,6.12-.1.53.31,1.2.12,1.51-.4.31-.53.13-1.2-.4-1.51-2.53-1.47-5.91-1.41-8.39.13-2.48,1.55-4.02,4.55-3.82,7.47.04.61.57,1.07,1.18,1.02.13,0,.25-.04.36-.08Z"/></g></g></g></g><path class="cls-82" d="m1113.95,1592.97s-15.51,114.98-116.35,104.03c-100.84-10.95-173.38-109.05-189.81-140.53-16.43-31.48.81-58.86,33.26-50.65,0,0,107.16,66.75,161.99,72.59,54.83,5.85,108.16-.5,110.92,14.56Z"/><g><path class="cls-21" d="m875.36,1476.33c-7.29-20.84-14.64-41.94-16.67-63.92-2.03-21.98.13-35.33,13.32-53.04,12.1-16.24,32.61-36.28,52.1-41.8,18.2-5.16,45.08-12.08,62.37-1.83,19.11,11.33,34.5,28.02,47.32,45.95,43.39,60.68,72.43,130.76,83.88,204.55,1.85,11.9,3.17,24.94-3.11,35.21-6.1,9.97-17.87,14.8-29.11,18.01-36.39,10.4-75.64,9.98-112-.35-17.76-5.05-35.29-12.4-50.9-22.33-6.84-4.35-8.17-8.89-10.86-16.56-3.74-10.69-7.48-21.38-11.22-32.07-8.38-23.95-16.75-47.89-25.13-71.84Z"/><g><path class="cls-25" d="m798.69,1467.2c-7.73,11.09-15.49,12.34-25.95,21.46h0c-33.96,7.17-70.21,24.12-103.68,32.96-7.67,2.03-15.36,4.16-22.44,7.48-16.3,7.64-28.23,20.93-39.67,33.86,0,0,1.37,4.91,6.3,3.65,4.93-1.26,2.81,4.42,9.62,3.16s3.99,6.11,11.26,3.37c7.27-2.74,7.04,2.74,10.79,0,3.75-2.74,20.41-21.7,20.41-21.7,0,0,107.81-11.58,123.84-18.33,16.03-6.75,38.47-32.23,38.47-32.23l-28.94-33.67Z"/><path class="cls-25" d="m614.87,1542.73c-1.47.3-2.98.68-4.45.38-1.47-.3-2.88-1.53-2.81-3.03.05-1.15.96-2.11,1.99-2.6,1.04-.49,2.21-.61,3.35-.76,12.06-1.66,22.93-8.5,34.97-10.27,1.31-.19,2.84-.25,3.72.74.72.81.7,2.09.21,3.06-.48.97-1.34,1.7-2.19,2.37-4.1,3.19-8.75,5.56-13.46,7.7-1.69.77-3.4,1.69-5.28,1.78-2.32.11-4.69-.35-7.02-.33-3.03.03-6.06.35-9.02.96Z"/><path class="cls-53" d="m790.03,1472.78c21.34-30.93,42.8-62,69.61-88.74,4.96-4.95,10.72-10,18.47-10.31,7.31-.29,14.92,3.93,20.1,9.54,5.18,5.61,8.29,12.44,10.76,19.21,6.88,18.8,9.43,39.58.4,55.39-7.08,12.4-20.3,20.2-33.08,27.59-20.24,11.7-40.49,23.39-60.73,35.09-14.02-13.93-21.58-30.01-25.53-47.77Z"/></g></g></g></g></g><g><g><g><g><path class="cls-89" d="m2311.53,1226.84c-4.69.57-9.63,1.91-13.97.06-3.32-1.42-5.76-4.72-6.14-8.32-.37-3.59,1.33-7.33,4.3-9.4,3.91-2.74,9.18-2.4,13.84-1.32,7.98,1.86,15.51,5.59,21.82,10.82,2.04,1.69,3.96,3.54,6.01,5.22-.18-19.8-2.61-37.45-5.89-52.4-3.77.29-7.49,1.09-11.03,2.45-4.41,1.69-8.87,4.2-13.53,3.46-3.57-.56-6.74-3.17-7.98-6.57-1.24-3.39-.49-7.43,1.87-10.16,3.13-3.61,8.32-4.57,13.1-4.65,4.76-.08,9.52.5,14.13,1.69-7.02-25-15.43-39.46-15.43-39.46,0,0-30.93,25.79-59.8,61.41,5.01-1.17,10.18-1.62,15.32-1.3,4.77.29,9.91,1.48,12.88,5.22,2.25,2.83,2.81,6.9,1.43,10.24-1.39,3.34-4.67,5.81-8.26,6.21-4.69.53-9.04-2.17-13.37-4.05-5.71-2.49-11.99-3.49-18.19-3.17-10.34,13.99-19.85,29.07-26.86,44.43.88-.54,1.76-1.07,2.65-1.58,7.13-4.03,15.2-6.38,23.38-6.81,4.77-.25,10.02.35,13.39,3.73,2.55,2.56,3.57,6.54,2.57,10.01s-3.99,6.3-7.51,7.1c-4.6,1.06-9.23-1.13-13.74-2.52-8.16-2.5-17.06-2.14-25.12.58-3.47,9.27-5.9,18.57-6.93,27.72-.4,3.56-.58,7.06-.58,10.5.74-.68,1.48-1.36,2.24-2.02,6.2-5.36,13.65-9.25,21.59-11.27,4.63-1.18,9.89-1.62,13.86,1.03,3,2.01,4.79,5.71,4.49,9.31-.3,3.6-2.67,6.96-5.97,8.44-4.3,1.94-9.27.7-13.97.23-7.45-.74-15.01.78-21.74,4.03,1.22,11.68,4.55,22.57,9.17,32.57,4.84-6.4,11.14-11.7,18.3-15.33,4.26-2.16,9.3-3.75,13.75-2.02,3.37,1.3,5.92,4.52,6.41,8.1.49,3.58-1.09,7.37-3.98,9.54-3.78,2.83-8.89,2.71-13.58,3.28-5.73.69-11.22,2.72-16.12,5.73,6.4,11.27,14.26,21.21,22.15,29.61,3.55-3.26,7.54-6.05,11.84-8.23,4.26-2.16,9.3-3.75,13.75-2.02,3.37,1.3,5.92,4.52,6.41,8.1.49,3.58-1.09,7.37-3.98,9.54-3.78,2.83-8.89,2.71-13.58,3.28-1.03.12-2.04.3-3.05.51,14.3,12.94,26.23,20.08,26.23,20.08,13.35-18.7,23.94-37.02,32.26-54.78-6.86-3.2-14.56-4.62-22.1-3.71-4.69.57-9.63,1.91-13.97.06-3.32-1.42-5.76-4.72-6.14-8.32-.37-3.59,1.33-7.33,4.3-9.4,3.91-2.74,9.18-2.4,13.84-1.31,7.98,1.86,15.51,5.59,21.82,10.82,1.86,1.54,3.62,3.21,5.47,4.77,6.9-15.77,12.03-31.06,15.73-45.75-7.62-4.37-16.59-6.45-25.34-5.39-4.69.57-9.63,1.91-13.97.06-3.32-1.42-5.76-4.72-6.14-8.32-.37-3.59,1.33-7.33,4.3-9.4,3.91-2.74,9.18-2.4,13.84-1.32,7.98,1.86,15.51,5.59,21.82,10.82,2.44,2.03,4.71,4.27,7.24,6.18,4.01-18.07,5.88-35.15,6.27-50.99-7.71-4.54-16.87-6.73-25.79-5.66Z"/><path class="cls-101" d="m2270.3,1555.06c-.4,0-.76-.29-.83-.7-4.39-24.66-4.69-50.07-4.97-74.64l-.44-37.32c-.17-14.41-.34-29.31,3.61-43.53.81-2.93,1.82-5.89,2.79-8.76,2.8-8.26,5.7-16.81,4.27-25.3-1.19-7.1-5.12-13.09-9.27-19.43-3.63-5.53-7.37-11.25-9.07-17.72-3.17-12.08,1.22-24.12,5.46-35.76,2.42-6.65,4.93-13.53,6.04-20.38.91-5.61.9-11.48.9-17.16,0-8.33,0-16.93,2.84-24.93,1.75-4.89,4.5-9.36,7.17-13.68,2.19-3.54,4.45-7.21,6.11-11.06,5.55-12.85,4.54-27.65,3.64-40.71-.03-.47.32-.87.79-.9.46-.02.87.32.9.79.91,13.25,1.94,28.27-3.78,41.5-1.71,3.96-4.01,7.68-6.23,11.27-2.62,4.25-5.33,8.64-7.02,13.36-2.75,7.72-2.75,16.18-2.75,24.36,0,5.74,0,11.68-.92,17.43-1.13,7.02-3.67,13.97-6.12,20.69-4.35,11.92-8.45,23.19-5.42,34.76,1.63,6.2,5.3,11.81,8.85,17.22,4.07,6.21,8.28,12.63,9.53,20.08,1.49,8.91-1.47,17.66-4.34,26.12-.96,2.84-1.96,5.78-2.76,8.67-3.89,13.99-3.72,28.77-3.55,43.06l.44,37.32c.29,24.5.59,49.84,4.95,74.36.08.46-.22.9-.69.98-.05,0-.1.01-.15.01Z"/></g><g><path class="cls-45" d="m2427.04,1375.78c-3.87-2.7-8.45-5-10.45-9.27-1.53-3.27-1.15-7.36.97-10.29,2.12-2.93,5.88-4.58,9.47-4.14,4.74.57,8.44,4.33,11.19,8.24,4.71,6.7,7.83,14.51,9.05,22.61.39,2.62.59,5.28,1,7.9,13.07-14.88,23.02-29.66,30.53-42.99-3-2.3-6.31-4.18-9.85-5.53-4.41-1.68-9.41-2.78-12.4-6.44-2.29-2.8-2.91-6.86-1.57-10.21,1.34-3.36,4.59-5.87,8.17-6.33,4.74-.6,9.25,2.14,12.86,5.26,3.6,3.11,6.76,6.72,9.41,10.68,11.43-23.32,14.8-39.71,14.8-39.71,0,0-40.25-1.39-85.51,5.92,4.51,2.47,8.67,5.58,12.29,9.24,3.36,3.4,6.41,7.71,6.13,12.48-.21,3.61-2.5,7.02-5.76,8.58-3.26,1.56-7.35,1.22-10.3-.87-3.85-2.73-5.3-7.64-7.27-11.93-2.6-5.66-6.61-10.59-11.45-14.49-17.03,3.54-34.18,8.43-49.64,15.21,1.01.18,2.02.37,3.02.59,8,1.74,15.59,5.37,21.97,10.51,3.72,3,7.23,6.94,7.49,11.71.2,3.61-1.69,7.26-4.76,9.18-3.06,1.92-7.17,2.04-10.33.29-4.13-2.28-6.12-7-8.56-11.04-4.42-7.31-11.29-12.96-19.11-16.31-8.76,4.6-16.78,9.91-23.64,16.05-2.67,2.39-5.14,4.87-7.43,7.44,1-.02,2.01-.03,3.01-.01,8.19.14,16.34,2.21,23.6,5.99,4.24,2.21,8.46,5.38,9.65,10.01.9,3.5-.24,7.45-2.86,9.93-2.62,2.48-6.63,3.4-10.07,2.32-4.5-1.42-7.38-5.66-10.57-9.14-5.06-5.52-11.71-9.43-18.89-11.49-6.87,9.52-11.65,19.86-14.88,30.39,7.88-1.55,16.1-1.29,23.86.77,4.61,1.23,9.43,3.4,11.6,7.66,1.64,3.22,1.4,7.32-.62,10.32-2.02,3-5.72,4.77-9.32,4.46-4.7-.41-8.44-3.91-12.31-6.61-4.73-3.3-10.18-5.46-15.84-6.48-2.74,12.67-3.51,25.31-3.23,36.83,4.82-.06,9.65.51,14.31,1.75,4.61,1.23,9.43,3.4,11.6,7.66,1.64,3.22,1.4,7.32-.62,10.32-2.02,3-5.72,4.77-9.32,4.46-4.7-.41-8.44-3.91-12.31-6.61-.85-.59-1.72-1.14-2.61-1.66,2.04,19.17,6.17,32.45,6.17,32.45,22.41-5.04,42.52-11.64,60.56-19.34-2.98-6.96-7.78-13.15-14-17.49-3.87-2.7-8.45-5-10.45-9.27-1.53-3.27-1.15-7.36.97-10.29,2.12-2.93,5.88-4.58,9.47-4.14,4.74.57,8.44,4.33,11.19,8.24,4.71,6.7,7.83,14.51,9.05,22.61.36,2.39.56,4.81.9,7.2,15.66-7.15,29.68-15.13,42.22-23.62-2.77-8.33-8.07-15.87-15.3-20.91-3.87-2.7-8.45-5-10.45-9.27-1.53-3.27-1.15-7.36.97-10.29,2.12-2.93,5.88-4.58,9.47-4.14,4.74.57,8.45,4.33,11.19,8.24,4.71,6.7,7.83,14.51,9.05,22.61.47,3.14.67,6.32,1.28,9.44,15.03-10.79,27.82-22.28,38.66-33.84-2.72-8.53-8.08-16.26-15.45-21.41Z"/><path class="cls-101" d="m2277.27,1566.75c-.4,0-.75-.28-.83-.69-2.53-13.51-4.96-27.89-4.45-42.14.57-15.84,4.87-29.77,12.43-40.29,3.47-4.82,7.76-9.15,11.91-13.34,6.9-6.96,13.41-13.53,16.67-22.28,1.71-4.59,2.39-9.61,3.05-14.47.77-5.71,1.57-11.62,4.04-16.96,5.59-12.12,17.89-18.33,29.77-24.32,9.58-4.83,19.48-9.83,26.05-17.91,2.06-2.53,3.84-5.44,5.57-8.25,3.43-5.57,6.97-11.34,12.81-14.55,4.7-2.59,10.13-3.07,15.39-3.53,4.97-.44,10.12-.89,14.46-3.18,5.9-3.11,9.38-8.86,13.07-14.94,3.07-5.07,6.25-10.32,10.98-13.95,7.43-5.7,17.5-6.47,25.59-7.09.48-.03.87.31.91.78.04.47-.31.87-.78.91-7.87.61-17.66,1.36-24.69,6.75-4.48,3.43-7.57,8.54-10.56,13.48-3.64,6.02-7.41,12.24-13.73,15.56-4.64,2.45-9.96,2.92-15.1,3.37-5.31.47-10.33.91-14.72,3.33-5.45,3-8.72,8.32-12.18,13.96-1.76,2.86-3.58,5.82-5.7,8.43-6.79,8.36-16.86,13.44-26.6,18.35-12.16,6.14-23.65,11.93-29,23.52-2.36,5.12-3.14,10.89-3.9,16.48-.67,4.95-1.36,10.07-3.14,14.84-3.39,9.09-10.33,16.1-17.05,22.88-4.1,4.14-8.35,8.42-11.74,13.14-7.37,10.25-11.56,23.86-12.12,39.36-.5,14.08,1.91,28.36,4.42,41.77.09.46-.22.9-.68.99-.05,0-.11.01-.16.01Z"/></g><g><path class="cls-26" d="m2135.06,1402.15c3.35-2.32,7.3-4.15,9.03-8.23,1.33-3.12.99-7.25-.84-10.39-1.83-3.14-5.08-5.16-8.18-5.09-4.1.1-7.3,3.49-9.67,7.13-4.07,6.23-6.77,13.73-7.82,21.71-.34,2.59-.51,5.22-.87,7.8-11.3-16.18-19.9-31.96-26.4-46.03,2.59-2,5.45-3.55,8.52-4.55,3.81-1.24,8.13-1.85,10.72-5.2,1.98-2.57,2.52-6.57,1.36-10.06-1.16-3.49-3.96-6.33-7.06-7.14-4.1-1.08-7.99,1.22-11.12,3.98-3.12,2.75-5.85,6.05-8.14,9.74-9.88-24.46-12.79-41.18-12.79-41.18,0,0,34.79,2.62,73.92,14.45-3.9,2.02-7.49,4.72-10.62,8.02-2.9,3.06-5.54,7.07-5.3,11.86.18,3.63,2.16,7.27,4.98,9.16,2.82,1.89,6.35,1.95,8.9.15,3.33-2.35,4.58-7.11,6.28-11.2,2.25-5.4,5.71-9.94,9.9-13.35,14.72,5.24,29.54,11.84,42.91,20.16-.87.08-1.75.17-2.61.29-6.92.95-13.48,3.82-18.99,8.32-3.21,2.62-6.25,6.22-6.48,10.96-.17,3.59,1.47,7.42,4.11,9.65,2.65,2.23,6.2,2.75,8.93,1.32,3.57-1.87,5.29-6.39,7.4-10.18,3.82-6.87,9.76-11.83,16.52-14.41,7.58,5.47,14.5,11.58,20.44,18.41,2.31,2.65,4.44,5.38,6.43,8.18-.87-.12-1.74-.23-2.6-.31-7.08-.68-14.13.58-20.4,3.64-3.66,1.78-7.31,4.54-8.34,9.04-.78,3.41.2,7.47,2.47,10.22,2.27,2.75,5.73,4.07,8.71,3.32,3.89-.97,6.38-4.92,9.13-8.08,4.37-5.02,10.12-8.26,16.33-9.6,5.94,10.2,10.07,21.02,12.86,31.88-6.81-2.33-13.92-2.9-20.63-1.61-3.99.77-8.15,2.46-10.03,6.5-1.42,3.05-1.21,7.18.54,10.38,1.74,3.2,4.95,5.34,8.06,5.39,4.06.06,7.29-3.07,10.64-5.38,4.09-2.83,8.8-4.44,13.69-4.9,2.37,12.94,3.03,25.66,2.79,37.16-4.17-.54-8.34-.45-12.37.33-3.99.77-8.15,2.46-10.03,6.5-1.42,3.05-1.21,7.18.54,10.38,1.74,3.2,4.95,5.34,8.06,5.39,4.06.06,7.29-3.07,10.64-5.38.73-.51,1.49-.97,2.26-1.4-1.76,18.97-5.34,31.84-5.34,31.84-19.38-7.27-36.76-15.88-52.35-25.38,2.58-6.66,6.72-12.37,12.1-16.1,3.35-2.31,7.3-4.15,9.03-8.23,1.33-3.12.99-7.25-.84-10.39-1.83-3.14-5.08-5.16-8.18-5.09-4.1.1-7.3,3.49-9.67,7.13-4.07,6.23-6.77,13.73-7.82,21.71-.31,2.36-.48,4.75-.78,7.11-13.53-8.71-25.65-18.09-36.5-27.84,2.39-8.06,6.98-15.06,13.22-19.38,3.35-2.31,7.3-4.15,9.03-8.23,1.33-3.12.99-7.25-.84-10.39-1.83-3.14-5.08-5.16-8.18-5.09-4.1.1-7.3,3.49-9.67,7.13-4.07,6.23-6.77,13.73-7.82,21.71-.41,3.09-.58,6.26-1.1,9.31-13-12.29-24.05-25.06-33.42-37.69,2.35-8.26,6.99-15.46,13.36-19.86Z"/><path class="cls-101" d="m2264.27,1606.08c-.45,0-.83-.36-.84-.81-1.02-25.01-2.26-50.36-3.7-75.34-.54-9.32-2.12-19.36-9.76-23.23-2.31-1.17-5.11-1.69-7.82-2.19-4.57-.85-9.3-1.72-11.82-5.76-3.58-5.74.52-12.97,3.23-17.75,3.01-5.31,4.77-12.18.66-15.52-1.45-1.18-3.33-1.62-5.31-2.1-1.7-.41-3.46-.83-5.03-1.74-4.39-2.57-5.47-7.61-6.52-12.48-.59-2.72-1.19-5.54-2.36-7.89-3.08-6.18-9.62-8.87-16.54-11.71-3.95-1.62-8.03-3.3-11.49-5.69-7.61-5.27-11.8-13.71-15.86-21.88-2.74-5.52-5.57-11.22-9.43-15.92-5.37-6.53-12.78-11.16-19.94-15.63-3.41-2.13-6.95-4.34-10.24-6.73-4.87-3.54-20.51-16.36-17.06-32.53.1-.46.55-.75,1-.65.46.1.75.55.65,1-3.23,15.18,11.74,27.42,16.4,30.81,3.25,2.36,6.75,4.55,10.14,6.66,7.28,4.54,14.81,9.24,20.36,15.99,3.99,4.85,6.86,10.64,9.64,16.24,4.14,8.34,8.05,16.22,15.3,21.24,3.31,2.29,7.31,3.93,11.17,5.52,6.9,2.84,14.04,5.77,17.41,12.52,1.27,2.54,1.9,5.46,2.51,8.29,1.02,4.72,1.98,9.18,5.72,11.38,1.35.79,2.91,1.16,4.57,1.56,2.09.5,4.24,1.01,5.99,2.43,4.93,4.01,3.1,11.75-.25,17.67-3.19,5.63-6.07,11.51-3.26,16.02,2.12,3.41,6.28,4.18,10.69,4.99,2.83.52,5.75,1.06,8.27,2.34,8.41,4.25,10.12,14.84,10.69,24.64,1.44,24.99,2.69,50.35,3.71,75.37.02.47-.34.86-.81.88-.01,0-.02,0-.04,0Z"/></g></g><g><ellipse class="cls-85" cx="2275.47" cy="1727.92" rx="108.72" ry="9.96"/><g><g><path class="cls-30" d="m2335.71,1549.41l-25.75,100.23c-1.21,4.71-5.45,8-10.31,8h-58.05c-4.86,0-9.1-3.29-10.3-8l-25.75-100.23c-1.73-6.73,3.36-13.29,10.31-13.29h109.55c6.95,0,12.03,6.56,10.3,13.29Z"/><path class="cls-76" d="m2276.22,1657.64h-34.62c-4.86,0-9.1-3.29-10.3-8l-25.75-100.23c-1.73-6.73,3.36-13.29,10.31-13.29h12.71c-1.95,8.02-2.11,16.48-.31,24.54,3.19,14.32,12.5,27.17,25.12,34.64,7.25,4.3,16.53,8.16,18,16.45,1.96,11-11.87,19.93-10.55,31.03.88,7.47,8.22,12.21,15.4,14.85Z"/><path class="cls-49" d="m2333.04,1549.94h-124.83c-7.7,0-13.94-6.24-13.94-13.94h0c0-7.7,6.24-13.94,13.94-13.94h124.83c7.7,0,13.94,6.24,13.94,13.94h0c0,7.7-6.24,13.94-13.94,13.94Z"/></g><g><rect class="cls-59" x="2185.38" y="1657.64" width="170.49" height="17.56"/><rect class="cls-59" x="2197.32" y="1675.19" width="15.78" height="49.28"/><rect class="cls-59" x="2328.16" y="1675.19" width="15.78" height="49.28"/></g></g></g></g><g><g><g><g><rect class="cls-68" x="2254.69" y="605.71" width="363.49" height="659.79" rx="6.48" ry="6.48"/><g><path class="cls-54" d="m2618.18,612.19v20.81h-363.49v-20.81c0-3.58,2.9-6.48,6.48-6.48h350.52c3.58,0,6.48,2.9,6.48,6.48Z"/><g><circle class="cls-4" cx="2272.71" cy="619.35" r="6.01"/><circle class="cls-4" cx="2294.36" cy="619.35" r="6.01"/><circle class="cls-4" cx="2316.01" cy="619.35" r="6.01"/></g></g></g><path class="cls-78" d="m2458.61,1247.76h-73.73c-9.26,0-16.77-7.51-16.77-16.77h0c0-9.26,7.51-16.77,16.77-16.77h73.73c9.26,0,16.77,7.51,16.77,16.77h0c0,9.26-7.51,16.77-16.77,16.77Z"/></g><g><rect class="cls-70" x="2233.84" y="673.36" width="312.69" height="74.77" rx="6.07" ry="6.07"/><circle class="cls-68" cx="2274.84" cy="710.74" r="29"/><rect class="cls-68" x="2328.78" y="681.75" width="69.99" height="9.36" rx="4.68" ry="4.68"/><path class="cls-68" d="m2530.88,739.74h-60.63c-2.59,0-4.68-2.1-4.68-4.68h0c0-2.59,2.1-4.68,4.68-4.68h60.63c2.59,0,4.68,2.1,4.68,4.68h0c0,2.59-2.1,4.68-4.68,4.68Z"/><g><path class="cls-68" d="m2530.13,705.98h-201.36c-.87,0-1.58-.71-1.58-1.58s.71-1.58,1.58-1.58h201.36c.87,0,1.58.71,1.58,1.58s-.71,1.58-1.58,1.58Z"/><path class="cls-68" d="m2530.13,718.97h-201.36c-.87,0-1.58-.71-1.58-1.58s.71-1.58,1.58-1.58h201.36c.87,0,1.58.71,1.58,1.58s-.71,1.58-1.58,1.58Z"/></g></g><g><rect class="cls-70" x="2212.34" y="872.39" width="312.69" height="74.77" rx="6.07" ry="6.07"/><circle class="cls-68" cx="2253.33" cy="909.78" r="29" transform="translate(16.67 1859.82) rotate(-45)"/><path class="cls-68" d="m2372.58,890.15h-60.63c-2.59,0-4.68-2.1-4.68-4.68h0c0-2.59,2.1-4.68,4.68-4.68h60.63c2.59,0,4.68,2.1,4.68,4.68h0c0,2.59-2.1,4.68-4.68,4.68Z"/><path class="cls-68" d="m2509.38,938.78h-60.63c-2.59,0-4.68-2.1-4.68-4.68h0c0-2.59,2.1-4.68,4.68-4.68h60.63c2.59,0,4.68,2.1,4.68,4.68h0c0,2.59-2.1,4.68-4.68,4.68Z"/><g><path class="cls-68" d="m2508.63,905.02h-201.36c-.87,0-1.58-.71-1.58-1.58s.71-1.58,1.58-1.58h201.36c.87,0,1.58.71,1.58,1.58s-.71,1.58-1.58,1.58Z"/><path class="cls-68" d="m2508.63,918.01h-201.36c-.87,0-1.58-.71-1.58-1.58s.71-1.58,1.58-1.58h201.36c.87,0,1.58.71,1.58,1.58s-.71,1.58-1.58,1.58Z"/></g></g><g><rect class="cls-1" x="2193.4" y="764.67" width="365.01" height="87.29" rx="6.07" ry="6.07"/><circle class="cls-68" cx="2241.25" cy="808.31" r="33.85"/><rect class="cls-4" x="2304.22" y="774.46" width="81.7" height="10.93" rx="5.22" ry="5.22"/><rect class="cls-4" x="2463.91" y="831.23" width="81.7" height="10.93" rx="5.22" ry="5.22"/><g><path class="cls-4" d="m2539.27,802.75h-235.05c-1.02,0-1.84-.82-1.84-1.84s.82-1.84,1.84-1.84h235.05c1.02,0,1.84.82,1.84,1.84s-.82,1.84-1.84,1.84Z"/><path class="cls-4" d="m2539.27,817.91h-235.05c-1.02,0-1.84-.82-1.84-1.84s.82-1.84,1.84-1.84h235.05c1.02,0,1.84.82,1.84,1.84s-.82,1.84-1.84,1.84Z"/></g></g><rect class="cls-70" x="2276.41" y="980.38" width="320.06" height="149.73" rx="13.36" ry="13.36"/></g><g><path class="cls-85" d="m2164.75,1724.13c0,5.5-75.8,9.95-169.3,9.93-93.5-.02-169.3-4.49-169.3-9.99,0-5.5,75.8-9.95,169.3-9.93,93.5.02,169.3,4.49,169.3,9.99Z"/><g><g><g><g><path class="cls-38" d="m1993.9,1252.68c-7.98,52.54-79.53,438.16-79.53,438.16h-46.59s28.78-373.27,23.2-411.9c-5.58-38.63,6.81-89.81,6.81-89.81l66.34-9.09,1.78-.24,31.99-4.38s3.99,24.72-4,77.27Z"/><path class="cls-11" d="m1965.91,1179.8c-31.01,168.59-55.07,340.33-71.63,511.04h-1.72c16.54-170.62,40.59-342.27,71.57-510.8l1.78-.24Z"/></g><g><path class="cls-82" d="m2083.32,1173.16l-3.57,517.7h-52.03s-32.64-386.35-32.64-386.35c-27.35-52.22-23.67-100.3-27.9-115.27-1.38-4.85.6-10.05,4.84-12.96,14.12-9.71,32.8-12.36,50.82-11.8.58.02,1.16.04,1.74.07,30.69,1.29,58.74,8.62,58.74,8.62Z"/><path class="cls-11" d="m2058.93,1690.86h-1.71c.72-175.62-10.82-352.42-34.38-526.39.58.02,1.16.04,1.74.07,23.54,173.96,35.08,350.72,34.35,526.32Z"/></g></g><path class="cls-40" d="m1867.78,1690.83s-5.16,25.79-3.06,30.52c2.1,4.73,82.31,2.64,95.19,2.65,12.89,0,13.15-4.73,11.57-9.99s-58.59-23.17-58.59-23.17h-45.12Z"/><path class="cls-40" d="m2032.82,1690.86s-5.16,25.79-3.06,30.52c2.1,4.73,82.31,2.64,95.2,2.65,12.89,0,13.15-4.73,11.57-9.99-1.58-5.26-58.59-23.17-58.59-23.17h-45.12Z"/></g><g><g><g><path class="cls-73" d="m1938.17,879.02c.01.36,0,42.38,0,42.38l53.96-4.19v-50.2s-16.35-26.76-24.09-32.51c-7.74-5.75-30.96,15.41-29.86,44.52Z"/><path class="cls-52" d="m2003.82,806.09c1.1-.14,2.01-.92,2.31-1.99,1.37-4.9,2.65-9.85,2.93-14.92.32-5.68-.69-11.61-3.9-16.3-4.3-6.27-11.99-9.53-19.56-10.23-5.29-.49-10.59.11-15.85,1.03-2.65.47-4.32-2.72-2.46-4.67.04-.04.09-.09.13-.13,1.87-1.91.23-5.12-2.41-4.67-12.2,2.06-23.8,7.63-32.85,16.09-.4.37-.9.62-1.44.71-15.42,2.56-29.1,12.85-34.8,27.43-5.8,14.83-3.05,32.68,6.95,45.08,10.67,13.22,20.68,27.36,33.27,38.76.62.56,1.47.81,2.29.68l16.01-2.53c1.27-.2,2.23-1.25,2.32-2.53.94-13.44,4.82-23.69,12.11-35.41,4.08-6.57,9.06-12.59,12.51-19.51,1.8-3.6,3.22-7.5,6-10.42,4.2-4.42,10.34-5.68,16.43-6.46Z"/></g><g><g><path class="cls-25" d="m2005.52,799.73c2.07,3.27,4.17,6.5,4.6,10.34.43,3.85.27,7.78,1.26,11.52,1.77,6.69,6.92,11.85,10.71,17.63,1,1.53,1.95,3.3,1.65,5.11-.26,1.56-1.45,2.85-2.83,3.63s-2.96,1.13-4.51,1.46c0,0,1.13,17.59,2.07,24.38.94,6.79-8.86,5.84-18.67,3.39-9.8-2.45-27.53-5.85-31.11-16.97s0-18.1,0-18.1c0,0-11.5-.38-14.7-10.94-3.2-10.56,10.37-21.49,19.61-3.77l3.02-.38s0-9.24,8.3-16.59c8.3-7.35,5.28-15.27,5.28-15.27,0,0,11.65-1.23,15.32,4.55Z"/><path class="cls-73" d="m1960.57,831.34c-.53-1.14-1.06-2.31-1.24-3.55-.18-1.25.06-2.61.9-3.54.85-.93,2.39-1.26,3.41-.51.74.54,1.05,1.47,1.31,2.35.56,1.81,1.11,3.61,1.67,5.42.26.85.52,1.78.16,2.59-1.62,3.68-5.45-1.1-6.21-2.75Z"/></g><g><path class="cls-4" d="m2000.11,848.59s11.33,4.6,11.49,4.83c.15.23-.61,8.04-.61,8.04,0,0-10.11-5.36-10.87-12.87Z"/><g><path class="cls-52" d="m2003.24,825.97c.24,2.62-.44,4.82-1.51,4.91-1.07.1-2.13-1.95-2.37-4.56-.24-2.62.44-4.82,1.51-4.91,1.07-.1,2.13,1.95,2.37,4.56Z"/><path class="cls-52" d="m2006.59,819.04c-.43.16-.93.05-1.24-.32-1.38-1.63-3.7-2.43-5.79-1.99-2.09.45-3.88,2.13-4.47,4.18-.17.59-.78.92-1.36.76-.59-.17-.93-.78-.76-1.36.8-2.82,3.27-5.12,6.13-5.73,2.86-.61,6.05.48,7.94,2.72.39.47.33,1.16-.13,1.55-.1.08-.2.14-.32.19Z"/></g></g></g></g><g><g><path class="cls-25" d="m1814.41,1033.21s-19.17,20.02-23.96,34.73c-4.79,14.71,97.86,89,101.28,95.84,3.42,6.84,5.45,19.16,5.45,19.16,0,0,16.8-64.67,15.77-63.65-1.03,1.03-18.14,13.69-18.14,13.69l-53.38-63.32,6.85-10.61-33.88-25.84Z"/><path class="cls-53" d="m1890.84,931.11l-80.65,102.1,37.13,32.67s44.37-22.48,60.78-53.97c16.4-31.49,16.59-108.4-17.26-80.8Z"/></g><path class="cls-53" d="m1948.87,898.51c10.1-2.69,20.51-4.76,30.95-4.13,10.43.63,20.98,4.21,28.45,11.52,1.76,1.72,3.44,4,2.99,6.43-.74,4.02-6.12,4.75-10.21,4.6-19.32-.68-38.7.54-57.78,3.61-4.31.69-21.26,6.76-24.49,4.01-3.43-2.92,2.69-10.88,4.59-13.08,6.39-7.4,16.35-10.53,25.5-12.96Z"/><g><g><path class="cls-21" d="m2083.55,1174.84c-.04,2.52-.49,4.97-1.84,7.11-3.73,5.94-12.39,6.91-19.82,7.18-49.17,1.81-98.49,1.44-148.87.36-5.38-.11-10.77-.23-16.17-.36,1.11-26.09,5.72-52.27,13.78-77.76-16.97-39.51-26.34-83.52-29.59-127.5-1.36-18.38-1.06-38.26,9.81-52.76.98-1.3,2.02-2.53,3.1-3.69,14.94-15.88,40.33-19.13,63.33-21.18,16.94-1.51,34.11-3.01,50.97.36,16.76,3.35,33.37,12.2,42.23,26.79,2.57,4.24,4.4,8.76,5.75,13.44,2.17,7.52,3.12,15.44,4.01,23.15,7.97,69.19,15.61,135.48,22.93,199.05.22,1.92.42,3.9.39,5.83Z"/><g class="cls-58"><path class="cls-103" d="m1950.55,1087.42c-23.98,27.97-37.31,65.12-37.53,102.06-5.38-.11-10.77-.23-16.17-.36,1.11-26.09,5.72-52.27,13.78-77.76-16.97-39.51-26.34-83.52-29.59-127.5-1.36-18.38-1.06-38.26,9.81-52.76.98-1.3,2.02-2.53,3.1-3.69-2.9,57.93,17.69,116.91,56.61,160.01Z"/></g></g><g class="cls-64"><path class="cls-106" d="m2083.55,1174.84c-22.07-68.24-44.14-136.46-66.22-204.69,9.22-9.02,18.65-17.34,30.87-21.46,2.59-.87,5.28-1.5,8.01-1.87,2.17,7.52,3.12,15.44,4.01,23.15,7.97,69.19,15.61,135.48,22.93,199.05.22,1.92.42,3.9.39,5.83Z"/></g></g><g><path class="cls-25" d="m2127.34,967.43c3.5-1.38,6.9,3.01,10.35,4.52,18.06-26.56,36.08-52.59,54.14-79.15,6.06-8.92,3.92-21.36,6.41-31.85,17.19-12.01,33.59-24.09,50.78-36.1.88-.61,1.79-1.24,2.84-1.42,1.05-.18,2.29.22,2.73,1.19.57,1.26-.38,2.64-1.27,3.69-6.07,7.13-12.15,14.26-18.22,21.4,0,0,5.29-.41,5.52,6.52.23,6.94,4.97,4.86,4.28,11.68-.69,6.82,3.58,7.28,1.15,13.06-2.43,5.78-.93,7.4-7.75,8.32-6.82.92-16.18,1.96-19.65,7.28-3.47,5.32-40.36,95.94-46.37,107.96-6.01,12.02-13.67,35.74-59.54,16.23,0,0-12.64-42.57,14.61-53.33Z"/><path class="cls-53" d="m2042.49,919.13c-4.42-1.84-8.96-3.03-13.2-2.23-6.69,1.25-11.2,7.6-13.71,13.92-6.07,15.27-4.33,33.41,4.53,47.25,6.02,9.4,14.95,16.65,24.64,22.18,9.69,5.53,20.2,9.46,30.66,13.36,13.08,4.89,26.17,9.77,39.25,14.66-.26-.1,15.19-42.59,16.44-46.07,1.36-3.79,6.29-10.81,3.01-14.65-1.04-1.22-2.53-1.95-3.98-2.65-16.61-7.99-32.94-17.38-49.26-26.25-8.43-4.58-16.93-9.06-25.59-13.2-3.83-1.83-8.25-4.42-12.8-6.32Z"/></g></g></g></g></g></g></g></g></g><g><rect class="cls-94" x="1430.52" y="365.75" width="525.74" height="24.1"/><g><g><path class="cls-94" d="m1512.43,427.67c-8.73-13.94-21.85-21.46-29.32-16.79l-42.4,29.65,31.61,50.49,42.4-29.65c7.46-4.67,6.44-19.76-2.29-33.7Z"/><ellipse class="cls-83" cx="1456.52" cy="465.78" rx="15.94" ry="29.78" transform="translate(-25.2 843.8) rotate(-32.05)"/><path class="cls-65" d="m1470.66,481.28c-.52,1.38-1.33,2.47-2.45,3.17-5.05,3.17-14.37-2.63-20.83-12.95-6.45-10.31-7.59-21.22-2.54-24.39.61-.39,1.29-.64,2.01-.76,5.25-.94,13.13,4.64,18.83,13.7,5.01,8.01,6.82,16.41,4.99,21.22Z"/><path class="cls-39" d="m1470.66,481.28c-5.25.96-13.13-4.62-18.83-13.69-5.03-8.03-6.83-16.43-4.99-21.24,5.25-.94,13.13,4.64,18.83,13.7,5.01,8.01,6.82,16.41,4.99,21.22Z"/><rect class="cls-94" x="1491.4" y="378.87" width="15.17" height="65.57" rx="7.58" ry="7.58"/></g><g><path class="cls-94" d="m1874.36,427.67c8.73-13.94,21.85-21.46,29.32-16.79l42.4,29.65-31.61,50.49-42.4-29.65c-7.46-4.67-6.44-19.76,2.29-33.7Z"/><ellipse class="cls-83" cx="1930.27" cy="465.78" rx="29.78" ry="15.94" transform="translate(511.26 1854.78) rotate(-57.95)"/><path class="cls-65" d="m1916.13,481.28c.52,1.38,1.33,2.47,2.45,3.17,5.05,3.17,14.37-2.63,20.83-12.95,6.45-10.31,7.59-21.22,2.54-24.39-.61-.39-1.29-.64-2.01-.76-5.25-.94-13.13,4.64-18.83,13.7-5.01,8.01-6.82,16.41-4.99,21.22Z"/><path class="cls-39" d="m1916.13,481.28c5.25.96,13.13-4.62,18.83-13.69,5.03-8.03,6.83-16.43,4.99-21.24-5.25-.94-13.13,4.64-18.83,13.7-5.01,8.01-6.82,16.41-4.99,21.22Z"/><rect class="cls-94" x="1880.22" y="378.87" width="15.17" height="65.57" rx="7.58" ry="7.58" transform="translate(3775.61 823.31) rotate(180)"/></g><g><path class="cls-94" d="m1701.75,416c-16.42-1.04-30.18,5.24-30.73,14.03l-.64,51.73,59.45,3.77.64-51.73c.56-8.79-12.3-16.75-28.72-17.8Z"/><ellipse class="cls-83" cx="1700.1" cy="483.64" rx="15.94" ry="29.78" transform="translate(1109.83 2149.72) rotate(-86.37)"/><path class="cls-65" d="m1720.94,481.19c.82,1.22,1.23,2.52,1.15,3.84-.37,5.95-10.52,10.13-22.67,9.37-12.14-.78-21.66-6.21-21.29-12.16.04-.72.23-1.42.56-2.07,2.3-4.81,11.43-7.96,22.11-7.3,9.43.6,17.31,4.04,20.15,8.32Z"/><path class="cls-39" d="m1720.94,481.19c-2.28,4.82-11.41,7.97-22.1,7.31-9.46-.6-17.33-4.03-20.16-8.33,2.3-4.81,11.43-7.96,22.11-7.3,9.43.6,17.31,4.04,20.15,8.32Z"/><rect class="cls-94" x="1692.43" y="378.87" width="15.17" height="65.57" rx="7.58" ry="7.58"/></g></g></g><g><g><path class="cls-39" d="m2138.65,491.68h405.01c0,8.72-7.08,15.81-15.81,15.81h-373.4c-8.72,0-15.81-7.08-15.81-15.81h0Z"/><rect class="cls-94" x="2123.93" y="475.87" width="434.45" height="15.81"/></g><g><rect class="cls-94" x="2238.39" y="407.07" width="3.74" height="68.8"/><rect class="cls-94" x="2440.19" y="407.07" width="3.74" height="68.8"/></g></g><g><g><path class="cls-39" d="m892.52,491.68h405.01c0,8.72-7.08,15.81-15.81,15.81h-373.4c-8.72,0-15.81-7.08-15.81-15.81h0Z"/><rect class="cls-94" x="877.8" y="475.87" width="434.45" height="15.81"/></g><g><rect class="cls-94" x="992.25" y="407.07" width="3.74" height="68.8"/><rect class="cls-94" x="1194.06" y="407.07" width="3.74" height="68.8"/></g></g></g></g></g></g></svg>