<?xml version="1.0" encoding="utf-8"?>
<!-- Generator: Adobe Illustrator 22.1.0, SVG Export Plug-In . SVG Version: 6.00 Build 0)  -->
<svg version="1.1" id="Main" xmlns="http://www.w3.org/2000/svg" xmlns:xlink="http://www.w3.org/1999/xlink" x="0px" y="0px"
	 viewBox="0 0 4680 3120" style="enable-background:new 0 0 4680 3120;" xml:space="preserve">
<style type="text/css">
	.st0{fill:#97BB85;}
	.st1{fill:#7DAA67;}
	.st2{fill:#C6CC92;}
	.st3{fill:#328356;}
	.st4{fill:#266241;}
	.st5{fill:#85C28B;}
	.st6{fill:#253C58;}
	.st7{fill:#567089;}
	.st8{fill:#C98E41;}
	.st9{fill:#976B31;}
	.st10{fill:#F8C571;}
	.st11{fill:#333333;}
	.st12{fill:#CCCCCC;}
	.st13{fill:#F6B74D;}
	.st14{fill:#999999;}
	.st15{fill:#3E3236;}
	.st16{fill:#FCD6B5;}
	.st17{fill:#415467;}
	.st18{fill:#2B3845;}
	.st19{fill:#7E6B5B;}
	.st20{fill:#666666;}
	.st21{fill:#808080;}
	.st22{fill:#A2772B;}
</style>
<g>
	<path class="st0" d="M1341.6,2240.8c0,0,281.5-1068.5,329-1213.4c47.5-144.9,130.6-346.3,228.7-506.2s169.9-201.4,154.8,0
		c0,0,117.1,2.5,146,201.4s-8.8,757-8.8,757s80.6-71.1,146-41.5c65.4,29.6,0,257.4,0,257.4s65.4-41.5,51.6,49.1
		c-13.8,90.6-21.4,108.3-21.4,108.3s90.6-187.6,339.8-71.8s240.4,391.1,240.4,391.1L1341.6,2240.8z"/>
	<path class="st1" d="M2724.9,2075.2c0,0-37.8-76.5-57.9-157s-10.1-94.8,28.9-56.2c0,0-49.2-206.8-39.1-379.3
		c10.1-172.4,54.2-225.3,161.2-128.4c0,0-28.9-95.7-31.5-255.5c-2.5-159.8,85.1-180.8,243.7,0c158.6,180.8,250.6,412.6,347.6,676.2
		s102.7,376.5,102.7,376.5L2724.9,2075.2z"/>
	<path class="st1" d="M2470.3,389.3c71.7-51.9,145.4-68,145.4-68s-17.9-44.4-72.7-14.2C2488.3,337.4,2470.3,389.3,2470.3,389.3z"/>
	<path class="st1" d="M2709.1,862.8c0,0-33-1.9-53.7-37.1c-20.6-35.2,13.8-31.5,26.8-16.4C2695.3,824.5,2709.1,862.8,2709.1,862.8z"
		/>
	<path class="st1" d="M3333.4,1013.3c0,0,6.3-13.4,32.1-42.3s53.5-84.2,26.4-93.7C3364.9,867.9,3336.6,923.3,3333.4,1013.3z"/>
	<path class="st1" d="M2349.5,322.8c0,0,12.6-51.6-44.1-86.8C2248.9,200.8,2308,290.1,2349.5,322.8z"/>
	<path class="st1" d="M1796.3,655.5c-10.9,58.4-39.6-83.1-21.7-99.1C1792.6,540.3,1807.7,595.1,1796.3,655.5z"/>
</g>
<g>
	<path class="st1" d="M2666.7,1362.5c0,0-2.8-15.1-24.9-22.7C2619.8,1332.3,2634.9,1355.6,2666.7,1362.5z"/>
	<path class="st0" d="M2375.9,1561.3c0,0,5.3-11.8,23-17.5C2416.5,1538.1,2412.1,1557.3,2375.9,1561.3z"/>
	<g>
		<path class="st2" d="M3989.8,2616.7c0,0-133.3,6.8-250,12.6c-71.8,3.6-137.4,6.7-161.6,7.6c-38.2,1.4-17.7,26.2,13.7,58.3
			c20.8,21.3,46.5,45.8,63.1,68.8c30,41.9,24.5,70.6,19.2,83.3c-2.1,4.9-4.1,7.4-4.1,7.4s-108.2,10.1-214,15.1
			c-71.2,3.4-92.7,6.8-84.2,10.6c4.1,1.8,15.3,3.7,31.3,5.8c49.1,6.3,69.2,32.7,69.2,32.7s-1220.8,0-1491.5,0
			c-270.6,0-416.6-26.4-439.3-40.3c-22.7-13.8,8.8-31.5,36.5-42.8c27.7-11.3,57.9-20.1,57.9-20.1h-585.2c0,0-12.6-21.4,144.7-26.4
			c157.3-5,245.4-64.2,245.4-64.2H816.8c0,0,61.7-32.7,125.9-47.8c64.2-15.1,319.7-12.6,319.7-12.6s-207.7-34-404-41.5
			s-263-27.7-234.1-47.8c28.9-20.1,203.9-20.1,203.9-20.1s-118.3-212.7-82.4-303.3c35.9-90.6,179.3-129.6,326.6-129.6
			c573.9,0,591.5,0,591.5,0s8.8-61.6,202.3-61.6s620.8,0,620.8,0s-5.7-6.1-25.2-15.2c-19.5-9.1-10.1-23.6,3.4-23.1
			c13.5,0.5,35.6,15.3,35.6,15.3s2.2-13.2,29.3-27.4c27.1-14.1,59.1-11.3,69.5-7.6c10.4,3.8,7.6,11.7-4.4,12.3
			c-11.9,0.6-47.1,0.3-68.2,22.6c1.4-1,24.2-17.9,63.8-19.4c40.9-1.6,52,9.1,48.4,13.8c-3.7,4.7-12.2,1.3-30.5,0.3
			c-18.2-1-53.9,5.6-82.2,26.9c2.1-1.3,20.3-12.7,55.5-20.6c37.4-8.5,74.6,12.9,74.6,12.9h206.1c0,0,416.4,0,502.4,0
			c86,0,128.8,94.1,128.8,94.1s118.3-0.6,181.2,0c62.9,0.6,168.7,322.3,168.7,322.3S3996.1,2441.6,3989.8,2616.7z"/>
		<path class="st1" d="M3734.8,2293.9H881.1c-31.4,0-56.9-5.9-56.9-13.1l0,0c0-7.3,25.5-13.1,56.9-13.1h2609.4
			c31.4,0,149.3,5.9,149.3,13.1l0,0C3639.9,2288,3766.2,2293.9,3734.8,2293.9z"/>
		<path class="st1" d="M2276.8,2451.5H564.2c-18.9,0-34.2-14.9-34.2-33.4l0,0c0-18.4,15.3-33.4,34.2-33.4h1566
			c18.9,0,89.6,14.9,89.6,33.4l0,0C2219.8,2436.6,2295.7,2451.5,2276.8,2451.5z"/>
		<path class="st1" d="M3284,2223.9c-1373,0-1424.2,0-1424.2,0s283.6,1.1,278.4-21.6c-5.2-22.7,121.8-47.9,337.8-53.2
			c216.1-5.3,836.7,0,836.7,0L3284,2223.9z"/>
		<path class="st1" d="M1964.9,2322.6H1710c-4.1,0-7.5-3.4-7.5-7.5l0,0c0-4.1,3.4-7.5,7.5-7.5h254.9c4.1,0,7.5,3.4,7.5,7.5l0,0
			C1972.4,2319.3,1969.1,2322.6,1964.9,2322.6z"/>
		<path class="st1" d="M3075.2,2694.8h-254.9c-4.1,0-7.5-3.4-7.5-7.5l0,0c0-4.1,3.4-7.5,7.5-7.5h254.9c4.1,0,7.5,3.4,7.5,7.5l0,0
			C3082.7,2691.4,3079.3,2694.8,3075.2,2694.8z"/>
		<path class="st1" d="M3674.2,2847.2c-2.1,4.9-4.1,7.4-4.1,7.4s-108.2,10.1-214,15.1c-71.2,3.4-92.7,6.8-84.2,10.6h-1178
			c-9.1,0-16.5-7.4-16.5-16.5c0-4.5,1.9-8.7,4.9-11.7c3-3,7.1-4.9,11.7-4.9H3674.2z"/>
		<path class="st2" d="M4002.4,2614.2c0,0-4.7-54.1,43.4-89.4c48.1-35.2,65.1,0,65.1,0s3.8,22.3-23.6,17.6s-50,16-61.4,49.1
			c0,0,6.6-20.1,37.8-29.9c31.2-9.8,47.4,11.9,47.4,11.9s5.5,17-17.2,12.3c-22.7-4.7-37.8,2.8-63.2,21.7
			C4005.2,2626.5,4002.4,2614.2,4002.4,2614.2z"/>
	</g>
	<path class="st1" d="M3591.9,2695.1h-549.8v-271.7h697.7v205.8c-71.8,3.6-137.4,6.7-161.6,7.6
		C3540,2638.3,3560.5,2663.1,3591.9,2695.1z"/>
	<path class="st3" d="M927.6,2216.2l-146,5.7c0,0-125.9-12.9-96.9-99.8c28.9-86.8,106.1-37.8,106.1-37.8s-2.8-22.7,37.4-27.1
		c40.3-4.4,55.4,64.8,55.4,64.8l180,5L927.6,2216.2z"/>
	<path class="st4" d="M3778.8,2524.9c0,0,82.7-35.2,95.2,52.9c0,0,25.2-15.1,35.2,7.6c0,0,64.2,14.9,71.7,62.8
		c0,0-158.6,11.4-256.8,22.8c-98.2,11.3-130.7,12.1-130.7,12.1S3689.8,2540,3778.8,2524.9z"/>
	<g>
		<path class="st3" d="M3667,2243c0,0,66.7-125.3,121.9-243.8c55.2-118.4,77.1-203.9,83-241.4c5.9-37.5-14.1-21.8-37.9,17.8
			c-23.7,39.6-32.6,52.6-32.6,52.6s-103.4-40.2-156,95.5s-37.6,442.1-37.6,442.1L3667,2243z"/>
		<path class="st5" d="M3787,2365c0,0,42.1-164.9,72.7-318.4c30.6-153.6,31.9-259.3,28.1-304.6c-3.8-45.3-22.7-21.4-39,31.5
			s-23,70.5-23,70.5s-131.8-17.5-154.5,155.5s81.8,525.4,81.8,525.4L3787,2365z"/>
	</g>
	<path class="st4" d="M4006.1,2190.4c-44.4,49.1-224.7,224.7-224.7,224.7l-144.4,236.8l-20.5-6.4c0,0,5.8-21.3,18.6-54.9
		c11.8-31.1,29.6-72.8,54.3-118c17.8-32.7,39.3-67.2,64.6-100.9c98.2-130.3,182.9-175.6,235.9-203.9
		C4043,2139.4,4050.5,2141.3,4006.1,2190.4z"/>
	<g>
		<path class="st4" d="M660.3,2576.9c0,0-14.6-17.9-37.3-28.8c-22.7-10.9-25,18.2-36.8,17.8s-14.2,0-14.2,0s3.8-6,26.4-29.6
			s27.4-24.1,76.5,0S660.3,2576.9,660.3,2576.9z"/>
		<path class="st4" d="M640,2533.5c0,0-26.4-17-51-34.5c-24.5-17.5-32.6,7.6-41.1,11.3c-8.5,3.8-17.9,2.8-17.9,2.8
			s32.1-34.5,47.7-47.7c15.6-13.2,42.5,9.4,101,46.7c58.5,37.3,0,46.7,0,46.7L640,2533.5z"/>
		<path class="st4" d="M774,2234.5c0,0-22.1-35.7-41.7-70.9c-19.6-35.2-43.6-9.6-56.1-9.9c-12.4-0.3-23.3-6.9-23.3-6.9
			s58.5-23.1,84.9-30.1c26.4-7,45.8,35.8,95,114.5c49.2,78.6-26.9,56.4-26.9,56.4L774,2234.5z"/>
		<path class="st4" d="M738.1,2274.1c0,0-18.3-19.9-34.9-39.8s-28.8-0.8-36.7,0.4c-7.9,1.3-15.6-1.6-15.6-1.6s34.3-21.7,50.1-29.2
			c15.9-7.6,33.3,17.2,73.8,61c40.5,43.9-10.2,38.9-10.2,38.9L738.1,2274.1z"/>
		<path class="st3" d="M655.7,2584c0,0-11.3-34.6,12-48.5c0,0-15.7-56,40.9-58.5c0,0-53.5-122.1,44.1-191.3
			c97.5-69.2,174.9-15.7,184.4,47.8c0,0,52.9-20.8,54.7,31.5c0,0,92.5-25.2,131.5,37.8s-3.1,124-3.1,124s35.2-18.3,81.2,5
			s8.8,79.6,8.8,79.6S790.4,2651,655.7,2584z"/>
		<path class="st4" d="M1141.5,2613.6c0,0-25.8-94.4,70.5-139.7c96.3-45.3,127.1,42.2,127.1,42.2s59-13.8,33.6,52.9
			c-25.4,66.7-33,110.8-33,110.8l-28.3,5l-2.5,8.8h-151C1157.9,2693.5,1144.6,2645.1,1141.5,2613.6z"/>
		<path class="st3" d="M1066.7,2809.3c0,0-8.8-15.7,15.1-39.6c23.9-23.9,85.6,6.3,85.6,6.3s-10.1-11-32.4-17.3
			c-22.3-6.3-11.3-17.3,11.6-11c23,6.3,44.1,31.8,51.3,45.6c7.2,13.8-92.5,8.8-68.6,10.4S1168.6,2813.1,1066.7,2809.3z"/>
		<path class="st3" d="M1562.6,2785.1H1285c0,0,34,8.5-3.8,9.8c-37.8,1.2-99.4,0-99.4,0l4.1-9.8c0,0,17.3-0.9,49.1-17.3
			c31.8-16.3,38.1-22,38.1-22s-14.2-5.4-10.1-25.8c3.4-17,21.4-19.4,35.5-16c-5.8-12.9-9-27-9-41.9c0-58.7,50-106.3,111.7-106.3
			c61.7,0,111.7,47.6,111.7,106.3c0,17.1-4.3,33.4-11.8,47.7l9.3,0.2c0,0,32.1,6.9,33.4,46.6c0,0,16.3,6.9,18.9,24.5
			C1565.1,2798.6,1562.6,2785.1,1562.6,2785.1z"/>
		<path class="st4" d="M933.9,2702.3c0,0-47.8-39.6-52.2-103.2c-4.4-63.6,88.7,10.1,113.9,42.2c0,0,5-53.5,75.5-71.7
			c70.5-18.3,110.1,35.9,110.8,112c0,0,15.7-12.6,32.1,0.6c16.4,13.2,13.8,20.1,13.8,20.1H933.9z"/>
	</g>
	<path class="st3" d="M3627.6,2756.8c0,0,34.9-104.8,221.8-257.7c186.9-152.9,232.2-191.9,265.3-236.6c33-44.7,34.9-87.2-90.6-27.7
		c-125.5,59.5-224.7,142.9-288.9,224.4c-64.2,81.5-149.6,277.2-149.6,277.2L3627.6,2756.8z"/>
	<path class="st4" d="M3585.6,2736.3c0,0,29.2-18.8,56.4-38.1c27.2-19.3,36,8.4,45.4,12.5c9.4,4.2,19.8,3.1,19.8,3.1
		s-35.5-38.1-52.8-52.8c-17.2-14.6-47,10.4-111.8,51.7c-64.8,41.3,0,51.7,0,51.7L3585.6,2736.3z"/>
	<path class="st4" d="M3578,2700.8c0,0,20.3-22.9,38.7-45.8c18.4-22.9,32.6-1.5,41.5-0.2c9,1.3,17.6-2.1,17.6-2.1
		s-39.2-23.9-57.3-32.2c-18.1-8.3-37.4,20.1-82.5,70.5c-45.1,50.4,12.3,43.9,12.3,43.9L3578,2700.8z"/>
	<path class="st4" d="M3676.7,2427.3c0,0,15.1-96.4,104.8-206.8c89.7-110.4,136.9-157.7,106.7-71.3
		c-30.2,86.4-211.4,309.8-211.4,309.8V2427.3z"/>
	<path class="st1" d="M2760,2416h-31.3c-1.6,0-3.2,0.2-4.8,0.5c-62.8,14.3-102.6,31-127.7,47.2c-15.8,10.2-11.8,34.3,6.4,38.8
		l364.4,90.8c1.7,0.4,3.4,0.6,5.2,0.6h330.1c25.3,0,29.7-36.1,5.2-42.2l-542.3-135.1C2763.5,2416.2,2761.7,2416,2760,2416z"/>
	<g>
		<path class="st3" d="M1025.1,1630.6c0,0-6.3-34.6-10-56c-3.8-21.4,10.1-14.5,23.3,5c13.2,19.5,14.5,28.3,14.5,28.3
			s34,5.7,54.7,42.2s12.6,58.5,12.6,58.5s66.8,22,91,118.9c24.2,96.9-72.1,218.4-72.1,218.4S1049.6,1768.4,1025.1,1630.6z"/>
		<path class="st5" d="M1032.7,2122.1c0,0-59.8-147.3-110.1-339.8c-50.3-192.6-15.1-256.8,0-248.6c15.1,8.2,42,52.2,42,52.2
			s121.6,22.7,132.9,107.6c11.3,84.9-12.6,134-12.6,134s44.5-10.6,43.1,61.7C1126.6,1961.5,1071.1,2078,1032.7,2122.1z"/>
	</g>
	<path class="st6" d="M2411.8,2222.4c1.2,0,2.3-0.1,3.5-0.3L2411.8,2222.4z"/>
	<path class="st6" d="M2457.5,2159.6c0-31.3-12.6-57.1-28.7-60.4c-1.2-0.3-2.4-0.4-3.7-0.4c-0.9,0-1.8,0.1-2.7,0.2
		c13.4,8.4,23,32.1,23,60.1c0,24-7.1,44.9-17.6,55.6l3.3-0.2l3.8,1.6l-2.4,2.8C2446.9,2212.7,2457.5,2188.5,2457.5,2159.6z"/>
	<path class="st7" d="M2805.6,2165.6c0.1-2.3,0.2-4.6,0.3-6.9c-7.8,1-16.1,1.9-25,2.6c-0.1,2.2-0.3,4.4-0.5,6.6
		C2788.5,2167.2,2796.9,2166.5,2805.6,2165.6z"/>
	<g>
		<path class="st8" d="M1830.3,2642.1c0,0,61.4-40.9,92-32.7c0,0,81.8-40.9,116.6-55.2s24.5-4.1,56.2-15.3
			c31.7-11.2,50.1-20.5,85.9-20.5s255.6,98.2,255.6,98.2s38.9,42.4-100.2,51.9c-139.1,9.5-525.6,0-525.6,0
			S1813.4,2652.3,1830.3,2642.1z"/>
		<path class="st9" d="M2190,2663.3c0,0,25.5-60.4,98.2-68.9c72.7-8.5,135.5,93.5,135.5,93.5l-174.2,4.7L2190,2663.3z"/>
		<path class="st9" d="M2034.2,2702.9c0,0,47.2-30.2,76.5-41.5c29.3-11.3,91.6-9.4,116.1-9.4s83,51,83,51H2034.2z"/>
		<path class="st10" d="M2232.4,2692.6c0,0,70.6-6.6,127.1-11.3c56.5-4.7,71.6-3.8,71.6-3.8s77.2-48.1,193.7,43.5H2207
			C2207,2720.9,2208.8,2705.8,2232.4,2692.6z"/>
	</g>
	<path class="st3" d="M2202,1672c0,0,18.4-10.2,25.9-37.5C2235.4,1607.2,2206.8,1597.7,2202,1672z"/>
	<path class="st4" d="M2251.1,2124.9c0,0,34.9-1.6,55.4,13.3c20.5,15,27.3,26.6-8.9,23.2C2261.5,2158.1,2251.1,2124.9,2251.1,2124.9
		z"/>
	<path class="st4" d="M2076.1,2207.8c0,0-34.1-4.1-58.6,6.1s-19.1,26.6,10.2,17C2057,2221.5,2076.1,2207.8,2076.1,2207.8z"/>
	<g>
		<path class="st4" d="M2436.7,1971.9c0,0,30.7-17,62.7-22.5c32-5.5,55.9,12.3-22.5,75.7c0,0,28.6,1.4,24.5,8.9
			c-4.1,7.5-70.9,49.1-218.2,68.2C2136.1,2121.2,2436.7,1971.9,2436.7,1971.9z"/>
		<path class="st3" d="M2164.9,1968c0,0-4.3-24-44.5-47.2c-40.2-23.2-17.7-15.7-17.7-15.7s-34.1-19.1-51.8-42.3
			c-17.7-23.2,42.3,0.7,63.4,17c0,0-7.1-10.2,9.4,0.7C2140.2,1891.5,2165.8,1927.9,2164.9,1968z"/>
		<path class="st4" d="M2225.4,1803.6c0,0,25.9-20.5,25.2,0c-0.7,20.5-6.5,31.9-6.5,31.9s9.3-1.2,6.6,26.1
			c-2.7,27.3-14.9,73.7-32.7,106.5c-17.9,32.9-45.7,52.7-45.7,52.7s-10.9-134.7-8.3-147.6
			C2166.6,1860.2,2225.4,1803.6,2225.4,1803.6z"/>
		<path class="st3" d="M2171.5,1905.1c0,0-68.9-42.9-97.5-86.6c-28.6-43.6,13.6-34.1,13.6-34.1s-30-42.9-39.5-85.9
			c-9.5-42.9,8.2-36.1,8.2-36.1s-10.2-60.7,12.3-101.6c22.5-40.9,62,2.7,82.5,33.4s24.5,45.7,24.5,45.7s13-8.9,20.5,34.8
			c7.5,43.6,14.3,89.3,14.3,89.3s35.2-43.6,33.6,25.9C2242.4,1859.5,2171.5,1905.1,2171.5,1905.1z"/>
		<path class="st4" d="M2028.3,2171c-20.7-5.4-45.1-12-67.1-19.1c-50.8-16.3-59.7-31.3-47.5-27c12.1,4.4,18.5,6.6-26.4-39.1
			c-1-1-1.9-2-2.8-2.9c-41.8-43.2-32.3-52.9-18.3-48.2c13.9,4.6,48.9,28.4,51,29.9c-0.9-1.1-7.3-9,3.5-4.7
			c3.9,1.6,11.3,5.9,19.2,11.1c2.8,5.2,5.8,10.3,8.9,15.2C1971.7,2122.9,2001.2,2150.8,2028.3,2171z"/>
		<path class="st3" d="M2210.4,2124.9c0,0,4.5-1.6,33.6-59.6c29.1-57.9,62.2-101.6,101.9-144.5c39.7-42.9,76.5-70.9,70.4-37.5
			c0,0,34.8-40.9,67.5-59.3c32.7-18.4,59.3-28,36.8,48.4c-22.5,76.4-128.2,161.2-128.2,161.2s16.4,7.9-7.5,25.6
			C2361,2076.9,2265.6,2121.8,2210.4,2124.9z"/>
		<path class="st3" d="M2186.5,2006c0,0,4.1-12.8,11.6-57.5c7.5-44.7,22.5-31.8,22.5-31.8s17.7-28.6,34.8-46.4
			c17-17.7,18.4-6.8,18.4-6.8s21.1-18.4,45.7-26.6c24.5-8.2,21.8,18.4,14.3,32c-7.5,13.6-13.6,21.1-13.6,21.1s12.3,2-3.4,17.7
			c-15.7,15.7-44.3,40.7-44.3,40.7s12.3,5.7-12.2,22.7C2235.6,1988.3,2186.5,2006,2186.5,2006z"/>
		<path class="st3" d="M2283.3,1835.4c0,0,3.4-17.3,14.3-41c10.9-23.6,24.5-23,22.5-3.2C2318.1,1811.1,2283.3,1835.4,2283.3,1835.4z
			"/>
		<path class="st3" d="M2085.6,1907.6c0,0-10.2-13.9-34.8-14.3C2026.3,1892.9,2037.3,1918.2,2085.6,1907.6z"/>
		<path class="st3" d="M2065.6,2180.2c7.8,10,15.7,19.2,23.3,27.7c-13.7-6.6-36.1-18.6-60.6-36.8c-27.1-20.2-56.6-48.1-79.5-84.9
			c-3.1-4.9-6-10-8.9-15.2c-2.2-4.1-4.3-8.2-6.3-12.4c-27.4-58.1-36.2-105.3-31.9-134.2c4-26.4,19-37.5,40.8-27.4
			c45.7,21.1,72.9,78.4,72.9,78.4c2.1-8.2,26.6-40.2,37.5,12.9c10.9,53.2,7.5,79.1,7.5,79.1c37.5-11.6,31.4,3.4,32.1,65.4
			c0.3,32.8,3.2,51.9,5.8,62.6c-52.4-47-86.5-100.9-86.5-100.9c-7.5-4.9-4.8,5.5,39.7,66.8c1.4,1.9,2.8,3.8,4.3,5.8
			C2058.9,2171.6,2062.2,2176,2065.6,2180.2z"/>
		<path class="st11" d="M2286,2093.4c-44.1,31.4-80.3,50.4-98.2,59.1c4.4,103.6,12.7,303.9,15.5,370.4c0.6,14,0.9,22.1,0.9,22.1
			s-23.9,10.6-44.7,0c0,0-0.3-9.5-0.7-25.2c-1.4-53.1-4.7-176.9-5.5-241.7c0-3.4-0.1-6.7-0.1-9.9c-10.5-8.1-36.1-28.9-64.5-60.3
			c-7.6-8.5-15.5-17.7-23.3-27.7c-3.3-4.2-6.6-8.6-9.9-13.1c-1.5-2-2.9-3.9-4.3-5.8c-44.5-61.3-47.2-71.7-39.7-66.8
			c0,0,34.2,53.9,86.5,100.9c16.8,15.1,35.6,29.5,55.6,41.2c1.9-56.1,8.2-89.1,5.7-142.6c-1.7-36.7-1.6-95.3-1.2-139.9
			c0.1-8.2,0.2-16,0.2-23c0.2-15.9,0.4-28.1,0.5-34.1c0.1-2.6,0.1-4.1,0.1-4.1s-19.1-80.4-30-149.3c-10.9-68.8-5.5-51.6,12.3,23.3
			c9.5,40.2,19.4,74.8,26.6,98.5c6.2,20.4,10.2,32.7,10.2,33.7c0,0.1,0,0.5,0,1.2c0.2,8.4,1.8,57.3,3.4,104.8
			c20.1-33.6,62.1-66.8,62.1-66.8c6-5-7.1,9.4-29.7,35.9c-18.1,21.1-28.3,41.3-31.7,48.6c1,29.2,2.1,55.7,2.8,69.3
			c0.3,5.7,0.9,19.1,1.7,37.8c58.7-23,146.5-80.3,155.1-87.6C2350.8,2034.7,2349.4,2048.3,2286,2093.4z"/>
	</g>
	<path class="st10" d="M1767.4,2325.6c0,7.3-14.4,14-38.7,19.3c-34.5,7.6-88.7,12.5-149.8,12.5c-77.9,0-144.7-7.9-173.4-19.3
		c-9.7-3.8-15-8-15-12.4c0-17.5,84.4-31.8,188.5-31.8C1683,2293.9,1767.4,2308.1,1767.4,2325.6z"/>
	<path class="st9" d="M1767.4,2325.6c0,7.3-14.4,14-38.7,19.3c-26-16.6-59.2-34.3-87.7-38.4c-56.9-8.2-97.3,8.6-97.3,8.6
		s-61.6-3.6-101.9,5.8c-20.2,4.7-30.8,11.5-36.2,17.1c-9.7-3.8-15-8-15-12.4c0-17.5,84.4-31.8,188.5-31.8
		C1683,2293.9,1767.4,2308.1,1767.4,2325.6z"/>
	<path class="st8" d="M1630.2,2367.8c64.6-42.4,70.8-48.4,112.3-48.4c41.5,0,48.1-26.5,89.7,6.2c41.5,32.8,47.2,42.2,47.2,42.2
		H1630.2z"/>
	<path class="st12" d="M3390.3,1733.2c11.5-19.7,16.9-40.9,19.4-56.1c-4.6,6.2-8.5,13.8-11.5,23.3
		C3394.7,1711.9,3392.1,1722.9,3390.3,1733.2z"/>
	<path class="st12" d="M1824.2,1836.5l-10.7,22.5c0.5,0,0.8,0.1,0.8,0.1L1824.2,1836.5z"/>
	<path class="st11" d="M1811.2,1981.9c-2-2.6-3.8-5.1-5.7-7.6c1.5,2.1,3.5,4.7,5.7,7.8C1811.2,1982,1811.2,1982,1811.2,1981.9z"/>
	<path class="st13" d="M1468.5,1302.2c-0.5-0.1-0.7-0.1-0.7-0.1S1468.8,1303.8,1468.5,1302.2z"/>
	<path class="st14" d="M2622.8,2380.1c13.1-17.2,18.1-28.6,26.3-36.9l-62.8,46.7C2597.3,2393.7,2612.1,2394.1,2622.8,2380.1z"/>
</g>
<g>
	<path class="st7" d="M2548.1,2138.9l-32.6,314.6l-0.6,5.6v0c2.7,27.9,87.5,50.3,191.8,50.3s189.1-22.4,191.8-50.3v0l-0.6-5.6
		l-32.6-314.6H2548.1z"/>
	<path class="st6" d="M2565.6,2201.3c-9.6,2.5-24,4.5-31.9-2.3c-0.3-0.2-0.5-0.5-0.8-0.7c-0.1-0.1-0.2-0.2-0.4-0.3
		c-15.9-15-36.9-35.6-55.7-56.3c-35.9-39.6-43.4-40.7-43.4-40.7l-2.4,119.6c0,0,23.6-16.5,32.6-22.3c9-5.8,34.5,32.2,66.5,73.3
		c15.2,19.4,26,29,33.3,33.7c4.1,2.7,7,3.8,8.9,4.2c0,0,0.1,0,0.1,0c0.9,0.2,1.7,0.2,2.6,0.2c16.4,0,29.7-25,29.7-55.7
		c0-30.8-13.3-55.7-29.7-55.7C2575.2,2198.3,2571.2,2199.8,2565.6,2201.3z"/>
	<path class="st6" d="M2422.4,2099c-3.4-2.1-7-3.2-10.7-3.2c-18.6,0-33.7,28.3-33.7,63.3c0,35,15.1,63.3,33.7,63.3l3.5-0.3l0.1,0
		l15.9-1.5l1.4-1.6l2.4-2.8l-3.8-1.6l-3.3,0.2c10.5-10.7,17.6-31.6,17.6-55.6C2445.5,2131.1,2435.8,2107.4,2422.4,2099z"/>
	<path class="st7" d="M2392.8,2159.6c0,31,12.3,56.5,28.2,60.4c14.1-7.5,24.5-32,24.5-60.9c0-28-9.6-51.7-23-60.1
		C2405.8,2101.6,2392.8,2127.8,2392.8,2159.6z"/>
	<path class="st6" d="M2780.6,2116.5c-22.1-1.9-47.3-2.9-74-2.9c-18.8,0-36.8,0.5-53.5,1.5c-0.7,8.4-1,17.1-1,26
		c0,7.4,0.2,14.7,0.7,21.8c16.8,1,34.9,1.5,53.8,1.5c26.8,0,52.1-1.1,74.3-3c8.9-0.8,17.2-1.6,25-2.6c36.2-4.6,59.4-11.8,59.4-19.8
		c0-8-23.5-15.2-60.1-19.9C2797.5,2118.1,2789.3,2117.2,2780.6,2116.5z"/>
	<path class="st6" d="M2619.6,2117.7c-43.1,4.5-71.5,12.3-71.5,21.2c0,8.8,28.1,16.6,70.8,21.1c10.5,1.1,21.9,2.1,34,2.8
		c-0.4-7.1-0.7-14.4-0.7-21.8c0-8.9,0.3-17.5,1-26C2641.2,2115.7,2629.9,2116.6,2619.6,2117.7z"/>
	<path class="st7" d="M2716.8,1992.7c32.1,0,58.7,53.6,63.8,123.8c8.7,0.7,16.9,1.6,24.5,2.6c-6.5-92-45.6-162.7-92.8-162.7
		c-47,0-85.9,70-92.7,161.4c-0.7,9.3-1,18.8-1,28.5c0,4.6,0.1,9.2,0.3,13.8c0.1,2.4,0.2,4.7,0.3,7.1c7.9,1.2,19.2,2.6,34.3,3.5
		c-0.2-2.6-0.4-5.2-0.6-7.8c-0.4-7.1-0.7-14.4-0.7-21.8c0-8.9,0.3-17.5,1-26C2658.4,2045.5,2684.9,1992.7,2716.8,1992.7z"/>
</g>
<g>
	<path class="st15" d="M3553.7,2563.9c0,0-0.6,14.5,8.8,22.7c9.4,8.2,27.7,22.7,66.1,6.9c2.3-0.9,4.5-1.9,6.7-3
		c11.8-31.1,29.6-72.8,54.3-118c0.3-28.9-0.1-60.4-2.4-83.6c-5.7-56-9.4-96.9-34.6-110.8c-25.2-13.8-54.1-15.7-54.1-15.7
		l-54.7,191.3l48.4,67.4C3559.3,2533.7,3553.7,2563.9,3553.7,2563.9z"/>
	<path class="st16" d="M3203.5,2692.5c0.2,4.7,3,10,8.8,14.8c7.9,6.6,21.4,2.3,32.3-2.8c0,0,0,0,0,0c4.7-2.2,9-4.6,12-6.3
		c10.1-5.7,67.3-73.3,67.3-73.3l-10.6-4.1c0,0-31.3,21.4-53.6,33.3c-22.4,12-40.9,22.3-49.9,27.4
		C3205.5,2684,3203.3,2688,3203.5,2692.5z"/>
	<path class="st17" d="M3062.2,2695.5c60.4-2,368.1-144.8,368.1-144.8l120.8-51.6c0,0,68.6-62.9,13.8-200.7
		c-54.8-137.8-591.6,374.9-591.6,374.9S3001.8,2697.5,3062.2,2695.5z"/>
	<path class="st18" d="M3091.5,2592.5c0,0,243.9-94.7,383.6-176.8s10.1-112.3-109.5-80.9S3091.5,2592.5,3091.5,2592.5z"/>
	<path class="st17" d="M3115.1,2207.4l39.4,8.8l19.4,4.3l67.7,15.1l189.7-160.5l-3.6-18.5l-3.7-19l-3.2-16.4
		c0,0-31.7-10.1-81.4-23.4c-62.2-16.7-152.8-38.5-245.2-52.1c-166.1-24.5-241.7-11.3-245.4,37.8c-3.8,49.1,32.1,171.8,69.9,268.1
		c20.4,52,45.4,110.7,64.2,153.8c16,36.8,27.4,62.2,27.4,62.2l136.9-163.1c0,0-5.9-13.2-13.7-30.8c-12.3-27.9-29.2-66.8-34-81.1
		c-0.2-0.5-0.3-1-0.5-1.4C3092.4,2170.6,3115.1,2207.4,3115.1,2207.4z"/>
	<path class="st18" d="M3427.7,2056.7l-3.7-19l-3.2-16.4c0,0-31.7-10.1-81.4-23.4c9.5,21.1,21.2,59.7-2.4,86.9
		C3306.5,2120.1,3407.2,2105.6,3427.7,2056.7z"/>
	<path class="st18" d="M2982.9,2405.5c16,36.8,27.4,62.2,27.4,62.2l136.9-163.1c0,0-5.9-13.2-13.7-30.8
		C3110.5,2304.2,3057.9,2365.5,2982.9,2405.5z"/>
	<path class="st18" d="M3115.1,2207.4l39.4,8.8l19.4,4.3c21.5-11.9,50.2-29.8,84-55.7c75.2-57.6,107.2-113.7,107.2-113.7
		l-144.3-29.8l-135.9,149.7l14.6,21.6c-0.2-0.5-0.3-1-0.5-1.4C3092.4,2170.6,3115.1,2207.4,3115.1,2207.4z"/>
	<path class="st12" d="M2320.9,2494c-48.5,70.5-41.5,132.2-33.4,150.4c8.2,18.3,93.8,44.1,178.7,0c85-44.1,99.4-96.9,99.4-96.9
		l-62.3-58.5l-45.3-91.9C2458.1,2397.1,2369.3,2423.5,2320.9,2494z"/>
	<path class="st18" d="M3241.5,2235.7l189.7-160.5l-7.2-37.4c-21.8,11-51.7,27-92.5,50.3c-90.2,51.5-150.9,103.7-177,128.1
		L3241.5,2235.7z"/>
	<path class="st17" d="M3107.5,2321c-118.3,119.6-193.5,209.2-192.6,248.9c0.9,39.6,23.6,86.6,69.9,109.8
		c46.3,23.3,106.7-87.2,106.7-87.2s149.4-85,221.9-122.7c72.6-37.8,269.9-152,352.9-235c83.1-83.1,14.2-258.6,14.2-258.6l-278.5,99
		C3402,2075.2,3225.8,2201.4,3107.5,2321z"/>
	<path class="st8" d="M3161.6,1905.4c-25.1,42.4-52.2,85.2-77.7,121.6c-54.7,78.3-111.4,113.3-189.7,164.2
		c-78.3,51-146,95-202.6,124.6c-56.6,29.6-54.1,42.8-51,53.5c3.1,10.7,52.9,56.6,69.9,66.1c17,9.4,53.5-34.6,83.1-45.3
		c29.6-10.7,103.2-47.8,210.2-99.4c107-51.6,135.3-96.3,167.4-134c19.8-23.3,70.6-101.9,112.4-176.2c26.1-46.3,48.6-91,57.9-119.6
		c24.2-74.3-9.8-176.7-9.8-176.7l-40.9,9.6c0,0-21.7,7.6-55.7,77.4C3216.8,1808.6,3190.5,1856.7,3161.6,1905.4z"/>
	<path class="st8" d="M3604,2026.1c82.1,8.5,100.1,38.7,100.1,38.7c-28.3-149.1-73.6-163.3-73.6-163.3s-51-167.1-130.3-221.2
		c-17.8-12.1-33.7-20.9-47.8-27.3c-48.6-22-74.4-14.9-74.4-14.9l-29.7,42.7l-16.7,24v151.3c12.6,44.3,52.5,45.4,52.5,45.4
		c23.6,87.8,17.9,173.7,17.9,173.7S3521.9,2017.6,3604,2026.1z"/>
	<g>
		<path class="st16" d="M3008.4,2076.2c54.3,8.9,312.5,58.3,315.1,58.8c0.5,0.1,1.1-0.3,1.2-0.8c0.1-0.6-0.3-1.1-0.8-1.2
			c-2.6-0.5-260.8-49.9-315.2-58.8c-4.9-0.8-8.6,0.5-11.2,3.8c-24.8,32.2,75.1,256.1,79.3,265.6c0.2,0.4,0.5,0.6,0.9,0.6
			c0.1,0,0.3,0,0.4-0.1c0.5-0.2,0.7-0.8,0.5-1.3c-1-2.3-103.6-232.2-79.6-263.5C3001.2,2076.5,3004.2,2075.5,3008.4,2076.2z"/>
	</g>
	<path class="st17" d="M3350,1794.8c0,0-5.1-37.2-5-67.4c-3.5-2.7-8.2-6.5-13.5-10.7v139.4c12.6,44.3,52.5,45.4,52.5,45.4
		c23.6,87.8,17.9,173.7,17.9,173.7s116.1-48.1,198.2-39.6c82.1,8.5,103.8,29.3,103.8,29.3c-28.3-149.1-73.6-163.3-73.6-163.3
		s-51-167.1-130.3-221.2c-17.8-12.1-33.7-20.9-47.8-27.3c-14.1,1.8-30.6,7.7-42.7,24.1c-4.6,6.2-8.5,13.8-11.5,23.3
		c-3.5,11.4-6.1,22.4-7.9,32.8c-8.3,46.6-1.5,79.9-1.5,79.9S3368.5,1815.6,3350,1794.8z"/>
	<path class="st8" d="M3393.2,2625.5c0,0-22.3-6.9-40.3-10.7s-25.8-5-45.9,10.7c0,0,33.2,5.7,57.7,36.8
		c24.5,31.2,16.5,50.5,16.5,50.5s31.2,9.9,50,4.2c18.9-5.7,51.4-28.3,60.9-34.5c9.4-6.1,11.8-14.2,26-52.9
		c14.2-38.7,56.3-151.5,72.1-228.3c15.7-76.8,27.7-155.4,31.5-242.9c1.2-26.5,1.2-56.5,0.1-87.8c-2.5-71.7-11.6-150.3-29.1-209.9
		c-25.2-85.6-67.5-159.1-67.5-159.1s-43.9-39.7-92.1,0c-48.1,39.6-17,145.8-5.7,200.6c7.3,35.4,18.6,85.1,25.4,161
		c3.7,41.4,6.1,90.6,5.7,149.6C3457.7,2380.1,3393.2,2625.5,3393.2,2625.5z"/>
	<path class="st19" d="M3203.5,2692.5c0.2,4.7,3,10,8.8,14.8c7.9,6.6,21.4,2.3,32.3-2.8c0,0,0,0,0,0c23-24.3,43.5-56.6,38.7-52.4
		c-8.3,7.5-53.7,42.6-64.4,47.3C3212,2702.6,3206.5,2696.9,3203.5,2692.5z"/>
	<path class="st16" d="M3209.9,2727.3c-0.1,1.7,0.4,3.3,1.1,5.2c2.2,6.6,19.2,18.6,42.2,1.2c23-17.3,56.9-54.4,67.6-68.3
		c2.5-3.2,5.4-6.4,8.5-9.4c10.3-10.2,22.1-18.6,22.1-18.6s-0.6-22.3-19.2-20.8c0,0-9.8,2.8-32.7,21.4c-23,18.6-55.4,53.2-73.3,69.2
		C3213.4,2718.7,3210.1,2723.3,3209.9,2727.3z"/>
	<path class="st19" d="M3209.9,2727.7c-0.1,1.7,0.4,3.3,1.1,5.2c2.2,6.6,19.2,18.6,42.2,1.2c23-17.3,56.9-54.4,67.6-68.3
		c2.5-3.2,5.4-6.4,8.5-9.4c0.8-9.2-3.7-12-11.2-2.7c-17.2,21.3-60.9,61.8-79.7,74.4C3224.7,2737.3,3214.5,2731.6,3209.9,2727.7z"/>
	<path class="st16" d="M3250,2753.3c0.5,0.7,1,1.4,1.6,2.2c5.4,7.2,27.1,16,50-2.8c12.1-9.9,26.7-28.7,40.3-46.9
		c12.2-16.4,23.6-32.5,31.5-41.5c16.7-18.9-7.6-45.3-36.8-34.9c0,0-6.9,2.8-20.8,28.3c-13.8,25.5-40.6,57.9-55.7,73.9
		C3246.7,2745.9,3246.2,2747.9,3250,2753.3z"/>
	<path class="st19" d="M3251.6,2755.5c5.4,7.2,27.1,16,50-2.8c12.1-9.9,26.7-28.7,40.3-46.9c2.6-14.9,2.9-28.6,2.9-28.6
		s-29.6,46.6-51.9,68.6c-17.3,17-35.5,11.1-42.8,7.6C3250.5,2754,3251,2754.7,3251.6,2755.5z"/>
	<path class="st16" d="M3355.8,2756.8c7.5-19.4,14.8-45.7,30.1-42.6c0,0,0.1,0,0.1,0c3.2,0.7,5.9-1.8,7.8-6.2
		c7.4-16.8,3.4-61-28.3-58.5c0,0-3.8,1.5-8.3,4.4c-4.4,2.9-9.4,7.2-11.9,12.9c-5,11.3-4.7,27.4-16.4,62.9
		c-6.8,20.6-9.8,27.9-9.9,31.7c-0.1,2.7,1.3,3.6,4,6.4C3329.3,2774.4,3348.2,2776.3,3355.8,2756.8z"/>
	<path class="st16" d="M3083.9,2027.1c-54.7,78.3-111.4,113.3-189.7,164.2c-78.3,51-146,95-202.6,124.6
		c-56.6,29.6-54.1,42.8-51,53.5c3.1,10.7,52.9,56.6,69.9,66.1c17,9.4,53.5-34.6,83.1-45.3c29.6-10.7,103.2-47.8,210.2-99.4
		c107-51.6,135.3-96.3,167.4-134c19.8-23.3,70.6-101.9,112.4-176.2c-55.3-56.4-99.3-71.3-121.8-75.1
		C3136.5,1947.8,3109.4,1990.6,3083.9,2027.1z"/>
	<path class="st16" d="M3393.2,2625.5c0,0-22.3-6.9-40.3-10.7s-25.8-5-45.9,10.7c0,0,27,4.6,50.3,28.4c2.5,2.6,5,5.4,7.5,8.5
		c14.9,18.8,17.8,33.4,17.8,41.9c0,5.6-1.2,8.6-1.2,8.6s1.7,0.5,4.6,1.3c9.4,2.5,31,7.2,45.4,2.9c2.9-0.9,6.1-2.2,9.6-3.7
		c18.8-8.6,43.3-25.6,51.3-30.8c9.4-6.1,11.8-14.2,26-52.9c14.2-38.7,56.3-151.5,72.1-228.3c15.7-76.8,27.7-155.4,31.5-242.9
		c1.2-26.5,1.2-56.5,0.1-87.8c-31.3,16.4-100.5,41.7-168.9-7.4c3.7,41.4,6.1,90.6,5.7,149.6
		C3457.7,2380.1,3393.2,2625.5,3393.2,2625.5z"/>
	<path class="st16" d="M2589.3,2334.3c-14.6,31.6-23.1,41.5-17,47.7c2.3,2.3,7.5,5.7,14,7.9c11,3.8,25.8,4.2,36.5-9.8
		c13.1-17.2,18.1-28.6,26.3-36.9c2.4-2.5,5.1-4.6,8.4-6.6c0.7-0.4,1.4-0.8,2.2-1.2c0,0,0.1,0,0.1,0l57-42.4
		c-20.1-2-47.7-4.2-64.7-3.4C2622.8,2290.9,2603.9,2302.7,2589.3,2334.3z"/>
	<path class="st14" d="M2380.6,2563.2c-16.9,17.5-23.7,25.9-20.3,27.1c3.6,1.3,19.2-5.8,46.7-18.9c43.1-20.5,90.5-36.1,120.5-52.9
		l0.6,0.8l9-6.7c2.9-1.9,5.5-3.9,7.8-5.8l283-210.4l-13.2-17.8l-28.1-37.8l-70,52.1l-57,42.4c0,0,0,0-0.1,0l-10.5,7.8
		c-8.3,8.3-13.3,19.7-26.3,36.9c-10.6,14-25.4,13.6-36.5,9.8l-94.6,70.3l-4.8,3.6l0.3,0.4
		C2470.4,2479.1,2410.7,2532.1,2380.6,2563.2z"/>
	<path class="st19" d="M3355.8,2756.8c7.5-19.4,14.8-45.7,30.1-42.6c9.4,2.5,31,7.2,45.4,2.9c2.9-0.9,6.1-2.2,9.6-3.7
		c-23.5,5.7-30.6,1-47-5.4c-0.8-0.3-1.6-0.6-2.5-0.9c-3.3-1.3-6.2-2.2-8.8-2.8c-11.6-2.7-16.5,1.6-21.4,14.6
		c-6,15.9-7.9,36.9-21.7,45.1c-9.2,5.5-16.5,1-20.3-2.6c-0.1,2.7,1.3,3.6,4,6.4C3329.3,2774.4,3348.2,2776.3,3355.8,2756.8z"/>
	<path class="st20" d="M2496.4,2521.1c-28.1,14.6-112.6,57.4-136.1,69.3c3.6,1.3,19.2-5.8,46.7-18.9c43.1-20.5,90.5-36.1,120.5-52.9
		l0.6,0.8l9-6.7c2.9-1.9,5.5-3.9,7.8-5.8l283-210.4l-13.2-17.8l-295.7,211.7C2519.1,2490.2,2529.2,2504.1,2496.4,2521.1z"/>
	<path class="st16" d="M2563.6,2458.1c-5.4,0.2-11.2,1.3-16.5,4.5c-17.3,10.1-12.6,25.5-3.8,28.6c8.8,3.2,20.1,6.6,31.5,9.4
		c8.7,2.2,16.4,3.4,26.1-1.3c3-1.5,6.1-3.5,9.5-6.2c14.5-11.6,14.5-20.1,14.5-20.1l-39-10.4
		C2585.8,2462.6,2575.6,2457.7,2563.6,2458.1z"/>
	<path class="st19" d="M2563.6,2458.1c1,6,5,15.4,18.4,20.7c2.5,0.8,16.8,5.6,33.8,9.3c8.9-9,9-15.2,9-15.2l-39-10.4
		C2585.8,2462.6,2575.6,2457.7,2563.6,2458.1z"/>
	<path class="st16" d="M2608.1,2422.7c-1.5-2-3.1-3.8-4.6-5.2c-16.7-15.8-33.7-1-33.3,5.2c0.5,6.7-0.5,39.2,11.8,47.7
		s74.6,17,91.2,9.8c2.7-1.2,5.2-2.5,7.7-4c13.1-7.8,23.1-19,23.1-19s-35.2,4.4-60.4,1.3C2618.5,2455.3,2626.2,2446.5,2608.1,2422.7z
		"/>
	<path class="st19" d="M2608.1,2422.7c-1.5-2-3.1-3.8-4.6-5.2c-1.4,9.1-2.5,25.7,4.2,40.6c6.5,14.6,46.9,17.7,73.3,18.1
		c13.1-7.8,23.1-19,23.1-19s-35.2,4.4-60.4,1.3C2618.5,2455.3,2626.2,2446.5,2608.1,2422.7z"/>
	<path class="st16" d="M2605.6,2435.2c1.9,19.2,14.5,27.1,31.8,29.9s55.4,5,66.4-2.5c3.9-2.7,9.7-7.2,15.6-12
		c11-8.8,22.3-18.5,22.3-18.5s-38.2,5-63.4-1.3c-25.2-6.3-21.4-10.7-34.9-36.8c-0.3-0.6-0.6-1.1-0.9-1.7
		c-13.7-23.9-37.2-12.4-36.8-7.4C2605.9,2389.9,2603.7,2416,2605.6,2435.2z"/>
	<path class="st19" d="M2643.4,2393.9c-0.3-0.6-0.6-1.1-0.9-1.7c-0.6,9.2-0.9,22.7,1,35.5c2.4,15.7,45.1,21,75.9,22.7
		c11-8.8,22.3-18.5,22.3-18.5s-38.2,5-63.4-1.3C2653.1,2424.5,2656.9,2420.1,2643.4,2393.9z"/>
	<path class="st16" d="M2678,2380.1c-4.1-12-17.6-17-30.8-12.6c-13.2,4.4-4.1,27.2-2.2,46.3s30.2,24.8,57.1,28.1
		c26.9,3.3,33-1.9,49.1-17.9c16-16,43.4-39.2,43.4-39.2c-15.9-39.6-50.4-26.1-50.4-26.1s-48.6,40.3-56,41.6c-7.4,1.4-8-2.9-8-2.9
		S2682.1,2392.1,2678,2380.1z"/>
	<g>
		<path class="st16" d="M3225.4,2437.7c135.8-76.3,227.6-134.2,228.5-134.8c0.5-0.3,0.6-0.9,0.3-1.4c-0.3-0.5-0.9-0.6-1.4-0.3
			c-0.9,0.6-92.7,58.4-228.4,134.7c-136.3,76.6-142.6,124.8-142.8,126.8c0,0.3,0.1,0.6,0.3,0.8c0.2,0.2,0.5,0.3,0.7,0.3
			c0.1,0,12.9,0.3,16.5,7.4c2.3,4.4,0.6,10.7-5,18.6c-0.3,0.5-0.2,1.1,0.2,1.4c0.2,0.1,0.4,0.2,0.6,0.2c0.3,0,0.6-0.2,0.8-0.4
			c6.1-8.6,7.8-15.6,5.2-20.7c-3.5-6.9-13.6-8.2-17.1-8.5C3085.7,2554.3,3101.4,2507.4,3225.4,2437.7z"/>
	</g>
	<g>
		<path class="st16" d="M3521.5,1784.5c20.1,80.4,49.8,302.1,50.1,304.3c0.1,0.5,0.5,0.9,1,0.9c0,0,0.1,0,0.1,0
			c0.6-0.1,0.9-0.6,0.9-1.1c-0.3-2.2-30-224-50.1-304.5c-20.3-81-65.1-97-65.5-97.2c-0.5-0.2-1.1,0.1-1.3,0.6
			c-0.2,0.5,0.1,1.1,0.6,1.3C3457.8,1688.9,3501.5,1704.7,3521.5,1784.5z"/>
	</g>
	<g>
		<path class="st11" d="M3248.7,1950.2c0.2,0.1,0.3,0.1,0.5,0.1c0.4,0,0.7-0.2,0.9-0.5c22.3-40.4,81.5-160.9,82.1-162.1
			c0.2-0.5,0-1.1-0.5-1.4c-0.5-0.2-1.1,0-1.4,0.5c-0.6,1.2-59.8,121.7-82.1,162C3248.1,1949.4,3248.3,1950,3248.7,1950.2z"/>
	</g>
	<g>
		<circle class="st15" cx="3344.1" cy="1327.9" r="110.1"/>
		<path class="st20" d="M3234.3,1396.5c0,0,145.4,81.2,143.5,62.6c-1.9-18.6-9.4-64.2-62-78.3
			C3263.3,1366.6,3234.3,1396.5,3234.3,1396.5z"/>
		<path class="st16" d="M3288.2,1680.4c12.2,11,28.2,24.2,41.1,34.6c0.8,0.6,1.5,1.2,2.2,1.8c5.3,4.3,10,8,13.5,10.7
			c4,3.2,6.5,5.1,6.5,5.1s7.6,46.3,33.5,9c1.9-2.7,3.7-5.5,5.3-8.3c1.8-10.3,4.4-21.3,7.9-32.8c2.9-9.5,6.9-17.1,11.5-23.3
			c2.1-12.3,2.2-20.6,2.2-20.6c-42.5-27.8-58-51.9-58-51.9s-96.3,42-81.6,59.9C3275.6,1668.6,3281.3,1674.1,3288.2,1680.4z"/>
		<path class="st11" d="M3364.9,1637l-76.7,43.3c12.2,11,28.2,24.2,41.1,34.6C3369.4,1677.8,3364.9,1637,3364.9,1637z"/>
		<path class="st16" d="M3215,1496.6c-31.8,16.4-44.5,55.8-28.1,87.7l44.2,86.1c16.4,31.8,55.8,44.5,87.7,28.1l10.9-5.6
			c31.8-16.4,44.5-55.8,28.1-87.7l-44.2-86.1c-16.4-31.8-55.8-44.5-87.7-28.1L3215,1496.6z"/>
		<path class="st15" d="M3353.9,1620.7l18.4,9.4c0,0,20.8-57.6,20.8-125.5s-46.3-124.1-142.5-115.2s-115.4,137.9-66,189.8
			c0,0-12.4-22.2,15.5-66.1c0,0,49.1-11.8,96.8,7.1c0,0-5.2,15.6,10.9,30.7c16,15.1,25.5,30.7,25.5,30.7s-10.3-25.9,3.8-42.9
			C3351,1521.6,3353.9,1620.7,3353.9,1620.7z"/>
		<path class="st16" d="M3358.6,1530.5c-26,0.5-28.4,21-28.4,21s-0.3,3.5-0.5,8.7l21.8,40.7c1-0.4,2.1-0.9,3.3-1.5
			C3385.6,1582.4,3384.6,1530.1,3358.6,1530.5z"/>
		<g>
			<path class="st11" d="M3340,1567.4c0.1,0,5.7-3,9.7-0.6c2.8,1.7,4.2,5.7,4.1,11.9c0,0.4,0.3,0.7,0.7,0.7c0,0,0,0,0,0
				c0.4,0,0.7-0.3,0.7-0.7c0.1-6.7-1.5-11.1-4.8-13.1c-4.7-2.8-10.8,0.4-11.1,0.5c-0.3,0.2-0.5,0.6-0.3,0.9
				C3339.2,1567.4,3339.7,1567.5,3340,1567.4z"/>
		</g>
		<g>
			<path class="st11" d="M3351.1,1545c6.4-2.2,13.4,2,13.5,2.1c0.4,0.3,1,0.1,1.3-0.3c0.3-0.4,0.1-1-0.3-1.3
				c-0.3-0.2-7.8-4.8-15.1-2.2c-4.4,1.5-7.8,5.3-10,11.2c-7.1,19.3,8.2,33,8.4,33.1c0.2,0.2,0.4,0.2,0.6,0.2c0.3,0,0.5-0.1,0.7-0.3
				c0.3-0.4,0.3-1-0.1-1.3c-0.1-0.1-14.5-13-7.8-31.1C3344.2,1549.7,3347.2,1546.3,3351.1,1545z"/>
		</g>
		<path class="st11" d="M3264.7,1589.2c3.1,5.9,8.3,9.3,11.6,7.6s3.5-7.9,0.4-13.9c-3.1-5.9-8.3-9.3-11.6-7.6
			C3261.7,1577.1,3261.6,1583.3,3264.7,1589.2z"/>
		<path class="st11" d="M3209.7,1587c-3.3,1.7-3.5,7.9-0.4,13.9c3.1,5.9,8.3,9.3,11.6,7.6s3.5-7.9,0.4-13.9S3213,1585.3,3209.7,1587
			z"/>
		<g>
			<path class="st11" d="M3238.3,1603.7c-0.5,0-1,0.3-1,0.9c-0.5,6-2.5,36.2,4.3,39.2c2.3,1,5.3,1.3,8.2,1.3
				c5.6,0,10.9-1.2,11.2-1.3c0.5-0.1,0.8-0.6,0.7-1.1c-0.1-0.5-0.6-0.8-1.1-0.7c-0.1,0-12,2.7-18.3,0.1c-4.4-1.9-4.3-23.9-3.2-37.3
				C3239.2,1604.2,3238.8,1603.7,3238.3,1603.7z"/>
		</g>
		<g>
			<path class="st11" d="M3274.6,1666.9c0.1,0,0.2,0,0.3,0c28.1-8.1,32.1-27.7,32.3-28.6c0.1-0.5-0.2-1-0.8-1.1
				c-0.5-0.1-1,0.2-1.1,0.8c0,0.2-4,19.3-31,27.1c-0.5,0.1-0.8,0.7-0.6,1.2C3273.8,1666.7,3274.2,1666.9,3274.6,1666.9z"/>
		</g>
		<g>
			<path class="st11" d="M3258.8,1560c0.2,0.2,0.4,0.3,0.7,0.3c0.2,0,0.5-0.1,0.7-0.3c0.1-0.1,9-8.9,27-13.9
				c0.5-0.1,0.8-0.7,0.7-1.2c-0.1-0.5-0.7-0.8-1.2-0.7c-18.4,5.2-27.4,14-27.8,14.4C3258.4,1559,3258.4,1559.6,3258.8,1560z"/>
		</g>
		<g>
			<path class="st11" d="M3194.9,1567.9c-0.5,0.2-0.7,0.7-0.5,1.2c0.2,0.5,0.7,0.7,1.2,0.5c0.1,0,12.2-4.5,27.2,0c0.1,0,0.2,0,0.3,0
				c0.4,0,0.8-0.3,0.9-0.7c0.2-0.5-0.1-1-0.6-1.2C3207.7,1563.1,3195.5,1567.7,3194.9,1567.9z"/>
		</g>
	</g>
</g>
<g>
	<path class="st15" d="M1032.7,2066.7c0,0-83.1,30.2-138.8,171.8c0,0,69.9,49.1,152,90.6c82.1,41.5,171.8,64.2,249.2,34l16-8.5
		c0,0,12.3-17.9-8.5-44.4c-20.8-26.4-146.3-137.8-146.3-137.8l29.6-27.9L1032.7,2066.7z"/>
	<path class="st12" d="M1173.3,2156.4l50-47.2l-164.2-72.7l-26.4,30.2C1032.7,2066.7,1095.9,2123.4,1173.3,2156.4z"/>
	<path class="st12" d="M1644.4,1793.9c59.1,54.7,159.2,64.2,169.1,65.1l10.7-22.5l0-0.1l7-16l-166.1-63.2L1644.4,1793.9z"/>
	<path class="st17" d="M1713.1,1592.7c-8.7,13.5-24.1,30.5-45.1,46.4c-42.5,32.1-19.8,41.5-57.6,78.8s48.1,62.8,48.1,62.8
		s12.3,11.3,57.6,30.2c45.3,18.9,119.9,25.5,119.9,25.5s93.5-256.8,104.8-313.4s36.8-151-105.7-168s-317.7-6.6-317.7-6.6
		c-39.6-53.8-164.7-47.2-164.7-47.2l22,65.1l62.2,184.6l5.6,16.5c0,0,7.7-0.1,20.6-0.2c62-0.6,243.2-2.1,254.1,0.2
		c6.7,1.4,4.9,11.5-3.9,25.2C1713.1,1592.6,1713.1,1592.7,1713.1,1592.7z"/>
	<path class="st18" d="M1749.6,1519.1c6-24.9-29.8-24-79.3-22.8c-49.6,1.2-228,2.2-228,2.2s-6.6-10-11.8-28.9
		c-5.2-18.9,73.6-40.6,167.4-41.8c0.5,0,1,0,1.5,0c-2.1-6.9-4.3-14.1-6.4-21.2h-235.5c5.6,35.8,28.5,86.8,37.3,107.5
		c3.9,9.1,20.4,22.5,42,36.7c8.1,5.4,17,10.9,26.1,16.3c62-0.6,243.2-2.1,254.1,0.2c6.7,1.4,4.9,11.5-3.9,25.2
		C1729.7,1569.7,1744.2,1540.7,1749.6,1519.1z"/>
	<path class="st17" d="M1158.8,1840.2c-58.2,44.4-52.5,59.5-65.7,85c-13.2,25.5-60.4,17.9-67,52.9c-6.6,34.9,22.7,73.6,22.7,73.6
		l148.2,95.3c0,0,136.9-95.3,247.3-205.8c110.4-110.4,110.4-171.8,86.8-257.7c-23.6-85.9-117.1-266.2-117.1-266.2
		s30.2-8.5,17.9-63.2c-12.3-54.7-20.8-65.1-20.8-65.1s-197.3,32.7-244.5,99.4c0,0-28.9,47.8,23.9,166.1s87.5,169.6,74.3,192.3
		C1251.7,1769.4,1217,1795.8,1158.8,1840.2z"/>
	<path class="st21" d="M1497.6,1610.8L1497.6,1610.8c84.1,0,152.3-70.1,152.3-156.6v-53.8h-304.6v53.8
		C1345.3,1540.6,1413.5,1610.8,1497.6,1610.8z M1397.2,1444.1H1603v14c0,56.3-44.4,101.9-99.1,101.9h-7.6
		c-54.7,0-99.1-45.6-99.1-101.9V1444.1z"/>
	<path class="st12" d="M1550,2315c48-27.6,71.2-92.4,82.1-158c14.8-89.3,6.6-179.9,6.6-179.9h-298.3
		C1302.6,2332.9,1550,2315,1550,2315z"/>
	<path class="st21" d="M1500.9,2156.4c0,0,17-103.8,17-179.4v-399.3h-47.2V1977C1470.7,1977,1472.6,2107.3,1500.9,2156.4z"/>
	<path class="st14" d="M1632,2157c14.8-89.3,6.6-179.9,6.6-179.9h-92.2C1553.3,2006.5,1574.6,2078.2,1632,2157z"/>
	<path class="st14" d="M1220.8,1640.7l40.3,85.6l17,4.4c58.5-50.3,119.6-61.7,119.6-61.7l-49.7-104.5
		C1229,1588.4,1220.8,1640.7,1220.8,1640.7z"/>
	<path class="st18" d="M1205.1,1622.4l21.1,38.4c1.3-3.1,2.7-6.1,4.3-9c34.1-63.1,130.6-80.3,130.6-80.3l-15.1-37.8
		C1222,1573.5,1205.1,1622.4,1205.1,1622.4z"/>
	<path class="st15" d="M1644.4,1793.9c0,0-66.1,43.4-107.6,146.3c0,0,5.7,32.1,88.7,96.3c66.4,51.3,106.3,73.7,142.3,84.9h0
		c54.4,20.2,113.1,8.9,113.1,8.9c10.7-23.9,4.6-34.6,4.6-34.6s-28-31.6-42.7-62.1c-9.1-18.8-22.5-38.8-31.5-51.5
		c-2.2-3.1-4.1-5.8-5.7-7.8c-0.7-0.9-1.2-1.6-1.7-2.3c-0.2-0.3-0.5-0.6-0.7-0.9c0,0,0,0,0,0c-0.2-0.3-0.4-0.5-0.5-0.7
		c-0.2-0.2-0.3-0.4-0.4-0.5c-0.3-0.4-0.5-0.6-0.5-0.6c-14.6-19.2-25.1-32.8-25.1-32.8l36.9-77.5
		C1803.5,1858.2,1703.5,1848.6,1644.4,1793.9z"/>
	<g>
		<path d="M1251.8,1478c-0.5,0.2-0.7,0.7-0.5,1.2c7.2,18.7,19.2,49.8,31.1,80.8c0.1,0.4,0.5,0.6,0.9,0.6c0.1,0,0.2,0,0.3-0.1
			c0.5-0.2,0.7-0.7,0.5-1.2c-11.9-30.9-23.9-62-31.1-80.8C1252.8,1478.1,1252.3,1477.8,1251.8,1478z"/>
	</g>
	<g>
		<path d="M1148,1965.8c-1.9,1.1-3.9,2.2-5.9,3.2c-32.6,18-66.4,36.6-79.6,88c-0.1,0.5,0.2,1,0.7,1.1c0.1,0,0.2,0,0.2,0
			c0.4,0,0.8-0.3,0.9-0.7c13-50.6,46.3-69,78.6-86.8c2-1.1,3.9-2.2,5.9-3.2c35.9-19.9,208.7-164.5,210.7-194
			c1.4-21.2-10.7-52.5-22.2-80.2c0,0,0,0,0,0l0-0.1l0,0c-0.2-0.4-0.8-0.7-1.2-0.5c-0.7,0.3-0.7,0.7-0.4,1.4l0,0
			c0.1,0.1,0.1,0.3,0.2,0.4c0,0.1,0.1,0.2,0.1,0.3c0.3,0.7,0.7,1.8,0.9,2.2c0,0,0,0,0,0.1l0.1,0.3c11,26.7,22,56.1,20.7,76.1
			C1355.8,1802.2,1180.1,1948,1148,1965.8z"/>
	</g>
	<g>
		<path d="M1307.7,1814.9c-35.2,32.2-117.1,104-147.8,126.4c-7.2,5.3-17.1,10.5-27.5,16c-34.1,18.1-76.6,40.7-80.5,88.5
			c0,0.5,0.3,1,0.9,1c0,0,0.1,0,0.1,0c0.5,0,0.9-0.4,0.9-0.9c3.8-46.8,45.8-69.1,79.5-87c10.5-5.6,20.4-10.8,27.7-16.2
			c30.8-22.4,112.7-94.3,148-126.6c36.3-33.2,40.1-45.7,33.6-68.9c-3.8-13.6-8-24.5-16.1-44.7c-0.2-0.5-0.7-0.7-1.2-0.5
			c-0.5,0.2-0.7,0.7-0.5,1.2c8,20.1,12.3,31,16,44.5C1347.1,1770.6,1343.5,1782.2,1307.7,1814.9z"/>
	</g>
	<g>
		<path d="M1234.3,1467.7c-0.5,0.2-0.7,0.7-0.5,1.2c0,0,16.1,41.9,37,96.3c0.1,0.4,0.5,0.6,0.9,0.6c0.1,0,0.2,0,0.3-0.1
			c0.5-0.2,0.7-0.7,0.5-1.2c-20.9-54.4-37-96.3-37-96.3C1235.4,1467.8,1234.8,1467.6,1234.3,1467.7z"/>
	</g>
	<g>
		<path d="M1679.9,1777.7c-0.1,0.5,0.3,1,0.8,1.1c0,0,0.1,0,0.1,0c0.5,0,0.9-0.3,0.9-0.8c5.7-35.8,33.4-76.1,73.4-125.4
			c44.4-54.8,62.7-95.3,57.5-127.2c-5.4-33.1-27.2-52.4-58.2-51.8c-28,0.6-103.7,0.1-104.5,0c0,0,0,0,0,0c-0.5,0-0.9,0.4-0.9,0.9
			c0,0.5,0.4,0.9,0.9,1c0.8,0,76.5,0.6,104.5,0c30.1-0.7,51.1,18.1,56.3,50.2c5.1,31.4-13,71.3-57.1,125.7
			C1713.6,1701,1685.7,1741.5,1679.9,1777.7z"/>
	</g>
	<g>
		<path d="M1715.3,1679.8c-23,30.5-46.7,65.5-48,93.7c0,0.5,0.4,1,0.9,1c0,0,0,0,0,0c0.5,0,0.9-0.4,0.9-0.9
			c1.3-27.7,24.8-62.4,47.6-92.6c3.9-5.1,8.7-11.1,14.2-18.1c27.9-34.9,70.1-87.7,69-122.2c-1.1-35.3-19.2-53.1-53.8-53.1h-96.8
			c-0.5,0-0.9,0.4-0.9,0.9c0,0.5,0.4,0.9,0.9,0.9h96.8c33.4,0,50.9,17.3,51.9,51.3c1,33.8-40.9,86.2-68.6,121
			C1724,1668.6,1719.2,1674.6,1715.3,1679.8z"/>
	</g>
	<g>
		<path class="st12" d="M1298.5,2330.8c-1.3,0.6-2.6,1.2-3.9,1.9c-13.1,6.6-33,16.7-125.8,2.4c-98.2-15.1-183-67.2-188.8-70.8
			c-5.2-18.5-11.9-28.5-20.1-29.8c-8.5-1.4-15.5,7.1-17.5,9.7c-17.8-10.6-37.9-27.6-38.1-27.8c-0.4-0.3-1-0.3-1.3,0.1
			c-0.3,0.4-0.3,1,0.1,1.3c0.2,0.2,21,17.8,39.2,28.4c0.4,0.2,1,0.1,1.3-0.3c0.1-0.1,7.5-11,16.1-9.6c7.3,1.2,13.8,11.2,18.7,28.8
			c0.1,0.2,0.2,0.4,0.4,0.5c0.9,0.6,88.2,55.7,189.8,71.2c34.6,5.3,59.2,7.3,77.1,7.3c30.4,0,41.5-5.6,49.9-9.8
			c1.3-0.7,2.6-1.3,3.9-1.9c0.5-0.2,0.7-0.8,0.5-1.3C1299.5,2330.8,1299,2330.6,1298.5,2330.8z"/>
	</g>
	<g>
		<path class="st12" d="M1865.1,2097.3c-24.4,5-72.6,9.4-120.2-16.9c-40.2-22.2-116.4-74.9-122.3-79c-2.5-22.5-8-35-16.2-37.3
			c-8.5-2.3-16.9,7-19.4,9.9c-30.4-31.8-41.2-52.8-41.3-53c-0.2-0.5-0.8-0.7-1.3-0.4c-0.5,0.2-0.7,0.8-0.4,1.3
			c0.1,0.2,11.2,21.8,42.4,54.2c0.2,0.2,0.5,0.3,0.7,0.3c0.3,0,0.5-0.2,0.7-0.4c0.1-0.1,9.4-12.5,18-10.1c7.4,2,12.5,14.5,14.9,36.1
			c0,0.3,0.2,0.5,0.4,0.7c0.8,0.6,81.1,56.3,122.8,79.3c29.5,16.3,59.1,20.9,83.3,20.9c15.4,0,28.6-1.9,38.1-3.8
			c0.5-0.1,0.8-0.6,0.7-1.1C1866.1,2097.5,1865.6,2097.2,1865.1,2097.3z"/>
	</g>
	<g>
		<path class="st16" d="M1652.2,1431c8.7-4.7,27.9-20,55.8-70.3c12.2-22,21.9-42.5,29.6-61.5v0c16.8-41.8,23.5-76.3,23.9-104
			c0.6-40.3-32.1-76.1-108.2-129.4c-76.2-53.2-156-87.4-156-87.4c17.1,74.1-12.8,150.6-12.8,150.6s13.7,8.5,47.7,28.3
			c34,19.8,71.7,53.3,71.7,53.3s-0.5,5.2-14.2,43c-2.3,6.3-5.2,13.7-8.6,21.8c-0.6,1.4-1.2,2.7-1.7,4.1c0,0,0,0,0,0
			c-17,40.2-42.5,93-42.5,93s-26.9,7.6-40.6,18.4c-13.7,10.9-12.3,77.9,5.7,93.9c14.2,12.7,43.3,12.1,58.6,11.1
			c1.4-0.1,2.7-0.2,3.8-0.3c2.2-0.2,3.9-0.3,5-0.4c1-0.1,2-0.3,2.8-0.6c0,0,0,0,0,0c5.4-2,7.5-8.3,7.5-8.3s6.6,1.4,11.8-10.4
			c5.2-11.8,8-49.6,24.5-55.2c16.5-5.7,30.8-3.4,30.8-3.4v15.7C1646.9,1433,1648.7,1432.8,1652.2,1431z"/>
		<path class="st13" d="M1532.3,1065.7c1.3-32.5-13.8-92.8-78-100.3c-64.2-7.6-146-3.1-146-3.1s-51,20.7-93.5,138.7
			s-33,219.9-33,219.9s-96.3,101.9,91.6,36.8c187.8-65.1,243.9-9.4,243.9-9.4c-7.5-38.3-43.3-45.3-48.8-46.2
			c0.2,1.6-0.7-0.1-0.7-0.1s0.2,0,0.7,0.1c-0.3-2-2.4-9.4-10.5-32.2c-14.5-40.9,6.3-58.5,24.2-88.7
			C1500.2,1151.1,1531.1,1098.2,1532.3,1065.7z"/>
		<path class="st8" d="M1222.3,1119.1c0,0-19.7,49.6-27.2,132.1s59.2,76.8,61.7,80.6s0-83.6,7.6-138.7c7.6-55.1,7.6-55.1,7.6-55.1
			s-27.2-1.3-31.2-21.8C1236.5,1095.6,1222.3,1119.1,1222.3,1119.1z"/>
		<path class="st20" d="M1377.6,983.5c-4.6,26.9,9.1,76.5,47.8,93.5c38.7,17,59.9-4.7,66.1-19.4c6.1-14.6,5.7-56.6,5.7-56.6
			l-92.9-39.2C1404.3,961.8,1382.2,956.6,1377.6,983.5z"/>
		<path class="st16" d="M1302,1115.8c0,0,0.5,0.1,1.5,0.1h0c16.6-14.3,34-37.7,43.7-75.6c11.9-46.2-6.9-67.8-27.4-77.9
			c-45,2.8-99.9,9.4-162.7,23.5C976,1026.5,946.8,1051,957.2,1118c5.6,35.7,24.7,80.5,51,124.9c5.3,9,11,18,16.9,26.9l0,0l0,0
			c19.5,29.5,41.8,58,64.8,82.6c57.5,61.5,90.8,71.4,121.1,90.5c0,0,0,0,0,0c2.3,1.5,4.6,3,6.9,4.6c1.2,0.8,2.3,1.6,3.5,2.5
			c3,2.2,5.8,4.2,8.5,6l0,0c1,0.7,2,1.4,2.9,2c7.2,4.9,13.3,8.4,18.9,10.9c13.8,6.2,23.9,5.6,37.7,1.2c22-6.9,51.6-23.3,51.6-23.3
			s0-29.6,28.3-26.4c2.9,0.3,5.6,1.3,8.1,2.9l0,0c22,13.8,29.6,70,29.6,70s11.3,9.4,40.3,4.4c19.9-3.5,24.3-4.2,25.2-4.4
			c0.1,0.4,1.1,5.5,13.8,5.9c13.2,0.4,13.2-24.8,5.7-61.3c-7.6-36.5-15.7-52.9-78.7-66.7c-62.9-13.9-112-3.8-130.3-27.7
			c-14.8-19.4-94.5-135-124.5-178.5h0c-7.1-10.3-11.4-16.6-11.4-16.6s32.7-15.1,93.8-23.9C1302,1115.8,1302,1115.8,1302,1115.8z"/>
		<path class="st13" d="M1241,1124.6c61.1-8.8,61.1-8.8,61.1-8.8s0.5,0.1,1.5,0.1h0c1.8-1.5,3.5-3.1,5.3-4.9
			c14.9-14.6,29.7-36.8,38.4-70.8c11.9-46.2-6.9-67.8-27.4-77.9c-45,2.8-99.9,9.4-162.7,23.5c-29.5,6.6-55,12.8-76.9,18.8
			c-112.8,30.9-131.9,57.2-123.2,113.4c3.1,20.1,10.5,43,21.1,67.1c12,27.5,28.2,56.5,46.8,84.7c-0.7-1.7-22.5-53.3,42.5-94.2
			c20.1-12.7,43.4-15.9,66.1-14.1c8.5,0.6,16.8,1.9,24.9,3.7c0,0,0,0-0.1-0.1c-7.1-10.2-11.3-16.5-11.3-16.5s0.2-0.1,0.5-0.2
			C1152.1,1146.4,1184.4,1132.8,1241,1124.6z"/>
		<path class="st8" d="M1308.8,1110.7c0,0-8.6-22.6-68.2-15.7c-59.5,6.9-127.4,31.4-127.4,31.4l20.5,35.1c8.5,0.6,16.8,1.9,24.9,3.7
			c0,0,0,0-0.1-0.1c-7.1-10.2-11.3-16.5-11.3-16.5s0.2-0.1,0.5-0.2c4.4-1.9,36.6-15.5,93.2-23.7c0.8-0.1,1.5-0.2,2.2-0.3
			c4.5,2.8,12.4,5.8,25.5,6.3c25.8,1,40.2-17.4,40.2-17.4l-2.4,0.2c0.8-0.7,1.6-1.5,2.4-2.3
			C1308.8,1110.9,1308.8,1110.7,1308.8,1110.7z"/>
		<path class="st13" d="M1584.6,1263.4c-1.1,2.8-2.3,5.7-3.6,8.7c0.7-1.4,1.7-3.1,2.9-5c0.7-1,1.5-2.1,2.4-3.3
			c8.6-10.9,27-25.5,64.1-28.9c5.7-0.5,11.8-0.8,18.4-0.8c36.5,0.3,57,30.2,68.6,61.8c0,0,0,0,0,0c13.9-34.5,20.8-64.1,23.1-88.9
			c0.5-5.2,0.7-10.3,0.8-15.1c0.6-40.3-32.1-76.1-108.2-129.4c-76.2-53.2-156-87.4-156-87.4c17.1,74.1-12.8,150.6-12.8,150.6
			s6.8,4.2,22.7,13.6v0c6.7,3.9,14.9,8.8,25,14.7c34,19.8,71.7,53.3,71.7,53.3s-0.5,5.2-14.2,43
			C1588.2,1254.3,1586.5,1258.7,1584.6,1263.4z"/>
		<path class="st8" d="M1507,1139.4L1507,1139.4c6.7,4,14.9,8.8,25,14.7c31.1,18.1,65.3,47.7,70.9,52.6c12.4-5.1,25.2-9.3,36.8-11.3
			c-0.9-1.1-1.9-2.2-3-3.3c-46.7-48.1-104.4-72.7-104.4-72.7c15.1-72.8-10.2-95.7-11.5-96.8
			C1546.1,1062.3,1507.1,1139.3,1507,1139.4C1507.1,1139.3,1507.1,1139.3,1507,1139.4z"/>
		<path class="st19" d="M1150.3,1379.5c-69.2-62.3-130.9-154.8-130.9-154.8s-4.9,7.4-11.3,18.2c5.3,9,11,18,16.9,26.9l0,0l0,0
			c19.5,29.5,41.8,58,64.8,82.6c57.5,61.5,90.8,71.4,121.1,90.5c0,0,0,0,0,0c2.3,1.5,4.6,3,6.9,4.6
			C1205.8,1435.9,1190.7,1415.9,1150.3,1379.5z"/>
		<path class="st22" d="M1067.6,1175.6c27.7-17.4,61.3-16.9,91-10.5c0,0,0,0-0.1-0.1c-0.6-0.9-5.1-7.8-10.8-16.7
			c-7.8-12.1-17.9-28-23.8-38.2c-10.7-18.2-69.9-3.1-105.1,20.8c-15.6,10.6-33.3,31.1-40.6,54.2c-9.2,29-1.9,62.1,46.8,84.7
			C1024.4,1268.1,1002.6,1216.5,1067.6,1175.6z"/>
		<path class="st22" d="M1701.3,1173.2c-56.6-13.6-91.9,23.9-91.9,23.9l-27.7,76.4c8.5-12.5,30.7-33.4,85-32.9
			c36.5,0.3,57,30.2,68.6,61.8c0,0,0,0,0,0c1-0.8,34-25,34.6-46.7c0.3-10.5-2.4-26.7-11.5-42.2
			C1748.4,1196.5,1730.8,1180.3,1701.3,1173.2z"/>
		<g>
			<path class="st15" d="M1295.2,1122c-25,18.9-52.8,0.9-53.1,0.7c-0.4-0.3-1-0.2-1.3,0.3c-0.3,0.4-0.2,1,0.3,1.3
				c0.2,0.1,12.7,8.2,28.7,8.2c8.4,0,17.7-2.2,26.6-9c25.8-19.5,50.1-45.3,52.6-101.4c2.5-55.6-35.1-60.7-35.4-60.8
				c-0.5-0.1-1,0.3-1,0.8c-0.1,0.5,0.3,1,0.8,1c1.5,0.2,36.2,5,33.8,58.8C1344.5,1077.3,1320.6,1102.8,1295.2,1122z"/>
		</g>
		<g>
			<path class="st15" d="M1147.4,1147.5c-0.5,0.2-0.7,0.8-0.5,1.2c0.2,0.4,0.5,0.6,0.9,0.6c0.1,0,0.2,0,0.4-0.1
				c0.6-0.2,56.2-23.5,124.9-28.2c0.5,0,0.9-0.5,0.9-1c0-0.5-0.5-0.9-1-0.9C1203.9,1123.9,1147.9,1147.2,1147.4,1147.5z"/>
		</g>
		<g>
			<path class="st15" d="M1246,1127.1c-0.2,0.5-17.6,55.3-23.7,131.4c0,0.5,0.3,1,0.9,1c0,0,0.1,0,0.1,0c0.5,0,0.9-0.4,0.9-0.9
				c6.1-75.9,23.5-130.5,23.6-131c0.2-0.5-0.1-1-0.6-1.2C1246.7,1126.3,1246.2,1126.6,1246,1127.1z"/>
		</g>
		<g>
			<path class="st15" d="M1505.8,1139.7c0.1,0.1,0.3,0.1,0.4,0.1c0.3,0,0.7-0.2,0.8-0.5c41.8-81.4,16.4-116.4,15.3-117.8
				c-0.3-0.4-0.9-0.5-1.3-0.2c-0.4,0.3-0.5,0.9-0.2,1.3c0.3,0.3,25.7,35.5-15.5,115.8C1505.1,1138.9,1505.3,1139.5,1505.8,1139.7z"
				/>
		</g>
		<g>
			<path class="st15" d="M975.5,1049.7c-0.4-0.4-1-0.4-1.3,0c-1.2,1.1-28.2,28.6,23.8,100.1c0.2,0.3,0.5,0.4,0.8,0.4
				c0.2,0,0.4-0.1,0.6-0.2c0.4-0.3,0.5-0.9,0.2-1.3c-51-70-24.3-97.4-24-97.7C975.8,1050.7,975.8,1050.1,975.5,1049.7z"/>
		</g>
		<g>
			<path class="st15" d="M1024.7,1220.1c0,0-4,1.4-11.5-6.1c-8-8-29.3-38-29.5-38.3c-0.3-0.4-0.9-0.5-1.3-0.2
				c-0.4,0.3-0.5,0.9-0.2,1.3c0.9,1.2,21.5,30.4,29.7,38.5c5.8,5.8,9.8,6.8,11.9,6.8c1,0,1.5-0.2,1.7-0.3c0.5-0.2,0.7-0.7,0.5-1.2
				C1025.8,1220.1,1025.2,1219.9,1024.7,1220.1z"/>
		</g>
		<g>
			<path class="st16" d="M1437.6,875.7c0,0-9.1,53.9-46.2,106.1c0,0-2.5,69.2,56.6,83.1c0,0,30.8,10.1,40.3-37.8
				c0,0,6.7-9.4,14-26.1c5.2-11.8,10.7-27.3,14.4-45.7c1.3-6.6,0.5-13-2-19.2C1501,901.4,1437.6,875.7,1437.6,875.7z"/>
			<path class="st11" d="M1502.3,1001c5.2-11.8,10.7-27.3,14.4-45.7c1.3-6.6,0.5-13-2-19.2l-72.9-21.7
				C1441.8,914.4,1445.4,978.4,1502.3,1001z"/>
			<path class="st16" d="M1542.9,747.3c-32.4-8.2-65.6,11.6-73.7,44l-25.8,102.3c-8.2,32.4,11.6,65.6,44,73.7l3.1,0.8
				c32.4,8.2,65.6-11.6,73.7-44l25.8-102.3c8.2-32.4-11.6-65.6-44-73.7L1542.9,747.3z"/>
			<path class="st16" d="M1529.6,733.2c-37.1-12.2-77.5,8.1-89.7,45.2l-3,9.2c-12.2,37.1,8.1,77.5,45.2,89.7l15.1,5
				c37.1,12.2,77.5-8.1,89.7-45.2l3-9.2c12.2-37.1-8.1-77.5-45.2-89.7L1529.6,733.2z"/>
			<path class="st15" d="M1548.1,807.8c15.6,24.9,86.4,31.8,94.4-17.8c8-49.6-49.1-50-49.1-50c-23.6-59.9-90.6-22.7-90.6-22.7
				s-27.8-16-86.4,16c-58.5,32.1-39.2,76.5-17.5,113.4c21.7,37,29.5,62.4,29.5,62.4l18.1-28l5.9-23.4c34.4-25.5,30.1-45.3,30.1-45.3
				C1521.2,845.7,1548.1,807.8,1548.1,807.8z"/>
			<path class="st16" d="M1448.4,881.2l10.7-42.3c0,0-0.7-19.2-17.6-25.8C1424.4,806.5,1387.9,847.3,1448.4,881.2z"/>
			<g>
				<path class="st11" d="M1437.3,840.6c-3.9,1.2-6.9,4.9-8.7,10.9c-0.2,0.5,0.1,1,0.6,1.2c0.1,0,0.2,0,0.3,0c0.4,0,0.8-0.3,0.9-0.7
					c1.7-5.4,4.2-8.6,7.5-9.7c4.8-1.5,9.8,2.2,9.8,2.2c0.4,0.3,1,0.2,1.3-0.2c0.3-0.4,0.2-1-0.2-1.3
					C1448.6,843,1443,838.8,1437.3,840.6z"/>
			</g>
			<path class="st11" d="M1592.8,853.6c-3.6-0.5-7.2-0.2-10.6,0.9c-1.3,0.4-2.6,1-3.9,1.6c-5.6,2.9-10.4,7.8-13.5,14.1
				c-0.9-1.1-2-1.9-3.4-2.5c-3.4-1.4-7.2-0.5-9.6,0.3c-2.5-12.4-11.8-22.4-24.2-24.3c-12.1-1.8-23.8,4.7-29.9,15.5c0,0,0,0,0,0
				l-37.9-31.8c0.4,1.7,0.7,3.6,0.9,5.7l35.2,29.6c-1.1,2.6-1.9,5.5-2.4,8.4c-1.3,8.4,0.6,16.8,5.2,23.7
				c4.6,6.9,11.5,11.3,19.4,12.4c1.3,0.2,2.7,0.3,4,0.3c14.6,0,27.5-11.6,29.9-27.7c0.4-2.7,0.5-5.4,0.3-8c1.7-0.7,5-1.7,7.6-0.7
				c1.3,0.5,2.3,1.6,3,3.3c-0.7,2.1-1.3,4.4-1.6,6.8c-2.6,17.5,7.3,33.5,22,35.7c1.1,0.2,2.3,0.2,3.4,0.2c6.7,0,13.1-3,18.2-7.9
				c5-5,8.7-12,9.9-20C1617.4,871.8,1607.5,855.8,1592.8,853.6z M1548.4,879.5c-2.3,15.4-15.6,26.3-29.7,24.2
				c-6.8-1-12.7-4.9-16.8-10.8c-4.1-6-5.7-13.5-4.6-21c0.5-3.1,1.3-5.9,2.6-8.6c0-0.1,0.1-0.2,0.1-0.3c4.5-9.4,13.6-15.6,23.5-15.6
				c1.2,0,2.3,0.1,3.5,0.3c12.7,1.9,21.7,13.6,21.7,27.2C1548.7,876.4,1548.6,877.9,1548.4,879.5z M1589.4,857.1
				c0.9,0,1.9,0.1,2.9,0.2c9.9,1.5,17.2,10.3,18.9,21.4l-25.4-21.3C1586.9,857.3,1588.1,857.1,1589.4,857.1z M1611.1,888.8
				c-2.3,15.4-14.5,26.5-27.2,24.6c-12.7-1.9-21.2-16-18.9-31.4c0.3-2.3,0.9-4.5,1.6-6.6c0-0.1,0.1-0.2,0.1-0.3
				c2.8-7.7,8.3-13.6,14.7-16.3l29.8,25c0.1,0.1,0.2,0.1,0.3,0.2C1611.4,885.6,1611.3,887.2,1611.1,888.8z"/>
			<g>
				<path class="st11" d="M1538.6,929.9c0,0.5,0.4,0.9,0.9,0.9c0,0,0,0,0.1,0c19.7-1.3,23.8-6.1,24-6.3l0.2-0.3l-1.6-42.9
					c0-0.5-0.5-1-1-0.9c-0.5,0-0.9,0.5-0.9,1l1.6,42.1c-1.1,0.9-6.2,4.4-22.4,5.4C1539,929,1538.6,929.4,1538.6,929.9z"/>
			</g>
			<g>
				<path class="st11" d="M1493.9,931.4c-0.4-0.3-1-0.3-1.3,0.1c-0.3,0.4-0.3,1,0.1,1.3c16,14.2,36.6,17.8,36.8,17.9
					c0.1,0,0.1,0,0.2,0c0.5,0,0.9-0.3,0.9-0.8c0.1-0.5-0.3-1-0.8-1.1C1529.5,948.8,1509.5,945.3,1493.9,931.4z"/>
			</g>
			<path class="st11" d="M1517.2,873.4c-1.8,4.3-1,8.7,1.8,9.9c2.8,1.2,6.6-1.2,8.5-5.5c1.8-4.3,1-8.7-1.8-9.9
				C1522.9,866.7,1519.1,869.2,1517.2,873.4z"/>
			<path class="st11" d="M1562.6,883.9c-1.8,4.3-1.3,8.6,1.1,9.7c2.5,1.1,6-1.5,7.8-5.8c1.8-4.3,1.3-8.6-1.1-9.7
				C1567.9,877,1564.4,879.6,1562.6,883.9z"/>
			<g>
				<path class="st11" d="M1441.2,862c0.2,0.2,0.4,0.3,0.7,0.3c0.2,0,0.5-0.1,0.7-0.3c0.4-0.4,9.7-10.3,5.8-25.4
					c-1.2-4.6-3.5-7.9-6.8-9.5c-5.6-2.9-12.1-0.3-12.4-0.2c-0.5,0.2-0.7,0.7-0.5,1.2c0.2,0.5,0.7,0.7,1.2,0.5c0.1,0,6-2.3,10.8,0.2
					c2.8,1.4,4.8,4.2,5.8,8.3c3.6,14.1-5.3,23.6-5.3,23.7C1440.8,861,1440.8,861.6,1441.2,862z"/>
			</g>
		</g>
	</g>
</g>
</svg>
